<?xml version="1.0" standalone="no"?>
<!DOCTYPE svg PUBLIC "-//W3C//DTD SVG 1.1//EN" "http://www.w3.org/Graphics/SVG/1.1/DTD/svg11.dtd" >
<svg xmlns="http://www.w3.org/2000/svg">
<metadata>
This is a custom SVG webfont generated by Font Squirrel.
Designer    : Robert Slimbach
Foundry URL : http://www.adobe.com/type
</metadata>
<defs>
<font id="webfontELYBlO5Q" horiz-adv-x="529" >
<font-face units-per-em="1000" ascent="735" descent="-265" />
<missing-glyph horiz-adv-x="229" />
<glyph unicode=" "  horiz-adv-x="229" />
<glyph unicode="&#x09;" horiz-adv-x="229" />
<glyph unicode="&#xa0;" horiz-adv-x="229" />
<glyph unicode="!" horiz-adv-x="258" d="M145 223l-38 -14q47 319 51 356l-8 49q17 13 68 26q48 13 91 13h6l5 -9q-23 -63 -175 -421zM106 145h8q11 -9 27 -36t20 -44l-1 -7q-7 -16 -37.5 -42.5t-47.5 -32.5h-7q-14 11 -30.5 36.5t-23.5 47.5l2 4q38 51 90 74z" />
<glyph unicode="&#x22;" horiz-adv-x="370" d="M165 426l-42 -18q32 170 35 212l-9 35q50 29 120 36l11 -4q-9 -27 -49 -119.5t-66 -141.5zM338 431l-42 -18q3 21 17 98.5t17 113.5l-9 34q49 29 120 37l11 -6q-8 -25 -48 -116t-66 -143z" />
<glyph unicode="#" d="M372 398h-111l-48 -125h111zM155 478h95l59 156l45 5l-62 -161h111l59 156l45 5l-62 -161h96l-42 -81l-85 1l-49 -125h96l-41 -79l-83 1l-67 -174l-44 -6l68 180h-110l-68 -174l-44 -6l69 180l-107 -1l42 79h94l49 125h-105z" />
<glyph unicode="$" d="M359 636l26 92l36 5l-29 -103q38 -11 64 -37q33 19 78 31l8 -5q-7 -27 -29.5 -83.5t-37.5 -79.5l-17 -5q-15 58 -18 106q-22 25 -60 35l-62 -220q47 -29 72.5 -48.5t49.5 -56.5t24 -81q0 -65 -41 -110.5t-97 -62.5q-45 -14 -91 -14q-11 0 -22 1l-28 -98l-39 -9l31 109 q-56 9 -102 33.5t-72 51.5q2 14 26 57t42 65l15 4q6 -33 15 -143q24 -20 86 -31l68 231q-46 29 -72 49t-49 56t-23 79q0 63 35.5 108t91.5 64q39 12 83 12q18 0 38 -2zM288 389l60 209q-8 1 -16 1q-47 0 -80 -25q-40 -30 -40 -85q0 -29 17.5 -51.5t58.5 -48.5zM284 253 l-61 -216q62 1 97.5 32t35.5 78q0 61 -72 106z" />
<glyph unicode="%" horiz-adv-x="794" d="M314 655q54 0 85.5 -35t31.5 -98q0 -84 -58.5 -154t-146.5 -70q-52 0 -85 34q-34 34 -34 97q0 79 59 152q59 74 148 74zM310 622q-34 0 -62 -44.5t-41 -95.5t-13 -86q0 -28 10 -47.5t27 -19.5q31 0 58.5 45t41.5 98t14 89q0 61 -35 61zM690 664l29 -27l-574 -677l-28 30z M627 344q53 0 84.5 -35t31.5 -97q0 -84 -58.5 -154t-146.5 -70q-52 0 -85 34q-34 34 -34 97q0 79 59 151q59 74 149 74zM623 311q-33 0 -61.5 -44.5t-42 -95.5t-13.5 -85q0 -28 10 -47.5t27 -19.5q45 0 80 84.5t35 146.5q0 61 -35 61z" />
<glyph unicode="&#x26;" horiz-adv-x="733" d="M351 191l-16 28q80 104 208 104q74 0 114 -4q60 52 71 59l22 -20q-45 -67 -82 -139q-26 8 -77 15q-17 -87 -68 -145t-111 -80.5t-128 -22.5q-109 0 -174 55t-65 141q0 137 185 194v2q-25 14 -41.5 42t-16.5 63q0 74 64.5 123t165.5 49q44 0 85.5 -14.5t62.5 -35.5 q-2 -15 -22 -53t-35 -52l-23 -6q-13 36 -20 115q-15 6 -38 6q-55 0 -90.5 -32t-35.5 -86q0 -78 109 -105l-20 -36q-12 3 -34 3q-70 -1 -118 -40.5t-48 -106.5q0 -64 43.5 -105.5t118.5 -41.5q77 0 135.5 47.5t76.5 125.5q-33 3 -60 3q-80 0 -138 -50z" />
<glyph unicode="'" horiz-adv-x="198" d="M165 426l-42 -18q30 149 35 212l-10 34q49 30 120 37l12 -4q-8 -26 -48.5 -118.5t-66.5 -142.5z" />
<glyph unicode="(" horiz-adv-x="320" d="M400 721l17 -24q-125 -88 -202.5 -242t-77.5 -338q0 -160 58 -276l-26 -18q-122 135 -121 341q2 176 97.5 327.5t254.5 229.5z" />
<glyph unicode=")" horiz-adv-x="323" d="M-42 -177l-18 24q124 83 201.5 241.5t77.5 335.5q0 165 -59 281l28 16q54 -60 87 -150q32 -87 32 -185v-6q-2 -176 -94 -327t-255 -230z" />
<glyph unicode="*" horiz-adv-x="389" d="M279 471l7 4l100 -46l23 -5q-3 -20 -23 -43.5t-37 -28.5l-9 22zM261 504l-13 -5l-98 45l-26 4q2 20 23 46t39 30l9 -23zM252 488l-3 -13l-91 -64l-17 -19q-12 8 -23 42q-8 22 -8 36q0 8 2 13l22 -5zM285 489l3 12l90 68l16 17q14 -12 26 -46q9 -27 9 -41q0 -4 -1 -7 l-25 6zM282 511l-12 -2l-11 118l-5 22q5 3 17 3t31 -3q37 -6 45 -17l-15 -18zM260 465l9 4l13 -117l8 -28q-5 -1 -12 -1q-15 0 -40 5q-35 6 -46 16l18 22z" />
<glyph unicode="+" horiz-adv-x="628" d="M355 -9l-71 -10v223h-199l10 62h189v192l71 11v-203h199l-10 -62h-189v-213z" />
<glyph unicode="," horiz-adv-x="239" d="M-29 -136l-19 28q46 27 77 66.5t31 80.5q0 19 -9 35l-41 26l1 16l86 55h17q14 -8 27 -31.5t13 -58.5q0 -74 -49.5 -130t-133.5 -87z" />
<glyph unicode="-" horiz-adv-x="365" d="M286 226l-249 -33l43 86l53 -2l202 13l2 -8z" />
<glyph unicode="." horiz-adv-x="239" d="M99 149h8q11 -9 27 -37t20 -45l-1 -8q-8 -16 -38.5 -43t-46.5 -33h-7q-13 11 -30 37t-24 49l2 4q40 55 90 76z" />
<glyph unicode="/" horiz-adv-x="392" d="M41 -38h-66l443 711h65z" />
<glyph unicode="0" d="M361 655q80 0 125 -59.5t45 -166.5q0 -67 -18.5 -140.5t-54 -142.5t-97 -114t-138.5 -45q-78 0 -127 57.5t-49 170.5q0 68 20.5 142.5t58 142t99.5 111.5t136 44zM358 619q-49 0 -96 -83.5t-73.5 -193t-26.5 -195.5q0 -123 64 -123q52 0 99 92t70.5 201t23.5 184 q0 118 -61 118z" />
<glyph unicode="1" d="M313 567h-120l10 24q8 2 45 12l90 25l94 27h12q-131 -506 -150 -600l119 -30l-13 -26q-29 0 -87.5 0.5t-87.5 0.5q-31 0 -95 -0.5t-95 -0.5l12 26l120 30q28 76 146 512z" />
<glyph unicode="2" d="M6 15l45 63q15 5 28 13q110 74 204 176q98 107 98 212q0 61 -28.5 92.5t-78.5 31.5q-32 0 -62 -15q-19 -88 -47 -141l-17 -8q-11 19 -25 59t-15 60q43 41 102 69t120 28q78 0 128.5 -45t50.5 -129q0 -70 -49.5 -131t-160.5 -145q-97 -73 -161 -116l-1 -2l246 5q5 4 19 18 l32 32l32 29l20 -21q-35 -95 -77 -155q-16 0 -106 2.5t-141 2.5h-159z" />
<glyph unicode="3" d="M173 478l-16 -7q-6 12 -19 47.5t-17 57.5q105 79 210 79q70 0 117.5 -36.5t48.5 -101.5q0 -116 -195 -167l-1 -4q172 -24 172 -154q1 -91 -81.5 -148t-198.5 -57q-56 0 -108.5 19t-81.5 45q9 23 32 61.5t36 51.5l17 6q12 -38 21 -133q25 -9 60 -9q75 0 124.5 48t49.5 119 q0 57 -29.5 89t-74.5 34q-48 -10 -91 -15l-5 10q5 14 19 31t25 24q13 -1 34 -3t28 -2q63 20 94 57q30 37 30 82q0 53 -28 80q-27 27 -75 27q-28 0 -50 -11q-29 -91 -47 -120z" />
<glyph unicode="4" d="M389 198l-34 -144l81 -29l-10 -26q-24 0 -71.5 0.5t-70.5 0.5q-26 0 -76.5 -0.5t-75.5 -0.5l9 26l94 29q17 47 42 141l-245 -2l-15 31q55 77 196 232.5t170 175.5q31 15 123 23l-106 -417h42q40 40 69 57l14 1q-3 -16 -24 -75.5t-29 -73.5l-16 -6q-13 25 -22 58zM288 240 l101 343h-5q-105 -115 -159.5 -180.5t-123.5 -157.5q72 -5 187 -5z" />
<glyph unicode="5" d="M104 349l-6 12q15 50 104 282q85 -3 161 -3q38 0 73 1q18 0 83 27l13 -21q-39 -54 -79 -85q-17 -12 -48 -15q-57 -5 -186 -5q-52 -119 -55 -127q41 -10 117 -35q101 -31 143 -71q43 -41 43 -110q0 -89 -74 -150q-75 -62 -188 -62q-55 0 -107.5 21.5t-77.5 45.5 q8 24 30.5 60t36.5 52l16 4q4 -15 21 -131q25 -10 62 -10q71 0 116 42q45 41 45 99q0 49 -33 81q-32 31 -103 59q-42 17 -107 39z" />
<glyph unicode="6" d="M530 665l11 -31q-111 -26 -197 -87q-123 -87 -159 -215l2 -2q81 59 154 59q62 0 107.5 -43t45.5 -127q0 -94 -69.5 -163t-179.5 -69q-92 0 -147.5 60t-55.5 167q0 89 41.5 175.5t129.5 154.5q70 56 159 87t158 34zM250 23q51 0 88 60q36 58 36 124q0 64 -27 93 q-26 28 -65 28q-60 0 -107 -44q-16 -38 -16 -107q0 -72 24.5 -113t66.5 -41z" />
<glyph unicode="7" d="M96 -14l-7 12q28 57 189 254q132 160 228 292l1 2q-33 1 -148 1q-121 0 -155 -2q-40 -61 -56 -81l-27 -7q18 122 33 191q60 -6 74 -6q256 0 369 1l-10 -42q-13 -42 -185.5 -278t-184.5 -267l-13 -56z" />
<glyph unicode="8" d="M359 345v-2q30 -24 42 -35t32.5 -34t29 -47.5t8.5 -53.5q0 -75 -65.5 -130.5t-171.5 -55.5q-92 0 -149 45q-58 47 -58 113q0 53 39 91t136 84v2q-85 67 -85 146q0 82 61.5 134.5t150.5 52.5q79 0 128 -42.5t49 -105.5q0 -29 -10.5 -52.5t-35.5 -44.5t-44 -32.5t-57 -32.5 zM320 619q-45 0 -74 -33.5t-29 -76.5q0 -41 28.5 -74t82.5 -69q37 23 60.5 60t23.5 83t-24.5 78t-67.5 32zM247 23q50 0 82 33.5t32 82.5q0 41 -33 78t-94 81q-99 -64 -99 -155q1 -53 32.5 -86.5t79.5 -33.5z" />
<glyph unicode="9" d="M338 655q91 0 143 -61.5t52 -166.5q0 -203 -182 -339q-66 -50 -142 -77t-139 -34l-13 28q98 34 179 93q109 80 155 195l-1 2q-66 -47 -133 -47t-116 45t-49 130q0 91 71 161.5t175 70.5zM333 619q-53 0 -87 -55.5t-34 -126.5q0 -64 30.5 -96.5t72.5 -32.5q54 0 84 31 q21 59 21 129q0 151 -87 151z" />
<glyph unicode=":" horiz-adv-x="239" d="M101 149h7q11 -9 27.5 -37.5t19.5 -44.5l-1 -7q-8 -17 -38.5 -44t-46.5 -33h-7q-14 11 -30.5 37t-23.5 49l2 3q21 29 47 49.5t44 27.5zM168 437h7q11 -9 27.5 -37t20.5 -45l-1 -7q-8 -17 -38 -44t-47 -34h-7q-14 12 -30.5 38.5t-23.5 48.5l2 3q40 56 90 77z" />
<glyph unicode=";" horiz-adv-x="239" d="M163 437h7q11 -9 27.5 -37t20.5 -45l-1 -8q-8 -16 -38.5 -43t-46.5 -33h-7q-14 11 -30.5 37t-23.5 49l1 4q21 29 47.5 49t43.5 27zM-29 -135l-19 28q46 26 77 66t31 81q0 21 -8 35l-42 26l1 16l86 55h17q14 -8 27 -31.5t13 -58.5q0 -74 -49.5 -130t-133.5 -87z" />
<glyph unicode="&#x3c;" horiz-adv-x="610" d="M69 194l5 74l422 208l-8 -72l-358 -173v-2l366 -176l-8 -69z" />
<glyph unicode="=" horiz-adv-x="628" d="M547 175l-11 -62h-450l11 62h450zM547 358l-11 -62h-450l11 62h450z" />
<glyph unicode="&#x3e;" horiz-adv-x="610" d="M540 268l-5 -74l-422 -209l9 72l350 173v3l-359 173l9 70z" />
<glyph unicode="?" horiz-adv-x="429" d="M182 481l-16 -6q-24 47 -30 109q91 62 177 62q61 0 105.5 -34t44.5 -98q0 -45 -25 -76t-75 -65l-49 -33l-36 -26q-22 -17 -31 -28t-10 -20q-1 -8 -1 -16q0 -14 4 -29l-26 -14q-24 8 -48 43q-18 27 -18 58q0 8 1 16q25 41 122 112q5 4 16.5 12t16.5 12l13 10q9 7 13 11 l10 11q6 6 9 10.5t6.5 11t4.5 12.5t1 13q0 27 -22 46t-58 19q-18 0 -37 -7q-30 -71 -62 -116zM192 145h7q11 -8 27.5 -36t19.5 -44v-7q-9 -16 -39 -42.5t-46 -32.5h-7q-14 11 -30.5 36.5t-23.5 47.5l2 4q21 28 47.5 48t42.5 26z" />
<glyph unicode="@" horiz-adv-x="830" d="M503 358q-43 0 -89 -45q-41 -40 -69.5 -98t-28.5 -106q0 -27 16 -27q19 0 58 31t80 87q48 63 74 140q-15 18 -41 18zM649 407l4 -5l-32 -55q-47 -143 -75 -266q-4 -15 4 -15q76 0 129.5 62.5t53.5 161.5q0 111 -71 176t-185 65q-161 0 -255.5 -104.5t-94.5 -254.5 q0 -141 83.5 -219t211.5 -78q167 0 297 127l20 -29q-141 -154 -344 -154q-158 0 -252 93t-94 250q0 174 124 292t311 118q136 0 222.5 -74.5t86.5 -203.5q0 -123 -89 -200q-86 -74 -206 -74h-9q-28 0 -43 5q6 20 26 80.5t24 73.5h-5q-51 -72 -110 -115.5t-102 -43.5 q-27 0 -42 22t-15 59q0 61 39 133.5t107 117.5q68 47 125 47q40 0 64 -25l8 21z" />
<glyph unicode="A" horiz-adv-x="690" d="M396 634l111 49l4 -8q-7 -21 -7 -50q0 -10 1 -20q9 -130 52 -508q5 -31 18 -41.5t66 -29.5l-8 -27q-22 0 -66 1t-67 1q-20 0 -59 -1t-58 -1l6 23l48 29q0 14 -2 39.5t-6 67t-6 73.5q-60 -6 -164 -6h-55l-101 -166l84 -34l-8 -26q-19 0 -59.5 1t-61.5 1q-18 0 -54 -1 t-55 -1l9 26l74 34q37 48 356 534q10 14 8 28v13zM400 538h-2l-159 -258q23 0 94 -1.5t87 -1.5l-8 92l-7 93.5t-5 75.5z" />
<glyph unicode="B" horiz-adv-x="642" d="M138 627l13 26q138 13 229 13q119 0 181.5 -34.5t62.5 -113.5q0 -69 -59 -112t-153 -54l-1 -5q185 -26 185 -153q-1 -100 -98 -149q-93 -47 -246 -47h-13q-29 0 -81.5 0.5t-96.5 1t-82 1.5l10 27l83 30q12 29 66 229l86 322zM345 626l-66 -261q103 1 161 39.5t58 111.5 q0 110 -138 110h-15zM270 327q-60 -234 -72 -289q147 0 203 45q61 46 61 117q0 61 -43 94t-149 33z" />
<glyph unicode="C" horiz-adv-x="683" d="M642 168l11 -28q-55 -88 -92 -122q-93 -37 -181 -37q-142 0 -226 78t-84 215q0 167 123.5 284t307.5 117q96 0 142 -40q33 17 83 26l7 -9q-12 -36 -38 -96.5t-37 -77.5l-17 -6q-9 56 -14 127q-37 26 -107 26q-142 0 -230 -103t-88 -242q0 -114 57 -179.5t163 -65.5 q28 0 58 6q92 79 162 127z" />
<glyph unicode="D" horiz-adv-x="744" d="M140 628l15 26q150 12 226 12q172 0 262 -73t90 -215q0 -136 -86.5 -231.5t-229.5 -130.5q-74 -19 -250 -19h-34q-29 0 -155 3l9 27l85 30q6 9 81 286l72 267zM346 623l-72 -280q-72 -278 -76 -306q157 0 249 58q154 96 154 304q0 89 -45 145q-64 79 -203 79h-7z" />
<glyph unicode="E" horiz-adv-x="598" d="M136 634l11 26q23 0 67.5 -1t65.5 -1h244q59 10 89 10h5l4 -5q-21 -96 -47 -158l-16 -8q-15 36 -39 119l-178 -8l-62 -242q164 2 244 12l6 -14q-6 -9 -35.5 -33t-35.5 -24q-4 0 -93.5 5t-98.5 5q-39 -140 -68 -264l210 -11l44 43l52 51q22 21 39 34l17 -8 q-40 -115 -68 -165q-90 3 -209 3h-163q-25 0 -76 -0.5t-76 -0.5l11 26l90 34q9 19 82 284l71 259z" />
<glyph unicode="F" horiz-adv-x="554" d="M140 633l13 27q21 0 62.5 -0.5t61.5 -0.5h256q37 9 82 9h16l5 -8q-21 -82 -54 -163l-16 -7q-26 86 -35 127l-188 -9l-68 -259q171 2 250 11l6 -13q-5 -8 -34 -32.5t-35 -24.5q-3 0 -94.5 5t-105.5 5q-56 -212 -59 -240l111 -35l-11 -26q-29 0 -87 0.5t-88 0.5 q-23 0 -71 -0.5t-72 -0.5l10 26l75 34q7 12 81 283l70 259z" />
<glyph unicode="G" horiz-adv-x="736" d="M574 -19h-5q-55 11 -70 33q-53 -31 -137 -31q-132 0 -212.5 78.5t-80.5 209.5q0 111 53.5 202.5t154.5 146.5t230 55q94 0 142 -40q14 6 47 14t46 9l5 -8q-6 -22 -34.5 -89t-42.5 -90l-16 -5q-9 39 -19 129q-38 31 -118 31q-96 0 -170 -52.5t-110 -130.5t-36 -165 q0 -113 58.5 -177t159.5 -64q41 0 82 15q11 39 33 107l33 100l-191 5l-2 11l49 35q112 9 291 9q-15 -56 -70 -186t-70 -152z" />
<glyph unicode="H" horiz-adv-x="767" d="M142 633l12 26q21 0 63 -0.5t63 -0.5q20 0 60.5 0.5t59.5 0.5l-8 -26l-53 -34l-58 -221h288l59 222l-46 35l9 24q16 0 48 -0.5t47 -0.5q26 0 75.5 0.5t74.5 0.5l-11 -27l-78 -33q-14 -48 -69 -258q-66 -268 -65 -281l81 -33l-13 -28q-23 0 -70 0.5t-71 0.5 q-20 0 -60.5 -0.5t-61.5 -0.5l9 26l54 35q23 78 76 276q-61 -10 -139 -10h-151q-43 -162 -67 -267l49 -35l-8 -25q-19 0 -58.5 0.5t-59.5 0.5q-23 0 -71 -0.5t-72 -0.5l10 26l79 34q14 26 85 288l66 253z" />
<glyph unicode="I" horiz-adv-x="362" d="M148 633l11 26q21 0 62 -0.5t61 -0.5q24 0 73 0.5t74 0.5l-9 -27l-79 -33l-68 -256q-68 -259 -70 -285l85 -33l-12 -26q-24 0 -74 1t-75 1q-24 0 -74 -1t-75 -1l10 26l83 33q10 21 82 285l71 257z" />
<glyph unicode="J" horiz-adv-x="340" d="M131 633l13 26q23 0 69 -0.5t70 -0.5q25 0 73 0.5t72 0.5l-11 -27l-78 -33l-121 -457q-21 -81 -51 -129q-38 -63 -99.5 -102t-114.5 -55l-23 23l3 11q51 19 86 58q38 41 71 161q8 28 17 63l24 96l29 114l55 217z" />
<glyph unicode="K" horiz-adv-x="686" d="M792 658l-11 -26q-33 -14 -113 -36q-10 -2 -31 -18q-62 -47 -236 -205v-2q70 -125 151 -252l39 -59l30 -42l15 -22l-12 -11q-72 2 -110.5 21t-70.5 64q-28 38 -73.5 112.5t-80.5 141.5l1 7q207 186 292 276q-5 11 -15 53q18 1 49 1q62 0 176 -3zM148 633l11 26 q22 0 66 -0.5t65 -0.5q24 0 70 0.5t69 0.5l-8 -27l-79 -32l-68 -257q-71 -268 -71 -284l82 -34l-9 -26q-24 0 -74 1t-76 1q-24 0 -73 -1t-74 -1l10 26l82 34q10 18 82 284l69 257z" />
<glyph unicode="L" horiz-adv-x="568" d="M145 633l11 26q23 0 67.5 -0.5t66.5 -0.5q24 0 71 0.5t70 0.5l-11 -27l-78 -32l-68 -255q-71 -269 -74 -293l177 -11l37 37l39 40q15 16 35 34.5t34 29.5l16 -11q-44 -118 -71 -175q-8 0 -44.5 1t-111.5 2t-177 1q-26 0 -77.5 -0.5t-75.5 -0.5l7 25l84 34q18 53 80 286 l70 256z" />
<glyph unicode="M" horiz-adv-x="940" d="M179 632l14 26q32 0 97.5 0.5t97.5 1.5q-4 -17 -4 -32q0 -9 1 -17q3 -20 13 -78l28 -154l33 -182h3l282 422q7 14 10 41q36 0 107.5 -0.5t106.5 -0.5l-11 -28l-90 -28q-16 -72 -45 -282t-34 -263l87 -33l-10 -26q-24 0 -71.5 0.5t-70.5 0.5q-25 0 -73 -0.5t-73 -0.5 l11 26l72 32l94 506h-2l-352 -566l-32 -8l-73 533h-2l-51 -130l-70 -180q-33 -86 -56 -152l88 -35l-11 -26q-22 0 -64.5 0.5t-63.5 0.5q-17 0 -52 -0.5t-53 -0.5l9 26l77 35q84 170 231 520q-4 21 -19.5 28.5t-78.5 23.5z" />
<glyph unicode="N" horiz-adv-x="733" d="M214 25l-10 -26q-20 0 -60.5 0.5t-61.5 0.5q-18 0 -55.5 -0.5t-56.5 -0.5l9 26l87 39q33 77 154 495q-21 39 -39 50.5t-69 22.5l14 25q73 3 181 5q3 -21 24 -63l221 -468h2q12 44 58 230.5t57 235.5l-80 36l14 26q17 0 53 -0.5t53 -0.5q20 0 60.5 0.5t60.5 0.5l-11 -29 l-85 -33q-28 -65 -151 -531l61 -52l-5 -14l-152 -11q-57 116 -238 517h-2q-93 -335 -112 -443z" />
<glyph unicode="O" horiz-adv-x="750" d="M469 675q47 0 92 -16.5t85.5 -49.5t66 -93t25.5 -139q0 -67 -24.5 -135t-71.5 -126.5t-125 -95.5t-175 -37q-53 0 -100.5 17t-87.5 50.5t-63.5 90.5t-23.5 130q0 99 48.5 190.5t142.5 152.5t211 61zM468 636h-2q-73 0 -136 -62.5t-97.5 -153.5t-34.5 -181 q0 -218 146 -218q73 0 135.5 66t95 159t32.5 183q0 104 -38 155.5t-101 51.5z" />
<glyph unicode="P" horiz-adv-x="598" d="M135 626l15 26q126 14 219 14q257 0 257 -190q0 -99 -79 -158t-192 -59q-31 0 -56 9l-4 27q88 5 146 55.5t58 138.5q0 71 -43 103q-40 31 -103 31h-8l-67 -267q-72 -285 -73 -296l100 -35l-11 -26q-26 0 -80 0.5t-81 0.5q-25 0 -75.5 -0.5t-75.5 -0.5l7 26l83 35 q13 33 84 292l69 254z" />
<glyph unicode="Q" horiz-adv-x="751" d="M713 -171l-10 -13q-23 -4 -48 -4q-74 0 -158 39q-60 27 -199 116q-24 16 -48 26q-182 73 -182 273q0 76 29 149t80 131t127.5 93.5t164.5 35.5q47 0 93 -17t86 -50t65 -90.5t25 -130.5q0 -150 -82.5 -250t-213.5 -136v-2q228 -140 271 -170zM470 636q-78 0 -142.5 -68 t-96.5 -159.5t-32 -175.5q0 -186 141 -219q81 8 144 79t93 161t30 176q0 104 -36 155t-101 51z" />
<glyph unicode="R" horiz-adv-x="635" d="M139 617l13 29q106 20 229 20q243 0 243 -158q0 -79 -53.5 -124.5t-145.5 -72.5l-1 -2q46 -101 114 -222q34 -63 52 -92l-11 -10q-109 3 -158 76q-55 79 -126 236l6 11q92 22 145 66t53 122q0 127 -150 127h-5l-78 -304q-54 -206 -65 -258l91 -36l-11 -26q-25 0 -75.5 1 t-76.5 1q-25 0 -74.5 -1t-74.5 -1l9 26l80 34q22 64 77 259l81 286z" />
<glyph unicode="S" horiz-adv-x="519" d="M336 675q75 0 119 -39q38 21 77 30l11 -6q-8 -29 -29.5 -89t-32.5 -79l-17 -7q-15 47 -22 112q-23 31 -90 31q-57 0 -90 -33.5t-33 -77.5q0 -49 44 -89l122 -101q79 -67 79 -147q0 -88 -69 -142.5t-177 -54.5q-67 0 -128 26t-91 57q3 16 29 73t44 80h15q3 -12 6 -43 l7 -72q3 -39 5 -57q38 -18 96 -18q68 0 105.5 33.5t37.5 82.5q0 52 -51 96l-110 96q-73 65 -73 146q0 87 63 139.5t153 52.5z" />
<glyph unicode="T" horiz-adv-x="657" d="M235 658h404q39 7 100 13l6 -3q-17 -49 -83 -187l-18 -3q-10 79 -13 140l-141 -8l-65 -249q-38 -147 -74 -302l116 -33l-12 -27q-30 0 -90 0.5t-90 0.5q-29 0 -87.5 -0.5t-87.5 -0.5l11 26l107 34q15 39 78 271l76 280l-137 7q-90 -109 -115 -133l-21 -3q34 131 55 187 l5 3q28 0 76 -13z" />
<glyph unicode="U" horiz-adv-x="763" d="M213 599l-77 34l12 26q17 0 56.5 -0.5t57.5 -0.5q20 0 62 0.5t62 0.5l-10 -26l-48 -39q-103 -354 -115 -420q-4 -24 -4 -43q0 -34 14 -51q22 -25 65 -25q65 0 126 35.5t92 72.5l127 438l-49 32l13 26q35 -1 118 -1q22 0 63 0.5t61 0.5l-13 -27l-78 -33 q-14 -42 -78 -282.5t-65 -256.5l91 -20l-13 -27q-196 -25 -219 -30l-5 3l36 116h-2q-135 -119 -263 -119q-67 0 -106 28q-44 32 -44 102q0 38 13 88q16 59 43 149l50 164z" />
<glyph unicode="V" horiz-adv-x="678" d="M106 633l11 26q21 0 62 -0.5t62 -0.5q74 0 110 1l-10 -27l-39 -33q5 -59 47 -459h2q178 270 288 461l-38 32l11 26q14 0 42 -0.5t41 -0.5q17 0 51.5 0.5t52.5 0.5l-9 -26q-72 -32 -92 -50q-82 -107 -363 -544q-37 -39 -68 -58h-16q-4 44 -69 603q-6 14 -19.5 22.5 t-56.5 26.5z" />
<glyph unicode="W" horiz-adv-x="964" d="M109 635l11 24q19 0 58.5 -0.5t59.5 -0.5q16 0 47.5 0.5t46.5 0.5l-8 -26l-27 -28q1 -7 70 -465h2l141 209q-18 122 -44 238q-10 20 -71 46l12 26q19 0 58 -0.5t57 -0.5q12 0 35.5 0.5t34.5 0.5l-1 -5l-8 -48q3 -33 24 -156h2q75 116 95 153l12 53l3 3q8 0 26.5 -0.5 t27.5 -0.5q15 0 46.5 0.5t46.5 0.5l-12 -26q-81 -35 -98 -50q-45 -55 -138 -190q2 -11 40 -246h2l270 453l-19 33l11 26q12 0 36.5 -0.5t36.5 -0.5q16 0 48 0.5t48 0.5l-10 -26q-49 -22 -65 -31t-31 -24q-39 -51 -338 -525q-16 -27 -64 -72h-13q-4 17 -21 125.5t-29 178.5 h-2l-162 -233q-33 -41 -69 -71h-12q-5 27 -44.5 283.5t-51.5 322.5q-5 12 -17.5 21t-52.5 27z" />
<glyph unicode="X" horiz-adv-x="657" d="M111 633l11 26q22 0 66 -0.5t65 -0.5q19 0 56 0.5t55 0.5l-10 -28l-31 -31q12 -37 25 -72l26 -68l18 -44h2q81 89 151 187l-31 30l12 26q11 0 37 -0.5t39 -0.5q19 0 59 0.5t61 0.5l-11 -28l-99 -37q-54 -52 -203 -222q34 -96 118 -309l93 -38l-11 -26q-24 0 -72 0.5 t-72 0.5q-16 0 -48 -0.5t-48 -0.5l30 58q-6 27 -79 226h-2q-158 -191 -184 -225l46 -33l-10 -26q-14 0 -44.5 0.5t-45.5 0.5q-81 0 -122 -1l11 26l90 39q52 48 243 267q-40 111 -104 267z" />
<glyph unicode="Y" horiz-adv-x="604" d="M98 633l12 26q19 0 59.5 -0.5t60.5 -0.5q19 0 56 0.5t55 0.5l-11 -27l-35 -25q3 -12 13 -42l28 -90l36 -121l3 -1q116 144 189 252l-37 28l12 26q11 0 36.5 -0.5t37.5 -0.5q20 0 59 0.5t59 0.5l-12 -27l-84 -33q-88 -92 -232 -277q-14 -18 -19 -41q-54 -202 -56 -223 l105 -33l-10 -26q-29 0 -85 0.5t-84 0.5t-83.5 -0.5t-83.5 -0.5l11 26l98 32q18 36 70 226q3 12 3 22q0 9 -2 17q-9 30 -90 268q-7 10 -21 17.5t-58 25.5z" />
<glyph unicode="Z" horiz-adv-x="636" d="M668 658l2 -18l-502 -588v-2q9 0 71.5 -2t133 -4t85.5 -2l138 147l16 -8q-29 -114 -63 -185q-8 0 -207 2t-352 2l-7 15l517 594v2q-32 0 -128 1.5t-134 1.5q-52 -76 -96 -128l-22 -6q32 180 34 190l6 4q30 -5 85 -16h423z" />
<glyph unicode="[" horiz-adv-x="323" d="M299 657l-200 -770l101 -25l-12 -28h-184l228 876h183l-12 -29z" />
<glyph unicode="\" horiz-adv-x="460" d="M369 -38h-61l-147 711h61z" />
<glyph unicode="]" horiz-adv-x="323" d="M58 -114l201 772l-101 25l12 27h183l-227 -876h-183l12 26z" />
<glyph unicode="^" horiz-adv-x="536" d="M492 265l-71 -9l-140 323l-133 -314l-73 -9l173 386l69 1z" />
<glyph unicode="_" horiz-adv-x="483" d="M426 -100v-48h-483v48h483z" />
<glyph unicode="`" horiz-adv-x="386" d="M316 512l-30 -16l-123 172l3 10q16 8 46 12q20 4 37 4q7 0 14 -1z" />
<glyph unicode="a" horiz-adv-x="557" d="M412 447l120 12l4 -9l-42 -56q-43 -125 -91 -332l3 -1q60 18 117 95l7 -9q-3 -59 -63 -109.5t-145 -50.5q-19 0 -35 4q1 6 54 195h-3q-141 -199 -251 -199q-35 0 -54 27.5t-19 73.5q0 71 42.5 155t122.5 144q77 57 157 57q39 0 68 -23zM149 57q24 0 65.5 36t97.5 120 q48 73 76 175q-15 11 -37 11q-54 0 -112 -62q-49 -53 -79 -122.5t-30 -119.5q0 -38 19 -38z" />
<glyph unicode="b" horiz-adv-x="536" d="M120 644l8 22q33 11 98 21.5t91 10.5l4 -2l-20 -65l-44 -141l-59 -194h4q122 159 224 159q41 0 66 -33t25 -85q0 -142 -101.5 -245.5t-228.5 -103.5q-39 0 -87.5 18t-73.5 35l160 590zM188 26q54 0 104.5 54.5t78.5 126.5q27 70 27 126q0 59 -29 59q-39 0 -112 -83 q-46 -50 -78 -121t-34 -123q1 -39 43 -39z" />
<glyph unicode="c" horiz-adv-x="423" d="M383 142l8 -34q-88 -121 -219 -121q-72 0 -108 44.5t-36 113.5q0 57 25 118t78 110q92 82 198 82q69 0 96 -27q-2 -16 -20.5 -59t-30.5 -59l-18 -8q-12 23 -30 113q-6 2 -11 2q-48 0 -94 -53q-73 -83 -73 -206q0 -51 20 -78.5t58 -27.5q44 0 86 29t69 62z" />
<glyph unicode="d" horiz-adv-x="570" d="M386 644l12 23q79 30 195 32l2 -2q-44 -138 -100 -334t-78 -301l2 -2q66 27 115 96l9 -10q-5 -62 -63.5 -110.5t-137.5 -48.5q-26 0 -46 6l53 189h-4q-136 -195 -245 -195q-36 0 -58.5 33t-22.5 85q0 81 44 162.5t115.5 134.5t146.5 53q48 0 80 -34q37 126 58 209z M338 406q-46 0 -94.5 -50.5t-78.5 -121.5t-30 -131q0 -45 25 -45q22 0 65.5 36.5t91.5 110.5q41 63 76 176q-21 25 -55 25z" />
<glyph unicode="e" horiz-adv-x="443" d="M399 145l5 -37q-40 -57 -99 -89t-124 -32q-66 0 -109 37q-44 37 -44 123q0 47 19 98q20 54 56 101t91.5 78t119.5 31q58 0 89.5 -30t33.5 -77q0 -46 -31 -69q-23 -25 -102 -51t-150 -37q-6 -25 -6 -48v-6q0 -37 17.5 -62.5t57.5 -25.5q45 0 93.5 29.5t80.5 66.5h2z M300 418q-35 0 -76.5 -53.5t-63.5 -135.5q126 26 154 68q18 29 18 72q0 49 -32 49z" />
<glyph unicode="f" horiz-adv-x="298" d="M63 437h72q37 137 120 206q68 57 146 57q60 0 89 -30q-25 -64 -57 -102l-19 -5q-16 50 -23 97q-6 2 -12 2q-77 0 -125 -227h110l-18 -36l-104 -13q-46 -195 -73 -296q-27 -105 -58 -160.5t-83 -98.5q-75 -62 -137 -62q-29 0 -53 11.5t-34 29.5l45 73l13 1 q17 -24 42 -39.5t47 -15.5q21 0 37.5 21.5t32.5 90.5q42 171 103 447l-80 16z" />
<glyph unicode="g" horiz-adv-x="448" d="M504 471l-44 -75l-72 -5l-1 -2q21 -30 21 -77q0 -76 -58 -135t-156 -59q-30 0 -49 8q-11 -12 -9 -26q7 -19 45 -35q95 -39 146 -63q70 -31 70 -81q0 -45 -42 -81.5t-95 -53.5t-98 -17q-64 0 -111 16t-69.5 39.5t-32 43.5t-9.5 35q0 18 15 29q44 32 129 68v1 q-33 27 -33 64q0 14 20 35t46 39q-63 38 -63 118t66 141q61 57 150 57h15q25 -2 54 -8q49 -11 65 -14l93 50zM269 419q-41 0 -77.5 -70.5t-36.5 -138.5q0 -57 38 -57q44 0 78 72.5t34 131.5q0 62 -36 62zM202 -187q44 0 71 17.5t27 41.5q0 13 -10 23t-37 23q-54 28 -143 64 q-71 -38 -71 -71q0 -34 45 -66t118 -32z" />
<glyph unicode="h" horiz-adv-x="552" d="M122 0l-112 -8l97 345q68 257 75 293l-72 14l11 22q27 11 95 21.5t99 10.5l2 -2q-42 -131 -140 -474h3q48 73 104.5 129.5t106.5 80.5q41 23 91 23q27 0 33 -10q2 -4 2 -11q0 -13 -6 -36q-82 -274 -89 -324l92 6l-13 -33q-191 -57 -212 -66l-9 9q3 15 55 181.5t59 191.5 q5 17 -7 17q-25 0 -82.5 -59t-100.5 -132q-40 -68 -82 -189z" />
<glyph unicode="i" horiz-adv-x="317" d="M255 669h6q10 -9 23 -34t14 -40l-2 -6q-8 -15 -36 -39t-42 -30h-6q-28 23 -42 77l1 3q36 48 84 69zM137 372l-67 11l10 24q25 13 92 30t95 18l3 -3q-111 -359 -122 -409l2 -1q26 5 62.5 38.5t64.5 65.5l4 -17q-3 -19 -15 -41.5t-33 -46t-55.5 -39t-76.5 -15.5 q-35 0 -49 25q-7 13 -7 35t7 53q76 246 85 272z" />
<glyph unicode="j" horiz-adv-x="280" d="M133 385l-71 11l11 25q28 10 92.5 22t95.5 12l2 -1q-34 -144 -96 -374q-37 -135 -80 -188q-77 -95 -167 -123l-20 25q29 19 46.5 34.5t44.5 63.5t46 121zM246 669h5q10 -9 23.5 -34t14.5 -40l-2 -6q-8 -14 -36 -38.5t-41 -30.5h-7q-28 23 -42 77l1 3q36 48 84 69z" />
<glyph unicode="k" horiz-adv-x="496" d="M539 442l-16 -28q-83 -19 -114 -35q-43 -30 -103 -87l-1 -2q11 -25 72.5 -144.5t79.5 -157.5l-9 -7q-61 3 -95.5 20t-64.5 70q-25 43 -52.5 100t-31.5 72l2 5l41 40l51 48q25 24 54 55q3 3 5.5 6t4.5 6t3.5 5t3 6t2.5 5.5t2.5 7t2 7.5l2.5 10l3 11q6 1 17 1q21 0 64 -4 q64 -6 77 -10zM188 631l-66 13l8 23q28 11 96 21.5t96 10.5l2 -3q-35 -109 -200 -691l-118 -11q120 387 182 637z" />
<glyph unicode="l" horiz-adv-x="306" d="M190 630l-68 14l10 24q28 10 95.5 20.5t95.5 10.5l2 -2l-99 -332l-43 -154l-31 -114l-15 -53l1 -2q26 6 64.5 42t62.5 69l9 -13q-7 -53 -56 -103t-126 -50q-61 0 -61 60q0 21 8 50l36 128l66 233z" />
<glyph unicode="m" horiz-adv-x="840" d="M135 0l-112 -8q20 54 64 209t44 174l-72 8l7 24q26 11 97 29t93 19l3 -3q-12 -51 -70 -233h3q107 167 209 213q46 23 101 23q19 0 22 -10q1 -2 1 -6q0 -14 -8 -46q-24 -88 -51 -169l3 -1q106 161 207 209q48 23 102 23q23 0 26 -10q1 -3 1 -7q0 -13 -7 -41 q-81 -272 -89 -323l92 6l-13 -33q-195 -59 -212 -66l-8 11q3 14 55.5 180.5t59.5 192.5q5 17 -6 17q-27 0 -84 -58t-102 -134q-35 -58 -82 -190l-112 -8q97 296 110 373q4 17 -6 17q-28 0 -82.5 -55.5t-102.5 -137.5q-38 -64 -81 -189z" />
<glyph unicode="n" horiz-adv-x="565" d="M135 0l-112 -8q20 53 64 209t44 174l-72 9l8 23q23 10 95.5 28.5t95.5 20.5l2 -3q-4 -21 -70 -236h2q111 169 210 215q46 23 98 23q27 0 32 -9q1 -3 1 -9q0 -12 -8 -40q-81 -272 -89 -323l92 6l-13 -33q-197 -60 -212 -66l-9 11q3 13 55 178.5t60 193.5q5 17 -5 17 q-32 0 -84.5 -56.5t-98.5 -131.5q-47 -77 -86 -193z" />
<glyph unicode="o" horiz-adv-x="502" d="M311 455q72 0 115 -49t43 -131q0 -114 -80 -201t-196 -87q-69 0 -114 47t-46 126q0 119 83.5 207t194.5 88zM301 418q-36 0 -71.5 -49t-57 -119t-21.5 -132q0 -94 51 -94q36 0 71.5 48.5t56.5 119t21 134.5q0 92 -50 92z" />
<glyph unicode="p" horiz-adv-x="554" d="M133 376l-73 8l8 23q20 11 91.5 31.5t98.5 21.5l2 -2l-58 -193h2q133 190 246 190q40 0 62 -32.5t22 -85.5q0 -140 -99 -244.5t-217 -104.5q-42 0 -73 22q-16 -55 -41 -160l80 -26l-13 -27q-209 -11 -262 -11l10 27l65 32q13 30 64 217zM207 26q50 0 99.5 53.5 t78.5 126.5q28 72 28 130q0 53 -25 53q-46 0 -126 -106q-69 -91 -101 -217q5 -18 18 -29t28 -11z" />
<glyph unicode="q" horiz-adv-x="534" d="M161 -215l6 25q31 16 71 32q13 30 104 322h-2q-70 -95 -133.5 -136t-109.5 -41q-32 0 -56 26.5t-24 84.5q0 131 101 244t207 113q30 0 50.5 -16t28.5 -35l2 1l11 25q47 17 120 25l5 -10l-36 -52q-46 -128 -151 -549l81 -27l-9 -24q-91 -8 -266 -8zM336 408 q-46 0 -95 -57.5t-79 -132t-30 -128.5q0 -40 23 -40q26 0 68.5 36t81.5 89q32 44 48.5 80t38.5 111q-22 42 -56 42z" />
<glyph unicode="r" horiz-adv-x="404" d="M54 384l6 23q24 13 81 29.5t84 18.5l2 -1q1 -8 1 -17q0 -60 -24 -155h3q93 173 190 173q25 0 40 -12q-1 -21 -20 -71.5t-33 -69.5l-15 -8q-11 21 -30 84q-2 1 -6 1q-9 0 -23.5 -10.5t-42.5 -52t-57 -107.5q-25 -56 -68 -209l-115 -8q38 122 67 234.5t32 146.5z" />
<glyph unicode="s" horiz-adv-x="377" d="M253 455q34 0 66 -10.5t47 -25.5q-6 -23 -22.5 -56.5t-27.5 -48.5l-15 -6q-15 56 -20 103q-10 6 -33 6q-34 0 -56.5 -19t-22.5 -45q0 -16 12 -32.5t24 -27.5t44 -37q46 -38 62.5 -65.5t16.5 -63.5q0 -54 -50 -97t-135 -43q-47 0 -91 18t-62 36q27 69 58 114l16 5 q12 -42 24 -125q20 -10 51 -10q39 0 62.5 18.5t23.5 44.5q0 21 -15 41t-54 51q-81 68 -81 128q0 66 52.5 106.5t125.5 40.5z" />
<glyph unicode="t" horiz-adv-x="344" d="M178 532l123 60l6 -6l-46 -149h126l-18 -36l-121 -12q-76 -268 -93 -343l2 -2q81 16 162 117l5 -25q-14 -44 -42 -75.5t-60 -46.5t-58.5 -21t-49.5 -6q-72 0 -72 56q0 13 4 29q14 57 89 317l-78 12l21 36h71z" />
<glyph unicode="u" horiz-adv-x="584" d="M136 372l-76 13l8 21q30 12 97.5 28t101.5 21l8 -1q-20 -50 -63.5 -188t-53.5 -182q-7 -24 7 -24q34 0 89 57t101 138q39 66 77 183q64 12 126 18l4 -7l-41 -56q-23 -62 -91 -331l2 -2q62 17 111 84l7 -18q-9 -51 -61 -95t-137 -44q-26 0 -44 6l66 219h-4 q-103 -156 -189 -200q-47 -25 -92 -25q-29 0 -43 17q-7 8 -7 24.5t7 40.5q6 22 90 303z" />
<glyph unicode="v" horiz-adv-x="466" d="M100 373l-65 9l5 24q23 13 89 31t82 18l3 -2q2 -230 8 -350h2q36 36 73 86.5t54 90.5q26 60 26 131q0 14 -1 28q31 19 76 21l2 -1q14 -22 14 -64q0 -37 -34.5 -93.5t-70 -97.5t-98 -107.5t-75.5 -81.5q-20 -20 -64 -29l-4 2q-1 12 -6 123t-8 172q-4 69 -8 90z" />
<glyph unicode="w" horiz-adv-x="698" d="M105 371l-70 11l2 24q26 12 95 30.5t84 18.5l2 -3l-3 -323h2q6 10 29 45l52 78l58 96q-5 60 -5 70q14 11 53.5 24t61.5 14l2 -4q-8 -63 -8 -66q1 -75 6.5 -168.5t8.5 -106.5h3q67 76 106 166q26 65 26 145v17q37 20 75 20l2 -1q12 -18 12 -63q0 -21 -9 -47.5t-30 -59.5 l-36 -56q-17 -25 -50 -64l-46 -56q-13 -16 -47.5 -54t-36.5 -41q-27 -23 -61 -31l-4 2q-10 52 -19 288h-2q-130 -196 -177 -259q-26 -23 -61 -31l-4 2q0 8 -0.5 60.5t-1.5 119.5t-3 114q-3 72 -6 89z" />
<glyph unicode="x" horiz-adv-x="501" d="M-20 120l17 20q30 -44 68 -73q20 8 64.5 58.5t78.5 96.5q-31 123 -47 151q-15 -8 -46 -36t-54 -58l-14 20q21 58 73.5 106t113.5 50q7 -6 13 -17.5t12.5 -29t10.5 -31.5l12 -37l10 -32h2l67 84q50 59 78 69h10q19 -14 32 -53t14 -85l-21 -18q-32 62 -52 73 q-14 -5 -53.5 -45.5t-62.5 -70.5l26 -90q18 -67 24 -86q4 -12 9 -12q4 0 17 8.5t36.5 31.5t45.5 54l12 -22q-19 -75 -77.5 -117t-128.5 -42l-49 189h-2q-84 -118 -97 -134q-44 -56 -69 -66h-14q-18 15 -36.5 59t-22.5 85z" />
<glyph unicode="y" horiz-adv-x="463" d="M53 279l-23 23q31 77 74 115t79 39q52 -4 75 -114q21 -97 21 -249h2q29 45 65.5 143.5t38.5 138.5l-30 42l2 11q47 25 95 27q6 0 10 -3q4 -2 4 -5q0 -7 -6 -31.5t-21.5 -71.5t-35.5 -96q-70 -168 -193 -319q-43 -53 -85.5 -91.5t-66.5 -53.5t-34 -15q-7 0 -18 9t-24.5 33 t-20.5 57l4 12q43 -1 109 -30q8 3 28.5 22t37.5 43q25 36 34.5 69t9.5 84q0 67 -12 146t-29 126q-8 25 -17 25q-7 0 -28.5 -25t-44.5 -61z" />
<glyph unicode="z" horiz-adv-x="447" d="M411 161l19 -28q-75 -143 -131 -164q-23 1 -98 33q-49 21 -78 29q-15 4 -27 4q-22 0 -37 -12q-15 -11 -35 -38h-11q-8 10 -8 24.5t8 34.5q13 32 57 63l145 139q86 86 103 106l-1 2q-26 -5 -57 -5q-19 0 -41 2l-61 6q-15 -8 -48 -41t-46 -50l-21 24q21 43 58 99.5t52 68.5 q92 -27 187 -27q31 0 53.5 7.5t50.5 31.5l16 -29q-8 -18 -110 -123l-206 -205l1 -3q6 1 12 1q29 0 74 -14q17 -5 41.5 -14t33.5 -12q37 13 105 90z" />
<glyph unicode="{" horiz-adv-x="319" d="M244 334l-107 -56v-2l78 -52q-38 -122 -62 -214q-9 -36 -9 -63q0 -20 5 -34q11 -34 55 -64l-14 -26q-65 16 -104 65q-26 35 -26 77q0 19 5 39q10 43 84 211l-80 59l7 11l105 58v39q0 30 0.5 44.5t2 39.5t5 47t8.5 43q14 56 81 105t126 60l6 -29q-56 -26 -84.5 -60.5 t-42.5 -90.5q-30 -118 -39 -207z" />
<glyph unicode="|" horiz-adv-x="324" d="M111 724h76v-965h-76v965z" />
<glyph unicode="}" horiz-adv-x="323" d="M118 225l104 54v2l-76 53q31 80 60 205q9 31 9 56q0 19 -5 35q-11 38 -53 64l14 27q62 -19 101 -67q29 -36 29 -77q0 -15 -4 -30q-16 -68 -85 -204l80 -59l-5 -13l-105 -57q0 -7 -1 -40l-1 -48q-1 -15 -3 -42.5t-5.5 -50t-8.5 -43.5q-14 -60 -80.5 -106.5t-126.5 -60.5 l-8 27q57 27 86 64t44 95q31 125 40 216z" />
<glyph unicode="~" horiz-adv-x="593" d="M536 324l35 -22q-61 -141 -157 -141q-41 0 -121 50l-17 10l-16 10l-14 9q-10 5 -15.5 7.5t-13 5.5t-14 4t-12.5 1q-48 0 -109 -93l-37 22q68 138 161 138q20 0 45 -9.5t40 -17.5l47 -28q64 -37 91 -37q56 0 107 91z" />
<glyph unicode="&#xa1;" horiz-adv-x="258" d="M146 286h-8q-11 8 -27.5 36t-19.5 44l1 7q7 17 37.5 43t47.5 32h7q14 -11 30.5 -36t23.5 -48l-2 -3q-38 -52 -90 -75zM107 208l38 15q-50 -339 -52 -357l9 -48q-17 -13 -68 -26q-47 -13 -91 -13h-6l-5 9q24 67 175 420z" />
<glyph unicode="&#xa2;" d="M372 542l22 81l36 5l-23 -84q39 -1 68.5 -11t39.5 -20q-2 -15 -21.5 -56.5t-29.5 -53.5l-15 -5q-12 33 -23 106q-10 5 -29 5l-95 -345q87 4 161 87l9 -33q-30 -42 -78.5 -72.5t-107.5 -38.5l-24 -85l-37 -8l26 92q-80 2 -121 46q-42 44 -42 114q0 108 84 187 q85 80 200 89zM268 165l92 338l-1 2q-68 -17 -111 -93q-43 -75 -43 -147q0 -86 63 -100z" />
<glyph unicode="&#xa3;" d="M472 172l22 -15q-9 -29 -61 -162q-5 0 -85 2.5t-137 2.5h-220l3 16l42 45q17 4 38 20q53 49 77 227l-98 10l22 34h82l7 34q26 158 115 221q63 48 142 48q38 0 66 -12t38 -24q-5 -19 -26 -57t-32 -51l-19 -7q-12 44 -21 112q-9 3 -18 3q-91 0 -120 -185q-10 -56 -13 -82 h168l-18 -34l-157 -10q-13 -88 -48 -136t-94 -86v-2q28 -1 61 -1q88 0 211 6l34 39z" />
<glyph unicode="&#xa4;" d="M307 476q-61 0 -100 -47.5t-45 -113.5q-1 -9 -1 -17q0 -50 25 -82q29 -38 77 -38q59 0 97.5 47t43.5 116q1 9 1 18q0 47 -23 79q-26 38 -75 38zM532 507l-74 -59q21 -35 21 -83q0 -13 -1 -26q-8 -85 -65 -142l52 -54l-51 -47l-46 65q-46 -34 -117 -34q-69 0 -110 38 l-67 -68l-34 47l72 56q-26 39 -26 94q0 11 1 22q3 36 20.5 73t42.5 61l-52 55l51 48l46 -66q57 40 128 40q66 0 104 -41l68 67z" />
<glyph unicode="&#xa5;" d="M105 346h118l-54 248l-61 24l10 25q17 0 55 -1t54 -1q21 0 61 1t61 1l-10 -25l-56 -24l36 -225l2 -1q94 129 158 225l-66 26l12 24q13 0 43.5 -1t46.5 -1t50 1t51 1l-10 -24l-65 -30q-77 -88 -192 -243h132l-20 -36h-129l-21 -80h139l-19 -36h-129q-33 -132 -34 -144 l80 -26l-10 -25q-22 0 -67 0.5t-68 0.5t-71 -0.5t-72 -0.5l9 25l78 26q12 25 45 144h-137l20 36h127l21 80h-137z" />
<glyph unicode="&#xa6;" horiz-adv-x="324" d="M109 666h76v-366h-76v366zM109 -183v367h76v-367h-76z" />
<glyph unicode="&#xa7;" horiz-adv-x="493" d="M82 351q0 153 190 242q41 27 87 27q35 0 56 -15q14 8 67 21l9 -3q-6 -19 -25.5 -63t-33.5 -64h-15q-12 33 -16 73q-16 14 -49 14q-29 0 -49.5 -18.5t-20.5 -42.5q0 -22 11 -44q21 -42 87 -141q55 -91 55 -157q0 -131 -152 -234q-77 -53 -154 -53t-124 38q3 12 24 51 t32 52l17 4q5 -24 13 -101q16 -8 42 -8q40 0 70.5 21.5t30.5 53.5q0 33 -36 86q-45 69 -74 120q-42 72 -42 141zM149 392q0 -46 38 -111l39 -61l44 -73q39 -64 39 -108q0 -17 -4 -35h2q56 53 56 129q0 50 -35 109l-37 63l-33 55q-12 21 -23 43q-20 39 -20 81q0 26 10 49h-2 q-74 -55 -74 -141z" />
<glyph unicode="&#xa8;" horiz-adv-x="386" d="M213 657h6q8 -8 21.5 -30.5t16.5 -35.5l-2 -7q-6 -14 -30 -35.5t-38 -27.5h-6q-12 11 -25.5 32t-17.5 39l1 3q35 45 74 62zM406 657h6q8 -8 21.5 -30.5t16.5 -35.5l-2 -7q-6 -13 -30.5 -35t-37.5 -28h-6q-31 27 -43 71l1 3q33 44 74 62z" />
<glyph unicode="&#xa9;" horiz-adv-x="699" d="M373 627q126 0 214 -90.5t88 -221.5q0 -129 -88 -219t-215 -90q-129 0 -215.5 89t-86.5 220t88 221.5t215 90.5zM373 584q-106 0 -178 -77.5t-72 -190.5q0 -112 72 -189.5t179 -77.5q106 0 177 77t71 190q0 114 -71 191t-178 77zM394 478q36 0 60 -13q6 3 15.5 5.5 t20 4.5t13.5 3l7 -3q0 -13 -7.5 -53t-11.5 -46l-13 -8q-13 20 -32 67q-13 9 -37 9q-46 0 -76.5 -35t-30.5 -88q0 -55 31 -91.5t82 -36.5q11 0 23 3l24 21l24 23q10 9 15 12l13 -11q-3 -13 -16 -39t-20 -32q-28 -13 -82 -13q-85 0 -135 43.5t-50 114.5q0 37 13 66.5t33 47 t45.5 29t48 16t43.5 4.5z" />
<glyph unicode="&#xaa;" horiz-adv-x="367" d="M382 563l-27 -39q-20 -59 -46 -167q26 8 67 49l5 -4q-1 -36 -40.5 -68t-101.5 -32q-11 0 -16 4q14 56 28 98h-3q-75 -102 -145 -102q-24 0 -37 16t-13 43q0 40 27 87.5t75 80.5q43 31 85 31q37 0 52 -26l7 20l80 13zM146 351q28 0 82 70q30 41 48 88q-7 21 -26 21 q-23 0 -47 -25q-28 -27 -48 -68.5t-20 -70.5q0 -15 11 -15z" />
<glyph unicode="&#xab;" horiz-adv-x="538" d="M235 52l-29 -16q-32 61 -75 116t-73 79q42 24 106.5 79t116.5 114l22 -18q-63 -112 -125 -178q38 -90 57 -176zM436 52l-28 -16q-30 60 -73.5 114.5t-73.5 80.5q41 26 105.5 80.5t115.5 112.5l23 -18q-45 -87 -124 -178q38 -91 55 -176z" />
<glyph unicode="&#xac;" horiz-adv-x="628" d="M454 54v220h-368l17 62h422v-268z" />
<glyph unicode="&#xad;" horiz-adv-x="365" d="M286 226l-249 -33l43 86l53 -2l202 13l2 -8z" />
<glyph unicode="&#xae;" horiz-adv-x="302" d="M231 654q50 0 84.5 -35.5t34.5 -87.5q0 -53 -35 -88.5t-86 -35.5t-86 35.5t-35 88.5q0 52 35.5 87.5t87.5 35.5zM229 630q-37 0 -64 -29t-27 -70t27 -70t65 -29t64 29t26 70t-26.5 70t-64.5 29zM173 575l3 12q20 5 52 5q49 0 49 -29q0 -18 -22 -29q3 -8 23 -36 q6 -10 15 -22l-1 -2q-26 0 -42 12q-15 17 -28 46q23 9 23 25q0 20 -24 20h-4v-85l19 -6l-3 -10h-60l2 10l14 5v84h-16z" />
<glyph unicode="&#xaf;" horiz-adv-x="386" d="M407 547h-239l30 67h238z" />
<glyph unicode="&#xb0;" horiz-adv-x="287" d="M252 648q42 0 67.5 -25.5t25.5 -71.5q0 -52 -35 -85q-36 -35 -90 -35q-40 0 -66 25.5t-26 67.5q0 50 34 86q36 38 90 38zM244 610q-28 0 -47 -25.5t-19 -56.5q0 -27 13 -43t36 -16q32 0 50 25t18 56q0 60 -51 60z" />
<glyph unicode="&#xb1;" horiz-adv-x="621" d="M530 62l-14 -62h-439l14 62h439zM336 126l-71 -13v194h-189l12 62h177v166l71 13v-179h189l-12 -62h-177v-181z" />
<glyph unicode="&#xb2;" horiz-adv-x="349" d="M91 437l31 40q9 4 18 9q36 25 55 39.5t51 42.5t47 55.5t15 55.5q0 26 -13.5 41.5t-35.5 15.5q-11 0 -23 -5q-27 -70 -38 -85l-17 -7q-15 24 -24 80q62 52 140 52q46 0 78 -25.5t32 -71.5q0 -37 -28 -66t-85 -61l-101 -58q7 0 64 2t71 2q16 16 52 46l18 -12 q-32 -73 -53 -104q-7 0 -64.5 1.5t-89.5 1.5h-103z" />
<glyph unicode="&#xb3;" horiz-adv-x="349" d="M202 664l-11 -6q-15 26 -25 68q64 44 131 44q50 0 76 -22t26 -53q0 -58 -104 -84v-3q95 -13 95 -78q0 -51 -52.5 -81.5t-124.5 -30.5q-32 0 -65 10.5t-50 24.5q3 12 20.5 40t24.5 35l13 5q6 -19 17 -80q12 -4 26 -4q37 0 65.5 23t28.5 60q0 26 -13.5 40t-33.5 14 q-9 -1 -27 -4.5t-22 -3.5l-4 5q2 10 9 23t14 17q6 0 19.5 -2t19.5 -2q54 18 54 64q0 25 -14 39t-37 14q-16 0 -26 -6q-14 -40 -30 -66z" />
<glyph unicode="&#xb4;" horiz-adv-x="386" d="M243 495l-20 24l111 153q6 1 14 1q14 0 34 -3q32 -6 48 -14v-13z" />
<glyph unicode="&#xb5;" horiz-adv-x="575" d="M421 439l132 16v-4l-42 -57q-28 -74 -91 -330l2 -1q15 3 29 10t24 13.5t21 16.5l16 15l12.5 15.5t8.5 10.5l7 -9q-5 -51 -60 -99.5t-140 -48.5q-23 0 -41 6q6 23 60 205h-3q-139 -211 -212 -211q-18 0 -29 8h-2q-44 -119 -55 -231l-7 -3q-47 8 -61 44q-7 16 -7 41 q0 32 10 78q14 60 54 195l43 147l49 165q52 16 126 24l3 -3q-13 -33 -62 -174t-59 -177q-3 -12 -3 -21q0 -22 19 -22q35 0 86.5 54t97.5 139q32 58 74 188z" />
<glyph unicode="&#xb6;" horiz-adv-x="516" d="M535 654l-64 -117l-130 -513q-21 -82 -49.5 -138.5t-60.5 -83.5t-59.5 -37t-59.5 -10q-41 0 -62 23q-25 27 -33 63l9 11q27 -25 85 -25q126 0 183 207l10 38q-37 -11 -47 -11q-72 0 -130 57t-58 148q0 64 26.5 117t72 87t105 52t126.5 18h19l29 104l86 12z" />
<glyph unicode="&#xb7;" horiz-adv-x="227" d="M148 328h8q11 -9 27 -37t20 -45l-1 -7q-8 -16 -38 -43t-47 -34h-7q-13 12 -30 38t-24 48l2 3q21 29 47 49.5t43 27.5z" />
<glyph unicode="&#xb8;" horiz-adv-x="386" d="M132 -1h40l-50 -55q47 -27 47 -67q0 -45 -44 -71.5t-96 -33.5l-9 24q81 25 81 65q0 26 -50 47v3z" />
<glyph unicode="&#xb9;" horiz-adv-x="349" d="M267 700l-79 2l12 20q36 13 163 49h8l-78 -305l67 -21l-10 -20q-20 0 -57 0.5t-55 0.5q-20 0 -59.5 -0.5t-59.5 -0.5l8 20l67 21q12 32 73 234z" />
<glyph unicode="&#xba;" horiz-adv-x="339" d="M242 563q52 0 81 -28t29 -75q0 -65 -50.5 -111.5t-126.5 -46.5q-52 0 -81 27.5t-29 70.5q0 64 52.5 113.5t124.5 49.5zM239 535q-32 0 -59 -56.5t-27 -107.5q0 -40 26 -40q35 0 60.5 57t25.5 104q0 43 -26 43z" />
<glyph unicode="&#xbb;" horiz-adv-x="538" d="M306 408l29 16q32 -61 75 -116t73 -79q-42 -24 -106.5 -79t-116.5 -114l-22 18q64 115 124 178q-36 85 -56 176zM105 408l28 16q29 -60 73 -114.5t75 -80.5q-42 -25 -106.5 -79.5t-115.5 -113.5l-23 18q45 87 124 178q-38 91 -55 176z" />
<glyph unicode="&#xbc;" horiz-adv-x="770" d="M230 584l-79 2l12 20q36 13 163 49h8l-78 -306l67 -21l-10 -20q-20 0 -57 1t-55 1q-20 0 -59.5 -1t-59.5 -1l8 20l67 21q17 47 73 235zM662 663l29 -28l-547 -673l-28 29zM605 87l-14 -57l50 -22l-8 -20q-16 0 -48.5 0.5t-49.5 0.5t-53 -0.5t-54 -0.5l9 20l61 22l19 55 l-141 -1l-5 23q28 36 104 116t91 91q10 6 46 12.5t53 7.5l-53 -213l34 -1q18 16 38 26h9q-1 -13 -11.5 -43.5t-16.5 -42.5l-10 -2q-13 19 -17 30zM525 122l49 156h-4q-65 -68 -138 -154z" />
<glyph unicode="&#xbd;" horiz-adv-x="770" d="M220 584l-79 2l12 20q36 13 163 49h8l-77 -306l67 -21l-11 -20q-19 0 -56.5 1t-55.5 1q-19 0 -58.5 -1t-60.5 -1l9 20l67 21q36 108 72 235zM646 663l28 -28l-546 -673l-28 29zM388 0l31 40q10 4 18 10q34 23 55 38.5t51.5 42.5t46 55t15.5 56q0 26 -13.5 41.5 t-35.5 15.5q-11 0 -23 -5q-27 -70 -38 -85l-17 -7q-15 24 -24 80q62 52 140 52q46 0 78 -25.5t32 -71.5q0 -37 -28.5 -66.5t-84.5 -60.5l-101 -58q10 0 135 5l52 45l18 -12q-32 -73 -53 -104q-7 0 -64.5 1.5t-89.5 1.5h-103z" />
<glyph unicode="&#xbe;" horiz-adv-x="770" d="M183 548l-11 -5q-14 22 -25 68q64 44 131 44q50 0 76 -22t26 -54q0 -58 -105 -84v-3q95 -13 95 -79q0 -51 -52.5 -81.5t-124.5 -30.5q-32 0 -65 10.5t-50 24.5q3 12 20.5 40.5t24.5 35.5l13 4q5 -16 17 -80q12 -4 26 -4q37 0 65.5 23t28.5 61q0 26 -13.5 40t-33.5 14 q-9 -1 -27 -4.5t-22 -3.5l-4 5q2 10 9 23t14 17q7 0 21 -2.5t19 -2.5q54 18 54 65q0 26 -14 40t-37 14q-16 0 -26 -6q-15 -43 -30 -67zM669 663l28 -28l-546 -673l-28 29zM610 87l-14 -57l50 -22l-8 -20q-16 0 -48.5 0.5t-48.5 0.5q-18 0 -54 -0.5t-53 -0.5l8 20l62 22 l18 55l-141 -1l-5 23q29 37 105.5 116.5t90.5 89.5q9 6 44.5 13t53.5 8l-53 -213l34 -1q17 16 38 26h9q-1 -13 -11.5 -43.5t-16.5 -42.5l-10 -2q-13 19 -17 30zM530 122l49 156h-4q-65 -68 -138 -154z" />
<glyph unicode="&#xbf;" horiz-adv-x="429" d="M250 286h-7q-11 8 -27.5 36t-19.5 44v7q9 16 39 42.5t46 32.5h7q14 -11 30.5 -36.5t23.5 -47.5l-2 -4q-21 -28 -47.5 -48t-42.5 -26zM259 -50l16 5q24 -45 30 -108q-98 -62 -177 -62q-61 0 -105.5 34.5t-44.5 97.5q0 45 25 76t75 65l50 34l35 26q22 16 31 27t10 20 q1 8 1 16q0 14 -4 29l28 14q24 -8 47 -42q17 -28 17 -58q0 -9 -1 -17q-24 -40 -121 -112l-49 -37q-14 -11 -28 -30t-14 -38q0 -27 20.5 -45.5t55.5 -18.5q22 0 44 9q33 79 59 115z" />
<glyph unicode="&#xc0;" horiz-adv-x="690" d="M396 634l111 49l4 -8q-7 -21 -7 -50q0 -10 1 -20q9 -130 52 -508q5 -31 18 -41.5t66 -29.5l-8 -27q-22 0 -66 1t-67 1q-20 0 -59 -1t-58 -1l6 23l48 29q0 14 -2 39.5t-6 67t-6 73.5q-60 -6 -164 -6h-55l-101 -166l84 -34l-8 -26q-19 0 -59.5 1t-61.5 1q-18 0 -54 -1 t-55 -1l9 26l74 34q37 48 356 534q10 14 8 28v13zM400 538h-2l-159 -258q23 0 94 -1.5t87 -1.5l-8 92l-7 93.5t-5 75.5zM535 746l-19 -27l-206 67v13q11 25 29 44.5t34 23.5z" />
<glyph unicode="&#xc1;" horiz-adv-x="690" d="M396 634l111 49l4 -8q-7 -21 -7 -50q0 -10 1 -20q9 -130 52 -508q5 -31 18 -41.5t66 -29.5l-8 -27q-22 0 -66 1t-67 1q-20 0 -59 -1t-58 -1l6 23l48 29q0 14 -2 39.5t-6 67t-6 73.5q-60 -6 -164 -6h-55l-101 -166l84 -34l-8 -26q-19 0 -59.5 1t-61.5 1q-18 0 -54 -1 t-55 -1l9 26l74 34q37 48 356 534q10 14 8 28v13zM400 538h-2l-159 -258q23 0 94 -1.5t87 -1.5l-8 92l-7 93.5t-5 75.5zM422 704l-18 28l162 120q17 -2 38 -20t34 -42l-1 -14z" />
<glyph unicode="&#xc2;" horiz-adv-x="690" d="M396 634l111 49l4 -8q-7 -21 -7 -50q0 -10 1 -20q9 -130 52 -508q5 -31 18 -41.5t66 -29.5l-8 -27q-22 0 -66 1t-67 1q-20 0 -59 -1t-58 -1l6 23l48 29q0 14 -2 39.5t-6 67t-6 73.5q-60 -6 -164 -6h-55l-101 -166l84 -34l-8 -26q-19 0 -59.5 1t-61.5 1q-18 0 -54 -1 t-55 -1l9 26l74 34q37 48 356 534q10 14 8 28v13zM400 538h-2l-159 -258q23 0 94 -1.5t87 -1.5l-8 92l-7 93.5t-5 75.5zM475 845h33l110 -115l-22 -26l-118 60l-148 -60l-19 26z" />
<glyph unicode="&#xc3;" horiz-adv-x="690" d="M396 634l111 49l4 -8q-7 -21 -7 -50q0 -10 1 -20q9 -130 52 -508q5 -31 18 -41.5t66 -29.5l-8 -27q-22 0 -66 1t-67 1q-20 0 -59 -1t-58 -1l6 23l48 29q0 14 -2 39.5t-6 67t-6 73.5q-60 -6 -164 -6h-55l-101 -166l84 -34l-8 -26q-19 0 -59.5 1t-61.5 1q-18 0 -54 -1 t-55 -1l9 26l74 34q37 48 356 534q10 14 8 28v13zM400 538h-2l-159 -258q23 0 94 -1.5t87 -1.5l-8 92l-7 93.5t-5 75.5zM620 828l23 -21q-63 -93 -116 -93q-18 0 -66 24q-39 19 -54 19q-28 0 -72 -47l-24 25q68 91 116 91q15 0 59 -21q40 -21 58 -21q30 0 76 44z" />
<glyph unicode="&#xc4;" horiz-adv-x="690" d="M396 634l111 49l4 -8q-7 -21 -7 -50q0 -10 1 -20q9 -130 52 -508q5 -31 18 -41.5t66 -29.5l-8 -27q-22 0 -66 1t-67 1q-20 0 -59 -1t-58 -1l6 23l48 29q0 14 -2 39.5t-6 67t-6 73.5q-60 -6 -164 -6h-55l-101 -166l84 -34l-8 -26q-19 0 -59.5 1t-61.5 1q-18 0 -54 -1 t-55 -1l9 26l74 34q37 48 356 534q10 14 8 28v13zM400 538h-2l-159 -258q23 0 94 -1.5t87 -1.5l-8 92l-7 93.5t-5 75.5zM391 854h6q9 -7 22.5 -31t17.5 -40l-1 -6q-7 -14 -33 -37.5t-40 -28.5h-6q-35 31 -45 74v4q37 47 79 65zM601 854h6q10 -7 23.5 -31.5t16.5 -39.5l-1 -6 q-6 -14 -32.5 -37t-40.5 -29h-6q-12 10 -26 32t-20 42l1 4q35 46 79 65z" />
<glyph unicode="&#xc5;" horiz-adv-x="690" d="M396 634l111 49l4 -8q-7 -21 -7 -50q0 -10 1 -20q9 -130 52 -508q5 -31 18 -41.5t66 -29.5l-8 -27q-22 0 -66 1t-67 1q-20 0 -59 -1t-58 -1l6 23l48 29q0 14 -2 39.5t-6 67t-6 73.5q-60 -6 -164 -6h-55l-101 -166l84 -34l-8 -26q-19 0 -59.5 1t-61.5 1q-18 0 -54 -1 t-55 -1l9 26l74 34q37 48 356 534q10 14 8 28v13zM400 538h-2l-159 -258q23 0 94 -1.5t87 -1.5l-8 92l-7 93.5t-5 75.5zM472 741q44 0 54 51q2 8 2 15q0 15 -8 24q-10 13 -30 13q-46 0 -54 -52q-2 -9 -2 -17q0 -34 38 -34zM497 880q37 0 61 -24q17 -19 17 -47q0 -9 -2 -20 q-8 -39 -39.5 -61.5t-68.5 -22.5t-60 23q-18 18 -18 46q0 8 2 18q7 40 39 64t69 24z" />
<glyph unicode="&#xc6;" horiz-adv-x="947" d="M480 298h-201l-168 -240l83 -33l-11 -26q-20 0 -61 0.5t-62 0.5q-18 0 -55.5 -0.5t-56.5 -0.5l9 26l76 33l421 548l-116 25l15 28q27 0 82 -0.5t85 -0.5h360q47 10 89 10l4 -5q-4 -19 -20.5 -73t-27.5 -78l-12 -6q-12 27 -38 110l-209 -7l-56 -263q166 2 250 11l5 -11 q-5 -9 -35.5 -33.5t-36.5 -24.5q-3 0 -93.5 5t-101.5 5q-6 -33 -24 -119l-26 -126l214 -10q99 90 135 119l12 -5q-6 -21 -26.5 -76.5t-36.5 -83.5q-95 3 -211 3h-164q-25 0 -75 -0.5t-76 -0.5l10 26l90 33q7 16 60 240zM314 346h178l66 267h-49z" />
<glyph unicode="&#xc7;" horiz-adv-x="683" d="M291 -89l64 70v1q-131 7 -208 84.5t-77 207.5q0 167 123.5 284t306.5 117q97 0 143 -40q32 17 82 26l8 -9q-9 -34 -35.5 -93.5t-38.5 -76.5l-17 -5q-9 36 -15 122q-38 27 -107 27q-95 0 -169 -50.5t-111.5 -129.5t-37.5 -168q0 -112 57 -178t160 -66q30 0 62 7 q97 83 161 127l11 -28q-52 -84 -92 -122q-78 -31 -160 -36l-34 -37q47 -28 47 -68q0 -45 -46 -73t-97 -35l-11 27q81 25 81 65q0 28 -49 47z" />
<glyph unicode="&#xc8;" horiz-adv-x="598" d="M136 634l11 26q23 0 67.5 -1t65.5 -1h244q59 10 89 10h5l4 -5q-21 -96 -47 -158l-16 -8q-15 36 -39 119l-178 -8l-62 -242q164 2 244 12l6 -14q-6 -9 -35.5 -33t-35.5 -24q-4 0 -93.5 5t-98.5 5q-39 -140 -68 -264l210 -11l44 43l52 51q22 21 39 34l17 -8 q-40 -115 -68 -165q-90 3 -209 3h-163q-25 0 -76 -0.5t-76 -0.5l11 26l90 34q9 19 82 284l71 259zM498 732l-19 -28l-206 67v13q11 25 28.5 45t34.5 24z" />
<glyph unicode="&#xc9;" horiz-adv-x="598" d="M136 634l11 26q23 0 67.5 -1t65.5 -1h244q59 10 89 10h5l4 -5q-21 -96 -47 -158l-16 -8q-15 36 -39 119l-178 -8l-62 -242q164 2 244 12l6 -14q-6 -9 -35.5 -33t-35.5 -24q-4 0 -93.5 5t-98.5 5q-39 -140 -68 -264l210 -11l44 43l52 51q22 21 39 34l17 -8 q-40 -115 -68 -165q-90 3 -209 3h-163q-25 0 -76 -0.5t-76 -0.5l11 26l90 34q9 19 82 284l71 259zM369 704l-18 28l162 121q18 -2 39 -20.5t34 -42.5l-1 -14z" />
<glyph unicode="&#xca;" horiz-adv-x="598" d="M136 634l11 26q23 0 67.5 -1t65.5 -1h244q59 10 89 10h5l4 -5q-21 -96 -47 -158l-16 -8q-15 36 -39 119l-178 -8l-62 -242q164 2 244 12l6 -14q-6 -9 -35.5 -33t-35.5 -24q-4 0 -93.5 5t-98.5 5q-39 -140 -68 -264l210 -11l44 43l52 51q22 21 39 34l17 -8 q-40 -115 -68 -165q-90 3 -209 3h-163q-25 0 -76 -0.5t-76 -0.5l11 26l90 34q9 19 82 284l71 259zM434 849h32l111 -115l-23 -26l-118 60l-148 -60l-19 26z" />
<glyph unicode="&#xcb;" horiz-adv-x="598" d="M136 634l11 26q23 0 67.5 -1t65.5 -1h244q59 10 89 10h5l4 -5q-21 -96 -47 -158l-16 -8q-15 36 -39 119l-178 -8l-62 -242q164 2 244 12l6 -14q-6 -9 -35.5 -33t-35.5 -24q-4 0 -93.5 5t-98.5 5q-39 -140 -68 -264l210 -11l44 43l52 51q22 21 39 34l17 -8 q-40 -115 -68 -165q-90 3 -209 3h-163q-25 0 -76 -0.5t-76 -0.5l11 26l90 34q9 19 82 284l71 259zM340 855h6q10 -8 23.5 -32.5t16.5 -39.5l-1 -6q-7 -14 -33 -37.5t-40 -28.5h-6q-33 29 -45 74v4q34 44 79 66zM550 855h6q10 -8 23.5 -32.5t17.5 -39.5l-2 -6 q-6 -14 -32.5 -37t-39.5 -29h-6q-13 10 -27 32.5t-19 41.5v4q32 43 79 66z" />
<glyph unicode="&#xcc;" horiz-adv-x="362" d="M148 633l11 26q21 0 62 -0.5t61 -0.5q24 0 73 0.5t74 0.5l-9 -27l-79 -33l-68 -256q-68 -259 -70 -285l85 -33l-12 -26q-24 0 -74 1t-75 1q-24 0 -74 -1t-75 -1l10 26l83 33q10 21 82 285l71 257zM401 731l-19 -27l-205 66v13q10 24 27.5 44.5t34.5 24.5z" />
<glyph unicode="&#xcd;" horiz-adv-x="362" d="M149 633l11 26q20 0 61 -0.5t61 -0.5q25 0 74 0.5t73 0.5l-8 -27l-80 -33l-67 -256q-70 -262 -70 -285l84 -33l-12 -26q-24 0 -73.5 1t-75.5 1q-24 0 -74 -1t-75 -1l10 26l83 33q9 18 83 285l70 257zM265 705l-18 27l162 121q18 -2 39 -20.5t33 -42.5v-14z" />
<glyph unicode="&#xce;" horiz-adv-x="362" d="M149 633l11 26q20 0 60.5 -0.5t61.5 -0.5q24 0 73 0.5t74 0.5l-9 -27l-79 -33l-67 -256q-70 -262 -70 -285l84 -33l-12 -26q-24 0 -74 1t-75 1q-24 0 -74 -1t-75 -1l10 26l83 33q9 18 83 285l70 257zM322 849h32l111 -115l-23 -25l-118 59l-148 -59l-18 26z" />
<glyph unicode="&#xcf;" horiz-adv-x="362" d="M148 633l11 26q21 0 62 -0.5t61 -0.5q24 0 73 0.5t74 0.5l-9 -27l-79 -33l-68 -256q-68 -259 -70 -285l85 -33l-12 -26q-24 0 -74 1t-75 1q-24 0 -74 -1t-75 -1l10 26l83 33q10 21 82 285l71 257zM237 854h5q10 -8 23.5 -32t17.5 -39l-2 -7q-7 -14 -32.5 -37.5 t-39.5 -28.5h-7q-33 31 -45 74l1 4q36 46 79 66zM447 854h6q9 -9 23 -33t17 -38l-1 -7q-7 -14 -33.5 -37.5t-39.5 -28.5h-6q-12 10 -26.5 32.5t-19.5 41.5l1 4q34 45 79 66z" />
<glyph unicode="&#xd0;" horiz-adv-x="761" d="M84 369h92l65 242l-81 18l11 25q150 12 228 12q170 0 260 -72.5t90 -212.5q0 -135 -87 -232.5t-230 -132.5q-78 -19 -251 -19h-34q-36 0 -85.5 1.5t-67.5 1.5l9 28l83 28q12 14 78 266h-99zM297 369h163l-24 -47h-151q-70 -267 -71 -286q153 0 246 61q78 50 117.5 129 t39.5 170q0 89 -46 147q-62 81 -209 81z" />
<glyph unicode="&#xd1;" horiz-adv-x="733" d="M214 25l-10 -26q-20 0 -60.5 0.5t-61.5 0.5q-18 0 -55.5 -0.5t-56.5 -0.5l9 26l87 39q33 77 154 495q-21 39 -39 50.5t-69 22.5l14 25q73 3 181 5q3 -21 24 -63l221 -468h2q12 44 58 230.5t57 235.5l-80 36l14 26q17 0 53 -0.5t53 -0.5q20 0 60.5 0.5t60.5 0.5l-11 -29 l-85 -33q-28 -65 -151 -531l61 -52l-5 -14l-152 -11q-57 116 -238 517h-2q-93 -335 -112 -443zM651 826l23 -21q-63 -93 -116 -93q-18 0 -66 24q-39 19 -54 19q-28 0 -72 -47l-24 25q68 91 116 91q15 0 59 -21q40 -21 58 -21q30 0 76 44z" />
<glyph unicode="&#xd2;" horiz-adv-x="750" d="M469 675q47 0 92 -16.5t85.5 -49.5t66 -93t25.5 -139q0 -67 -24.5 -135t-71.5 -126.5t-125 -95.5t-175 -37q-53 0 -100.5 17t-87.5 50.5t-63.5 90.5t-23.5 130q0 99 48.5 190.5t142.5 152.5t211 61zM468 636h-2q-73 0 -136 -62.5t-97.5 -153.5t-34.5 -181 q0 -218 146 -218q73 0 135.5 66t95 159t32.5 183q0 104 -38 155.5t-101 51.5zM589 739l-19 -27l-205 67v12q10 24 27.5 44.5t34.5 24.5z" />
<glyph unicode="&#xd3;" horiz-adv-x="750" d="M469 675q47 0 92 -16.5t85.5 -49.5t66 -93t25.5 -139q0 -67 -24.5 -135t-71.5 -126.5t-125 -95.5t-175 -37q-53 0 -100.5 17t-87.5 50.5t-63.5 90.5t-23.5 130q0 99 48.5 190.5t142.5 152.5t211 61zM468 636h-2q-73 0 -136 -62.5t-97.5 -153.5t-34.5 -181 q0 -218 146 -218q73 0 135.5 66t95 159t32.5 183q0 104 -38 155.5t-101 51.5zM435 714l-18 27l162 121q17 -2 38.5 -20.5t33.5 -42.5l-1 -13z" />
<glyph unicode="&#xd4;" horiz-adv-x="750" d="M469 675q47 0 92 -16.5t85.5 -49.5t66 -93t25.5 -139q0 -67 -24.5 -135t-71.5 -126.5t-125 -95.5t-175 -37q-53 0 -100.5 17t-87.5 50.5t-63.5 90.5t-23.5 130q0 99 48.5 190.5t142.5 152.5t211 61zM468 636h-2q-73 0 -136 -62.5t-97.5 -153.5t-34.5 -181 q0 -218 146 -218q73 0 135.5 66t95 159t32.5 183q0 104 -38 155.5t-101 51.5zM494 845h32l111 -114l-23 -26l-118 60l-148 -60l-19 26z" />
<glyph unicode="&#xd5;" horiz-adv-x="750" d="M469 675q47 0 92 -16.5t85.5 -49.5t66 -93t25.5 -139q0 -67 -24.5 -135t-71.5 -126.5t-125 -95.5t-175 -37q-53 0 -100.5 17t-87.5 50.5t-63.5 90.5t-23.5 130q0 99 48.5 190.5t142.5 152.5t211 61zM468 636h-2q-73 0 -136 -62.5t-97.5 -153.5t-34.5 -181 q0 -218 146 -218q73 0 135.5 66t95 159t32.5 183q0 104 -38 155.5t-101 51.5zM647 837l23 -21q-63 -93 -116 -93q-18 0 -66 24q-39 19 -54 19q-29 0 -73 -47l-23 25q67 91 116 91q14 0 58 -21q42 -21 58 -21q29 0 77 44z" />
<glyph unicode="&#xd6;" horiz-adv-x="750" d="M469 675q47 0 92 -16.5t85.5 -49.5t66 -93t25.5 -139q0 -67 -24.5 -135t-71.5 -126.5t-125 -95.5t-175 -37q-53 0 -100.5 17t-87.5 50.5t-63.5 90.5t-23.5 130q0 99 48.5 190.5t142.5 152.5t211 61zM468 636h-2q-73 0 -136 -62.5t-97.5 -153.5t-34.5 -181 q0 -218 146 -218q73 0 135.5 66t95 159t32.5 183q0 104 -38 155.5t-101 51.5zM419 856h5q10 -8 23.5 -32t17.5 -39l-2 -6q-7 -15 -32.5 -38.5t-39.5 -28.5h-7q-12 10 -26 33t-19 42l1 3q36 49 79 66zM629 856h6q9 -9 23 -33t17 -38l-1 -6q-7 -14 -33.5 -37.5t-39.5 -29.5h-6 q-13 10 -27 32.5t-19 42.5l1 3q36 49 79 66z" />
<glyph unicode="&#xd7;" horiz-adv-x="628" d="M524 396l-161 -165l160 -163l-46 -51l-162 165l-160 -165l-48 50l160 164l-161 162l49 51l160 -164l163 165z" />
<glyph unicode="&#xd8;" horiz-adv-x="750" d="M639 615l70 77l26 -26l-68 -76q71 -79 71 -213q0 -67 -24.5 -134.5t-71 -126.5t-124.5 -96t-175 -37q-106 0 -178 59l-82 -90l-24 29l79 87q-70 77 -70 203q0 98 48.5 189.5t142 153t209.5 61.5q101 0 171 -60zM211 139l373 422q-35 76 -113 76q-74 0 -138.5 -62.5 t-100 -154t-35.5 -182.5q0 -56 13 -97zM595 517l-372 -420q35 -76 117 -76q76 0 139.5 64t96.5 155.5t33 182.5q0 54 -11 93z" />
<glyph unicode="&#xd9;" horiz-adv-x="763" d="M213 599l-77 34l12 26q17 0 56.5 -0.5t57.5 -0.5q20 0 62 0.5t62 0.5l-10 -26l-48 -39q-103 -354 -115 -420q-4 -24 -4 -43q0 -34 14 -51q22 -25 65 -25q65 0 126 35.5t92 72.5l127 438l-49 32l13 26q35 -1 118 -1q22 0 63 0.5t61 0.5l-13 -27l-78 -33 q-14 -42 -78 -282.5t-65 -256.5l91 -20l-13 -27q-196 -25 -219 -30l-5 3l36 116h-2q-135 -119 -263 -119q-67 0 -106 28q-44 32 -44 102q0 38 13 88q16 59 43 149l50 164zM590 731l-19 -27l-206 67v13q28 59 62 68z" />
<glyph unicode="&#xda;" horiz-adv-x="763" d="M213 599l-77 34l12 26q17 0 56.5 -0.5t57.5 -0.5q20 0 62 0.5t62 0.5l-10 -26l-48 -39q-103 -354 -115 -420q-4 -24 -4 -43q0 -34 14 -51q22 -25 65 -25q65 0 126 35.5t92 72.5l127 438l-49 32l13 26q35 -1 118 -1q22 0 63 0.5t61 0.5l-13 -27l-78 -33 q-14 -42 -78 -282.5t-65 -256.5l91 -20l-13 -27q-196 -25 -219 -30l-5 3l36 116h-2q-135 -119 -263 -119q-67 0 -106 28q-44 32 -44 102q0 38 13 88q16 59 43 149l50 164zM473 704l-18 27l162 121q18 -2 39 -20.5t33 -42.5v-13z" />
<glyph unicode="&#xdb;" horiz-adv-x="763" d="M213 599l-77 34l12 26q17 0 56.5 -0.5t57.5 -0.5q20 0 62 0.5t62 0.5l-10 -26l-48 -39q-103 -354 -115 -420q-4 -24 -4 -43q0 -34 14 -51q22 -25 65 -25q65 0 126 35.5t92 72.5l127 438l-49 32l13 26q35 -1 118 -1q22 0 63 0.5t61 0.5l-13 -27l-78 -33 q-14 -42 -78 -282.5t-65 -256.5l91 -20l-13 -27q-196 -25 -219 -30l-5 3l36 116h-2q-135 -119 -263 -119q-67 0 -106 28q-44 32 -44 102q0 38 13 88q16 59 43 149l50 164zM529 844h32l111 -114l-23 -26l-118 60l-148 -60l-19 26z" />
<glyph unicode="&#xdc;" horiz-adv-x="763" d="M213 599l-77 34l12 26q17 0 56.5 -0.5t57.5 -0.5q20 0 62 0.5t62 0.5l-10 -26l-48 -39q-103 -354 -115 -420q-4 -24 -4 -43q0 -34 14 -51q22 -25 65 -25q65 0 126 35.5t92 72.5l127 438l-49 32l13 26q35 -1 118 -1q22 0 63 0.5t61 0.5l-13 -27l-78 -33 q-14 -42 -78 -282.5t-65 -256.5l91 -20l-13 -27q-196 -25 -219 -30l-5 3l36 116h-2q-135 -119 -263 -119q-67 0 -106 28q-44 32 -44 102q0 38 13 88q16 59 43 149l50 164zM437 854h6q10 -8 23.5 -32.5t16.5 -38.5l-1 -7q-7 -14 -33 -37.5t-40 -28.5h-6q-12 10 -26 33t-19 42 v3q34 44 79 66zM647 854h6q10 -8 23.5 -32t17.5 -39l-2 -7q-6 -14 -32.5 -37t-39.5 -29h-6q-13 10 -27 32.5t-19 42.5v3q32 43 79 66z" />
<glyph unicode="&#xdd;" horiz-adv-x="604" d="M98 633l12 26q19 0 59.5 -0.5t60.5 -0.5q19 0 56 0.5t55 0.5l-11 -27l-35 -25q3 -12 13 -42l28 -90l36 -121l3 -1q116 144 189 252l-37 28l12 26q11 0 36.5 -0.5t37.5 -0.5q20 0 59 0.5t59 0.5l-12 -27l-84 -33q-88 -92 -232 -277q-14 -18 -19 -41q-54 -202 -56 -223 l105 -33l-10 -26q-29 0 -85 0.5t-84 0.5t-83.5 -0.5t-83.5 -0.5l11 26l98 32q18 36 70 226q3 12 3 22q0 9 -2 17q-9 30 -90 268q-7 10 -21 17.5t-58 25.5zM397 704l-18 27l162 121q17 -2 38 -20.5t34 -42.5v-13z" />
<glyph unicode="&#xde;" horiz-adv-x="591" d="M-6 25l77 33q7 12 86 303l65 241l-69 31l10 26q21 0 61.5 -0.5t60.5 -0.5q24 0 71 0.5t70 0.5l-10 -27l-79 -31l-21 -76q40 4 54 4h10q93 0 150 -37q61 -39 61 -130q0 -85 -71.5 -144.5t-177.5 -59.5q-31 0 -59 8l-4 29q85 2 135 47.5t50 127.5q0 57 -32.5 87.5 t-89.5 30.5q-23 0 -35 -2l-33 -128q-62 -241 -74 -299l86 -33l-12 -27q-24 0 -70 0.5t-69 0.5q-24 0 -74 -0.5t-75 -0.5z" />
<glyph unicode="&#xdf;" horiz-adv-x="565" d="M64 436h70q46 138 134 204q77 56 165 56q69 0 110.5 -34t41.5 -99q0 -11 -4 -21q-68 -42 -105 -91t-37 -90q0 -33 38 -100q40 -74 40 -115q-1 -58 -54 -108.5t-143 -50.5q-32 0 -65 11t-49 30q19 48 56 89l17 4q10 -30 21 -91q13 -5 26 -5q35 0 62.5 22t27.5 50 q0 31 -39 96q-40 66 -41 118q0 27 11 53.5t38 56t45 45.5l56 50q7 23 7 39q0 51 -20.5 77t-54.5 26q-119 0 -185 -297l-17 -77l-20 -93q-9 -44 -21 -90q-27 -111 -58.5 -171.5t-82.5 -102.5q-70 -58 -134 -58q-66 0 -86 37l48 77l9 1q16 -24 41.5 -41t43.5 -17 q21 0 37.5 23.5t32.5 91.5q7 27 97 446l-77 16z" />
<glyph unicode="&#xe0;" horiz-adv-x="557" d="M412 447l120 12l4 -9l-42 -56q-43 -125 -91 -332l3 -1q60 18 117 95l7 -9q-3 -59 -63 -109.5t-145 -50.5q-19 0 -35 4q1 6 54 195h-3q-141 -199 -251 -199q-35 0 -54 27.5t-19 73.5q0 71 42.5 155t122.5 144q77 57 157 57q39 0 68 -23zM149 57q24 0 65.5 36t97.5 120 q48 73 76 175q-15 11 -37 11q-54 0 -112 -62q-49 -53 -79 -122.5t-30 -119.5q0 -38 19 -38zM398 512l-30 -16l-123 172l3 10q16 8 46 12q20 4 37 4q8 0 15 -1z" />
<glyph unicode="&#xe1;" horiz-adv-x="557" d="M412 447l120 12l4 -9l-42 -56q-43 -125 -91 -332l3 -1q60 18 117 95l7 -9q-3 -59 -63 -109.5t-145 -50.5q-19 0 -35 4q1 6 54 195h-3q-141 -199 -251 -199q-35 0 -54 27.5t-19 73.5q0 71 42.5 155t122.5 144q77 57 157 57q39 0 68 -23zM149 57q24 0 65.5 36t97.5 120 q48 73 76 175q-15 11 -37 11q-54 0 -112 -62q-49 -53 -79 -122.5t-30 -119.5q0 -38 19 -38zM336 495l-21 24l111 153q6 1 14 1q14 0 34 -3q32 -6 48 -14v-13z" />
<glyph unicode="&#xe2;" horiz-adv-x="557" d="M412 447l120 12l4 -9l-42 -56q-43 -125 -91 -332l3 -1q60 18 117 95l7 -9q-3 -59 -63 -109.5t-145 -50.5q-19 0 -35 4q1 6 54 195h-3q-141 -199 -251 -199q-35 0 -54 27.5t-19 73.5q0 71 42.5 155t122.5 144q77 57 157 57q39 0 68 -23zM149 57q24 0 65.5 36t97.5 120 q48 73 76 175q-15 11 -37 11q-54 0 -112 -62q-49 -53 -79 -122.5t-30 -119.5q0 -38 19 -38zM372 683l35 11l62 -178l-29 -19l-67 96l-120 -96l-20 24z" />
<glyph unicode="&#xe3;" horiz-adv-x="557" d="M412 447l120 12l4 -9l-42 -56q-43 -125 -91 -332l3 -1q60 18 117 95l7 -9q-3 -59 -63 -109.5t-145 -50.5q-19 0 -35 4q1 6 54 195h-3q-141 -199 -251 -199q-35 0 -54 27.5t-19 73.5q0 71 42.5 155t122.5 144q77 57 157 57q39 0 68 -23zM149 57q24 0 65.5 36t97.5 120 q48 73 76 175q-15 11 -37 11q-54 0 -112 -62q-49 -53 -79 -122.5t-30 -119.5q0 -38 19 -38zM520 632l22 -21q-62 -87 -110 -87q-16 0 -64 24q-39 18 -51 18q-26 0 -71 -43l-22 23q63 85 112 85q16 0 56 -20q42 -22 56 -22q33 0 72 43z" />
<glyph unicode="&#xe4;" horiz-adv-x="557" d="M412 447l120 12l4 -9l-42 -56q-43 -125 -91 -332l3 -1q60 18 117 95l7 -9q-3 -59 -63 -109.5t-145 -50.5q-19 0 -35 4q1 6 54 195h-3q-141 -199 -251 -199q-35 0 -54 27.5t-19 73.5q0 71 42.5 155t122.5 144q77 57 157 57q39 0 68 -23zM149 57q24 0 65.5 36t97.5 120 q48 73 76 175q-15 11 -37 11q-54 0 -112 -62q-49 -53 -79 -122.5t-30 -119.5q0 -38 19 -38zM297 657h5q9 -7 22 -30t16 -37l-1 -6q-6 -14 -30 -35.5t-38 -27.5h-6q-12 10 -25.5 31.5t-17.5 39.5v3q36 45 75 62zM489 657h7q8 -7 21 -30t17 -37l-2 -6q-6 -14 -31 -35.5 t-38 -27.5h-5q-12 9 -25 30.5t-18 40.5l1 3q32 43 73 62z" />
<glyph unicode="&#xe5;" horiz-adv-x="557" d="M412 447l120 12l4 -9l-42 -56q-43 -125 -91 -332l3 -1q60 18 117 95l7 -9q-3 -59 -63 -109.5t-145 -50.5q-19 0 -35 4q1 6 54 195h-3q-141 -199 -251 -199q-35 0 -54 27.5t-19 73.5q0 71 42.5 155t122.5 144q77 57 157 57q39 0 68 -23zM149 57q24 0 65.5 36t97.5 120 q48 73 76 175q-15 11 -37 11q-54 0 -112 -62q-49 -53 -79 -122.5t-30 -119.5q0 -38 19 -38zM371 536q20 0 35.5 13t20.5 39q2 8 2 15q0 15 -7 25q-11 13 -32 13q-46 0 -56 -53q-2 -8 -2 -15q0 -15 8 -24q10 -13 31 -13zM396 676q37 0 60 -24q17 -18 17 -45q0 -9 -2 -20 q-8 -40 -39 -63.5t-68 -23.5t-60 24q-18 17 -18 44q0 9 2 19q8 41 39.5 65t68.5 24z" />
<glyph unicode="&#xe6;" horiz-adv-x="730" d="M125 80q0 -33 25 -33q14 0 39.5 15t65 57t71.5 101q17 39 28.5 61.5t34 53t53.5 55.5l-1 3h-10q-90 0 -173 -69q-53 -44 -93 -118t-40 -126zM691 148l4 -35q-40 -59 -99.5 -92.5t-128.5 -33.5q-64 0 -106 34.5t-43 100.5q0 11 1 18h-3q-48 -66 -107.5 -109.5 t-114.5 -43.5q-38 0 -59.5 26t-21.5 71q0 68 50 151.5t147 139.5q62 35 128 46q42 7 93 7q28 0 58 -2q58 29 115 29t87.5 -28.5t31.5 -70.5q0 -34 -15 -59q-9 -18 -34 -33q-23 -13 -91.5 -35t-144.5 -34q-7 -28 -7 -55v-7q2 -37 21.5 -62.5t61.5 -25.5q46 0 96 33.5t78 69.5 h3zM590 418q-36 0 -79 -52.5t-66 -132.5q51 7 105 27q35 13 54 40q19 32 19 74q-1 44 -33 44z" />
<glyph unicode="&#xe7;" horiz-adv-x="423" d="M102 -86l65 72v1q-70 2 -104.5 46.5t-34.5 112.5q0 131 104 227q88 82 199 82q35 0 60.5 -8.5t33.5 -18.5q-2 -15 -20.5 -59t-30.5 -60l-17 -6q-17 34 -31 112q-6 2 -13 2q-44 0 -91 -54q-74 -84 -74 -206q0 -51 20 -78.5t58 -27.5q77 0 156 92l2 -1l7 -35 q-71 -100 -177 -115l-39 -44q46 -28 46 -67q0 -45 -46 -74t-96 -34l-9 27q81 25 81 64q0 26 -50 47z" />
<glyph unicode="&#xe8;" horiz-adv-x="443" d="M399 145l5 -37q-40 -57 -99 -89t-124 -32q-66 0 -109 37q-44 37 -44 123q0 47 19 98q20 54 56 101t91.5 78t119.5 31q58 0 89.5 -30t33.5 -77q0 -46 -31 -69q-23 -25 -102 -51t-150 -37q-6 -25 -6 -48v-6q0 -37 17.5 -62.5t57.5 -25.5q45 0 93.5 29.5t80.5 66.5h2z M300 418q-35 0 -76.5 -53.5t-63.5 -135.5q126 26 154 68q18 29 18 72q0 49 -32 49zM355 512l-30 -17l-124 173l3 10q16 8 46 12q21 4 38 4q7 0 14 -1z" />
<glyph unicode="&#xe9;" horiz-adv-x="443" d="M399 145l5 -37q-40 -57 -99 -89t-124 -32q-66 0 -109 37q-44 37 -44 123q0 47 19 98q20 54 56 101t91.5 78t119.5 31q58 0 89.5 -30t33.5 -77q0 -46 -31 -69q-23 -25 -102 -51t-150 -37q-6 -25 -6 -48v-6q0 -37 17.5 -62.5t57.5 -25.5q45 0 93.5 29.5t80.5 66.5h2z M300 418q-35 0 -76.5 -53.5t-63.5 -135.5q126 26 154 68q18 29 18 72q0 49 -32 49zM283 495l-20 24l111 153q6 1 13 1q14 0 35 -3q31 -6 47 -14v-13z" />
<glyph unicode="&#xea;" horiz-adv-x="443" d="M399 145l5 -37q-40 -57 -99 -89t-124 -32q-66 0 -109 37q-44 37 -44 123q0 47 19 98q20 54 56 101t91.5 78t119.5 31q58 0 89.5 -30t33.5 -77q0 -46 -31 -69q-23 -25 -102 -51t-150 -37q-6 -25 -6 -48v-6q0 -37 17.5 -62.5t57.5 -25.5q45 0 93.5 29.5t80.5 66.5h2z M300 418q-35 0 -76.5 -53.5t-63.5 -135.5q126 26 154 68q18 29 18 72q0 49 -32 49zM344 683l34 11l63 -178l-29 -19l-67 96l-120 -96l-20 23z" />
<glyph unicode="&#xeb;" horiz-adv-x="443" d="M399 145l5 -37q-40 -57 -99 -89t-124 -32q-66 0 -109 37q-44 37 -44 123q0 47 19 98q20 54 56 101t91.5 78t119.5 31q58 0 89.5 -30t33.5 -77q0 -46 -31 -69q-23 -25 -102 -51t-150 -37q-6 -25 -6 -48v-6q0 -37 17.5 -62.5t57.5 -25.5q45 0 93.5 29.5t80.5 66.5h2z M300 418q-35 0 -76.5 -53.5t-63.5 -135.5q126 26 154 68q18 29 18 72q0 49 -32 49zM260 657h5q9 -7 22 -30t16 -37l-1 -6q-6 -14 -30.5 -35.5t-38.5 -27.5h-6q-11 10 -24.5 31t-18.5 40l1 3q34 45 75 62zM452 657h6q9 -7 22 -30t16 -37l-1 -6q-6 -13 -31 -35t-38 -28h-5 q-12 9 -25 30.5t-18 40.5v3q31 42 74 62z" />
<glyph unicode="&#xec;" horiz-adv-x="317" d="M137 372l-67 11l10 24q25 13 92 30t95 18l3 -3q-111 -359 -122 -409l2 -1q26 5 62.5 38.5t64.5 65.5l4 -17q-3 -19 -15 -41.5t-33 -46t-55.5 -39t-76.5 -15.5q-35 0 -49 25q-7 13 -7 35t7 53q76 246 85 272zM262 512l-30 -17l-123 173l3 10q16 8 46 12q20 4 37 4 q8 0 15 -1z" />
<glyph unicode="&#xed;" horiz-adv-x="317" d="M137 372l-67 11l10 24q25 13 92 30t95 18l3 -3q-111 -359 -122 -409l2 -1q26 5 62.5 38.5t64.5 65.5l4 -17q-3 -19 -15 -41.5t-33 -46t-55.5 -39t-76.5 -15.5q-35 0 -49 25q-7 13 -7 35t7 53q76 246 85 272zM195 495l-21 24l111 153q6 1 14 1q14 0 35 -3q31 -6 47 -14 v-13z" />
<glyph unicode="&#xee;" horiz-adv-x="317" d="M137 372l-67 11l10 24q25 13 92 30t95 18l3 -3q-111 -359 -122 -409l2 -1q26 5 62.5 38.5t64.5 65.5l4 -17q-3 -19 -15 -41.5t-33 -46t-55.5 -39t-76.5 -15.5q-35 0 -49 25q-7 13 -7 35t7 53q76 246 85 272zM247 683l35 11l62 -178l-29 -19l-67 96l-120 -96l-20 23z" />
<glyph unicode="&#xef;" horiz-adv-x="317" d="M137 372l-67 11l10 24q25 13 92 30t95 18l3 -3q-111 -359 -122 -409l2 -1q26 5 62.5 38.5t64.5 65.5l4 -17q-3 -19 -15 -41.5t-33 -46t-55.5 -39t-76.5 -15.5q-35 0 -49 25q-7 13 -7 35t7 53q76 246 85 272zM161 657h5q9 -7 22 -30t16 -37l-1 -6q-6 -14 -30.5 -36 t-37.5 -27h-6q-11 10 -24.5 31t-18.5 40l1 3q35 45 74 62zM353 657h7q8 -7 21 -30t17 -37l-2 -6q-7 -14 -31.5 -36t-37.5 -27h-5q-12 9 -25 30.5t-18 40.5l1 3q32 43 73 62z" />
<glyph unicode="&#xf0;" horiz-adv-x="483" d="M174 523l133 59q-37 55 -104 87l22 27q85 -26 144 -88l113 50l24 -33l-110 -48q69 -91 69 -224q0 -165 -93 -275q-81 -91 -187 -91q-73 0 -115 47t-42 126q0 51 21 104q22 55 64 99q85 92 188 92q37 0 57 -17q-3 59 -30 113l-129 -57zM305 417q-32 0 -65 -37 q-42 -48 -69 -122.5t-27 -146.5q0 -43 13.5 -65t35.5 -22q38 0 78 54q30 42 56 119.5t26 160.5q0 25 -11 41q-15 18 -37 18z" />
<glyph unicode="&#xf1;" horiz-adv-x="565" d="M135 0l-112 -8q20 53 64 209t44 174l-72 9l8 23q23 10 95.5 28.5t95.5 20.5l3 -3q-5 -20 -71 -236h2q111 169 210 215q46 23 98 23q27 0 32 -9q1 -3 1 -9q0 -12 -8 -40q-81 -272 -89 -323l92 6l-13 -33q-197 -60 -212 -66l-9 11q3 13 55 178.5t60 193.5q5 17 -5 17 q-32 0 -84.5 -56.5t-98.5 -131.5q-44 -73 -86 -193zM499 632l22 -21q-61 -87 -110 -87q-17 0 -63 24q-39 18 -52 18q-23 0 -70 -43l-23 23q63 85 113 85q17 0 55 -20q42 -22 56 -22q33 0 72 43z" />
<glyph unicode="&#xf2;" horiz-adv-x="502" d="M311 455q72 0 115 -49t43 -131q0 -114 -80 -201t-196 -87q-69 0 -114 47t-46 126q0 119 83.5 207t194.5 88zM301 418q-36 0 -71.5 -49t-57 -119t-21.5 -132q0 -94 51 -94q36 0 71.5 48.5t56.5 119t21 134.5q0 92 -50 92zM373 512l-30 -16l-123 172l3 10q16 8 45 12 q21 4 38 4q8 0 15 -1z" />
<glyph unicode="&#xf3;" horiz-adv-x="502" d="M311 455q72 0 115 -49t43 -131q0 -114 -80 -201t-196 -87q-69 0 -114 47t-46 126q0 119 83.5 207t194.5 88zM301 418q-36 0 -71.5 -49t-57 -119t-21.5 -132q0 -94 51 -94q36 0 71.5 48.5t56.5 119t21 134.5q0 92 -50 92zM296 495l-20 24l111 153q6 1 13 1q14 0 34 -3 q32 -6 48 -14v-13z" />
<glyph unicode="&#xf4;" horiz-adv-x="502" d="M311 455q72 0 115 -49t43 -131q0 -114 -80 -201t-196 -87q-69 0 -114 47t-46 126q0 119 83.5 207t194.5 88zM301 418q-36 0 -71.5 -49t-57 -119t-21.5 -132q0 -94 51 -94q36 0 71.5 48.5t56.5 119t21 134.5q0 92 -50 92zM353 683l34 11l62 -178l-29 -19l-66 96l-121 -96 l-20 23z" />
<glyph unicode="&#xf5;" horiz-adv-x="502" d="M311 455q72 0 115 -49t43 -131q0 -114 -80 -201t-196 -87q-69 0 -114 47t-46 126q0 119 83.5 207t194.5 88zM301 418q-36 0 -71.5 -49t-57 -119t-21.5 -132q0 -94 51 -94q36 0 71.5 48.5t56.5 119t21 134.5q0 92 -50 92zM480 632l21 -21q-61 -87 -110 -87q-15 0 -63 24 q-39 18 -51 18q-26 0 -71 -43l-22 23q62 85 112 85q16 0 56 -20q42 -22 56 -22q32 0 72 43z" />
<glyph unicode="&#xf6;" horiz-adv-x="502" d="M311 455q72 0 115 -49t43 -131q0 -114 -80 -201t-196 -87q-69 0 -114 47t-46 126q0 119 83.5 207t194.5 88zM301 418q-36 0 -71.5 -49t-57 -119t-21.5 -132q0 -94 51 -94q36 0 71.5 48.5t56.5 119t21 134.5q0 92 -50 92zM271 657h5q9 -7 22 -30t16 -37l-1 -6 q-6 -14 -30.5 -35.5t-38.5 -27.5h-6q-11 10 -24.5 31t-18.5 40l1 3q34 45 75 62zM463 657h6q9 -8 22 -31t16 -36l-2 -6q-6 -13 -30.5 -35t-37.5 -28h-6q-11 10 -24.5 31.5t-17.5 39.5v3q33 44 74 62z" />
<glyph unicode="&#xf7;" horiz-adv-x="628" d="M91 265h459l-12 -62h-460zM313 144l8 1q10 -4 28 -24t25 -36l-2 -8q-7 -15 -25.5 -34.5t-30.5 -26.5l-9 -3q-36 20 -54 61l1 9q32 44 59 61zM316 453l7 1q11 -4 28.5 -24t24.5 -36l-1 -9q-7 -14 -26 -34t-31 -26l-9 -3q-35 19 -54 60l2 10q26 39 59 61z" />
<glyph unicode="&#xf8;" horiz-adv-x="501" d="M399 432l44 55l22 -25l-42 -51q47 -49 47 -132q0 -117 -79.5 -204.5t-197.5 -87.5q-53 0 -91 27l-47 -59l-22 29l43 53q-44 46 -44 122q0 120 82 208t196 88q53 0 89 -23zM145 113l204 265q-9 41 -47 41q-39 0 -77.5 -47.5t-60.5 -119.5q-20 -63 -20 -122v-16zM356 331 l-203 -262q11 -46 47 -46q41 0 79 48.5t59 119.5q20 68 20 132v6z" />
<glyph unicode="&#xf9;" horiz-adv-x="584" d="M136 372l-76 13l8 21q30 12 97.5 28t101.5 21l8 -1q-20 -50 -63.5 -188t-53.5 -182q-7 -24 7 -24q34 0 89 57t101 138q39 66 77 183q64 12 126 18l4 -7l-41 -56q-23 -62 -91 -331l2 -2q62 17 111 84l7 -18q-9 -51 -61 -95t-137 -44q-26 0 -44 6l66 219h-4 q-103 -156 -189 -200q-47 -25 -92 -25q-29 0 -43 17q-7 8 -7 24.5t7 40.5q6 22 90 303zM397 512l-30 -17l-123 173l3 10q16 8 45 12q21 4 38 4q7 0 14 -1z" />
<glyph unicode="&#xfa;" horiz-adv-x="584" d="M136 372l-76 13l8 21q30 12 97.5 28t101.5 21l8 -1q-20 -50 -63.5 -188t-53.5 -182q-7 -24 7 -24q34 0 89 57t101 138q39 66 77 183q64 12 126 18l4 -7l-41 -56q-23 -62 -91 -331l2 -2q62 17 111 84l7 -18q-9 -51 -61 -95t-137 -44q-26 0 -44 6l66 219h-4 q-103 -156 -189 -200q-47 -25 -92 -25q-29 0 -43 17q-7 8 -7 24.5t7 40.5q6 22 90 303zM339 495l-20 24l111 153q6 1 13 1q14 0 35 -3q31 -6 47 -14v-13z" />
<glyph unicode="&#xfb;" horiz-adv-x="584" d="M136 372l-76 13l8 21q30 12 97.5 28t101.5 21l8 -1q-20 -50 -63.5 -188t-53.5 -182q-7 -24 7 -24q34 0 89 57t101 138q39 66 77 183q64 12 126 18l4 -7l-41 -56q-23 -62 -91 -331l2 -2q62 17 111 84l7 -18q-9 -51 -61 -95t-137 -44q-26 0 -44 6l66 219h-4 q-103 -156 -189 -200q-47 -25 -92 -25q-29 0 -43 17q-7 8 -7 24.5t7 40.5q6 22 90 303zM384 683l35 11l62 -178l-29 -19l-67 96l-120 -96l-20 23z" />
<glyph unicode="&#xfc;" horiz-adv-x="584" d="M136 372l-76 13l8 21q30 12 97.5 28t101.5 21l8 -1q-20 -50 -63.5 -188t-53.5 -182q-7 -24 7 -24q34 0 89 57t101 138q39 66 77 183q64 12 126 18l4 -7l-41 -56q-23 -62 -91 -331l2 -2q62 17 111 84l7 -18q-9 -51 -61 -95t-137 -44q-26 0 -44 6l66 219h-4 q-103 -156 -189 -200q-47 -25 -92 -25q-29 0 -43 17q-7 8 -7 24.5t7 40.5q6 22 90 303zM291 657h5q9 -7 22 -30t16 -37l-1 -6q-6 -14 -30.5 -36t-38.5 -27h-5q-12 10 -25.5 31.5t-17.5 39.5v3q36 45 75 62zM483 657h6q9 -7 22 -30t16 -37l-1 -6q-6 -14 -31 -36t-38 -27h-5 q-12 10 -25.5 31t-17.5 40v3q31 42 74 62z" />
<glyph unicode="&#xfd;" horiz-adv-x="463" d="M53 279l-23 23q31 77 74 115t79 39q52 -4 75 -114q21 -97 21 -249h2q29 45 65.5 143.5t38.5 138.5l-30 42l2 11q47 25 95 27q6 0 10.5 -2.5t3.5 -6.5q-14 -81 -63 -198q-70 -168 -193 -319q-43 -53 -85.5 -91.5t-66.5 -53.5t-34 -15q-7 0 -18 9t-24.5 33t-20.5 57l4 12 q43 -1 109 -30q8 3 28.5 22t37.5 43q25 36 34.5 69t9.5 84q0 67 -12 146t-29 126q-8 25 -17 25q-7 0 -28.5 -25t-44.5 -61zM284 495l-21 24l111 153q6 1 14 1q14 0 34 -3q32 -6 48 -14v-13z" />
<glyph unicode="&#xfe;" horiz-adv-x="541" d="M124 639l10 24q27 11 95.5 21.5t95.5 10.5l1 -2q-78 -235 -130 -417h2q124 179 237 179q40 0 64 -32.5t24 -83.5q0 -131 -92 -241.5t-207 -110.5q-59 0 -91 36q-12 -42 -46 -178l94 -23l-8 -28q-2 0 -120.5 -5.5t-157.5 -5.5l11 28l63 30q9 20 34 109l57 206 q32 117 48 171q18 61 49.5 178t33.5 122zM373 391q-54 0 -139 -123q-55 -81 -89 -199q27 -40 66 -40t76 34t61.5 82.5t39 100.5t14.5 90q0 55 -29 55z" />
<glyph unicode="&#xff;" horiz-adv-x="463" d="M53 279l-23 23q31 77 74 115t79 39q52 -4 75 -114q21 -97 21 -249h2q29 45 65.5 143.5t38.5 138.5l-30 42l2 11q47 25 95 27q6 0 10 -3q4 -2 4 -5q0 -7 -6 -31.5t-21.5 -71.5t-35.5 -96q-70 -168 -193 -319q-43 -53 -85.5 -91.5t-66.5 -53.5t-34 -15q-7 0 -18 9t-24.5 33 t-20.5 57l4 12q43 -1 109 -30q8 3 28.5 22t37.5 43q25 36 34.5 69t9.5 84q0 67 -12 146t-29 126q-8 25 -17 25q-7 0 -28.5 -25t-44.5 -61zM221 657h5q9 -7 22 -30t16 -37l-2 -6q-5 -13 -29 -35t-38 -28h-6q-12 10 -25.5 31.5t-17.5 39.5l1 3q35 45 74 62zM413 657h6 q9 -7 22 -30t16 -37l-2 -6q-6 -13 -30.5 -35t-37.5 -28h-6q-12 9 -25 30.5t-18 40.5l1 3q33 44 74 62z" />
<glyph unicode="&#x152;" horiz-adv-x="1022" d="M504 50l146 556q-44 19 -114 19q-156 0 -246.5 -101.5t-90.5 -248.5q0 -104 57 -173t170 -69q44 0 78 17zM742 658h207q43 10 93 10l4 -5q-22 -101 -46 -160l-17 -8q-12 28 -38 121l-179 -7l-62 -243q164 2 245 12l4 -14q-5 -9 -34.5 -33t-35.5 -24q-4 0 -94 5t-99 5 q-24 -90 -66 -265l208 -10l46 44l54 51q23 21 39 34l14 -9q-37 -112 -67 -165q-99 3 -215 3h-122q-23 0 -96 -3t-85 -3q-160 0 -246.5 78t-86.5 206q0 167 122.5 276.5t340.5 109.5q46 0 125.5 -3t86.5 -3z" />
<glyph unicode="&#x153;" horiz-adv-x="741" d="M311 419q-42 0 -81.5 -62.5t-60 -135t-20.5 -117.5q0 -80 46 -80q33 0 63.5 36.5t50 88t31 104t11.5 89.5q0 77 -40 77zM316 455q95 0 123 -79h2q76 79 168 79q63 0 94 -29q32 -31 32 -80q0 -52 -51 -84q-66 -44 -238 -70q-6 -26 -6 -48v-6q0 -40 19 -65.5t60 -25.5 q47 0 98.5 32t77.5 64l3 -1l6 -33q-42 -58 -100 -90t-123 -32q-90 0 -127 76h-2q-72 -76 -168 -76q-71 0 -112.5 44t-42.5 114q0 121 86.5 215.5t200.5 94.5zM599 419q-31 0 -75 -54t-69 -135q47 8 96 26q39 15 59 48q20 32 20 67q0 48 -31 48z" />
<glyph unicode="&#x178;" horiz-adv-x="604" d="M98 633l12 26q19 0 59.5 -0.5t60.5 -0.5q19 0 56 0.5t55 0.5l-11 -27l-35 -25q3 -12 13 -42l28 -90l36 -121l3 -1q116 144 189 252l-37 28l12 26q11 0 36.5 -0.5t37.5 -0.5q20 0 59 0.5t59 0.5l-12 -27l-84 -33q-88 -92 -232 -277q-14 -18 -19 -41q-54 -202 -56 -223 l105 -33l-10 -26q-29 0 -85 0.5t-84 0.5t-83.5 -0.5t-83.5 -0.5l11 26l98 32q18 36 70 226q3 12 3 22q0 9 -2 17q-9 30 -90 268q-7 10 -21 17.5t-58 25.5zM372 854h6q10 -8 23.5 -32.5t16.5 -38.5l-1 -7q-7 -14 -33 -37.5t-40 -28.5h-6q-12 10 -26 33t-19 42v3q34 44 79 66z M582 854h6q10 -8 23.5 -32t17.5 -39l-2 -7q-6 -14 -32.5 -37t-39.5 -29h-6q-13 10 -27 32.5t-19 42.5v3q32 43 79 66z" />
<glyph unicode="&#x2c6;" horiz-adv-x="386" d="M302 683l34 11l62 -178l-29 -19l-67 96l-120 -96l-20 24z" />
<glyph unicode="&#x2dc;" horiz-adv-x="386" d="M438 632l21 -21q-61 -87 -110 -87q-17 0 -63 24q-39 18 -51 18q-27 0 -70 -43l-23 23q63 85 112 85q16 0 56 -20q40 -22 55 -22q33 0 73 43z" />
<glyph unicode="&#x2000;" horiz-adv-x="440" />
<glyph unicode="&#x2001;" horiz-adv-x="880" />
<glyph unicode="&#x2002;" horiz-adv-x="440" />
<glyph unicode="&#x2003;" horiz-adv-x="880" />
<glyph unicode="&#x2004;" horiz-adv-x="293" />
<glyph unicode="&#x2005;" horiz-adv-x="220" />
<glyph unicode="&#x2006;" horiz-adv-x="146" />
<glyph unicode="&#x2007;" horiz-adv-x="146" />
<glyph unicode="&#x2008;" horiz-adv-x="110" />
<glyph unicode="&#x2009;" horiz-adv-x="176" />
<glyph unicode="&#x200a;" horiz-adv-x="48" />
<glyph unicode="&#x2010;" horiz-adv-x="365" d="M286 226l-249 -33l43 86l53 -2l202 13l2 -8z" />
<glyph unicode="&#x2011;" horiz-adv-x="365" d="M286 226l-249 -33l43 86l53 -2l202 13l2 -8z" />
<glyph unicode="&#x2013;" horiz-adv-x="607" d="M543 199h-491l24 65h491z" />
<glyph unicode="&#x2014;" horiz-adv-x="960" d="M900 199h-850l24 65h849z" />
<glyph unicode="&#x2018;" horiz-adv-x="227" d="M286 695l15 -28q-44 -22 -72.5 -57t-28.5 -75q0 -16 8 -30l39 -25l-2 -15l-78 -52h-15q-13 8 -26 31.5t-13 53.5q0 68 47 118t126 79z" />
<glyph unicode="&#x2019;" horiz-adv-x="228" d="M107 409l-17 28q103 55 103 132q0 14 -7 30l-40 24l2 15l78 52h15q13 -7 26 -29t13 -54q0 -133 -173 -198z" />
<glyph unicode="&#x201a;" horiz-adv-x="237" d="M-31 -130l-16 28q45 25 75 61.5t30 76.5q0 19 -8 33l-41 26l2 15l83 54h16q13 -7 26.5 -30.5t13.5 -57.5q0 -70 -49 -122.5t-132 -83.5z" />
<glyph unicode="&#x201c;" horiz-adv-x="404" d="M463 695l16 -28q-44 -24 -73 -58.5t-29 -73.5q0 -14 7 -30l39 -25l-1 -15l-78 -52h-15q-13 8 -26 31.5t-13 53.5q0 68 47 117.5t126 79.5zM287 695l16 -28q-44 -22 -73.5 -57t-29.5 -75q0 -14 7 -30l40 -25l-2 -15l-78 -52h-15q-13 8 -26 31.5t-13 53.5q0 68 47.5 118 t126.5 79z" />
<glyph unicode="&#x201d;" horiz-adv-x="404" d="M107 410l-16 28q102 56 102 132q0 15 -7 29l-40 25l2 15l77 52h16q13 -7 25.5 -29t12.5 -54q0 -134 -172 -198zM283 410l-16 28q44 22 73.5 56.5t29.5 74.5q0 17 -7 29l-40 26l1 15l78 52h16q14 -8 26.5 -29.5t12.5 -53.5q0 -69 -47 -119t-127 -79z" />
<glyph unicode="&#x201e;" horiz-adv-x="429" d="M-32 -130l-16 28q45 25 75 61.5t30 76.5q0 19 -8 32l-41 27l2 15l83 54h16q13 -7 26.5 -30.5t13.5 -57.5q0 -70 -49 -122.5t-132 -83.5zM158 -130l-17 28q46 25 76 61.5t30 76.5q0 19 -8 32l-41 27l2 15l83 54h16q14 -8 27 -31t13 -57q0 -70 -49 -122.5t-132 -83.5z" />
<glyph unicode="&#x2022;" horiz-adv-x="412" d="M244 383h13q21 -17 53 -70t39 -85l-1 -13q-15 -30 -72 -80.5t-88 -63.5h-14q-25 21 -56.5 70t-46.5 92l3 7q41 54 90 92t80 51z" />
<glyph unicode="&#x2026;" horiz-adv-x="904" d="M121 146h8q11 -9 26.5 -37t19.5 -44l-1 -7q-7 -16 -37 -42.5t-46 -32.5h-7q-13 11 -29.5 36.5t-23.5 47.5l2 4q38 53 88 75zM422 146h8q11 -9 26.5 -37t19.5 -44l-1 -7q-8 -16 -37.5 -42.5t-45.5 -32.5h-7q-14 11 -30 36.5t-23 47.5l2 4q38 53 88 75zM720 146h8 q11 -9 26.5 -37t19.5 -44l-1 -7q-8 -16 -37.5 -42.5t-45.5 -32.5h-7q-13 11 -29.5 36.5t-23.5 47.5l2 4q38 53 88 75z" />
<glyph unicode="&#x202f;" horiz-adv-x="176" />
<glyph unicode="&#x2039;" horiz-adv-x="337" d="M234 52l-28 -16q-32 61 -75 116t-73 79q42 25 107 79.5t116 113.5l22 -18q-64 -115 -124 -178q39 -96 55 -176z" />
<glyph unicode="&#x203a;" horiz-adv-x="337" d="M105 408l27 16q30 -60 73.5 -115t74.5 -80q-41 -25 -105.5 -79.5t-115.5 -113.5l-23 18q45 87 124 178q-38 91 -55 176z" />
<glyph unicode="&#x205f;" horiz-adv-x="220" />
<glyph unicode="&#x20ac;" d="M81 402l42 1q40 109 124.5 177.5t196.5 68.5q85 0 142 -46q-19 -53 -56 -107l-17 -6q-14 51 -19 112q-20 5 -35 5q-72 0 -128.5 -56t-83.5 -146l265 5l-27 -49l-248 5q-12 -38 -12 -68l238 5l-29 -50l-211 5v-22q0 -86 27 -136q32 -57 94 -57q9 0 19 2q24 15 67 45.5 t66 44.5l10 -23q-53 -72 -100 -102q-44 -16 -95 -16q-100 0 -156.5 73.5t-56.5 192.5l-68 2l15 34h54q2 38 14 72h-48z" />
<glyph unicode="&#x2122;" horiz-adv-x="498" d="M148 640h113q2 0 8.5 1t11 2t6.5 1q4 0 4 -4q0 -14 -10 -47q-3 -5 -5 -5q-5 5 -17 33l-33 -3v-122l31 -7l-3 -16h-107l6 16l27 7v122l-34 3q-6 -9 -10.5 -17t-6.5 -11t-3 -5q-4 0 -8 2q-1 3 -0.5 9.5t0.5 17.5q1 22 1 24t3 2q1 0 4.5 -0.5t9.5 -1.5t12 -1zM307 624l3 16 h77l3 -12q20 -42 42 -82l40 84l1 10h79l-3 -16l-22 -6q0 -79 4 -123l26 -6l-6 -16h-90l5 16l18 4v120l-59 -139l-14 1l-58 131q-1 -17 -2.5 -56t-1.5 -54l29 -7l-4 -16h-77l5 15l21 8q3 20 6.5 62t4.5 56q-1 5 -5 6.5t-22 3.5z" />
</font>
</defs>
</svg>
