<?xml version="1.0" standalone="no"?>
<!DOCTYPE svg PUBLIC "-//W3C//DTD SVG 1.1//EN" "http://www.w3.org/Graphics/SVG/1.1/DTD/svg11.dtd" >
<svg xmlns="http://www.w3.org/2000/svg">
<metadata>
This is a custom SVG webfont generated by Font Squirrel.
Designer    : Robert Slimbach
Foundry URL : http://www.adobe.com/type
</metadata>
<defs>
<font id="webfontGxNQYN3F" horiz-adv-x="530" >
<font-face units-per-em="1000" ascent="735" descent="-265" />
<missing-glyph horiz-adv-x="229" />
<glyph unicode=" "  horiz-adv-x="229" />
<glyph unicode="&#x09;" horiz-adv-x="229" />
<glyph unicode="&#xa0;" horiz-adv-x="229" />
<glyph unicode="!" horiz-adv-x="267" d="M160 224l-35 -15q-35 264 -53 355l-24 48q24 15 70.5 27t98.5 13l7 -8q-26 -196 -64 -420zM140 150l10 4q15 -7 38 -33t32 -46l-3 -11q-7 -18 -31 -43t-40 -34l-11 -3q-19 10 -40 33.5t-31 43.5l3 11q37 55 73 78z" />
<glyph unicode="&#x22;" horiz-adv-x="371" d="M131 428l-37 -18q-23 165 -34 214l-21 35q55 28 111 37h16q-12 -141 -35 -268zM300 433l-38 -19q-15 108 -33 214l-22 35q53 26 111 38h16q-11 -132 -34 -268z" />
<glyph unicode="#" d="M337 398h-115l-32 -126h115zM106 478h92l39 158l46 5l-41 -163h115l40 158l45 5l-42 -163h95l-31 -81l-84 1l-32 -126h94l-30 -79l-82 1l-44 -176l-45 -5l45 181h-115l-43 -176l-46 -5l46 181l-106 -1l31 79h93l32 126h-103z" />
<glyph unicode="$" d="M244 633v86l36 9v-95q64 -3 103 -34q25 17 77 29l6 -5q-1 -20 -15 -73.5t-25 -80.5l-15 -6q-26 43 -39 96q-25 28 -92 33v-206l52 -18q16 -6 46 -19t45 -26t32.5 -31.5t25 -43t7.5 -54.5q0 -47 -20 -82.5t-53 -55t-66 -30t-69 -13.5v-93l-36 -11v102q-54 1 -117 22 t-90 48q4 22 21.5 65.5t27.5 56.5l13 5q9 -23 39 -134q37 -22 106 -22v217q-93 30 -142.5 71.5t-49.5 119.5q0 72 51 120t141 53zM244 398v194q-46 -5 -72 -30.5t-26 -65.5q0 -39 25 -60t73 -38zM280 257v-202q45 6 71.5 32t26.5 66q0 41 -24 63.5t-74 40.5z" />
<glyph unicode="%" horiz-adv-x="749" d="M197 654q72 0 113 -51.5t41 -125.5q0 -83 -44.5 -134t-111.5 -51q-69 0 -112 45.5t-43 130.5t47.5 135.5t109.5 50.5zM196 621q-59 0 -59 -147q0 -55 13.5 -102t47.5 -47q57 0 57 149q0 147 -59 147zM565 671l35 -28l-419 -682l-33 29zM556 351q72 0 113.5 -52.5 t41.5 -126.5q0 -81 -44.5 -132t-112.5 -51t-112 45.5t-44 128.5q0 85 47.5 136.5t110.5 51.5zM555 318q-34 0 -47 -45.5t-13 -101.5q0 -31 4 -61.5t19.5 -59t39.5 -28.5q56 0 56 149q0 20 -1.5 39.5t-7 46.5t-18.5 44t-32 17z" />
<glyph unicode="&#x26;" horiz-adv-x="782" d="M202 319q-39 -37 -39 -92q0 -69 49.5 -116t118.5 -47q49 0 84 28v1q-130 114 -213 226zM755 20l-9 -19q-51 -15 -98 -15q-64 0 -107.5 19t-93.5 61q-80 -80 -182 -80q-88 0 -155 52t-67 144q0 61 54 106q15 13 84 62q-48 69 -48 138q0 67 47.5 117.5t129.5 50.5h1 q70 0 113.5 -39t43.5 -96q0 -48 -46 -86q-43 -36 -108 -74q36 -47 96 -102.5t94 -79.5q28 38 51 87.5t31 85.5l-10 71l3 6q27 -1 78.5 -15.5t71.5 -28.5l-1 -5l-76 -55q-60 -105 -116 -172q141 -110 219 -133zM288 391h3q83 61 83 135q0 38 -19.5 64.5t-51.5 26.5h-1 q-33 0 -52.5 -29t-19.5 -68q0 -57 58 -129z" />
<glyph unicode="'" horiz-adv-x="202" d="M131 429l-37 -19q-29 191 -34 214l-21 35q55 28 111 37h16q-12 -143 -35 -267z" />
<glyph unicode="(" horiz-adv-x="333" d="M61 272q0 132 53.5 253.5t163.5 195.5l21 -21q-58 -60 -99 -168t-41 -261q0 -151 41 -259.5t99 -168.5l-21 -21q-110 73 -163.5 195.5t-53.5 254.5z" />
<glyph unicode=")" horiz-adv-x="331" d="M271 272q0 -131 -53.5 -253t-162.5 -197l-21 21q58 61 99 169.5t41 260.5q0 153 -41 260.5t-99 167.5l21 20q109 -74 162.5 -195.5t53.5 -253.5z" />
<glyph unicode="*" horiz-adv-x="386" d="M204 473l7 4l100 -41l22 -6q-3 -20 -24.5 -45.5t-38.5 -29.5l-9 22zM185 506l-12 -5l-98 40l-25 4q2 21 23 48t41 31l9 -22zM177 489l-3 -12l-88 -66l-16 -19q-14 8 -26 44q-8 23 -8 37q0 9 3 15l22 -5zM210 490l2 13l88 70l16 17q14 -12 26 -48q9 -28 9 -43q0 -5 -1 -8 l-24 5zM206 513l-11 -2l-14 115l-5 22q5 2 16 2q13 0 34 -3q40 -6 47 -15l-15 -18zM185 466l9 5l15 -115l8 -28q-6 -1 -14 -1q-16 0 -39 5q-36 7 -48 18l17 21z" />
<glyph unicode="+" horiz-adv-x="596" d="M334 -5l-71 -11v220h-197l12 62h185v190l71 11v-201h196l-11 -62h-185v-209z" />
<glyph unicode="," horiz-adv-x="247" d="M41 -144l-22 29q81 79 81 146q0 23 -10 41l-51 26v16l94 57h20q16 -5 31 -33q16 -30 16 -73q0 -54 -41 -109q-43 -58 -118 -100z" />
<glyph unicode="-" horiz-adv-x="373" d="M288 211l-246 -33l34 88l53 -1l204 13v-9z" />
<glyph unicode="." horiz-adv-x="247" d="M122 150l9 4q14 -7 37.5 -33t33.5 -46l-3 -11q-8 -19 -32 -44t-40 -34l-11 -3q-19 11 -40 34t-31 43l3 12q34 54 74 78z" />
<glyph unicode="/" horiz-adv-x="371" d="M111 -56h-62l220 733h62z" />
<glyph unicode="0" d="M272 654q101 0 165.5 -86t64.5 -243q0 -171 -69.5 -254.5t-169.5 -83.5q-97 0 -165.5 81t-68.5 247q0 164 72.5 251.5t170.5 87.5zM263 615q-52 0 -80 -88t-28 -212q0 -66 11.5 -129.5t38.5 -111.5t65 -48q52 0 79 88.5t27 202.5q0 119 -28 208.5t-85 89.5z" />
<glyph unicode="1" d="M216 561l-126 5l10 24q5 2 39 12l90 24l98 28h10q0 -48 2.5 -320t2.5 -277l121 -33l-11 -25q-30 0 -89 0.5t-88 0.5q-32 0 -96 -0.5t-95 -0.5l9 25l114 33q9 144 9 504z" />
<glyph unicode="2" d="M35 12l37 65q17 10 26 18q93 77 169 178q63 86 63 181q0 59 -31 102t-92 43q-26 0 -63 -16q-17 -110 -35 -147l-18 -11q-8 9 -28.5 55.5t-24.5 65.5q43 46 104.5 77t123.5 31q48 0 90.5 -17t74.5 -61q33 -45 33 -112t-34 -118q-34 -52 -107 -116q-60 -52 -171 -138v-2 q70 0 250 5l16 20l28 34l27 34l28 -11q-6 -41 -21.5 -98.5t-26.5 -78.5q-6 0 -99.5 2.5t-146.5 2.5h-172v12z" />
<glyph unicode="3" d="M94 169l16 4q15 -28 41 -138q18 -6 43 -6q67 0 111 43q43 41 43 109q0 58 -30 92.5t-80 42.5q-64 -15 -100 -17l-7 11q4 11 17.5 29t22.5 23q19 0 67 -4q86 30 86 124q0 57 -30.5 90t-84.5 33q-34 0 -57 -14q-17 -86 -34 -118l-16 -8q-32 43 -52 102q109 88 218 88 q92 0 139 -44t47 -105q0 -65 -43 -100t-114 -56v-6q191 -16 193 -155q0 -66 -41.5 -113.5t-100.5 -68t-125 -20.5q-57 0 -107 16.5t-76 37.5q26 84 54 128z" />
<glyph unicode="4" d="M398 189l2 -134l87 -31l-9 -25q-24 0 -72 1t-72 1q-27 0 -81 -1t-81 -1l8 25l90 31q0 6 2 51t2 79l-240 -3l-19 37q37 74 138 230.5t119 173.5q15 9 55.5 19t68.5 12l2 -422h48q35 43 55 58h15q0 -15 -9 -79.5t-13 -74.5l-14 -5q-8 8 -34 59zM274 231l9 340h-4 q-138 -230 -191 -335q62 -5 186 -5z" />
<glyph unicode="5" d="M89 284l-16 14q18 105 50 345q39 -2 259 -2q23 0 90 18l11 -21q-28 -38 -84 -84q-16 -11 -42 -12q-72 -5 -196 -5q-3 -18 -9 -45l-13 -70l-14 -75l2 -1q81 39 152 39q59 0 102 -17.5t64.5 -46t31 -56.5t9.5 -56q0 -61 -26.5 -106.5t-69 -69.5t-85.5 -35t-85 -11 q-50 0 -96.5 13.5t-74.5 34.5q7 25 25.5 69.5t26.5 58.5l17 6q9 -18 24 -68t19 -69q16 -4 34 -4q62 0 108.5 46t46.5 121q0 58 -30 96t-99 38q-67 0 -132 -45z" />
<glyph unicode="6" d="M452 665l14 -34q-128 -22 -206.5 -99t-92.5 -192l2 -1q83 63 151 63q72 0 126.5 -50t54.5 -141q0 -105 -70 -164.5t-160 -59.5q-120 0 -180.5 78t-60.5 196q0 157 103 265q57 62 140 98t179 41zM265 335q-47 0 -86 -34q-17 -15 -17 -64q0 -85 29 -148t84 -63 q36 0 59 28.5t30 61t7 67.5q0 69 -29.5 110.5t-76.5 41.5z" />
<glyph unicode="7" d="M123 -13l-8 11q19 65 128 239q100 158 169 302q-50 3 -143 3q-91 0 -151 -2l-12 -24l-20 -40q-10 -18 -14 -23l-19 -5q-10 80 -10 196l3 3q47 -6 70 -6h197q132 0 175 1l-3 -31q-6 -40 -125.5 -274.5t-132.5 -278.5l-2 -58z" />
<glyph unicode="8" d="M274 654q82 0 135.5 -45.5t53.5 -113.5q0 -26 -10 -48.5t-33 -43t-33 -27.5l-37 -25v-2q39 -22 64 -41q73 -53 73 -137q0 -70 -61 -127t-170 -57q-99 0 -156.5 49.5t-57.5 115.5q0 48 29.5 82t99.5 75v3q-28 18 -44 32q-60 54 -60 127q0 84 61 134q61 49 146 49zM263 616 q-34 0 -63 -28t-29 -79q0 -43 35 -76q21 -20 107 -64q51 46 51 119q0 54 -28 91t-73 37zM274 26q42 0 71 29.5t29 78.5t-47 86q-38 31 -120 71q-57 -44 -57 -123q0 -61 35.5 -101.5t88.5 -40.5z" />
<glyph unicode="9" d="M92 -20l-19 32q22 5 42.5 11.5t63.5 28.5t75 50.5t62 79t40 112.5l-2 1q-65 -49 -136 -51q-74 0 -129 51t-55 142q0 96 68 156.5t163 60.5q63 0 110 -26t72 -68t36.5 -86.5t11.5 -90.5q0 -172 -115.5 -280t-287.5 -123zM257 615q-50 0 -75 -47q-23 -46 -23 -102 q0 -78 37 -118q35 -39 86 -39q28 0 56 15q15 8 18 23q6 30 6 62q0 85 -27 145.5t-78 60.5z" />
<glyph unicode=":" horiz-adv-x="247" d="M122 150l9 4q14 -7 37.5 -33t33.5 -46l-3 -11q-8 -19 -32 -44t-40 -34l-11 -3q-19 11 -40 34t-31 43l3 12q34 54 74 78zM122 443l9 3q14 -6 37.5 -32.5t33.5 -46.5l-3 -10q-8 -19 -32 -44t-40 -34l-11 -4q-19 11 -40 34.5t-31 43.5l3 11q35 55 74 79z" />
<glyph unicode=";" horiz-adv-x="247" d="M121 443l10 3q14 -6 37.5 -32t33.5 -47l-3 -11q-8 -18 -32 -43t-40 -34l-11 -4q-19 11 -40.5 35t-30.5 43l2 11q35 54 74 79zM40 -144l-22 29q81 79 81 147q0 25 -10 40l-51 26v17l93 56h20q16 -6 31 -33q17 -30 17 -73q0 -54 -41 -109q-43 -57 -118 -100z" />
<glyph unicode="&#x3c;" horiz-adv-x="575" d="M78 187l7 73l412 205l-10 -77l-341 -164v-3l351 -168l-10 -72z" />
<glyph unicode="=" horiz-adv-x="596" d="M527 176l-13 -62h-444l12 62h445zM527 356l-13 -62h-444l12 62h445z" />
<glyph unicode="&#x3e;" horiz-adv-x="575" d="M497 260l-7 -73l-411 -206l9 78l334 164v3l-343 166l9 73z" />
<glyph unicode="?" horiz-adv-x="433" d="M216 652h2q70 0 123 -39.5t53 -116.5q0 -61 -70 -118q-95 -81 -95 -112q0 -16 14 -43l-29 -15q-31 8 -60 41.5t-30 74.5q18 45 94 115q63 60 63 94q0 27 -22 51t-64 24q-23 0 -43 -9q-11 -67 -39 -118l-16 -7q-36 45 -54 111q37 29 87 48t86 19zM203 150l9 4 q14 -7 38 -33t34 -46l-4 -11q-7 -18 -31 -43t-40 -34l-11 -3q-19 10 -40.5 33.5t-30.5 43.5l2 11q36 54 74 78z" />
<glyph unicode="@" horiz-adv-x="827" d="M490 356q-37 0 -80 -44q-34 -35 -60.5 -92t-26.5 -103q0 -28 17 -28q19 0 54 29.5t66 77.5q28 38 41.5 67.5t27.5 77.5q-15 15 -39 15zM634 407l5 -5l-29 -56q-26 -94 -61 -269q-4 -11 4 -11q71 0 122 57t51 160q0 113 -75.5 180.5t-193.5 67.5q-81 0 -146 -30 t-104 -79.5t-59 -110t-20 -125.5q0 -147 88.5 -228.5t218.5 -81.5q169 0 296 123l19 -29q-139 -151 -340 -151q-161 0 -262.5 98.5t-101.5 260.5q0 164 115.5 279.5t300.5 115.5q139 0 231 -80.5t92 -213.5q0 -112 -84 -187q-81 -72 -199 -72h-10q-26 0 -44 6 q5 19 21.5 76.5t21.5 76.5h-5q-49 -73 -102.5 -115.5t-98.5 -42.5q-27 0 -44 23t-17 64q0 59 35.5 129.5t103.5 118.5q62 43 116 43q37 0 61 -25l8 21z" />
<glyph unicode="A" horiz-adv-x="726" d="M293 633l104 49l4 -5q0 -31 15 -72q18 -53 196 -500q14 -32 31.5 -45t72.5 -35l-8 -26q-23 0 -72 0.5t-73 0.5q-18 0 -55.5 -0.5t-57.5 -0.5l8 25l36 32q-3 10 -12 34l-26 64l-27 73q-77 -5 -160 -5q-28 0 -57 1l-58 -159l82 -38l-7 -27q-18 0 -56 0.5t-56 0.5t-54 -0.5 t-54 -0.5l8 27l69 39q58 114 215 510q5 12 2 27zM326 527h-2l-92 -245q16 0 89.5 -2t91.5 -2z" />
<glyph unicode="B" horiz-adv-x="642" d="M40 629l8 25q130 13 249 13q133 0 200 -36t67 -115q0 -68 -50 -106.5t-121 -47.5v-7q212 -20 212 -163q0 -195 -346 -195q-108 0 -222 3l7 27l69 34q6 48 6 226v318zM246 626v-257q184 2 184 136q0 70 -54 101q-37 20 -106 20h-24zM463 194q0 64 -47 100q-45 35 -163 35 h-7v-19q0 -210 4 -274q131 0 180 58q33 38 33 100z" />
<glyph unicode="C" horiz-adv-x="696" d="M419 677q93 0 152 -33q44 19 90 25l6 -4q-2 -25 -18.5 -92t-24.5 -86l-22 -10q-25 62 -41 127q-36 23 -107 23q-127 0 -200.5 -86t-73.5 -210q0 -126 75.5 -211.5t206.5 -85.5q29 0 47 5q84 83 140 127l20 -16q-9 -29 -36 -78t-40 -63q-26 -10 -79.5 -19t-91.5 -9 q-74 0 -140.5 20.5t-121.5 61t-87.5 108t-32.5 153.5q0 87 35.5 157t92.5 111.5t121.5 63t129.5 21.5z" />
<glyph unicode="D" horiz-adv-x="755" d="M37 630l6 24q143 13 247 13q215 0 320 -83.5t105 -238.5q0 -69 -20.5 -124.5t-55 -92t-69.5 -59t-75 -37.5q-94 -35 -294 -35q-60 0 -171 3l8 27l75 30q6 25 6 286v262zM246 624v-280q0 -294 4 -308q156 0 236 75q88 82 88 228q0 142 -91 218q-80 67 -228 67h-9z" />
<glyph unicode="E" horiz-adv-x="592" d="M33 634l8 25q23 0 69 -0.5t69 -0.5h248q25 7 100 14l3 -4q-1 -19 -10 -76t-15 -79l-18 -8q-40 72 -57 109l-184 -9v-240q113 0 254 13l5 -11q-3 -10 -27 -37.5t-34 -27.5q-6 0 -92 5.5t-106 6.5q0 -183 4 -260l187 -11q88 112 107 131l20 -6q-2 -19 -16 -85.5t-22 -85.5 q-63 3 -177 3h-173q-24 0 -76.5 -0.5t-76.5 -0.5l8 26l82 35q6 24 6 284v257z" />
<glyph unicode="F" horiz-adv-x="560" d="M37 634l9 25q22 0 65 -0.5t65 -0.5h259q46 8 97 13l2 -3q-1 -19 -11 -82t-16 -84l-19 -7q-26 54 -53 119l-189 -9v-256q126 0 256 14l7 -12q-3 -9 -28 -36t-33 -28q-5 0 -92.5 6t-109.5 6q0 -196 4 -238l115 -35l-10 -27q-26 0 -82.5 1t-86.5 1q-24 0 -73.5 -1t-74.5 -1 l6 27l71 34q4 19 4 281v259z" />
<glyph unicode="G" horiz-adv-x="746" d="M374 286l45 34q105 7 278 7q-16 -131 -34 -231.5t-26 -114.5h-7q-54 8 -76 36q-78 -36 -153 -36q-157 0 -258.5 93.5t-101.5 249.5q0 155 110.5 254t278.5 99q87 0 155 -38q48 23 87 32l10 -7q-2 -21 -18.5 -89.5t-26.5 -93.5l-22 -11q-23 57 -43 129q-46 26 -116 26 q-123 0 -198 -80.5t-75 -213.5q0 -123 70 -207t204 -84q58 0 89 13v8q0 49 11 204l-179 9z" />
<glyph unicode="H" horiz-adv-x="791" d="M43 632l9 27q22 0 66 -0.5t65 -0.5t60 0.5t58 0.5l-9 -29l-46 -33v-219h299v220l-48 35l7 26q18 0 53.5 -0.5t52.5 -0.5q25 0 74.5 0.5t72.5 0.5l-7 -28l-78 -34v-256q0 -256 7 -279l88 -36l-8 -27q-23 0 -72 0.5t-74 0.5q-21 0 -61.5 -0.5t-60.5 -0.5l8 28l45 34 q1 31 1 268q-35 -7 -121 -7h-178q0 -226 1 -259l56 -37l-8 -27q-19 0 -57.5 0.5t-59.5 0.5q-24 0 -73 -0.5t-72 -0.5l8 27l72 34q6 138 6 287v251z" />
<glyph unicode="I" horiz-adv-x="366" d="M44 633l9 26q21 0 64.5 -0.5t65.5 -0.5q24 0 70.5 0.5t69.5 0.5l-7 -27l-70 -33v-256q0 -251 5 -283l88 -34l-7 -27q-24 0 -74 0.5t-77 0.5t-77 -0.5t-74 -0.5l8 27l75 34q6 20 6 283v256z" />
<glyph unicode="J" horiz-adv-x="344" d="M25 632l8 27q23 0 70 -0.5t72 -0.5q23 0 71.5 0.5t73.5 0.5l-6 -27l-70 -35v-434q0 -76 -21 -133q-24 -70 -78.5 -126.5t-97.5 -83.5l-28 22v8q56 45 76 93.5t22 132.5q1 32 1 101.5t-1 176.5q-3 207 -4 244z" />
<glyph unicode="K" horiz-adv-x="707" d="M698 659l-9 -26q-10 -4 -31 -11l-48 -14l-36 -12q-17 -5 -30 -18q-57 -56 -164 -186v-3l212 -264q95 -113 108 -133l-7 -7q-89 1 -133 21t-89 67q-92 94 -202 247v6q187 219 229 286q-1 12 -1 21q0 19 3 28q34 1 60 1h24l71 -2t43 -1zM43 634l8 26q21 0 63 -0.5t64 -0.5 q24 0 71.5 0.5t70.5 0.5l-7 -27l-67 -34v-256q0 -251 5 -283l88 -34l-10 -27q-23 0 -73.5 1t-78.5 1q-25 0 -74 -1t-72 -1l7 27l75 34q6 22 6 283v257z" />
<glyph unicode="L" horiz-adv-x="581" d="M38 633l9 26q21 0 66 -0.5t69 -0.5t70.5 0.5t69.5 0.5l-9 -28l-67 -33v-254q0 -238 4 -290l186 -12q81 117 106 142l18 -6q-1 -24 -14.5 -93t-20.5 -89q-10 0 -46.5 1t-114 2t-184.5 1q-24 0 -75 -0.5t-79 -0.5l8 26l81 35q4 18 4 283v255z" />
<glyph unicode="M" horiz-adv-x="940" d="M61 631l12 26l201 2q0 -28 5 -40q4 -11 198 -413h2l196 410q3 7 3 43l219 -2l-7 -27l-85 -32q2 -83 11.5 -298t13.5 -239l91 -35l-6 -27q-23 0 -71 0.5t-72 0.5t-72.5 -0.5t-71.5 -0.5l8 27l60 35l-3 251q-2 169 -3 234h-4l-239 -550l-23 -5l-229 539h-2 q-25 -287 -28 -467l89 -38l-6 -26q-19 0 -59 0.5t-61 0.5q-18 0 -55.5 -0.5t-55.5 -0.5l6 26l71 37q15 65 64 509q-11 24 -23.5 31.5t-73.5 28.5z" />
<glyph unicode="N" horiz-adv-x="769" d="M281 25l-7 -26q-20 0 -63 1t-65 1q-20 0 -60 -1t-59 -1l5 27l79 40q9 91 19 487q-22 29 -38.5 44t-26 19t-43.5 16l11 27l174 5q4 -15 40 -60q194 -237 365 -424h2q0 78 -6 414l-98 39l9 26q21 0 61 -0.5t57 -0.5q19 0 59 0.5t60 0.5l-7 -28l-77 -37q0 -3 -3 -101.5 t-6 -211.5t-3 -195q0 -64 -5 -101l-19 -6q-123 92 -462 521h-2q-1 -111 -1 -194q0 -199 8 -241z" />
<glyph unicode="O" horiz-adv-x="796" d="M400 677q47 0 95 -12t95 -39t83 -65t58.5 -95.5t23.5 -126.5v-6q0 -85 -30 -154q-31 -71 -83.5 -113t-114.5 -63.5t-127 -21.5q-50 0 -100 13t-97 40.5t-83 66.5t-57.5 96.5t-21.5 125.5q0 107 54 190t134.5 123.5t170.5 40.5zM387 637q-96 0 -149 -85t-53 -212 q0 -81 25.5 -153t79 -119.5t123.5 -47.5q55 0 95 28t61.5 75t31.5 97t10 104q0 73 -24.5 143t-77.5 120t-122 50z" />
<glyph unicode="P" horiz-adv-x="615" d="M39 626l9 26q172 15 235 15q143 0 211 -42q85 -53 85 -159q0 -46 -16.5 -83.5t-41.5 -60t-57.5 -37.5t-62.5 -20.5t-58 -5.5q-26 0 -44 5l-9 30q74 7 113.5 51.5t39.5 116.5q0 162 -196 162v-268q0 -105 1.5 -173t3 -93t1.5 -26l116 -38l-7 -27q-29 0 -88.5 0.5 t-89.5 0.5q-24 0 -72.5 -0.5t-72.5 -0.5l8 26l70 37q4 18 4 292v248z" />
<glyph unicode="Q" horiz-adv-x="796" d="M400 677q47 0 94.5 -12t94.5 -38.5t83 -65t59 -96.5t24 -127v-7q0 -60 -17 -112q-18 -55 -43.5 -90t-60.5 -63t-61.5 -41.5t-51.5 -21.5v-2l291 -164l-11 -17q-28 -4 -56 -4q-88 0 -174 38q-49 21 -199 109q-35 19 -56 26q-54 16 -100.5 41.5t-87 65t-64 98t-23.5 130.5 q0 107 54 189.5t134.5 123t170.5 40.5zM386 637q-95 0 -148 -87t-53 -213q0 -125 61.5 -217t172.5 -109q52 8 90.5 39t60 76.5t31.5 95t10 103.5q0 75 -24.5 144.5t-77.5 118.5t-123 49z" />
<glyph unicode="R" horiz-adv-x="654" d="M37 619l10 28q105 20 268 20q258 0 258 -167q0 -118 -152 -169v-1q43 -82 140 -217l87 -118l-9 -11q-75 1 -117.5 20.5t-75.5 57.5q-67 77 -166 249l2 5q77 20 116.5 56.5t39.5 106.5q0 143 -179 143h-12v-302q0 -229 2 -260l95 -34l-7 -27q-25 0 -76 0.5t-77 0.5 t-76 -0.5t-76 -0.5l8 27l73 33q7 126 7 260v284z" />
<glyph unicode="S" horiz-adv-x="536" d="M277 677h2q64 0 103 -29q19 14 75 33l13 -7q-1 -19 -13 -76.5t-24 -86.5l-17 -8q-29 52 -45 108q-27 19 -78 19q-54 0 -88.5 -29.5t-34.5 -76.5q0 -56 59 -88q15 -9 37 -21l56 -29l56 -29q70 -38 96 -79.5t26 -92.5q0 -56 -24.5 -98t-64.5 -64t-81 -32t-82 -10 q-62 0 -125 24t-86 44q5 24 24.5 74t28.5 64l16 7q15 -34 40 -151q27 -17 85 -17h7q64 1 100.5 31.5t36.5 84.5q0 60 -66 97q-131 72 -148 82q-103 60 -103 164q1 79 60 135.5t159 56.5z" />
<glyph unicode="T" horiz-adv-x="682" d="M137 658h418q49 11 94 15l4 -5q-10 -89 -33 -173l-17 -7q-2 4 -23 56.5t-28 73.5l-151 -7v-244q0 -156 6 -306l117 -35l-9 -27q-29 0 -86.5 0.5t-86.5 0.5q-30 0 -90 -0.5t-90 -0.5l7 27l103 35q3 30 3 273v277l-141 8q-51 -90 -76 -123l-18 -5q-1 32 -1 60q0 73 6 117 l6 5q34 -2 86 -15z" />
<glyph unicode="U" horiz-adv-x="746" d="M25 632l9 27q23 0 68.5 -0.5t67.5 -0.5t65 0.5t64 0.5l-7 -28l-56 -34q-1 -113 -1 -372q0 -70 26 -108q47 -70 150 -70q99 0 149 70q34 49 34 132q0 223 -4 348l-72 34l7 28q16 0 48.5 -0.5t47.5 -0.5q21 0 62.5 0.5t60.5 0.5l-5 -28l-83 -35q-5 -30 -11 -342 q-2 -98 -39 -159q-32 -52 -91 -82.5t-135 -30.5q-79 0 -144 28.5t-100 89.5q-28 49 -28 135q0 55 -0.5 134t-0.5 135.5t-1 94.5z" />
<glyph unicode="V" horiz-adv-x="703" d="M259 659l-6 -28l-34 -29l179 -459h2q109 298 160 458l-35 31l9 27q11 0 34.5 -0.5t35.5 -0.5q18 0 52 0.5t51 0.5l-5 -26q-53 -22 -80 -47q-40 -76 -214 -529q-28 -44 -67 -76h-11l-237 596q-14 19 -32.5 30.5t-56.5 25.5l10 26q21 0 66 -0.5t68 -0.5q19 0 56.5 0.5 t54.5 0.5z" />
<glyph unicode="W" horiz-adv-x="1039" d="M-1 633l10 26q21 0 65.5 -0.5t67.5 -0.5h105l-5 -26l-25 -27q24 -65 194 -465h3q18 33 94 195q-46 108 -116 255q-19 22 -75 43l7 26q19 0 58 -0.5t59 -0.5h78l1 -4l5 -48q7 -21 62 -147h3l26 56l22 49q9 19 17 39l3 51l2 4h44q17 0 50.5 0.5t49.5 0.5l-7 -26 q-63 -24 -90 -49l-97 -177l113 -262h2q79 200 166 454l-30 33l9 26h60q20 0 58 0.5t56 0.5l-8 -26q-54 -21 -86 -53q-38 -69 -211 -511q-26 -52 -64 -88h-11l-132 301h-2q-42 -81 -105 -214q-35 -59 -67 -87h-11l-118 273q-114 264 -147 333q-23 25 -83 46z" />
<glyph unicode="X" horiz-adv-x="712" d="M35 634l11 25q25 0 74.5 -0.5t73.5 -0.5q19 0 56 0.5t54 0.5l-6 -27l-27 -30q56 -104 104 -183h3q66 108 106 182l-31 33l10 25q10 0 36 -0.5t38 -0.5q21 0 62 0.5t61 0.5l-7 -27q-77 -23 -114 -55q-64 -83 -140 -199q160 -271 171 -287q16 -23 53 -35l75 -31l-8 -26 q-28 0 -84 0.5t-84 0.5q-18 0 -55.5 -0.5t-56.5 -0.5l5 27l24 30q-21 47 -118 215h-2q-110 -177 -126 -210l44 -35l-7 -27q-15 0 -45.5 0.5t-45.5 0.5q-21 0 -61 -0.5t-60 -0.5l8 27l66 27q26 10 44 32q99 135 161 228q-124 221 -151 261q-21 30 -46 37z" />
<glyph unicode="Y" horiz-adv-x="648" d="M3 634l10 25q23 0 68 -0.5t67 -0.5h107l-7 -29l-27 -22q5 -10 21 -39l52 -96l70 -129h2q113 221 131 260l-41 29l12 26h71q19 0 56.5 0.5t56.5 0.5l-6 -28l-55 -22q-27 -10 -44 -33q-83 -130 -152 -261q-9 -18 -9 -32q0 -208 4 -224l113 -33l-7 -27q-26 0 -83.5 0.5 t-87.5 0.5q-31 0 -92 -0.5t-90 -0.5l7 26l104 34q6 84 6 216q0 15 -14 39q-88 161 -157 275q-25 24 -86 45z" />
<glyph unicode="Z" horiz-adv-x="655" d="M620 659v-14l-399 -596l1 -2q27 0 149.5 -1.5t139.5 -1.5q16 19 54 72t50 68l20 3q-1 -28 -11 -100t-17 -92q-9 0 -94.5 1.5t-216 2.5t-250.5 1l-9 10l416 599l-2 3q-190 3 -255 3h-24l-62 -124l-23 -7q-5 55 -9 181l4 2q90 -8 91 -8h447z" />
<glyph unicode="[" horiz-adv-x="333" d="M182 654v-765l114 -26l-8 -30h-184v877h194l-9 -31z" />
<glyph unicode="\" horiz-adv-x="359" d="M315 -56h-62l-213 733h62z" />
<glyph unicode="]" horiz-adv-x="333" d="M151 -111v765l-116 26l11 30h183v-877h-194l9 30z" />
<glyph unicode="^" horiz-adv-x="539" d="M475 273l-70 -9l-137 315h-2l-131 -306l-71 -9l170 374l68 11z" />
<glyph unicode="_" horiz-adv-x="483" d="M483 -99v-48h-483v48h483z" />
<glyph unicode="`" horiz-adv-x="386" d="M244 518l-26 -24l-153 157v15q39 20 87 20q8 0 17 -1z" />
<glyph unicode="a" horiz-adv-x="480" d="M281 266l1 28q1 107 -87 107q-24 0 -53 -12q-8 -77 -18 -116l-9 -6q-12 3 -41.5 34t-38.5 59q58 49 139 79q44 17 70 17q43 0 75 -15t48.5 -38.5t24.5 -48.5t8 -50q0 -94 -2 -222q19 -33 74 -53l-5 -15q-31 -25 -78 -25q-83 0 -105 54h-2q-72 -56 -118 -56q-60 0 -95 39 t-35 85q0 59 42 81q21 14 85 36.5t120 37.5zM157 131q0 -38 22 -56t49 -18q25 0 43 18q8 7 8 22l2 132q-60 -22 -92 -40q-32 -21 -32 -58z" />
<glyph unicode="b" horiz-adv-x="550" d="M70 -12v393q0 145 -3 238l-59 27l8 22q18 8 76.5 19t102.5 12q-3 -132 -3 -290q72 47 111 47q85 0 149.5 -59t64.5 -160q0 -65 -24.5 -115.5t-62 -78.5t-77.5 -42t-77 -14q-38 0 -101 35q-20 -12 -53.5 -22.5t-51.5 -11.5zM192 377v-322q23 -13 56 -13q56 0 97.5 47 t41.5 132q0 71 -37.5 120t-103.5 49q-22 0 -54 -13z" />
<glyph unicode="c" horiz-adv-x="463" d="M33 213q0 79 41.5 136t100.5 82t125 25q46 0 83 -12t54 -27q-4 -19 -17 -57.5t-25 -59.5l-17 -5q-20 36 -39 115q-10 5 -29 5q-70 0 -109 -54.5t-39 -129.5q0 -80 42.5 -132t116.5 -52q14 0 26 6q56 41 86 55l9 -19q-7 -19 -30 -48.5t-37 -36.5q-43 -17 -95 -17 q-100 0 -173.5 56.5t-73.5 169.5z" />
<glyph unicode="d" horiz-adv-x="565" d="M479 399v-323q28 -36 74 -57l-8 -17q-23 -15 -66 -15q-87 0 -114 54l-2 -1l-13 -9l-23 -15l-24 -13t-30.5 -12t-29.5 -4q-78 0 -144 58.5t-66 162.5q0 60 24 109t61.5 78.5t80.5 45t84 15.5q29 0 73 -27l1 1q0 112 -3 188l-63 28l7 21q83 26 184 32q-3 -126 -3 -300z M357 76v312q-22 14 -53 14q-57 0 -99.5 -50t-42.5 -125q0 -74 40.5 -121t100.5 -47q27 0 54 17z" />
<glyph unicode="e" horiz-adv-x="475" d="M331 226h-169q-1 -5 -1 -17q0 -71 40 -116q41 -46 105 -46q16 0 28 4q54 43 95 64l6 -16q-4 -22 -29 -51t-42 -40q-57 -21 -105 -21q-102 0 -164 61.5t-62 167.5q0 102 67 171t160 69q80 0 132.5 -48t52.5 -132q0 -26 -10 -32q-32 -18 -104 -18zM162 269h157q5 17 5 32 q0 51 -18.5 83t-51.5 32q-42 0 -67 -49t-25 -98z" />
<glyph unicode="f" horiz-adv-x="324" d="M18 -1l3 24l66 34q3 45 3 199v137l-64 13l15 36h49q0 123 77 197q62 61 148 61q53 0 83 -25q-17 -64 -39 -101l-17 -7q-25 38 -45 90q-10 2 -15 2q-28 0 -47.5 -36.5t-21.5 -107.5q0 -8 -0.5 -19t0.5 -24q1 -27 1 -30h123l-15 -35l-108 -13q-2 -42 -2 -130q0 -185 3 -206 l88 -33l-6 -26q-23 0 -72 0.5t-74 0.5q-21 0 -65 -0.5t-68 -0.5z" />
<glyph unicode="g" horiz-adv-x="502" d="M466 394l-67 -4v-2q11 -11 20.5 -34.5t9.5 -49.5q0 -72 -52.5 -115t-138.5 -43q-54 0 -98 22q-17 -23 -17 -35q0 -15 14 -30.5t29 -17.5q74 4 131.5 3.5t100.5 -3.5q42 -4 70 -35q29 -31 29 -75q0 -41 -26 -80t-72 -69q-86 -58 -187 -58q-81 0 -130.5 30t-49.5 75 q0 19 23 44l71 67v2q-32 13 -60 44q-27 32 -27 66q0 13 24.5 40t49.5 46q-59 40 -59 115q0 68 57.5 113.5t142.5 45.5q35 0 80 -9q62 -10 82 -13l87 36l4 -8zM244 419q-37 0 -54.5 -36.5t-17.5 -80.5q0 -46 18.5 -82t54.5 -36t53 34.5t17 82.5q0 18 -3.5 36.5t-10.5 38 t-22 31.5t-35 12zM240 -23q-66 0 -80 -9q-27 -25 -27 -53q0 -41 37 -67t90 -26q59 0 98 25.5t39 72.5q0 42 -48 52q-35 5 -109 5z" />
<glyph unicode="h" horiz-adv-x="573" d="M490 300v-221q0 -19 21 -30l48 -25l-7 -27h-36q-89 0 -158 8q10 70 10 256q0 126 -90 126q-39 0 -73 -25q0 -288 2 -302l71 -34l-7 -27q-21 0 -64 0.5t-65 0.5q-20 0 -61 -0.5t-61 -0.5l7 26l54 35q2 11 2 224q0 240 -3 332l-58 30l7 21q58 23 179 32q-3 -127 -3 -297 l2 -1q68 55 133 55q74 0 112 -47.5t38 -108.5z" />
<glyph unicode="i" horiz-adv-x="293" d="M143 670l8 2q12 -4 32.5 -26.5t29.5 -41.5l-2 -11q-8 -15 -29 -37t-35 -31l-10 -3q-16 10 -35 31t-27 38l2 10q30 47 66 69zM32 402l6 23q78 24 171 31v-206q0 -145 2 -193l68 -30l-7 -28q-21 0 -62 1t-64 1q-19 0 -60 -1t-61 -1l6 28l54 30q2 70 2 195v123z" />
<glyph unicode="j" horiz-adv-x="279" d="M139 670l9 2q12 -4 32 -27t29 -41l-2 -10q-8 -16 -29 -38t-35 -31l-10 -3q-37 24 -62 69l2 10q30 47 66 69zM30 401l8 22q17 8 75.5 20t92.5 13v-343q0 -95 -37 -167q-34 -65 -72.5 -103.5t-89.5 -67.5l-28 20v6q37 26 60 61.5t32 82t11.5 79t2.5 84.5q0 209 -4 269 q-24 12 -51 24z" />
<glyph unicode="k" horiz-adv-x="532" d="M534 -11l-6 -5q-115 2 -167 51q-57 55 -141 195v7q96 110 130 160l21 59q104 0 149 -15l-14 -27q-33 -16 -118 -44q-28 -26 -65 -70v-3q23 -38 211 -308zM208 57l67 -29l-8 -29q-20 0 -61.5 0.5t-62.5 0.5q-20 0 -60 -0.5t-61 -0.5l5 27l55 31q2 60 2 324q0 186 -3 242 l-57 24l9 24q112 26 176 28q-3 -141 -3 -303q0 -255 2 -339z" />
<glyph unicode="l" horiz-adv-x="288" d="M208 58l70 -30l-7 -29q-21 0 -62.5 0.5t-61.5 0.5q-22 0 -65.5 -0.5t-64.5 -0.5l5 27l59 33q2 66 2 338q0 175 -3 224l-56 27l8 23q21 9 79 17.5t97 10.5q-3 -125 -3 -298q0 -151 3 -343z" />
<glyph unicode="m" horiz-adv-x="861" d="M90 274v94l-51 23l8 23q13 9 78.5 25.5t86.5 16.5l-7 -75l2 -1q54 40 88 58t69 18q41 0 71.5 -22.5t43.5 -56.5q102 79 163 79q67 0 102 -45.5t35 -106.5v-234q0 -10 21 -21l49 -23l-7 -27q-20 0 -60.5 1t-61.5 1q-19 0 -57 -1t-58 -1l6 27l42 33q4 120 4 216 q0 51 -22.5 78t-56.5 27q-42 0 -90 -39q8 -29 8 -72v-211l54 -32l-7 -27q-17 0 -53 1t-54 1q-19 0 -59 -1t-60 -1l6 27l48 32q3 39 3 227q0 44 -22 68.5t-60 24.5q-35 0 -80 -35q0 -266 2 -285l52 -32l-7 -27q-17 0 -54.5 1t-57.5 1t-61 -1t-60 -1l5 27l56 32q3 22 3 216z " />
<glyph unicode="n" horiz-adv-x="581" d="M89 283v84l-51 25l8 22q12 9 78 25.5t87 16.5l-7 -75l2 -1q95 76 151 76q74 0 107.5 -47t33.5 -111v-225q0 -15 18 -22l53 -25l-7 -27q-20 0 -63 0.5t-65 0.5q-17 0 -53 -0.5t-55 -0.5l6 27l40 32q4 116 4 226q0 47 -21.5 71.5t-57.5 24.5q-43 0 -86 -38q0 -267 2 -286 l51 -30l-6 -27q-35 1 -110 1q-21 0 -62 -0.5t-61 -0.5l7 27l54 30q3 21 3 227z" />
<glyph unicode="o" horiz-adv-x="543" d="M273 456q104 0 170 -64.5t66 -165.5q0 -107 -67 -173t-171 -66q-99 0 -168.5 62.5t-69.5 167.5q0 107 72.5 173t167.5 66zM268 417q-34 0 -57.5 -30t-33 -70.5t-9.5 -84.5q0 -48 11 -93t37 -79t63 -34q28 0 47.5 18.5t29.5 49t14 60.5t4 61q0 75 -27 138.5t-79 63.5z" />
<glyph unicode="p" horiz-adv-x="560" d="M204 456l-3 -60h2q95 60 129 60q70 0 132.5 -58t62.5 -156q0 -65 -24 -116.5t-61.5 -80.5t-77.5 -43.5t-78 -14.5q-25 0 -80 29l-2 -1q0 -88 4 -170l92 -34l-7 -27q-25 0 -74 0.5t-73 0.5q-20 0 -62.5 -0.5t-63.5 -0.5l9 29l50 29q4 100 4 265v267l-55 34l8 22 q11 5 73 15t95 11zM205 362v-306q24 -13 54 -13q58 0 100 47.5t42 128.5q0 73 -40 117.5t-95 44.5q-28 0 -61 -19z" />
<glyph unicode="q" horiz-adv-x="556" d="M478 368v-234q0 -63 0.5 -169t0.5 -119l81 -34l-6 -28q-23 0 -69.5 0.5t-70.5 0.5q-22 0 -66 -0.5t-67 -0.5l5 27l65 34q5 145 5 181l-2 1q-67 -40 -100 -40q-96 0 -158.5 63t-62.5 165q0 96 72.5 168.5t169.5 72.5q49 0 98 -35q21 13 63.5 23t70.5 12l4 -7 q-7 -31 -33 -81zM356 67v318q-22 15 -51 15q-59 0 -100 -50.5t-41 -124.5t42.5 -122t102.5 -48q26 0 47 12z" />
<glyph unicode="r" horiz-adv-x="406" d="M36 395l7 23q13 7 70.5 22t84.5 16q10 -35 10 -75v-14h3q25 41 60.5 65t70.5 24q36 0 54 -20q-1 -21 -16 -63.5t-29 -66.5l-15 -6q-20 29 -41 71q-5 4 -15 4q-18 0 -38 -17.5t-31 -41.5v-258l100 -31l-6 -27q-25 0 -78 0.5t-80 0.5q-20 0 -61 -0.5t-60 -0.5l4 27l55 31 q5 129 5 309z" />
<glyph unicode="s" horiz-adv-x="405" d="M205 456q41 0 76 -24q24 17 58 29l10 -6q-7 -94 -25 -133l-17 -7q-21 33 -37 78q-22 18 -59 18q-31 0 -48.5 -17.5t-17.5 -38.5q0 -30 38 -50q94 -46 120 -60q73 -39 73 -109q0 -43 -20 -74t-51.5 -46.5t-61.5 -22t-60 -6.5q-41 0 -83.5 12.5t-65.5 28.5q1 19 10 64 t15 59l15 7q10 -17 32.5 -67t25.5 -56q25 -10 55 -10q35 0 57.5 19t22.5 46q0 32 -36 52l-90 45q-96 47 -96 129q0 56 42 98t118 42z" />
<glyph unicode="t" horiz-adv-x="351" d="M200 442h149l-18 -39l-131 -15q0 -23 -0.5 -115t-0.5 -156q0 -28 12 -42q19 -15 48 -15q47 0 80 25l5 -1l-1 -35q-18 -27 -53 -44.5t-79 -17.5q-75 0 -112 45q-22 29 -22 105v251l-63 16l15 38h50q6 24 21 64t25 56q13 9 40.5 17.5t38.5 8.5z" />
<glyph unicode="u" horiz-adv-x="565" d="M81 380l-56 29l9 23q61 16 174 18q-7 -126 -7 -282q0 -57 16 -79q24 -26 62 -26q49 0 82 39v263q-1 11 -13 18.5t-58 26.5l10 23q81 17 168 17h18q-3 -46 -3 -372q20 -36 72 -53l-5 -14q-7 -7 -30.5 -14.5t-46.5 -7.5q-87 0 -107 70h-2q-67 -72 -143 -72q-62 0 -100 36 q-42 38 -42 121q0 38 1 122t1 114z" />
<glyph unicode="v" horiz-adv-x="474" d="M-9 419l9 25q19 0 57.5 -0.5t58.5 -0.5q18 0 53 0.5t52 0.5l-8 -28l-26 -32q3 -10 91 -248h2q44 117 85 244l-30 38l7 26q19 -1 62 -1q14 0 42.5 0.5t41.5 0.5l-7 -28q-36 -21 -59 -42q-34 -64 -137 -329q-28 -42 -59 -63h-11l-23 56l-58 147l-79 194q-27 21 -64 40z" />
<glyph unicode="w" horiz-adv-x="718" d="M229 444l-5 -28l-33 -30q12 -43 78 -241h2q51 134 70 194l-10 70q9 6 42 18.5t52 16.5l9 -3l7 -81q42 -109 91 -223h2q41 137 70 247l-41 34l9 26q11 0 35 -0.5t37 -0.5q14 0 42 0.5t42 0.5l-6 -26q-37 -22 -60 -40q-29 -62 -122 -340q-29 -35 -60 -56h-6l-114 273h-2 l-88 -215q-25 -35 -58 -58h-7q-129 362 -146 401q-32 22 -62 35l8 26q18 0 57.5 -0.5t60.5 -0.5q17 0 53 0.5t53 0.5z" />
<glyph unicode="x" horiz-adv-x="507" d="M216 409l60 -106h2q39 62 46 76q8 18 8 51v14q10 0 30.5 -0.5t30.5 -0.5q14 0 44 0.5t47 0.5l-7 -27q-81 -32 -103 -55q-64 -80 -76 -97q12 -23 104 -176q16 -25 47 -39l60 -24l-9 -26l-67 -2q-67 -3 -124 -3q-32 71 -87 166h-2q-41 -65 -57 -97q-4 -11 0 -17.5t22 -25.5 l-4 -22q-12 0 -39 1t-41 1q-16 0 -48.5 -1t-47.5 -1l6 26l55 26q30 15 45 34q53 66 89 118q-76 134 -101 173q-11 14 -86 41l9 27q19 0 58 -0.5t59 -0.5q12 0 37.5 0.5t39.5 0.5v-35z" />
<glyph unicode="y" horiz-adv-x="477" d="M325 417l9 27q11 0 33.5 -0.5t34.5 -0.5q18 0 49 0.5t44 0.5l-7 -27q-29 -15 -61 -37q-15 -30 -49 -112l-82 -198l-76 -182q-26 -118 -27 -120q-8 -4 -23 -4q-27 0 -54 16t-33 30q12 27 98 105l38 81q-3 6 -68.5 165.5t-89.5 212.5q-9 16 -66 43l8 27q19 0 58 -0.5 t59 -0.5q18 0 53 0.5t52 0.5l-6 -27l-27 -27q13 -37 91 -243h3q64 181 79 239z" />
<glyph unicode="z" horiz-adv-x="462" d="M419 442l6 -10q-28 -50 -127 -210l-109 -178v-2q110 0 158 8q54 76 78 96l17 4q-1 -22 -9.5 -78.5t-14.5 -77.5q-15 0 -91.5 3t-131.5 3h-168l-5 8l251 390v2q-60 0 -146 -5q-34 -60 -58 -89l-16 -4q-4 13 -7 72q-1 33 -1 52q0 15 1 22l3 3l79 -9h291z" />
<glyph unicode="{" horiz-adv-x="333" d="M223 346l-105 -65v-2l105 -67q-12 -118 -12 -209q0 -54 20 -89t68 -63l-10 -29q-66 16 -118 62t-52 99q0 77 31 225l-98 62l4 16l94 63q-31 114 -31 209q0 52 54.5 99t115.5 63l10 -28q-50 -27 -69 -62.5t-19 -90.5q0 -107 12 -193z" />
<glyph unicode="|" horiz-adv-x="343" d="M132 724h77v-965h-77v965z" />
<glyph unicode="}" horiz-adv-x="331" d="M111 211l107 67v1l-107 67q13 95 13 198q0 53 -20 87.5t-68 61.5l9 28q66 -15 118.5 -62t52.5 -100q0 -93 -32 -210l99 -62l-5 -15l-94 -64q32 -128 32 -220q0 -54 -54 -102t-117 -64l-9 29q49 26 68.5 64t19.5 92q0 126 -13 204z" />
<glyph unicode="~" horiz-adv-x="635" d="M545 322l34 -29q-37 -75 -74 -107t-84 -32q-44 0 -119 49q-69 45 -100 45q-53 0 -109 -96l-38 25q67 142 163 142q20 0 43.5 -9t38.5 -18l47 -29q59 -38 91 -38q53 0 107 97z" />
<glyph unicode="&#xa1;" horiz-adv-x="267" d="M128 285l-9 -4q-14 6 -37.5 32t-32.5 46l3 12q7 18 31 43t40 34l11 3q18 -10 38.5 -33.5t31.5 -43.5l-2 -11q-35 -54 -74 -78zM109 206l35 16l20 -144l18 -126q7 -45 14 -82l25 -48q-62 -37 -169 -40l-7 8q1 8 10 70l23 157z" />
<glyph unicode="&#xa2;" d="M299 546v79l36 11v-89q44 -1 90 -16t67 -35q-22 -70 -44 -101l-17 -8q-18 41 -32 106q-21 11 -58 11h-6v-364h9q23 0 41 4q66 48 94 63l10 -15q-6 -22 -33 -52t-45 -38q-37 -12 -76 -15v-78l-36 -13v89q-47 1 -89.5 14t-79 38.5t-58 70t-21.5 103.5q0 74 40.5 128.5 t94.5 78.5t113 28zM299 145v355q-58 -14 -87 -61t-29 -116q0 -71 31 -117t85 -61z" />
<glyph unicode="&#xa3;" d="M479 184l23 -14q-2 -24 -14 -80t-27 -95q-5 0 -90 2.5t-142 2.5h-221v12l38 60q28 11 34 21q39 47 39 180q0 15 -1 32l-99 8l18 39h81l-1 28q0 35 5.5 70t31 86.5t69.5 81.5q54 36 124 36q77 0 112 -31q-3 -21 -16 -60t-22 -56l-20 -10q-24 55 -40 115q-8 2 -16 2 q-44 0 -73 -44q-26 -39 -26 -120v-23q0 -9 0.5 -35.5t1.5 -39.5h160l-17 -39l-144 -8q-1 -77 -29 -123t-83 -86l1 -2q34 -1 74 -1q88 0 204 6l28 37z" />
<glyph unicode="&#xa4;" d="M483 509l-65 -59q41 -55 41 -122q0 -73 -48 -127l66 -54l-45 -50l-58 69q-44 -38 -114 -38q-29 0 -63.5 10t-54.5 28l-57 -68l-42 48l64 52q-45 53 -45 130q0 72 41 121l-66 56l44 50l60 -70q56 43 123 43t117 -44l58 70zM260 478q-57 0 -91 -43t-34 -107 q0 -65 36 -107.5t90 -42.5q57 0 91 42t34 108q0 64 -36 107t-90 43z" />
<glyph unicode="&#xa5;" d="M71 348h116l-123 241l-56 27l9 26q20 0 59.5 -0.5t59.5 -0.5t61.5 0.5t62.5 0.5l-9 -27l-51 -26l95 -221h2l98 217l-66 32l12 25q14 0 43.5 -0.5t45.5 -0.5t47 0.5t46 0.5l-7 -26l-59 -32q-84 -148 -127 -236h130l-14 -40h-129l1 -75h142l-14 -37h-128q0 -33 1 -66 t1.5 -53t0.5 -21l92 -32l-8 -25q-25 0 -74.5 0.5t-74.5 0.5q-24 0 -74 -0.5t-75 -0.5l6 25l79 32q4 11 6 140h-140l13 37h126l1 75h-138z" />
<glyph unicode="&#xa6;" horiz-adv-x="343" d="M132 666h77v-366h-77v366zM132 -183v367h77v-367h-77z" />
<glyph unicode="&#xa7;" horiz-adv-x="475" d="M101 45l15 5q7 -17 35 -107q16 -8 44 -8q30 0 55 17.5t25 43.5q0 38 -59 101l-104 118q-78 90 -78 175q0 126 133 205q50 31 97 31q30 0 53 -14q15 13 55 26l12 -6q0 -17 -11 -63.5t-20 -63.5l-14 -6q-17 30 -32 78q-16 10 -45 10t-45 -15t-16 -35q0 -21 25 -53 q17 -23 121 -141q90 -98 90 -188q0 -55 -31.5 -112.5t-95.5 -102.5q-57 -42 -118 -42q-74 0 -126 38q-1 13 12.5 55t22.5 54zM335 7h2q37 46 37 106q0 70 -68 148q-106 122 -124 147q-39 54 -39 98q0 22 6 37h-3q-50 -46 -50 -113q0 -63 59 -135l62 -71l58 -65 q37 -42 49.5 -70t12.5 -57q0 -11 -2 -25z" />
<glyph unicode="&#xa8;" horiz-adv-x="386" d="M96 651l8 3q11 -5 29.5 -26t25.5 -36l-2 -10q-11 -29 -56 -62l-10 -2q-32 20 -56 61l2 10q26 42 59 62zM288 652l9 2q10 -5 28.5 -26t26.5 -36l-2 -10q-14 -29 -56 -62l-10 -2q-36 24 -56 61l1 10q28 43 59 63z" />
<glyph unicode="&#xa9;" horiz-adv-x="685" d="M344 628q126 0 213.5 -91t87.5 -222q0 -130 -87.5 -219.5t-214.5 -89.5t-214.5 89.5t-87.5 219.5q0 131 88 222t215 91zM344 587q-108 0 -180.5 -78t-72.5 -193q0 -114 73 -191.5t181 -77.5q107 0 178.5 77.5t71.5 191.5q0 115 -71.5 193t-179.5 78zM368 478q38 0 60 -13 q8 4 49 14l6 -3q0 -13 -7.5 -53.5t-10.5 -47.5l-13 -7q-16 22 -32 67q-13 9 -38 9q-46 0 -76.5 -35.5t-30.5 -88.5q0 -54 31 -89.5t82 -35.5q12 0 23 4q9 7 23 20.5t24.5 22.5t15.5 12l13 -10q-2 -11 -16 -39t-21 -35q-36 -14 -79 -14q-86 0 -136.5 44t-50.5 115q0 46 19 80 t49.5 51t59.5 24.5t56 7.5z" />
<glyph unicode="&#xaa;" horiz-adv-x="321" d="M183 465v11q1 26 -13.5 37.5t-35.5 11.5q-22 0 -34 -9q-7 -33 -20 -60l-10 -3q-5 1 -18.5 19.5t-19.5 35.5q34 28 81 43q30 11 50 11q54 0 79.5 -27t25.5 -61q0 -41 -2 -113q10 -20 43 -36l-3 -12q-17 -12 -55 -12q-55 0 -67 35q-47 -35 -79 -35q-36 0 -57.5 23t-21.5 51 q0 32 26 48q33 19 131 42zM182 369l1 68q-33 -9 -54 -22q-19 -12 -19 -30q0 -16 11.5 -26t26.5 -10q17 0 28 8q6 4 6 12z" />
<glyph unicode="&#xab;" horiz-adv-x="534" d="M270 44l-27 -18q-47 60 -100.5 114.5t-88.5 82.5q92 81 185 196l28 -19q-58 -118 -95 -177q65 -101 98 -179zM478 44l-29 -18q-51 62 -104.5 117.5t-83.5 79.5q101 94 184 196l27 -19q-77 -149 -94 -177q60 -90 100 -179z" />
<glyph unicode="&#xac;" horiz-adv-x="596" d="M441 55v215h-361l17 62h416v-262z" />
<glyph unicode="&#xad;" horiz-adv-x="373" d="M288 211l-246 -33l34 88l53 -1l204 13v-9z" />
<glyph unicode="&#xae;" horiz-adv-x="305" d="M155 659q51 0 86.5 -36t35.5 -88q0 -54 -35.5 -90t-87.5 -36t-87.5 36t-35.5 89t36 89t88 36zM153 634q-38 0 -65 -29.5t-27 -69.5q0 -42 27 -71.5t66 -29.5t66 29.5t27 71.5q0 41 -27.5 70t-66.5 29zM96 579l2 13q22 5 54 5q51 0 51 -30q0 -5 -1.5 -9.5t-4.5 -8t-5 -5.5 l-6 -4l-5 -3q9 -17 23 -36q6 -10 15 -22l-1 -3q-26 1 -42 13q-15 15 -30 47q14 5 19 10t5 15q0 21 -25 21h-4v-87l20 -6l-4 -10h-61l2 10l14 5v86z" />
<glyph unicode="&#xaf;" horiz-adv-x="386" d="M297 547h-226l18 68h227z" />
<glyph unicode="&#xb0;" horiz-adv-x="284" d="M144 647q47 0 78.5 -32.5t31.5 -80.5t-32 -80t-79 -32q-48 0 -79.5 32t-32.5 80q0 48 32 80.5t81 32.5zM140 607q-24 0 -41.5 -20.5t-17.5 -51.5q1 -33 18.5 -53t43.5 -20t44 20.5t18 52.5q0 30 -18 51t-47 21z" />
<glyph unicode="&#xb1;" horiz-adv-x="596" d="M527 62l-12 -62h-452l12 62h452zM331 120l-71 -11v199h-197l12 62h185v173l71 13v-186h196l-12 -62h-184v-188z" />
<glyph unicode="&#xb2;" horiz-adv-x="354" d="M300 546l20 -13q-10 -66 -29 -110q-2 0 -58 1.5t-90 1.5h-109v13l23 45q14 7 21 13q56 41 87.5 80t31.5 86q0 30 -16.5 48.5t-44.5 18.5q-14 0 -24 -5q-11 -48 -29 -85l-15 -7q-21 27 -35 78q71 59 143 59q51 0 86.5 -27t35.5 -78q0 -16 -4 -29.5t-14 -27t-18.5 -22.5 t-27.5 -22l-31 -22l-37 -23l-39 -24q13 0 65.5 2t67.5 2q19 24 40 47z" />
<glyph unicode="&#xb3;" horiz-adv-x="354" d="M89 658l-13 -6q-20 26 -32 66q25 22 62.5 37t71.5 15q56 0 87 -23t31 -59q0 -54 -86 -77l-1 -3q108 -11 108 -82q-1 -50 -49 -78.5t-111 -28.5q-79 0 -119 34q2 11 14.5 38.5t18.5 34.5l13 5q20 -51 28 -75q10 -3 26 -3q34 0 54.5 20.5t20.5 50.5q0 53 -48 60 q-54 -9 -61 -9l-5 9q0 4 8.5 18t15.5 20q5 1 19 0t21 -1q35 13 35 52q0 27 -17 43.5t-42 16.5q-13 0 -25 -6q-12 -45 -25 -69z" />
<glyph unicode="&#xb4;" horiz-adv-x="386" d="M176 493l-28 22l89 170q8 1 16 1q46 0 80 -20v-15z" />
<glyph unicode="&#xb5;" horiz-adv-x="564" d="M473 387v-314q11 -18 84 -26l-10 -29q-33 -29 -101 -31q-29 0 -55.5 16.5t-35.5 55.5l-2 1q-61 -73 -116 -73q-39 0 -63 25l-2 -1q-4 -61 -4 -108q0 -84 13 -127l-10 -8q-58 4 -79 35t-22 98v268q0 40 0.5 140t0.5 124q11 7 53.5 15t73.5 8l2 -3q0 -3 -7 -109 q-11 -166 -11 -202q0 -27 13 -47q23 -31 68 -31q51 0 88 42v327q11 6 59 14.5t81 8.5l5 -8z" />
<glyph unicode="&#xb6;" horiz-adv-x="529" d="M423 655l-35 -117v-489q0 -71 -11.5 -125.5t-29.5 -86.5t-42 -52t-45.5 -26.5t-44.5 -6.5q-21 0 -36 7q-34 34 -49 66l10 15q24 -8 55 -8q62 0 103 47t41 162v31q-41 -14 -55 -14q-41 0 -83 15.5t-79 43.5t-60.5 74.5t-23.5 102.5q0 114 82 180t200 66h16l4 101z" />
<glyph unicode="&#xb7;" horiz-adv-x="244" d="M120 321l9 3q14 -7 37.5 -33t33.5 -46l-3 -11q-8 -18 -31.5 -43t-40.5 -35l-11 -3q-19 11 -40 34.5t-31 43.5l3 11q35 55 74 79z" />
<glyph unicode="&#xb8;" horiz-adv-x="386" d="M202 2h43l-39 -54q36 -18 50 -36t14 -42q0 -70 -123 -102l-14 32q66 25 66 56q0 14 -14.5 24t-53.5 26z" />
<glyph unicode="&#xb9;" horiz-adv-x="354" d="M134 697l-78 1l7 24q47 18 153 48h12q0 -36 2 -166t2 -135l68 -21l-9 -24q-19 0 -56 0.5t-55 0.5q-20 0 -61 -0.5t-61 -0.5l9 24l60 21q7 137 7 228z" />
<glyph unicode="&#xba;" horiz-adv-x="351" d="M177 563q64 0 106.5 -34.5t42.5 -93.5q0 -60 -42.5 -97t-110.5 -37q-62 0 -105 34t-43 94t45.5 97t106.5 37zM173 532q-26 0 -39 -31t-13 -64q0 -38 15 -71.5t42 -33.5q52 0 52 100q0 37 -13 68.5t-44 31.5z" />
<glyph unicode="&#xbb;" horiz-adv-x="534" d="M262 401l28 18q47 -61 102 -116t87 -81q-92 -81 -185 -196l-28 19q58 118 96 177q-67 104 -100 179zM55 401l29 18q50 -62 104 -117.5t83 -79.5q-113 -109 -183 -196l-27 19q87 165 94 177q-60 90 -100 179z" />
<glyph unicode="&#xbc;" horiz-adv-x="754" d="M136 581l-78 1l7 24q2 1 25 8l58 19l70 21h12q0 -36 2 -166t2 -135l68 -21l-9 -24q-19 0 -56 0.5t-55 0.5q-20 0 -61 -0.5t-61 -0.5l9 24l60 21q7 137 7 228zM569 671l36 -26l-420 -684l-33 30zM624 99l1 -58l60 -20l-9 -21q-16 0 -50 0.5t-50 0.5q-18 0 -54 -0.5 t-54 -0.5l8 22l53 20l3 54l-142 -2l-10 19q24 42 79.5 122t66.5 90q19 11 98 20v-213h31q9 11 29 26h11q1 -10 -3 -44.5t-7 -42.5l-11 -4q-14 16 -23 33zM533 134l7 152h-4q-32 -45 -95 -151z" />
<glyph unicode="&#xbd;" horiz-adv-x="754" d="M128 581l-78 1l7 24q2 1 25 8l58 19l70 21h12q0 -36 2 -166t2 -135l68 -21l-9 -24q-19 0 -56 0.5t-55 0.5q-20 0 -61 -0.5t-61 -0.5l9 24l60 21q7 137 7 228zM559 671l36 -26l-421 -684l-33 30zM698 120l20 -13q-11 -67 -29 -110q-2 0 -58.5 1.5t-90.5 1.5h-109l1 13 l23 45q14 7 21 13q56 41 87.5 80t31.5 86q0 31 -16.5 49t-44.5 18q-14 0 -24 -5q-17 -61 -29 -84l-16 -8q-21 32 -34 78q69 59 143 59q51 0 86.5 -27t35.5 -77q0 -16 -4 -30t-14 -27t-18.5 -22.5t-27.5 -22.5l-31 -22l-37.5 -23t-38.5 -24q13 0 65.5 2t67.5 2q25 31 40 47z " />
<glyph unicode="&#xbe;" horiz-adv-x="754" d="M100 541l-12 -6q-21 27 -32 67q25 21 63 36.5t71 15.5q56 0 87 -23t31 -60q0 -54 -86 -77l-1 -3q108 -10 108 -82q-1 -50 -49 -79t-111 -29q-79 0 -119 34q2 11 14.5 39t18.5 35l13 5q20 -51 28 -75q14 -4 26 -4q34 0 54.5 20.5t20.5 51.5q0 30 -14.5 44t-33.5 16 q-54 -9 -61 -9l-5 9q0 4 8.5 18t15.5 20q5 1 19 0t21 -1q35 13 35 53q0 27 -17 43.5t-42 16.5q-13 0 -25 -6q-13 -49 -26 -70zM577 671l35 -26l-419 -684l-33 30zM625 99l1 -58l60 -20l-9 -21q-17 0 -50 0.5t-50 0.5q-18 0 -54 -0.5t-54 -0.5l8 22l53 20l3 54l-142 -2 l-10 19q24 42 79.5 122t66.5 90q14 7 98 20v-213h31q9 11 29 26h11q1 -10 -3 -44.5t-7 -42.5l-11 -4q-14 16 -23 33zM534 134l7 152h-4q-32 -45 -95 -151z" />
<glyph unicode="&#xbf;" horiz-adv-x="433" d="M230 284l-9 -3q-14 6 -37.5 32t-33.5 46l3 12q7 18 31 43t40 34l12 3q19 -10 39.5 -33.5t30.5 -43.5l-2 -11q-33 -51 -74 -79zM216 -218q-70 0 -123.5 39t-53.5 117q0 59 70 119q95 81 95 111q0 15 -14 44l28 14q31 -10 60.5 -42.5t30.5 -73.5q-10 -25 -30 -49t-64 -66 q-62 -59 -62 -96q0 -26 22 -49.5t63 -23.5q20 0 43 9q17 74 40 116l15 7q38 -47 54 -110q-37 -28 -87 -47t-87 -19z" />
<glyph unicode="&#xc0;" horiz-adv-x="726" d="M293 633l104 49l4 -5q0 -31 15 -72q18 -53 196 -500q14 -32 31.5 -45t72.5 -35l-8 -26q-23 0 -72 0.5t-73 0.5q-18 0 -55.5 -0.5t-57.5 -0.5l8 25l36 32q-3 10 -12 34l-26 64l-27 73q-77 -5 -160 -5q-28 0 -57 1l-58 -159l82 -38l-7 -27q-18 0 -56 0.5t-56 0.5t-54 -0.5 t-54 -0.5l8 27l69 39q58 114 215 510q5 12 2 27zM326 527h-2l-92 -245q16 0 89.5 -2t91.5 -2zM418 744l-18 -30l-207 76v13q10 22 28.5 41.5t35.5 25.5z" />
<glyph unicode="&#xc1;" horiz-adv-x="726" d="M293 633l104 49l4 -5q0 -31 15 -72q18 -53 196 -500q14 -32 31.5 -45t72.5 -35l-8 -26q-23 0 -72 0.5t-73 0.5q-18 0 -55.5 -0.5t-57.5 -0.5l8 25l36 32q-3 10 -12 34l-26 64l-27 73q-77 -5 -160 -5q-28 0 -57 1l-58 -159l82 -38l-7 -27q-18 0 -56 0.5t-56 0.5t-54 -0.5 t-54 -0.5l8 27l69 39q58 114 215 510q5 12 2 27zM326 527h-2l-92 -245q16 0 89.5 -2t91.5 -2zM307 703l-17 29l160 126q18 -2 38.5 -21.5t31.5 -43.5v-13z" />
<glyph unicode="&#xc2;" horiz-adv-x="726" d="M293 633l104 49l4 -5q0 -31 15 -72q18 -53 196 -500q14 -32 31.5 -45t72.5 -35l-8 -26q-23 0 -72 0.5t-73 0.5q-18 0 -55.5 -0.5t-57.5 -0.5l8 25l36 32q-3 10 -12 34l-26 64l-27 73q-77 -5 -160 -5q-28 0 -57 1l-58 -159l82 -38l-7 -27q-18 0 -56 0.5t-56 0.5t-54 -0.5 t-54 -0.5l8 27l69 39q58 114 215 510q5 12 2 27zM326 527h-2l-92 -245q16 0 89.5 -2t91.5 -2zM346 853h20l137 -123l-16 -27l-131 64l-131 -64l-16 27z" />
<glyph unicode="&#xc3;" horiz-adv-x="726" d="M293 633l104 49l4 -5q0 -31 15 -72q18 -53 196 -500q14 -32 31.5 -45t72.5 -35l-8 -26q-23 0 -72 0.5t-73 0.5q-18 0 -55.5 -0.5t-57.5 -0.5l8 25l36 32q-3 10 -12 34l-26 64l-27 73q-77 -5 -160 -5q-28 0 -57 1l-58 -159l82 -38l-7 -27q-18 0 -56 0.5t-56 0.5t-54 -0.5 t-54 -0.5l8 27l69 39q58 114 215 510q5 12 2 27zM326 527h-2l-92 -245q16 0 89.5 -2t91.5 -2zM494 823l27 -20q-56 -94 -109 -94q-13 0 -65 25q-37 20 -51 20q-23 0 -67 -49l-24 22q57 99 107 99q20 0 60 -24q42 -22 55 -22q26 0 67 43z" />
<glyph unicode="&#xc4;" horiz-adv-x="726" d="M293 633l104 49l4 -5q0 -31 15 -72q18 -53 196 -500q14 -32 31.5 -45t72.5 -35l-8 -26q-23 0 -72 0.5t-73 0.5q-18 0 -55.5 -0.5t-57.5 -0.5l8 25l36 32q-3 10 -12 34l-26 64l-27 73q-77 -5 -160 -5q-28 0 -57 1l-58 -159l82 -38l-7 -27q-18 0 -56 0.5t-56 0.5t-54 -0.5 t-54 -0.5l8 27l69 39q58 114 215 510q5 12 2 27zM326 527h-2l-92 -245q16 0 89.5 -2t91.5 -2zM250 841l8 2q11 -4 30 -25t27 -38l-3 -9q-5 -15 -24 -34.5t-33 -28.5l-10 -3q-34 21 -57 63l2 10q28 41 60 63zM460 841l9 2q10 -4 29 -25t27 -38l-2 -9q-7 -15 -25.5 -35 t-31.5 -28l-10 -3q-35 22 -58 63l2 10q25 39 60 63z" />
<glyph unicode="&#xc5;" horiz-adv-x="726" d="M292 633l105 49l5 -5q-1 -27 14 -72q23 -62 197 -500q14 -32 31 -45t73 -35l-9 -26q-23 0 -71.5 0.5t-72.5 0.5q-19 0 -56.5 -0.5t-56.5 -0.5l8 25l35 32q-6 18 -65 171q-75 -5 -160 -5q-28 0 -57 1q-27 -69 -58 -159l82 -38l-8 -27q-18 0 -55.5 0.5t-55.5 0.5t-54 -0.5 t-54 -0.5l7 27l70 39q58 114 215 510q5 14 2 27zM326 527h-2l-92 -245q16 0 89.5 -2t91.5 -2zM353 883q37 0 64.5 -24.5t27.5 -65.5t-27.5 -65t-65.5 -24t-65.5 24t-27.5 65t28 65.5t66 24.5zM351 845q-20 0 -32.5 -13t-12.5 -39t13 -39t33 -13q46 0 46 52t-47 52z" />
<glyph unicode="&#xc6;" horiz-adv-x="966" d="M487 298h-210l-23 -46l-40 -84l-50 -108l90 -35l-8 -26q-17 0 -57 0.5t-62 0.5q-18 0 -57.5 -0.5t-58.5 -0.5l8 27l72 35l283 543l-116 29l9 26q29 0 84 -0.5t82 -0.5h385q66 12 93 13l3 -3q-7 -87 -27 -164l-18 -7q-28 53 -55 117l-212 -8l10 -258q114 0 261 13l5 -12 q-3 -10 -26.5 -36t-33.5 -26q-3 0 -94 5.5t-111 5.5q0 -76 11 -245l189 -11q40 52 109 133l17 -6q-2 -20 -16.5 -87.5t-22.5 -85.5q-63 4 -182 4h-173q-25 0 -75 -0.5t-76 -0.5l6 27l88 34q1 8 1 48q0 60 -2 190zM302 348h183l1 263h-55q-62 -118 -129 -263z" />
<glyph unicode="&#xc7;" horiz-adv-x="696" d="M439 -18l-24 -33q36 -18 50 -36t14 -42q0 -72 -123 -102l-14 31q66 26 66 56q0 14 -14.5 24.5t-53.5 26.5l56 76q-71 3 -133.5 25.5t-113 63t-80 105.5t-29.5 147q0 87 35.5 157t92.5 111.5t122 63t130 21.5h1q96 0 150 -34q45 18 90 24l6 -4q-1 -24 -17.5 -89.5 t-25.5 -83.5l-22 -9q-22 43 -41 123q-38 23 -107 23q-127 0 -200.5 -86t-73.5 -210q0 -125 75.5 -210.5t206.5 -85.5q27 0 47 5q87 85 141 127l19 -16q-8 -28 -36 -78t-40 -63q-24 -9 -71 -18t-83 -10z" />
<glyph unicode="&#xc8;" horiz-adv-x="592" d="M33 634l8 25q23 0 69 -0.5t69 -0.5h248q25 7 100 14l3 -4q-1 -19 -10 -76t-15 -79l-18 -8q-40 72 -57 109l-184 -9v-240q113 0 254 13l5 -11q-3 -10 -27 -37.5t-34 -27.5q-6 0 -92 5.5t-106 6.5q0 -183 4 -260l187 -11q88 112 107 131l20 -6q-2 -19 -16 -85.5t-22 -85.5 q-63 3 -177 3h-173q-24 0 -76.5 -0.5t-76.5 -0.5l8 26l82 35q6 24 6 284v257zM375 734l-18 -30l-207 76v13q11 22 29.5 41.5t34.5 24.5z" />
<glyph unicode="&#xc9;" horiz-adv-x="592" d="M33 634l8 25q23 0 69 -0.5t69 -0.5h248q25 7 100 14l3 -4q-1 -19 -10 -76t-15 -79l-18 -8q-40 72 -57 109l-184 -9v-240q113 0 254 13l5 -11q-3 -10 -27 -37.5t-34 -27.5q-6 0 -92 5.5t-106 6.5q0 -183 4 -260l187 -11q88 112 107 131l20 -6q-2 -19 -16 -85.5t-22 -85.5 q-63 3 -177 3h-173q-24 0 -76.5 -0.5t-76.5 -0.5l8 26l82 35q6 24 6 284v257zM242 704l-17 28l161 127q17 -2 38.5 -22t31.5 -44l-1 -13z" />
<glyph unicode="&#xca;" horiz-adv-x="592" d="M33 634l8 25q23 0 69 -0.5t69 -0.5h248q25 7 100 14l3 -4q-1 -19 -10 -76t-15 -79l-18 -8q-40 72 -57 109l-184 -9v-240q113 0 254 13l5 -11q-3 -10 -27 -37.5t-34 -27.5q-6 0 -92 5.5t-106 6.5q0 -183 4 -260l187 -11q88 112 107 131l20 -6q-2 -19 -16 -85.5t-22 -85.5 q-63 3 -177 3h-173q-24 0 -76.5 -0.5t-76.5 -0.5l8 26l82 35q6 24 6 284v257zM294 854h20l137 -124l-16 -26l-131 64l-132 -64l-15 26z" />
<glyph unicode="&#xcb;" horiz-adv-x="592" d="M33 634l8 25q23 0 69 -0.5t69 -0.5h248q25 7 100 14l3 -4q-1 -19 -10 -76t-15 -79l-18 -8q-40 72 -57 109l-184 -9v-240q113 0 254 13l5 -11q-3 -10 -27 -37.5t-34 -27.5q-6 0 -92 5.5t-106 6.5q0 -183 4 -260l187 -11q88 112 107 131l20 -6q-2 -19 -16 -85.5t-22 -85.5 q-63 3 -177 3h-173q-24 0 -76.5 -0.5t-76.5 -0.5l8 26l82 35q6 24 6 284v257zM193 846l8 2q11 -5 30 -26t27 -38l-3 -9q-6 -15 -24.5 -34.5t-32.5 -28.5l-10 -2q-32 18 -58 62l3 10q29 43 60 64zM404 846l8 2q10 -5 29 -26t28 -38l-3 -9q-7 -15 -25.5 -35t-31.5 -28l-10 -2 q-33 19 -58 62l2 10q25 41 61 64z" />
<glyph unicode="&#xcc;" horiz-adv-x="366" d="M44 633l9 26q21 0 64.5 -0.5t65.5 -0.5q24 0 70.5 0.5t69.5 0.5l-7 -27l-70 -33v-256q0 -251 5 -283l88 -34l-7 -27q-24 0 -74 0.5t-77 0.5t-77 -0.5t-74 -0.5l8 27l75 34q6 20 6 283v256zM260 734l-17 -30l-207 76l-1 13q11 22 30 41.5t34 24.5z" />
<glyph unicode="&#xcd;" horiz-adv-x="366" d="M44 633l9 26q21 0 64.5 -0.5t65.5 -0.5q24 0 70.5 0.5t69.5 0.5l-7 -27l-70 -33v-256q0 -251 5 -283l88 -34l-7 -27q-24 0 -74 0.5t-77 0.5t-77 -0.5t-74 -0.5l8 27l75 34q6 20 6 283v256zM126 704l-17 28l161 127q17 -2 38 -22t32 -44l-1 -13z" />
<glyph unicode="&#xce;" horiz-adv-x="366" d="M44 633l9 26q21 0 64.5 -0.5t65.5 -0.5q24 0 70.5 0.5t69.5 0.5l-7 -27l-70 -33v-256q0 -251 5 -283l88 -34l-7 -27q-24 0 -74 0.5t-77 0.5t-77 -0.5t-74 -0.5l8 27l75 34q6 20 6 283v256zM172 858h20l137 -123l-16 -27l-131 64l-131 -64l-16 27z" />
<glyph unicode="&#xcf;" horiz-adv-x="366" d="M44 633l9 26q21 0 64.5 -0.5t65.5 -0.5q24 0 70.5 0.5t69.5 0.5l-7 -27l-70 -33v-256q0 -251 5 -283l88 -34l-7 -27q-24 0 -74 0.5t-77 0.5t-77 -0.5t-74 -0.5l8 27l75 34q6 20 6 283v256zM77 845l9 2q11 -5 30 -26t26 -37l-2 -9q-6 -15 -24.5 -34.5t-32.5 -28.5l-10 -3 q-16 9 -32.5 28t-25.5 35l2 10q26 39 60 63zM288 845l8 2q11 -4 30 -25t27 -38l-2 -9q-7 -15 -25.5 -35t-31.5 -28l-11 -3q-35 23 -57 63l2 10q25 39 60 63z" />
<glyph unicode="&#xd0;" horiz-adv-x="769" d="M45 368h88v238l-85 24l9 24q143 13 247 13q215 0 320 -83.5t105 -237.5q0 -69 -20.5 -125t-55.5 -92.5t-70.5 -59t-75.5 -37.5q-93 -35 -283 -35q-67 0 -181 3l9 27l75 31q6 21 6 266h-102zM260 368h168l-20 -44h-148q0 -273 4 -287q156 0 236 75q89 81 89 227 q0 142 -90 217q-80 67 -239 67v-255z" />
<glyph unicode="&#xd1;" horiz-adv-x="769" d="M281 25l-7 -26q-20 0 -63 1t-65 1q-20 0 -60 -1t-59 -1l5 27l79 40q9 91 19 487q-22 29 -38.5 44t-26 19t-43.5 16l11 27l174 5q4 -15 40 -60q194 -237 365 -424h2q0 78 -6 414l-98 39l9 26q21 0 61 -0.5t57 -0.5q19 0 59 0.5t60 0.5l-7 -28l-77 -37q0 -3 -3 -101.5 t-6 -211.5t-3 -195q0 -64 -5 -101l-19 -6q-123 92 -462 521h-2q-1 -111 -1 -194q0 -199 8 -241zM531 821l27 -20q-56 -94 -109 -94q-13 0 -65 25q-37 20 -51 20q-25 0 -67 -49l-25 22q57 99 107 99q19 0 61 -24q42 -22 55 -22q26 0 67 43z" />
<glyph unicode="&#xd2;" horiz-adv-x="796" d="M400 677q47 0 95 -12t95 -39t83 -65t58.5 -95.5t23.5 -126.5v-6q0 -85 -30 -154q-31 -71 -83.5 -113t-114.5 -63.5t-127 -21.5q-50 0 -100 13t-97 40.5t-83 66.5t-57.5 96.5t-21.5 125.5q0 107 54 190t134.5 123.5t170.5 40.5zM387 637q-96 0 -149 -85t-53 -212 q0 -81 25.5 -153t79 -119.5t123.5 -47.5q55 0 95 28t61.5 75t31.5 97t10 104q0 73 -24.5 143t-77.5 120t-122 50zM480 741l-17 -30l-207 76v13q10 22 28.5 41.5t34.5 25.5z" />
<glyph unicode="&#xd3;" horiz-adv-x="796" d="M400 677q47 0 95 -12t95 -39t83 -65t58.5 -95.5t23.5 -126.5v-6q0 -85 -30 -154q-31 -71 -83.5 -113t-114.5 -63.5t-127 -21.5q-50 0 -100 13t-97 40.5t-83 66.5t-57.5 96.5t-21.5 125.5q0 107 54 190t134.5 123.5t170.5 40.5zM387 637q-96 0 -149 -85t-53 -212 q0 -81 25.5 -153t79 -119.5t123.5 -47.5q55 0 95 28t61.5 75t31.5 97t10 104q0 73 -24.5 143t-77.5 120t-122 50zM337 714l-17 29l161 127q17 -2 38 -22t32 -44l-1 -13z" />
<glyph unicode="&#xd4;" horiz-adv-x="796" d="M400 677q47 0 95 -12t95 -39t83 -65t58.5 -95.5t23.5 -126.5v-6q0 -85 -30 -154q-31 -71 -83.5 -113t-114.5 -63.5t-127 -21.5q-50 0 -100 13t-97 40.5t-83 66.5t-57.5 96.5t-21.5 125.5q0 107 54 190t134.5 123.5t170.5 40.5zM387 637q-96 0 -149 -85t-53 -212 q0 -81 25.5 -153t79 -119.5t123.5 -47.5q55 0 95 28t61.5 75t31.5 97t10 104q0 73 -24.5 143t-77.5 120t-122 50zM387 855h20l137 -124l-16 -26l-131 64l-131 -64l-16 26z" />
<glyph unicode="&#xd5;" horiz-adv-x="796" d="M400 677q47 0 95 -12t95 -39t83 -65t58.5 -95.5t23.5 -126.5v-6q0 -85 -30 -154q-31 -71 -83.5 -113t-114.5 -63.5t-127 -21.5q-50 0 -100 13t-97 40.5t-83 66.5t-57.5 96.5t-21.5 125.5q0 107 54 190t134.5 123.5t170.5 40.5zM387 637q-96 0 -149 -85t-53 -212 q0 -81 25.5 -153t79 -119.5t123.5 -47.5q55 0 95 28t61.5 75t31.5 97t10 104q0 73 -24.5 143t-77.5 120t-122 50zM532 833l26 -20q-55 -94 -108 -94q-13 0 -65 25q-37 20 -51 20q-23 0 -67 -49l-25 22q58 99 107 99q19 0 61 -24q42 -22 55 -22q26 0 67 43z" />
<glyph unicode="&#xd6;" horiz-adv-x="796" d="M400 677q47 0 95 -12t95 -39t83 -65t58.5 -95.5t23.5 -126.5v-6q0 -85 -30 -154q-31 -71 -83.5 -113t-114.5 -63.5t-127 -21.5q-50 0 -100 13t-97 40.5t-83 66.5t-57.5 96.5t-21.5 125.5q0 107 54 190t134.5 123.5t170.5 40.5zM387 637q-96 0 -149 -85t-53 -212 q0 -81 25.5 -153t79 -119.5t123.5 -47.5q55 0 95 28t61.5 75t31.5 97t10 104q0 73 -24.5 143t-77.5 120t-122 50zM293 846l8 2q11 -5 30 -26t27 -38l-3 -9q-6 -14 -25 -34t-32 -29l-10 -2q-33 18 -58 63l3 9q29 43 60 64zM503 846l8 2q11 -5 30 -26t27 -38l-2 -9 q-7 -15 -25.5 -35t-31.5 -28l-11 -2q-33 20 -57 63l2 9q24 40 60 64z" />
<glyph unicode="&#xd7;" horiz-adv-x="596" d="M510 396l-164 -168l163 -166l-47 -52l-165 168l-162 -168l-49 52l162 166l-163 165l50 51l162 -167l165 169z" />
<glyph unicode="&#xd8;" horiz-adv-x="796" d="M599 620l59 76l26 -24l-55 -74q126 -96 127 -258v-6q0 -86 -30 -156q-32 -71 -85 -112.5t-114.5 -63t-126.5 -21.5q-118 0 -210 59l-68 -88l-27 26l65 84q-120 97 -120 260q0 108 54.5 191t135 123.5t169.5 40.5q110 0 200 -57zM230 144l313 410q-58 83 -156 83 q-95 0 -150.5 -87.5t-55.5 -211.5q0 -118 47 -194h2zM563 519l-314 -410q57 -89 163 -89q54 0 95.5 28.5t63.5 75.5t33 97.5t11 103.5q0 115 -50 194h-2z" />
<glyph unicode="&#xd9;" horiz-adv-x="746" d="M25 632l9 27q23 0 68.5 -0.5t67.5 -0.5t65 0.5t64 0.5l-7 -28l-56 -34q-1 -113 -1 -372q0 -70 26 -108q47 -70 150 -70q99 0 149 70q34 49 34 132q0 223 -4 348l-72 34l7 28q16 0 48.5 -0.5t47.5 -0.5q21 0 62.5 0.5t60.5 0.5l-5 -28l-83 -35q-5 -30 -11 -342 q-2 -98 -39 -159q-32 -52 -91 -82.5t-135 -30.5q-79 0 -144 28.5t-100 89.5q-28 49 -28 135q0 55 -0.5 134t-0.5 135.5t-1 94.5zM467 734l-18 -30l-207 76l-1 13q12 22 30.5 41.5t34.5 24.5z" />
<glyph unicode="&#xda;" horiz-adv-x="746" d="M25 632l9 27q23 0 68.5 -0.5t67.5 -0.5t65 0.5t64 0.5l-7 -28l-56 -34q-1 -113 -1 -372q0 -70 26 -108q47 -70 150 -70q99 0 149 70q34 49 34 132q0 223 -4 348l-72 34l7 28q16 0 48.5 -0.5t47.5 -0.5q21 0 62.5 0.5t60.5 0.5l-5 -28l-83 -35q-5 -30 -11 -342 q-2 -98 -39 -159q-32 -52 -91 -82.5t-135 -30.5q-79 0 -144 28.5t-100 89.5q-28 49 -28 135q0 55 -0.5 134t-0.5 135.5t-1 94.5zM334 704l-17 28l161 127q17 -2 38.5 -22t31.5 -44l-1 -13z" />
<glyph unicode="&#xdb;" horiz-adv-x="746" d="M25 632l9 27q23 0 68.5 -0.5t67.5 -0.5t65 0.5t64 0.5l-7 -28l-56 -34q-1 -113 -1 -372q0 -70 26 -108q47 -70 150 -70q99 0 149 70q34 49 34 132q0 223 -4 348l-72 34l7 28q16 0 48.5 -0.5t47.5 -0.5q21 0 62.5 0.5t60.5 0.5l-5 -28l-83 -35q-5 -30 -11 -342 q-2 -98 -39 -159q-32 -52 -91 -82.5t-135 -30.5q-79 0 -144 28.5t-100 89.5q-28 49 -28 135q0 55 -0.5 134t-0.5 135.5t-1 94.5zM386 854h20l138 -124l-16 -26l-132 64l-131 -64l-16 26z" />
<glyph unicode="&#xdc;" horiz-adv-x="746" d="M25 632l9 27q23 0 68.5 -0.5t67.5 -0.5t65 0.5t64 0.5l-7 -28l-56 -34q-1 -113 -1 -372q0 -70 26 -108q47 -70 150 -70q99 0 149 70q34 49 34 132q0 223 -4 348l-72 34l7 28q16 0 48.5 -0.5t47.5 -0.5q21 0 62.5 0.5t60.5 0.5l-5 -28l-83 -35q-5 -30 -11 -342 q-2 -98 -39 -159q-32 -52 -91 -82.5t-135 -30.5q-79 0 -144 28.5t-100 89.5q-28 49 -28 135q0 55 -0.5 134t-0.5 135.5t-1 94.5zM293 845l8 3q11 -5 30 -26t27 -38l-3 -9q-6 -15 -24.5 -34.5t-32.5 -28.5l-10 -2q-34 19 -58 62l2 10q29 43 61 63zM504 845l8 3q11 -5 30 -26 t27 -38l-3 -9q-6 -14 -25 -34t-32 -29l-10 -2q-36 21 -57 62l2 10q27 43 60 63z" />
<glyph unicode="&#xdd;" horiz-adv-x="648" d="M3 634l10 25q23 0 68 -0.5t67 -0.5h107l-7 -29l-27 -22q5 -10 21 -39l52 -96l70 -129h2q113 221 131 260l-41 29l12 26h71q19 0 56.5 0.5t56.5 0.5l-6 -28l-55 -22q-27 -10 -44 -33q-83 -130 -152 -261q-9 -18 -9 -32q0 -208 4 -224l113 -33l-7 -27q-26 0 -83.5 0.5 t-87.5 0.5q-31 0 -92 -0.5t-90 -0.5l7 26l104 34q6 84 6 216q0 15 -14 39q-88 161 -157 275q-25 24 -86 45zM301 704l-17 28l160 127q17 -2 38.5 -22t31.5 -44v-13z" />
<glyph unicode="&#xde;" horiz-adv-x="597" d="M49 23l64 32q4 16 4 289v263l-75 28l9 24q21 0 63 -0.5t62 -0.5q24 0 74 0.5t74 0.5l-7 -25l-73 -28v-84q23 2 67 4h11q45 0 84 -8q43 -8 79.5 -27.5t57.5 -56t21 -86.5q0 -54 -22.5 -94.5t-57.5 -61t-69.5 -30t-66.5 -9.5q-36 0 -59 10l-4 28h18q59 0 92 39.5t33 107.5 q0 69 -38 109t-106 40q-25 0 -40 -5v-124q0 -67 0.5 -121t1.5 -85t2 -52l2 -32v-12l91 -32l-8 -25q-25 0 -76 1t-77 1q-23 0 -68.5 -1t-69.5 -1z" />
<glyph unicode="&#xdf;" horiz-adv-x="575" d="M38 442h52q7 130 84 199q63 59 157 59q80 0 128 -44.5t48 -109.5q0 -13 -3 -22q-50 -31 -78 -66t-28 -65q0 -17 10.5 -31.5t43.5 -44.5q49 -47 70.5 -80.5t21.5 -77.5q0 -78 -58.5 -125t-138.5 -47q-47 0 -82 16q21 76 24 83l16 9q19 -29 36 -68q1 0 5 -0.5t9 -0.5 q30 0 57.5 22t27.5 58q0 31 -44 78l-79 84q-19 20 -19 48q0 33 20 69.5t38 57t50 52.5q8 12 8 26q0 62 -28 100q-28 39 -69 39q-91 0 -101 -157q-4 -61 -4 -248q0 -181 5 -201l18 -35l-6 -20q-11 0 -36 0.5t-39 0.5q-21 0 -65 -0.5t-68 -0.5l4 23l59 29q6 39 6 198v145 l-64 12z" />
<glyph unicode="&#xe0;" horiz-adv-x="480" d="M281 266l1 28q1 107 -87 107q-24 0 -53 -12q-8 -77 -18 -116l-9 -6q-12 3 -41.5 34t-38.5 59q58 49 139 79q44 17 70 17q43 0 75 -15t48.5 -38.5t24.5 -48.5t8 -50q0 -94 -2 -222q19 -33 74 -53l-5 -15q-31 -25 -78 -25q-83 0 -105 54h-2q-72 -56 -118 -56 q-60 0 -95 38.5t-35 84.5q0 60 42 82q21 14 85 36.5t120 37.5zM157 133v-2q0 -38 22 -56t49 -18q25 0 43 18q8 7 8 23l2 131q-52 -17 -92 -40q-32 -19 -32 -56zM279 518l-25 -24l-153 157v15q39 20 86 20q9 0 17 -1z" />
<glyph unicode="&#xe1;" horiz-adv-x="480" d="M281 266l1 28q1 107 -87 107q-24 0 -53 -12q-8 -77 -18 -116l-9 -6q-12 3 -41.5 34t-38.5 59q58 49 139 79q44 17 70 17q43 0 75 -15t48.5 -38.5t24.5 -48.5t8 -50q0 -94 -2 -222q19 -33 74 -53l-5 -15q-31 -25 -78 -25q-83 0 -105 54h-2q-72 -56 -118 -56q-60 0 -95 39 t-35 85q0 59 42 81q21 14 85 36.5t120 37.5zM157 131q0 -38 22 -56t49 -18q25 0 43 18q8 7 8 22l2 132q-60 -22 -92 -40q-32 -21 -32 -58zM214 494l-27 22l88 169q8 1 16 1q46 0 80 -20v-15z" />
<glyph unicode="&#xe2;" horiz-adv-x="480" d="M281 266l1 28q1 107 -87 107q-24 0 -53 -12q-8 -77 -18 -116l-9 -6q-12 3 -41.5 34t-38.5 59q58 49 139 79q44 17 70 17q43 0 75 -15t48.5 -38.5t24.5 -48.5t8 -50q0 -94 -2 -222q19 -33 74 -53l-5 -15q-31 -25 -78 -25q-83 0 -105 54h-2q-72 -56 -118 -56q-60 0 -95 39 t-35 85q0 59 42 81q21 14 85 36.5t120 37.5zM157 131q0 -38 22 -56t49 -18q25 0 43 18q8 7 8 22l2 132q-60 -22 -92 -40q-32 -21 -32 -58zM214 684l21 5l108 -172l-24 -21l-95 89l-92 -89l-25 21z" />
<glyph unicode="&#xe3;" horiz-adv-x="480" d="M281 266l1 28q1 107 -87 107q-24 0 -53 -12q-8 -77 -18 -116l-9 -6q-12 3 -41.5 34t-38.5 59q58 49 139 79q44 17 70 17q43 0 75 -15t48.5 -38.5t24.5 -48.5t8 -50q0 -94 -2 -222q19 -33 74 -53l-5 -15q-31 -25 -78 -25q-83 0 -105 54h-2q-72 -56 -118 -56q-60 0 -95 39 t-35 85q0 59 42 81q21 14 85 36.5t120 37.5zM157 131q0 -38 22 -56t49 -18q25 0 43 18q8 7 8 22l2 132q-60 -22 -92 -40q-32 -21 -32 -58zM362 637l27 -20q-55 -94 -105 -94q-14 0 -64 25q-36 20 -50 20q-24 0 -65 -49l-25 22q58 96 105 96q19 0 60 -22q36 -22 53 -22 q25 0 64 44z" />
<glyph unicode="&#xe4;" horiz-adv-x="480" d="M281 266l1 28q1 107 -87 107q-24 0 -53 -12q-8 -77 -18 -116l-9 -6q-12 3 -41.5 34t-38.5 59q58 49 139 79q44 17 70 17q43 0 75 -15t48.5 -38.5t24.5 -48.5t8 -50q0 -94 -2 -222q19 -33 74 -53l-5 -15q-31 -25 -78 -25q-83 0 -105 54h-2q-72 -56 -118 -56q-60 0 -95 39 t-35 85q0 59 42 81q21 14 85 36.5t120 37.5zM157 131q0 -38 22 -56t49 -18q25 0 43 18q8 7 8 22l2 132q-60 -22 -92 -40q-32 -21 -32 -58zM136 651l8 3q11 -5 29.5 -26t25.5 -36l-2 -10q-11 -29 -56 -62l-10 -2q-32 20 -56 61l2 10q26 42 59 62zM327 652l9 2 q10 -5 28.5 -25.5t26.5 -36.5l-2 -10q-6 -14 -24 -33t-32 -29l-10 -2q-36 24 -56 61l2 10q25 39 58 63z" />
<glyph unicode="&#xe5;" horiz-adv-x="480" d="M281 266l1 28q1 59 -24.5 83t-62.5 24q-25 0 -54 -12q-9 -86 -18 -116l-9 -6q-11 3 -41 34t-39 59q57 48 140 79q42 17 70 17q43 0 75 -15t48.5 -38.5t24.5 -48.5t8 -50q0 -94 -2 -222q19 -33 74 -53l-5 -15q-31 -25 -78 -25q-83 0 -105 54h-2q-72 -56 -118 -56 q-60 0 -95 39t-35 85q0 59 42 81q21 14 85 36.5t120 37.5zM157 131q0 -38 22 -56t49 -18q25 0 43 18q8 7 8 22l2 132q-60 -22 -92 -40q-32 -21 -32 -58zM231 643q-45 0 -45 -53q0 -26 13 -39.5t33 -13.5t33.5 14t13.5 39q0 26 -13.5 39.5t-34.5 13.5zM233 681q38 0 65.5 -25 t27.5 -66q0 -42 -27.5 -66t-66.5 -24q-38 0 -65.5 24t-27.5 65q0 42 28 67t66 25z" />
<glyph unicode="&#xe6;" horiz-adv-x="730" d="M127 275l-13 -7q-11 4 -39 37t-36 56q50 43 123 74q47 20 83 20q39 0 70.5 -17.5t48.5 -44.5q66 62 154 62q80 0 131.5 -45.5t51.5 -131.5q0 -31 -10 -35q-37 -22 -104 -22h-172v-11q0 -78 40 -122.5t111 -44.5q17 0 31 9q50 39 84 56q10 -5 11 -21q-8 -20 -30.5 -47 t-36.5 -36q-48 -17 -110 -17q-128 0 -188 86q-110 -86 -162 -86q-60 0 -95.5 39t-35.5 85q0 52 40 77q15 11 87 36.5t128 40.5v26q0 59 -25 85t-63 26q-29 0 -55 -15q-5 -53 -19 -112zM416 262h156q7 24 7 46q0 49 -19 78t-52 29q-44 0 -68 -50t-24 -103zM224 58 q17 0 43.5 13t43.5 32q-22 44 -22 113v12q-79 -25 -100 -40q-32 -21 -32 -60q0 -36 21 -53t46 -17z" />
<glyph unicode="&#xe7;" horiz-adv-x="467" d="M194 -92l60 78l-1 2q-101 7 -160.5 67.5t-59.5 158.5q0 76 40 132.5t98 83t121 26.5q47 0 88 -12.5t58 -26.5q-13 -71 -39 -116l-19 -7q-24 45 -41 116q-12 6 -32 6q-65 0 -105 -53t-40 -131q0 -74 41.5 -130t116.5 -57q12 0 28 8q57 41 83 53l11 -17q-6 -19 -30 -49.5 t-37 -37.5q-34 -11 -80 -14l-29 -40q35 -17 48.5 -34.5t13.5 -40.5q0 -67 -119 -97l-12 29q62 27 62 54q0 14 -14 24t-51 25z" />
<glyph unicode="&#xe8;" horiz-adv-x="475" d="M331 226h-169q-1 -5 -1 -17q0 -71 40 -116q41 -46 105 -46q16 0 28 4q54 43 95 64l6 -16q-4 -22 -29 -51t-42 -40q-57 -21 -105 -21q-102 0 -164 61.5t-62 167.5q0 102 67 171t160 69q80 0 132.5 -48t52.5 -132q0 -26 -10 -32q-32 -18 -104 -18zM162 269h157q5 17 5 32 q0 51 -18.5 83t-51.5 32q-42 0 -67 -49t-25 -98zM299 518l-26 -24l-153 157v15q39 20 87 20q8 0 17 -1z" />
<glyph unicode="&#xe9;" horiz-adv-x="475" d="M331 226h-169q-1 -5 -1 -17q0 -71 40 -116q41 -46 105 -46q16 0 28 4q54 43 95 64l6 -16q-4 -22 -29 -51t-42 -40q-57 -21 -105 -21q-102 0 -164 61.5t-62 167.5q0 102 67 171t160 69q80 0 132.5 -48t52.5 -132q0 -26 -10 -32q-32 -18 -104 -18zM162 269h157q5 17 5 32 q0 51 -18.5 83t-51.5 32q-42 0 -67 -49t-25 -98zM234 494l-28 22l89 169q8 1 16 1q46 0 80 -20v-15z" />
<glyph unicode="&#xea;" horiz-adv-x="475" d="M331 226h-169q-1 -5 -1 -17q0 -71 40 -116q41 -46 105 -46q16 0 28 4q54 43 95 64l6 -16q-4 -22 -29 -51t-42 -40q-57 -21 -105 -21q-102 0 -164 61.5t-62 167.5q0 102 67 171t160 69q80 0 132.5 -48t52.5 -132q0 -26 -10 -32q-32 -18 -104 -18zM162 269h157q5 17 5 32 q0 51 -18.5 83t-51.5 32q-42 0 -67 -49t-25 -98zM249 684l22 5l108 -172l-25 -21l-94 89l-93 -89l-25 21z" />
<glyph unicode="&#xeb;" horiz-adv-x="475" d="M331 226h-169q-1 -5 -1 -17q0 -71 40 -116q41 -46 105 -46q16 0 28 4q54 43 95 64l6 -16q-4 -22 -29 -51t-42 -40q-57 -21 -105 -21q-102 0 -164 61.5t-62 167.5q0 102 67 171t160 69q80 0 132.5 -48t52.5 -132q0 -26 -10 -32q-32 -18 -104 -18zM162 269h157q5 17 5 32 q0 51 -18.5 83t-51.5 32q-42 0 -67 -49t-25 -98zM159 651l9 3q10 -5 28.5 -26t26.5 -36l-3 -10q-11 -29 -56 -62l-10 -2q-33 22 -56 61l2 10q25 40 59 62zM351 652l9 2q10 -5 28.5 -25.5t26.5 -36.5l-2 -10q-14 -29 -56 -62l-10 -2q-36 24 -56 61l2 10q25 39 58 63z" />
<glyph unicode="&#xec;" horiz-adv-x="293" d="M32 402l6 23q78 24 171 31v-206q0 -127 2 -193l68 -30l-7 -28q-21 0 -62 1t-64 1q-19 0 -60 -1t-61 -1l6 28l54 30q2 76 2 195v123zM190 518l-26 -24l-153 157v15q41 20 88 20q8 0 16 -1z" />
<glyph unicode="&#xed;" horiz-adv-x="293" d="M32 402l6 23q78 24 171 31v-206q0 -127 2 -193l68 -30l-7 -28q-21 0 -62 1t-64 1q-19 0 -60 -1t-61 -1l6 28l54 30q2 76 2 195v123zM124 494l-27 21l88 170q8 1 16 1q46 0 81 -20v-15z" />
<glyph unicode="&#xee;" horiz-adv-x="293" d="M32 402l6 23q78 24 171 31v-206q0 -127 2 -193l68 -30l-7 -28q-21 0 -62 1t-64 1q-19 0 -60 -1t-61 -1l6 28l54 30q2 76 2 195v123zM128 684l21 5l108 -173l-24 -20l-95 89l-93 -89l-24 20z" />
<glyph unicode="&#xef;" horiz-adv-x="293" d="M32 402l6 23q78 24 171 31v-206q0 -127 2 -193l68 -30l-7 -28q-21 0 -62 1t-64 1q-19 0 -60 -1t-61 -1l6 28l54 30q2 76 2 195v123zM39 651l9 3q10 -5 28.5 -26t26.5 -36l-3 -10q-5 -14 -23 -33t-32 -29l-10 -2q-34 21 -57 61l2 10q28 42 59 62zM232 652l8 2 q10 -5 28.5 -25.5t26.5 -36.5l-2 -10q-6 -14 -24 -33t-32 -29l-10 -2q-36 24 -56 61l2 10q25 41 59 63z" />
<glyph unicode="&#xf0;" horiz-adv-x="533" d="M92 666l11 34q117 -16 210 -73l120 64l24 -31l-108 -60q65 -51 108 -140t43 -191q0 -137 -65 -209.5t-173 -72.5q-95 0 -162 61.5t-67 170.5q0 111 70 174t163 63q54 0 88 -24l2 1q-30 82 -79 130l-133 -72l-27 29l129 71q-60 48 -154 75zM271 416q-37 0 -62 -32 t-34 -72.5t-9 -84.5q0 -76 25 -138.5t78 -62.5q29 0 50 20t31 53t14.5 66t4.5 67q0 111 -32 151q-25 33 -66 33z" />
<glyph unicode="&#xf1;" horiz-adv-x="581" d="M89 283v84l-51 25l8 22q12 9 78 25.5t87 16.5l-7 -75l2 -1q95 76 151 76q74 0 107.5 -47t33.5 -111v-225q0 -15 18 -22l53 -25l-7 -27q-20 0 -63 0.5t-65 0.5q-17 0 -53 -0.5t-55 -0.5l6 27l40 32q4 116 4 226q0 47 -21.5 71.5t-57.5 24.5q-43 0 -86 -38q0 -267 2 -286 l51 -30l-6 -27q-35 1 -110 1q-21 0 -62 -0.5t-61 -0.5l7 27l54 30q3 21 3 227zM418 637l28 -20q-56 -94 -106 -94q-14 0 -64 25q-37 20 -50 20q-25 0 -66 -49l-24 22q57 96 105 96q19 0 60 -22q36 -22 53 -22q27 0 64 44z" />
<glyph unicode="&#xf2;" horiz-adv-x="543" d="M273 456q104 0 170 -64.5t66 -165.5q0 -107 -67 -173t-171 -66q-99 0 -168.5 62.5t-69.5 167.5q0 107 72.5 173t167.5 66zM268 417q-34 0 -57.5 -30t-33 -70.5t-9.5 -84.5q0 -48 11 -93t37 -79t63 -34q28 0 47.5 18.5t29.5 49t14 60.5t4 61q0 75 -27 138.5t-79 63.5z M321 518l-26 -24l-153 157v15q39 20 87 20q8 0 17 -1z" />
<glyph unicode="&#xf3;" horiz-adv-x="543" d="M273 456q104 0 170 -64.5t66 -165.5q0 -107 -67 -173t-171 -66q-99 0 -168.5 62.5t-69.5 167.5q0 107 72.5 173t167.5 66zM268 417q-34 0 -57.5 -30t-33 -70.5t-9.5 -84.5q0 -48 11 -93t37 -79t63 -34q28 0 47.5 18.5t29.5 49t14 60.5t4 61q0 75 -27 138.5t-79 63.5z M254 494l-28 21l89 170q8 1 16 1q46 0 80 -20v-15z" />
<glyph unicode="&#xf4;" horiz-adv-x="543" d="M273 456q104 0 170 -64.5t66 -165.5q0 -107 -67 -173t-171 -66q-99 0 -168.5 62.5t-69.5 167.5q0 107 72.5 173t167.5 66zM268 417q-34 0 -57.5 -30t-33 -70.5t-9.5 -84.5q0 -48 11 -93t37 -79t63 -34q28 0 47.5 18.5t29.5 49t14 60.5t4 61q0 75 -27 138.5t-79 63.5z M260 684l22 5l108 -172l-25 -21l-94 89l-93 -89l-25 21z" />
<glyph unicode="&#xf5;" horiz-adv-x="543" d="M273 456q104 0 170 -64.5t66 -165.5q0 -107 -67 -173t-171 -66q-99 0 -168.5 62.5t-69.5 167.5q0 107 72.5 173t167.5 66zM268 417q-34 0 -57.5 -30t-33 -70.5t-9.5 -84.5q0 -48 11 -93t37 -79t63 -34q28 0 47.5 18.5t29.5 49t14 60.5t4 61q0 75 -27 138.5t-79 63.5z M394 637l27 -20q-55 -94 -105 -94q-14 0 -64 25q-37 20 -51 20q-24 0 -65 -49l-25 22q58 96 106 96q20 0 59 -22q38 -22 54 -22q27 0 64 44z" />
<glyph unicode="&#xf6;" horiz-adv-x="543" d="M273 456q104 0 170 -64.5t66 -165.5q0 -107 -67 -173t-171 -66q-99 0 -168.5 62.5t-69.5 167.5q0 107 72.5 173t167.5 66zM268 417q-34 0 -57.5 -30t-33 -70.5t-9.5 -84.5q0 -48 11 -93t37 -79t63 -34q28 0 47.5 18.5t29.5 49t14 60.5t4 61q0 75 -27 138.5t-79 63.5z M173 651l9 3q11 -5 29.5 -26t25.5 -36l-2 -10q-11 -29 -56 -62l-10 -2q-32 20 -56 61l2 10q26 41 58 62zM366 652l9 2q10 -5 28.5 -25.5t26.5 -36.5l-2 -10q-14 -29 -56 -62l-10 -2q-36 24 -56 61l1 10q27 40 59 63z" />
<glyph unicode="&#xf7;" horiz-adv-x="596" d="M78 265h452l-12 -62h-453zM296 146l9 1q10 -4 27.5 -24t24.5 -35l-2 -9q-7 -14 -26 -33.5t-30 -25.5l-9 -3q-15 8 -30.5 26t-21.5 33l1 10q29 42 57 60zM300 451l7 1q10 -4 27.5 -24t24.5 -36l-1 -8q-7 -14 -26 -34t-30 -26l-10 -3q-15 8 -30.5 26t-21.5 34l2 10 q25 38 58 60z" />
<glyph unicode="&#xf8;" horiz-adv-x="546" d="M405 422l43 56l28 -20l-42 -56q37 -30 58 -77t21 -99q0 -108 -67.5 -173.5t-172.5 -65.5q-77 0 -132 35l-49 -64l-26 24l45 60q-36 29 -57 75t-21 100q0 107 73 173t168 66q75 0 131 -34zM179 123l173 238q-28 56 -79 56q-38 0 -64 -31t-36.5 -72.5t-10.5 -88.5 q0 -65 16 -102h1zM369 322l-173 -236q11 -27 34 -43.5t50 -16.5q30 0 52 19.5t32.5 51t15 62t4.5 61.5q0 55 -14 101z" />
<glyph unicode="&#xf9;" horiz-adv-x="565" d="M81 380l-56 29l9 23q61 16 174 18q-7 -126 -7 -282q0 -57 16 -79q24 -26 62 -26q49 0 82 40v262q-1 11 -13 18.5t-58 26.5l10 23q81 17 168 17h18q-3 -46 -3 -372q20 -36 72 -53l-5 -14q-7 -7 -30.5 -14.5t-46.5 -7.5q-87 0 -107 70h-2q-67 -72 -143 -72q-62 0 -100 36 q-42 38 -42 121q0 38 1 121.5t1 114.5zM311 518l-26 -25l-153 158v15q39 20 87 20q8 0 17 -1z" />
<glyph unicode="&#xfa;" horiz-adv-x="565" d="M81 380l-56 29l9 23q61 16 174 18q-7 -126 -7 -282q0 -57 16 -79q24 -26 62 -26q49 0 82 39v263q-1 11 -13 18.5t-58 26.5l10 23q81 17 168 17h18q-3 -46 -3 -372q20 -36 72 -53l-5 -14q-7 -7 -30.5 -14.5t-46.5 -7.5q-87 0 -107 70h-2q-67 -72 -143 -72q-62 0 -100 36 q-42 38 -42 121q0 38 1 122t1 114zM254 494l-27 21l89 170q8 1 16 1q46 0 80 -20v-15z" />
<glyph unicode="&#xfb;" horiz-adv-x="565" d="M81 380l-56 29l9 23q61 16 174 18q-7 -126 -7 -282q0 -57 16 -79q24 -26 62 -26q49 0 82 39v263q-1 11 -13 18.5t-58 26.5l10 23q81 17 168 17h18q-3 -46 -3 -372q20 -36 72 -53l-5 -14q-7 -7 -30.5 -14.5t-46.5 -7.5q-87 0 -107 70h-2q-67 -72 -143 -72q-62 0 -100 36 q-42 38 -42 121q0 38 1 122t1 114zM263 684l21 5l108 -173l-24 -20l-95 89l-93 -89l-25 20z" />
<glyph unicode="&#xfc;" horiz-adv-x="565" d="M81 380l-56 29l9 23q61 16 174 18q-7 -126 -7 -282q0 -57 16 -79q24 -26 62 -26q49 0 82 39v263q-1 11 -13 18.5t-58 26.5l10 23q81 17 168 17h18q-3 -46 -3 -372q20 -36 72 -53l-5 -14q-7 -7 -30.5 -14.5t-46.5 -7.5q-87 0 -107 70h-2q-67 -72 -143 -72q-62 0 -100 36 q-42 38 -42 121q0 38 1 122t1 114zM170 651l9 3q11 -5 29.5 -26t25.5 -36l-2 -10q-6 -14 -24 -33t-32 -29l-10 -2q-32 20 -56 61l2 10q26 41 58 62zM363 652l9 2q10 -5 28.5 -25.5t26.5 -36.5l-2 -10q-14 -29 -56 -62l-10 -2q-36 24 -56 61l1 10q27 40 59 63z" />
<glyph unicode="&#xfd;" horiz-adv-x="477" d="M325 417l9 27q11 0 33.5 -0.5t34.5 -0.5q18 0 49 0.5t44 0.5l-7 -27q-29 -15 -61 -37q-15 -30 -49 -112l-82 -198l-76 -182q-26 -118 -27 -120q-8 -4 -23 -4q-27 0 -54 16t-33 30q12 27 98 105l38 81q-3 6 -68.5 165.5t-89.5 212.5q-9 16 -66 43l8 27q19 0 58 -0.5 t59 -0.5q18 0 53 0.5t52 0.5l-6 -27l-27 -27q13 -37 91 -243h3q64 181 79 239zM243 494l-27 21l88 170q8 1 16 1q46 0 80 -20v-15z" />
<glyph unicode="&#xfe;" horiz-adv-x="555" d="M71 109v288q0 180 -3 226l-54 26l10 27q26 9 83 18t89 10q-3 -130 -3 -303l2 -1q87 54 133 56q69 0 131 -57t62 -159q0 -66 -24.5 -117.5t-63 -79.5t-78.5 -42t-78 -14q-34 0 -82 30l-2 -1q0 -63 4 -173l93 -34l-9 -25q-24 0 -74.5 0.5t-75.5 0.5q-21 0 -63 -0.5 t-63 -0.5l8 27l54 29q4 156 4 269zM193 363v-305q30 -16 61 -16q57 0 98 48t41 128q0 74 -39 118.5t-96 44.5q-36 0 -65 -18z" />
<glyph unicode="&#xff;" horiz-adv-x="477" d="M325 417l9 27q11 0 33.5 -0.5t34.5 -0.5q18 0 49 0.5t44 0.5l-7 -27q-29 -15 -61 -37q-15 -30 -49 -112l-82 -198l-76 -182q-26 -118 -27 -120q-8 -4 -23 -4q-27 0 -54 16t-33 30q12 27 98 105l38 81q-3 6 -68.5 165.5t-89.5 212.5q-9 16 -66 43l8 27q19 0 58 -0.5 t59 -0.5q18 0 53 0.5t52 0.5l-6 -27l-27 -27q13 -37 91 -243h3q64 181 79 239zM155 651l9 3q10 -5 28.5 -26t26.5 -36l-3 -10q-11 -29 -56 -62l-10 -2q-32 20 -56 61l2 10q25 40 59 62zM347 652l9 2q10 -5 28.5 -25.5t26.5 -36.5l-2 -10q-14 -29 -56 -62l-10 -2 q-36 24 -56 61l2 10q25 39 58 63z" />
<glyph unicode="&#x152;" horiz-adv-x="1022" d="M628 658h231q32 10 96 14l3 -4q-5 -57 -25 -159l-19 -10q-9 14 -31.5 62.5t-24.5 52.5l-184 -9v-240q114 0 255 13l4 -12q-4 -11 -27.5 -37.5t-33.5 -26.5q-4 0 -90.5 5.5t-107.5 5.5q0 -183 4 -260l193 -10q82 103 106 129l17 -7q-3 -23 -15.5 -87t-19.5 -81 q-65 3 -181 3h-150q-23 0 -101.5 -3t-91.5 -3q-191 0 -293 88t-102 238q0 152 110 248t315 96q29 0 91 -3t72 -3zM547 53v554q-32 17 -92 17q-69 0 -123 -25t-85.5 -67.5t-47.5 -94.5t-16 -110q0 -78 28.5 -143t91.5 -107.5t151 -42.5q57 0 93 19z" />
<glyph unicode="&#x153;" horiz-adv-x="823" d="M267 414q-29 0 -49.5 -18t-30.5 -48.5t-14 -61t-4 -64.5q0 -43 9 -85t34.5 -76.5t63.5 -34.5q29 0 49.5 21.5t28.5 57t11 62.5t3 56q0 28 -5 58.5t-15.5 61.5t-31.5 51t-49 20zM679 221h-176v-19q0 -72 43 -116q41 -42 106 -42h3q18 0 32 8q64 49 85 57l12 -15 q-9 -25 -32 -52.5t-38 -37.5q-48 -16 -107 -16q-117 0 -169 75q-58 -75 -173 -75q-99 0 -165.5 60t-66.5 168q0 109 73.5 174t169.5 65q111 0 167 -80q32 38 76.5 59t91.5 21q79 0 130.5 -45t51.5 -132q0 -31 -12 -37q-36 -20 -102 -20zM503 262h160q8 30 8 49 q0 45 -19.5 74.5t-52.5 29.5q-46 0 -71 -48.5t-25 -104.5z" />
<glyph unicode="&#x178;" horiz-adv-x="648" d="M3 634l10 25q23 0 68 -0.5t67 -0.5h107l-7 -29l-27 -22q5 -10 21 -39l52 -96l70 -129h2q113 221 131 260l-41 29l12 26h71q19 0 56.5 0.5t56.5 0.5l-6 -28l-55 -22q-27 -10 -44 -33q-83 -130 -152 -261q-9 -18 -9 -32q0 -208 4 -224l113 -33l-7 -27q-26 0 -83.5 0.5 t-87.5 0.5q-31 0 -92 -0.5t-90 -0.5l7 26l104 34q6 84 6 216q0 15 -14 39q-88 161 -157 275q-25 24 -86 45zM244 845l8 3q11 -5 29.5 -26.5t26.5 -37.5l-2 -9q-6 -15 -24.5 -34.5t-32.5 -28.5l-10 -2q-34 19 -58 62l2 10q29 43 61 63zM454 845l8 3q10 -5 29 -26t28 -38 l-3 -9q-7 -15 -25.5 -35t-31.5 -28l-10 -2q-15 9 -32 27.5t-26 34.5l2 10q27 43 61 63z" />
<glyph unicode="&#x2c6;" horiz-adv-x="386" d="M182 684l22 5l108 -173l-25 -20l-94 88l-93 -88l-25 20z" />
<glyph unicode="&#x2dc;" horiz-adv-x="386" d="M321 637l28 -20q-55 -94 -105 -94q-15 0 -65 25q-36 20 -50 20q-24 0 -65 -49l-25 22q58 96 106 96q20 0 59 -22q36 -22 53 -22q27 0 64 44z" />
<glyph unicode="&#x2000;" horiz-adv-x="441" />
<glyph unicode="&#x2001;" horiz-adv-x="883" />
<glyph unicode="&#x2002;" horiz-adv-x="441" />
<glyph unicode="&#x2003;" horiz-adv-x="883" />
<glyph unicode="&#x2004;" horiz-adv-x="294" />
<glyph unicode="&#x2005;" horiz-adv-x="220" />
<glyph unicode="&#x2006;" horiz-adv-x="147" />
<glyph unicode="&#x2007;" horiz-adv-x="147" />
<glyph unicode="&#x2008;" horiz-adv-x="110" />
<glyph unicode="&#x2009;" horiz-adv-x="176" />
<glyph unicode="&#x200a;" horiz-adv-x="49" />
<glyph unicode="&#x2010;" horiz-adv-x="373" d="M288 211l-246 -33l34 88l53 -1l204 13v-9z" />
<glyph unicode="&#x2011;" horiz-adv-x="373" d="M288 211l-246 -33l34 88l53 -1l204 13v-9z" />
<glyph unicode="&#x2013;" horiz-adv-x="605" d="M545 198h-497l12 66h497z" />
<glyph unicode="&#x2014;" horiz-adv-x="927" d="M866 198h-818l12 66h818z" />
<glyph unicode="&#x2018;" horiz-adv-x="236" d="M182 699l18 -28q-71 -64 -71 -129q0 -23 10 -41l46 -23v-15l-90 -52h-16q-13 5 -27 29.5t-15 61.5v5q0 49 37 99q38 54 108 93z" />
<glyph unicode="&#x2019;" horiz-adv-x="236" d="M54 408l-17 28q70 64 70 130q0 27 -10 40l-46 24v15l90 51h16q13 -5 27 -29t15 -61v-5q0 -50 -37 -100q-38 -53 -108 -93z" />
<glyph unicode="&#x201a;" horiz-adv-x="241" d="M48 -139l-19 29q32 28 53 65.5t21 72.5q0 27 -10 43l-49 25v16l96 54h17q14 -5 29 -31.5t16 -63.5v-5q0 -54 -39 -108q-41 -56 -115 -97z" />
<glyph unicode="&#x201c;" horiz-adv-x="428" d="M373 699l17 -28q-70 -64 -70 -129q0 -27 10 -40l46 -24v-15l-90 -52h-16q-13 5 -27 30.5t-15 61.5v5q0 49 36 99q39 53 109 92zM182 699l17 -28q-70 -64 -70 -129q0 -27 10 -40l45 -24v-15l-89 -52h-16q-13 5 -27 29q-15 27 -15 67q0 49 37 99q39 54 108 93z" />
<glyph unicode="&#x201d;" horiz-adv-x="428" d="M55 409l-18 27q70 64 70 130q0 27 -9 39l-47 24v16l90 51h16q12 -5 26.5 -31.5t15.5 -64.5v-5q0 -49 -36 -96q-38 -50 -108 -90zM246 409l-18 27q71 64 71 130q0 27 -9 39l-47 24v16l90 51h16q13 -5 27 -29t15 -61v-5q0 -50 -37 -100q-38 -53 -108 -92z" />
<glyph unicode="&#x201e;" horiz-adv-x="440" d="M47 -139l-18 29q32 28 53 65.5t21 72.5q0 27 -10 43l-49 25v16l96 54h17q14 -5 29.5 -31t16.5 -64v-5q0 -54 -39 -108q-42 -56 -117 -97zM246 -139l-19 29q75 66 75 138q0 26 -11 43l-49 25v16l97 54h16q14 -5 29 -31t16 -64v-5q0 -54 -39 -108q-41 -56 -115 -97z" />
<glyph unicode="&#x2022;" horiz-adv-x="432" d="M210 380l18 7q27 -12 72 -61.5t66 -88.5l-7 -20q-13 -34 -58 -81t-77 -66l-21 -6q-36 20 -77 64.5t-61 82.5l5 21q31 45 70 87.5t70 60.5z" />
<glyph unicode="&#x2026;" horiz-adv-x="868" d="M146 150l9 4q14 -7 38 -33t34 -46l-3 -11q-8 -18 -32 -43t-41 -35l-10 -3q-19 11 -40.5 34.5t-31.5 43.5l3 11q38 57 74 78zM434 150l9 4q14 -7 37.5 -33t33.5 -46l-4 -11q-7 -18 -30.5 -43t-40.5 -35l-11 -3q-19 11 -40.5 35t-30.5 43l3 11q36 56 74 78zM721 150l9 4 q14 -7 38 -33t34 -46l-4 -11q-7 -18 -30.5 -43t-40.5 -35l-11 -3q-19 11 -40.5 34.5t-31.5 43.5l3 11q39 58 74 78z" />
<glyph unicode="&#x202f;" horiz-adv-x="176" />
<glyph unicode="&#x2039;" horiz-adv-x="325" d="M270 44l-27 -18q-47 60 -100.5 114.5t-88.5 82.5q88 77 185 196l27 -19q-58 -118 -94 -177q64 -102 98 -179z" />
<glyph unicode="&#x203a;" horiz-adv-x="326" d="M55 401l28 18q113 -137 188 -197q-101 -95 -183 -196l-27 19q68 134 94 177q-60 90 -100 179z" />
<glyph unicode="&#x205f;" horiz-adv-x="220" />
<glyph unicode="&#x20ac;" d="M43 398l35 1q28 124 107 186t179 62q79 0 141 -40q-3 -18 -16.5 -58.5t-21.5 -54.5l-18 -6q-16 34 -38 111q-11 5 -32 5q-65 0 -111.5 -55t-58.5 -148l266 6l-20 -51l-251 6q-3 -17 -3 -40q0 -11 1 -24l240 6l-20 -50l-217 5q5 -97 47 -157t109 -60q11 0 19 4 q82 84 114 107l15 -22q-8 -25 -29 -64t-36 -52q-52 -21 -110 -21q-106 0 -177.5 67t-85.5 200h-63l11 36h50q-1 8 -1 17q0 23 4 49h-40z" />
<glyph unicode="&#x2122;" horiz-adv-x="493" d="M58 643h113q3 0 9.5 1t11.5 2t7 1q3 0 3 -4q0 -17 -9 -47q-4 -5 -6 -5q-5 5 -18 33l-33 -3v-122l32 -7l-4 -16h-107l6 16l27 7v122l-34 3q-19 -31 -20 -32q-3 -2 -8 1q-1 7 -1 16q0 15 2 35q0 2 2 2h5l10 -2q6 -1 12 -1zM219 627l3 16h77l3 -12q19 -40 42 -83q7 11 41 85 l1 10h79l-3 -16l-22 -6q0 -83 4 -123l26 -6l-6 -16h-90l4 16l19 4v120l-60 -139l-13 1q-14 29 -59 131q-3 -93 -4 -110l29 -7l-4 -16h-77l4 15l21 8q4 21 7.5 66t4.5 52q-3 7 -27 10z" />
</font>
</defs>
</svg>
