<?xml version="1.0" standalone="no"?>
<!DOCTYPE svg PUBLIC "-//W3C//DTD SVG 1.1//EN" "http://www.w3.org/Graphics/SVG/1.1/DTD/svg11.dtd" >
<svg xmlns="http://www.w3.org/2000/svg">
<metadata>
This is a custom SVG webfont generated by Font Squirrel.
Designer    : Robert Slimbach
Foundry URL : http://www.adobe.com/type
</metadata>
<defs>
<font id="webfontS39CWkPm" horiz-adv-x="499" >
<font-face units-per-em="1000" ascent="735" descent="-265" />
<missing-glyph horiz-adv-x="237" />
<glyph unicode=" "  horiz-adv-x="237" />
<glyph unicode="&#x09;" horiz-adv-x="237" />
<glyph unicode="&#xa0;" horiz-adv-x="237" />
<glyph unicode="!" horiz-adv-x="226" d="M130 215l-34 -12q63 313 70 364l-2 48q35 28 103 34l8 -7zM79 109h6q8 -7 19.5 -28t14.5 -34l-1 -6q-6 -12 -28.5 -31.5t-34.5 -25.5h-6q-10 8 -22.5 28t-16.5 37l1 2q32 44 68 58z" />
<glyph unicode="&#x22;" horiz-adv-x="318" d="M158 475l-35 -17q36 154 39 181l-9 28q43 23 84 30l15 1q-59 -151 -94 -223zM302 479l-35 -15q3 16 18 84t20 97l-9 27q31 17 86 30l13 1l-39 -97q-38 -93 -54 -127z" />
<glyph unicode="#" d="M364 408h-110l-53 -141h111zM148 465h88l61 167l42 5l-64 -172h111l62 167l42 5l-64 -172h91l-36 -58l-78 1l-53 -141h91l-36 -56l-76 1l-66 -184l-41 -6l68 190h-111l-68 -184l-41 -6l70 190l-102 -1l35 56h88l52 141h-100z" />
<glyph unicode="$" d="M349 631l25 90l31 5l-27 -100q39 -11 67 -37q34 22 64 30l7 -5q-33 -96 -59 -140l-15 -6q-7 34 -9 93q-23 23 -64 33l-69 -240q32 -20 50 -32.5t40.5 -34t33 -46.5t10.5 -57q0 -79 -62 -128q-63 -50 -170 -50l-26 -95l-34 -9l30 106q-50 8 -94.5 31.5t-64.5 49.5 q2 10 23 46t36 54l16 4q1 -6 0.5 -20.5t-0.5 -36.5q-1 -43 -1 -61q33 -27 93 -34l72 255q-62 37 -94 74t-33 93q0 83 65 131q55 39 127 39q16 0 32 -2zM274 367l64 232q-9 1 -18 1q-53 0 -90 -27q-42 -30 -42 -90q0 -40 22 -65.5t64 -50.5zM279 281l-68 -241q78 2 115 35.5 t37 84.5q1 41 -20 67t-64 54z" />
<glyph unicode="%" horiz-adv-x="780" d="M301 654q51 0 79.5 -37.5t28.5 -101.5q0 -85 -58 -157.5t-141 -72.5q-45 0 -76 34q-33 35 -33 99q0 82 58 158q59 78 142 78zM298 624q-42 0 -74.5 -42t-47 -92t-14.5 -90q0 -38 14.5 -61.5t42.5 -23.5q36 0 67 38.5t47 90t16 95.5q0 39 -13 62t-38 23zM673 661l20 -27 l-560 -671l-21 29zM613 357q51 0 79.5 -37.5t28.5 -101.5q0 -85 -58 -157.5t-140 -72.5q-45 0 -77 34t-32 99q0 83 57 159q58 77 142 77zM611 327q-59 0 -97.5 -78.5t-38.5 -145.5q0 -38 15 -61.5t42 -23.5q52 0 90.5 76t38.5 148q0 85 -50 85z" />
<glyph unicode="&#x26;" horiz-adv-x="704" d="M326 196l2 27q76 78 187 78q51 0 114 -6q42 39 72 62l16 -16q-47 -55 -80 -111q-28 7 -77 14q-10 -68 -40 -119.5t-71.5 -80.5t-86.5 -43t-92 -14q-101 0 -164.5 55t-63.5 143q0 135 185 198v2q-53 37 -53 101q0 73 59.5 119.5t145.5 46.5q39 0 76 -13t56 -34 q-2 -13 -17.5 -41t-29.5 -44l-18 -7q-9 44 -12 99q-18 8 -53 8q-60 0 -98.5 -35.5t-38.5 -92.5q0 -38 29.5 -67t83.5 -38l-22 -27q-11 3 -34 3q-31 0 -62 -10t-58 -29t-43.5 -51t-16.5 -72q0 -69 47.5 -114t127.5 -45q83 0 148.5 55.5t82.5 150.5q-21 1 -54 1 q-79 0 -147 -53z" />
<glyph unicode="'" horiz-adv-x="175" d="M156 475l-34 -17q32 129 39 181l-10 28q39 21 84 30l15 1q-9 -26 -42 -105.5t-52 -117.5z" />
<glyph unicode="(" horiz-adv-x="300" d="M387 725l18 -18q-133 -96 -211.5 -254t-78.5 -331v-5q0 -178 66 -281l-23 -16q-103 122 -103 320v11q2 172 90 329t242 245z" />
<glyph unicode=")" horiz-adv-x="312" d="M-43 -179l-16 20q129 87 206.5 248.5t78.5 330.5v10q0 90 -18 163q-19 77 -48 117l23 16q49 -58 77 -146q26 -86 26 -185v-7q-2 -172 -90.5 -330t-238.5 -237z" />
<glyph unicode="*" horiz-adv-x="367" d="M265 482l6 4l94 -47l22 -5q-4 -18 -21.5 -38t-31.5 -24l-8 21zM248 513l-12 -5l-91 47l-24 4q2 17 19.5 39.5t33.5 26.5l9 -21zM240 498l-3 -12l-87 -56l-17 -18q-11 6 -21 36q-6 18 -6 30q0 7 2 12l20 -4zM270 498l3 12l86 58l16 18q13 -11 23 -40q8 -22 8 -35 q0 -3 -1 -6l-23 5zM268 519l-11 -1l-6 110l-5 21q5 3 16 3q10 0 25 -2q32 -6 39 -15l-14 -17zM247 476l9 5l7 -111l8 -26q-5 -1 -12 -1q-13 0 -33 4q-29 6 -39 15l16 20z" />
<glyph unicode="+" horiz-adv-x="595" d="M330 -2l-55 -12v227h-202l13 47h189v192l55 13v-205h201l-12 -47h-189v-215z" />
<glyph unicode="," horiz-adv-x="212" d="M-27 -114l-16 23q39 27 64 62t25 67q0 11 -3 20l-41 28l1 12l66 47h9q11 -3 23.5 -25t12.5 -56q0 -52 -39 -100t-102 -78z" />
<glyph unicode="-" horiz-adv-x="349" d="M270 213l-237 -24l31 66l51 -2l195 10v-4z" />
<glyph unicode="." horiz-adv-x="212" d="M74 111h5q8 -7 20.5 -28.5t15.5 -34.5l-1 -6q-6 -12 -29 -32t-36 -27h-6q-10 8 -22.5 28.5t-17.5 38.5l1 2q36 49 70 59z" />
<glyph unicode="/" horiz-adv-x="376" d="M25 -40h-55l443 717h54z" />
<glyph unicode="0" d="M349 654q69 0 112 -55.5t43 -168.5q0 -66 -19.5 -140.5t-54.5 -143t-93.5 -114t-128.5 -45.5q-72 0 -118 55.5t-46 168.5q0 95 36.5 195.5t109 174t159.5 73.5zM343 622q-61 0 -114 -72t-82 -174t-29 -198q0 -85 27 -122t66 -37q62 0 114.5 74t79.5 175t27 195 q0 85 -25 122t-64 37z" />
<glyph unicode="1" d="M323 575l-124 -3l11 18l37 12l77 24q44 15 77 28h12q-151 -582 -154 -605l114 -29l-11 -21q-27 0 -77.5 0.5t-73.5 0.5q-29 0 -86 -0.5t-83 -0.5l11 21l123 29q65 219 147 526z" />
<glyph unicode="2" d="M7 12l41 43q13 5 22 12q130 95 231 205q105 111 105 212q0 60 -32 93.5t-88 33.5q-48 0 -91 -25q-13 -81 -32 -131l-13 -8q-11 19 -23.5 54.5t-14.5 54.5q103 98 209 98q72 0 119 -44.5t47 -122.5q0 -69 -46 -132t-149 -151q-65 -57 -173 -141v-2q21 0 69 1t105 2.5 t72 1.5q24 22 79 81l17 -14q-26 -63 -68 -138q-14 0 -98.5 2.5t-136.5 2.5h-154z" />
<glyph unicode="3" d="M167 484l-13 -9q-17 37 -32 103q102 76 196 76q70 0 110.5 -38t40.5 -94q0 -36 -15.5 -65t-44.5 -49.5t-56.5 -34t-64.5 -26.5l-1 -3q154 -29 154 -154q0 -89 -78 -146t-182 -57q-58 0 -105 20t-75 47q44 85 58 104l16 3q6 -48 8 -120q30 -16 85 -16q81 0 134 44.5 t53 121.5q0 60 -35 93t-88 37q-76 -12 -82 -12l-5 9q18 31 37 45q50 -2 61 -2q72 24 109 64q37 39 37 88q0 51 -28.5 76t-79.5 25q-56 0 -81 -21q-25 -94 -33 -109z" />
<glyph unicode="4" d="M354 201l-38 -153l87 -28l-9 -21q-22 0 -64 0.5t-63 0.5q-24 0 -71 -0.5t-69 -0.5l7 21l103 28q24 74 46 154l-259 -2l-14 28q57 73 205 229t176 176q32 17 80 21l-107 -417l60 -1q44 44 63 54l13 1q-6 -20 -27 -74.5t-29 -67.5l-12 -4q-10 27 -16 58zM293 238l101 349 l-7 -1q-76 -75 -133 -137t-84 -95l-93 -112q104 -4 216 -4z" />
<glyph unicode="5" d="M107 360l-6 18l98 261q81 -2 204 -2q41 0 87 21l10 -22q-23 -21 -66 -46q-22 -13 -48 -14q-4 0 -166 -4l-70 -171q30 -9 121 -40q91 -32 126 -70.5t35 -100.5q0 -86 -71.5 -144.5t-176.5 -58.5q-51 0 -99.5 21t-68.5 43q7 18 26.5 51t30.5 47l16 5q2 -23 8 -115 q28 -15 81 -15q78 0 126.5 44.5t48.5 108.5q0 49 -34 81.5t-104 60.5q-54 23 -108 41z" />
<glyph unicode="6" d="M507 661l12 -26q-132 -25 -225 -94q-124 -93 -161 -223l2 -1q87 72 168 72q64 0 110 -44t47 -133q0 -93 -65.5 -159t-165.5 -66q-85 0 -136.5 58.5t-51.5 161.5q0 91 44 182t140 163q67 50 147 78t135 31zM233 17q66 0 108 58t42 130q0 69 -31.5 103.5t-77.5 34.5 q-40 0 -80.5 -20.5t-66.5 -48.5q-9 -32 -9 -80q0 -80 32 -128q33 -49 83 -49z" />
<glyph unicode="7" d="M87 -13l-7 11q18 37 195 268q153 197 228 312v2q-35 1 -150 1q-121 0 -152 -1q-48 -80 -54 -87l-22 -6q23 153 25 159q32 -5 62 -5q281 0 358 1l-8 -24q-15 -45 -188 -288t-187 -279l-8 -49z" />
<glyph unicode="8" d="M326 339v-2q28 -24 41 -36t33 -35.5t29 -47.5t9 -52q0 -71 -60.5 -125t-156.5 -54q-89 0 -142.5 46.5t-53.5 111.5q1 55 39.5 91.5t144.5 96.5v2q-89 64 -89 143q0 75 57.5 125.5t137.5 50.5q72 0 116.5 -43.5t44.5 -106.5q0 -21 -8 -41t-15 -31.5t-28.5 -28.5t-28.5 -22 t-36.5 -22.5t-33.5 -19.5zM304 622q-51 0 -85 -37q-33 -36 -33 -84q0 -46 30 -78.5t83 -66.5q111 68 111 152q0 51 -29 82.5t-77 31.5zM225 19q60 0 98.5 36.5t38.5 98.5q0 16 -4 30.5t-14 29.5t-17 24.5t-24 23.5l-22 20q-5 4 -25 18l-20 15q-68 -40 -102.5 -79.5 t-34.5 -86.5q0 -57 36.5 -93.5t89.5 -36.5z" />
<glyph unicode="9" d="M323 654q81 0 130 -58.5t49 -164.5q0 -204 -179 -342q-68 -52 -143 -79t-118 -30l-11 26q113 29 201 97q118 87 162 221h-2q-77 -68 -158 -68q-61 0 -111 42t-50 131t68.5 157t161.5 68zM315 623q-65 0 -104.5 -56.5t-39.5 -129.5q0 -66 34.5 -99t74.5 -33q36 0 75 16.5 t60 46.5q13 32 13 82q0 173 -113 173z" />
<glyph unicode=":" horiz-adv-x="212" d="M74 111h6q8 -7 20.5 -29t14.5 -34l-1 -6q-6 -12 -28.5 -32t-35.5 -27h-7q-10 9 -22 29t-17 38l1 2q16 23 36.5 39t32.5 20zM140 426h6q8 -7 20 -29t15 -35l-1 -5q-6 -12 -29.5 -33t-34.5 -27h-6q-11 9 -23.5 29.5t-16.5 37.5l1 3q32 42 69 59z" />
<glyph unicode=";" horiz-adv-x="212" d="M-27 -114l-16 23q39 27 64 62t25 67q0 11 -3 20l-41 28l1 12l66 47h9q11 -3 23.5 -25t12.5 -56q0 -52 -39 -100t-102 -78zM137 426h6q8 -8 20 -30t15 -34l-2 -5q-6 -13 -29 -33.5t-35 -25.5h-6q-10 9 -22.5 29t-16.5 37v2q30 41 70 60z" />
<glyph unicode="&#x3c;" horiz-adv-x="588" d="M57 195l14 56l400 210l-9 -55l-351 -184v-3l360 -186l-9 -50z" />
<glyph unicode="=" horiz-adv-x="595" d="M528 173l-12 -47h-439l13 47h438zM528 350l-12 -47h-439l13 47h438z" />
<glyph unicode="&#x3e;" horiz-adv-x="588" d="M524 250l-14 -55l-400 -212l9 55l351 185v4l-360 182l9 51z" />
<glyph unicode="?" horiz-adv-x="391" d="M178 509l-17 -7q-13 31 -25 92q32 22 77 39.5t79 17.5q57 0 96 -34.5t39 -92.5q0 -72 -109 -142l-62 -42q-22 -15 -44 -37t-26 -40q-2 -9 -2 -19q0 -18 8 -37l-20 -10q-14 7 -30 40q-13 25 -13 49q0 7 1 14q26 50 122 113q40 27 58.5 42t32.5 36t14 45q0 34 -24.5 56.5 t-64.5 22.5q-19 0 -50 -11q-30 -79 -40 -95zM160 109h4q8 -7 20.5 -28t14.5 -33l-1 -7q-6 -12 -28.5 -31.5t-34.5 -25.5h-6q-10 8 -22 28t-16 37v2q32 44 69 58z" />
<glyph unicode="@" horiz-adv-x="815" d="M494 362q-47 0 -99 -45q-45 -39 -77.5 -100t-32.5 -112q0 -37 21 -37q27 0 81 45t103 120q30 47 52 109q-13 20 -48 20zM625 407l6 -5l-31 -48q-45 -121 -82 -280q-4 -12 5 -12q85 0 143.5 58t58.5 170q0 110 -69 176t-189 66q-159 0 -255 -105t-96 -265 q0 -135 82 -214.5t206 -79.5q165 0 290 121l19 -25q-137 -146 -332 -146q-153 0 -242.5 93t-89.5 242q0 181 123 298.5t305 117.5q131 0 216.5 -74.5t85.5 -200.5q0 -125 -89 -200q-86 -73 -203 -73h-9q-22 0 -34 6q22 74 50 158h-3q-53 -73 -113.5 -119t-104.5 -46 q-55 0 -55 78q0 60 40 132.5t102 117.5q71 51 127 51q43 0 65 -24l7 18z" />
<glyph unicode="A" horiz-adv-x="673" d="M394 629l68 49l6 -5q-6 -15 -6 -46q0 -12 1 -26q2 -44 65 -522q10 -26 24.5 -35.5t56.5 -20.5l-8 -24q-16 0 -50 0.5t-51 0.5t-50.5 -0.5t-50.5 -0.5l4 19l51 27q-1 19 -4 47l-8 70q-5 42 -8 76q-69 -4 -163 -5q-32 0 -66 1q-97 -157 -111 -181l83 -32l-7 -22 q-19 0 -59.5 0.5t-60.5 0.5q-16 0 -49 -0.5t-50 -0.5l8 22l73 32q21 27 72 105l148 226l134 205q10 17 9 27zM401 544h-3l-165 -264q19 0 96 -2t101 -2z" />
<glyph unicode="B" horiz-adv-x="592" d="M140 631l11 20q85 11 195 13q221 0 221 -146q0 -69 -56.5 -110t-138.5 -54l-1 -3q81 -14 125.5 -53t44.5 -102q-1 -96 -91 -148q-87 -50 -240 -50h-12q-96 1 -223 3l7 21l89 27q13 29 68 238l85 326zM301 632l-69 -266q120 1 187.5 41t67.5 115q0 59 -45 84.5t-132 25.5 h-9zM225 333q-58 -214 -76 -298q22 -1 42 -1q132 0 194 40q72 48 72 125q0 68 -53 101q-51 33 -166 33h-13z" />
<glyph unicode="C" horiz-adv-x="661" d="M608 155l13 -23q-43 -73 -90 -118q-91 -31 -167 -31q-131 0 -211.5 77.5t-80.5 210.5q0 109 55 202t152.5 148t214.5 55q91 0 133 -35q30 13 75 23l6 -6q-31 -84 -67 -150l-17 -4q-8 44 -10 103q-34 28 -116 28q-147 0 -244 -104.5t-97 -258.5q0 -111 62.5 -179 t174.5 -68q31 0 67 7q11 9 65.5 56.5t81.5 66.5z" />
<glyph unicode="D" horiz-adv-x="714" d="M140 633l10 19q84 12 205 12q165 0 255 -74.5t90 -212.5q0 -133 -83.5 -228t-217.5 -130q-73 -20 -254 -20h-34q-26 0 -71 0.5t-63 0.5l10 21l84 24q10 24 82 298l73 275zM302 628l-73 -285q-76 -291 -77 -309q106 1 179.5 13t130.5 48q79 50 117.5 127t38.5 167 q0 96 -48 154q-73 85 -264 85h-4z" />
<glyph unicode="E" horiz-adv-x="561" d="M138 639l10 20q20 0 57.5 -0.5t55.5 -0.5h248q42 9 68 9h5l4 -4q-24 -96 -45 -144l-16 -6q-2 10 -9.5 51.5t-11.5 58.5l-205 -9l-65 -251q172 0 259 11l2 -12q-7 -8 -35 -28.5t-32 -20.5q-2 0 -93.5 4.5t-112.5 4.5l-69 -276l241 -12l52 52q39 41 63 63l14 -10 q-7 -21 -27 -67.5t-38 -74.5q-95 3 -210 3h-152q-20 0 -61 -0.5t-61 -0.5l8 21l91 29q15 35 82 294l69 269z" />
<glyph unicode="F" horiz-adv-x="524" d="M142 638l11 21q19 0 56.5 -0.5t55.5 -0.5h247q6 2 37.5 5.5t42.5 3.5l5 -5q-21 -82 -49 -150l-15 -6l-22 119l-212 -11l-70 -269q180 0 259 12l4 -12q-5 -7 -33 -28.5t-32 -21.5q-2 0 -95 4.5t-114 4.5q-58 -220 -60 -253l114 -31l-11 -21q-26 0 -79 1t-80 1 q-18 0 -56 -1t-56 -1l7 21l76 31q12 29 80 290l72 272z" />
<glyph unicode="G" horiz-adv-x="726" d="M546 -20h-3q-29 11 -35 32q-63 -30 -146 -30q-135 0 -213 81t-78 206q0 170 121 288.5t309 118.5q49 0 89 -13t58 -30q26 14 77 27l4 -7q-8 -25 -32 -81.5t-34 -74.5l-16 -4q-9 59 -10 106q-50 37 -136 37q-153 0 -250 -105.5t-97 -253.5q0 -117 65.5 -184t177.5 -67 q70 0 115 20l79 219l-240 4v12l46 27q110 6 293 6q-17 -56 -74 -188t-70 -146z" />
<glyph unicode="H" horiz-adv-x="737" d="M143 638l14 21q17 0 52.5 -0.5t53.5 -0.5q16 0 47.5 0.5t46.5 0.5l-7 -21l-57 -31l-59 -232h346l61 233l-45 32l9 19q13 0 37.5 -0.5t36.5 -0.5q22 0 65 0.5t64 0.5l-10 -22l-84 -30q-4 -12 -70 -266q-67 -272 -66 -288l83 -30l-13 -24q-19 0 -61 0.5t-65 0.5 q-15 0 -45 -0.5t-45 -0.5l10 22l54 30l26 94l26 105q13 56 22 89q-63 -9 -174 -9h-173l-21 -78l-26 -105q-12 -47 -22 -98l45 -29l-7 -21q-14 0 -43 0.5t-44 0.5q-19 0 -62 -0.5t-65 -0.5l11 22l81 29q6 14 35 113.5t50 184.5l66 261z" />
<glyph unicode="I" horiz-adv-x="318" d="M154 638l8 21q18 0 52.5 -0.5t51.5 -0.5q19 0 56.5 0.5t56.5 0.5l-8 -21l-73 -29l-71 -266q-60 -225 -72 -294l84 -28l-12 -22q-19 0 -60.5 0.5t-62.5 0.5q-20 0 -61.5 -0.5t-64.5 -0.5l11 22l81 28q11 25 84 294l71 266z" />
<glyph unicode="J" horiz-adv-x="301" d="M132 638l14 21q19 0 56.5 -0.5t56.5 -0.5t59 0.5t61 0.5l-10 -22l-78 -30q-117 -460 -121 -477q-22 -81 -58 -136q-32 -50 -78 -84t-81 -49l-22 16l2 11q49 20 84 60q46 50 74 157l70 277q49 202 53 228z" />
<glyph unicode="K" horiz-adv-x="651" d="M745 658l-13 -21q-7 -2 -114 -26q-19 -5 -39 -22q-91 -79 -249 -231v-2q58 -94 163 -241q38 -54 91 -122l-9 -8q-53 6 -85.5 28t-64.5 65q-92 123 -171 253l1 7q238 221 290 279q-1 2 -9 44q24 1 58 1q59 0 151 -4zM149 638l9 21q18 0 53 -0.5t53 -0.5q19 0 57 0.5 t58 0.5l-9 -21l-73 -28l-70 -267q-67 -254 -72 -294l85 -28l-13 -22q-19 0 -59.5 0.5t-60.5 0.5q-21 0 -63 -0.5t-64 -0.5l11 22l79 28q19 40 84 294l69 267z" />
<glyph unicode="L" horiz-adv-x="544" d="M148 638l9 21q18 0 53 -0.5t52 -0.5q21 0 63.5 0.5t63.5 0.5l-12 -23l-79 -27l-70 -263q-72 -268 -75 -302l213 -9l125 126l17 -5q-33 -82 -73 -160q-7 0 -41 1t-109.5 2t-183.5 1q-20 0 -59.5 -0.5t-60.5 -0.5l8 19l85 30q3 8 80 296l70 265z" />
<glyph unicode="M" horiz-adv-x="918" d="M181 638l10 21q26 0 80 -0.5t80 -0.5q-6 -23 -6 -50q3 -19 92 -471h2l317 480q8 17 11 41q28 0 85.5 0.5t84.5 0.5l-8 -23l-91 -28q-15 -74 -42 -278.5t-36 -280.5l89 -29l-11 -21q-20 0 -60 1t-59 1q-21 0 -63 -1t-64 -1l9 21l78 28l90 525h-2l-366 -574l-18 -7 q-19 126 -90 543h-1l-52 -131l-75 -194l-59 -161l90 -30l-8 -20q-20 0 -63.5 1t-64.5 1q-15 0 -45.5 -1t-46.5 -1l6 21l77 33q144 331 224 532q-4 21 -20 30t-74 23z" />
<glyph unicode="N" horiz-adv-x="730" d="M207 20l-9 -21q-19 0 -59 0.5t-59 0.5q-18 0 -54 -0.5t-54 -0.5l7 21l85 32q23 56 151 514q-18 39 -34 49t-72 21l10 22q5 0 58 2t78 4q5 -25 22 -58l263 -508h2q17 63 66 260.5t60 249.5l-81 30l10 21q21 0 59 -1t55 -1q19 0 55 1t51 1l-13 -23l-83 -30 q-15 -41 -63.5 -217.5t-87.5 -339.5l61 -38l-4 -11l-111 -11q-27 47 -275 531h-2q-106 -392 -118 -469z" />
<glyph unicode="O" horiz-adv-x="734" d="M458 676q44 0 86.5 -15.5t83 -47.5t65.5 -92t25 -139q0 -73 -25.5 -143.5t-72 -128t-120.5 -93t-163 -35.5q-49 0 -95 16.5t-85 49.5t-62.5 90.5t-23.5 132.5q0 102 48.5 194.5t139 151.5t199.5 59zM450 640q-90 0 -160 -58.5t-103 -141.5t-33 -170q0 -123 53 -188.5 t138 -65.5q86 0 154 58t102 142.5t34 173.5q0 126 -53.5 188t-131.5 62z" />
<glyph unicode="P" horiz-adv-x="552" d="M137 629l11 21q114 14 185 14q70 0 121.5 -16.5t85.5 -59.5t34 -111q0 -103 -77 -162.5t-181 -59.5q-29 0 -49 8l-4 23q104 5 167.5 53t63.5 141q0 82 -56 116q-52 32 -126 32h-13l-68 -273q-67 -265 -74 -303l105 -32l-11 -21q-22 0 -70 1t-73 1q-21 0 -63 -1t-63 -1 l8 20l82 32q7 16 84 300l69 263z" />
<glyph unicode="Q" horiz-adv-x="732" d="M659 -172l-11 -13h-4q-30 0 -79 13q-52 15 -98 38q-42 21 -174 106q-26 17 -44 23q-180 66 -180 269q0 101 48 195t138 155.5t200 61.5q45 0 88.5 -15.5t83.5 -47t64.5 -89t24.5 -132.5q0 -154 -89.5 -263.5t-230.5 -140.5v-2q54 -35 157 -95.5t106 -62.5zM443 641 q-67 0 -124 -37t-92 -94.5t-54.5 -122.5t-19.5 -125q0 -105 47 -171t132 -83q74 8 133.5 47t94.5 95t53.5 118.5t18.5 124.5q0 125 -52 186.5t-137 61.5z" />
<glyph unicode="R" horiz-adv-x="590" d="M143 622l10 23q91 19 196 19q108 0 161.5 -41t53.5 -118q0 -139 -206 -199l-1 -3q49 -101 118 -218l27 -47l18 -31q6 -9 9 -15l-9 -7q-70 7 -117 77q-53 77 -135 242l4 8q213 51 213 188q0 127 -164 127h-20l-79 -307q-61 -240 -67 -268l92 -31l-10 -22q-21 0 -63.5 1 t-63.5 1t-63 -1t-62 -1l11 22l77 30q13 39 75 268l81 295z" />
<glyph unicode="S" horiz-adv-x="491" d="M328 676q67 0 106 -39q38 21 65 31l9 -3q-3 -16 -24.5 -78t-31.5 -76l-15 -2q-6 29 -13 94q-9 13 -34.5 24t-58.5 11q-63 0 -100.5 -35.5t-37.5 -90.5t50 -99q15 -13 55 -43l65 -52q77 -62 77 -138q0 -85 -64.5 -141.5t-166.5 -56.5q-63 0 -117 25.5t-84 57.5 q4 16 26.5 61t35.5 60l13 4q3 -12 4.5 -38t2 -60t1.5 -45q37 -25 109 -25q80 0 121.5 40t41.5 96q0 58 -58 104l-108 90q-73 62 -73 137q0 84 59 135.5t145 51.5z" />
<glyph unicode="T" horiz-adv-x="634" d="M221 658h418q31 6 80 13l6 -2q-23 -65 -70 -163l-14 -4q-5 54 -8 123l-171 -9l-66 -254q-64 -242 -75 -312l116 -31l-14 -20q-25 0 -76 1t-77 1t-77 -1t-76 -1l11 21l107 30q16 38 79 284l74 282l-174 9q-69 -94 -90 -120l-18 -4q42 160 44 167l2 3q30 0 69 -13z" />
<glyph unicode="U" horiz-adv-x="736" d="M219 607l-76 32l12 20q16 0 51.5 -1t52.5 -1q14 0 39 1t36 1l-7 -20l-40 -37q-106 -360 -120 -444q-4 -21 -4 -38q0 -81 90 -81q134 0 277 143l118 427l-44 30l9 20q42 -2 81 -2q37 0 111 2l-12 -21l-76 -31q-15 -49 -78.5 -293t-64.5 -262l87 -17l-10 -22 q-122 -19 -169 -30l-5 3l41 139l-2 1q-60 -59 -138.5 -101t-156.5 -42q-65 0 -101 29q-38 31 -38 92q0 34 12 77q41 156 125 426z" />
<glyph unicode="V" horiz-adv-x="667" d="M111 638l7 21q17 0 51 -1t50 -1t46.5 1t45.5 1l-7 -22l-42 -28q0 -9 68 -509h1l317 511l-43 27l11 21q14 0 40 -1t39 -1q16 0 49 1t50 1l-10 -21q-75 -30 -81 -32q-83 -113 -375 -576q-21 -28 -47 -49h-9q-13 104 -86 626q-37 17 -75 31z" />
<glyph unicode="W" horiz-adv-x="946" d="M113 638l9 21q12 0 43 -1t47 -1q17 0 46 1t41 1l-10 -21l-35 -24q8 -91 70 -515h1l176 264q-27 180 -41 248q-31 12 -74 27l9 21q10 0 44 -1t51 -1q9 0 26.5 0.5t25.5 0.5l-3 -9l-6 -35q5 -55 26 -180h2q82 125 115 181l11 39l3 4q4 0 22 -0.5t26 -0.5q13 0 42.5 1 t45.5 1l-9 -21l-91 -33q-41 -49 -158 -220l8 -48l16 -104l20 -131h2l305 511l-26 25l10 21q11 0 35.5 -1t34.5 -1q14 0 43.5 1t44.5 1l-8 -21q-61 -24 -80 -32q-18 -24 -45 -66l-72 -110l-72 -116l-90 -146l-82 -134q-18 -25 -45 -52l-8 -2q-2 12 -19 128t-31 199h-2 l-189 -277q-20 -26 -42 -48l-8 -1q-4 26 -39.5 286t-48.5 342q-29 14 -67 29z" />
<glyph unicode="X" horiz-adv-x="655" d="M125 638l11 21q21 0 61 -1t59 -1q14 0 42 0.5t41 0.5l-8 -21l-33 -26l28 -83l27 -74l19 -53h3q120 143 170 210l-28 27l10 20q9 0 31.5 -0.5t32.5 -0.5q21 0 59 1t59 1l-11 -22l-98 -33q-70 -73 -213 -240q64 -189 112 -314l99 -31l-11 -20q-21 0 -63 0.5t-64 0.5 q-13 0 -39.5 -0.5t-39.5 -0.5l35 47q-16 64 -82 250h-3q-151 -183 -198 -247l51 -30l-12 -20q-15 0 -46.5 0.5t-46.5 0.5q-19 0 -57 -0.5t-56 -0.5l10 20l92 34q52 49 250 286q-50 147 -96 268z" />
<glyph unicode="Y" horiz-adv-x="591" d="M109 639l9 20q14 0 48 -1t52 -1q15 0 45 1t45 1l-9 -21l-38 -22q14 -51 87 -274h3q152 184 209 270l-34 28l9 19q16 0 43.5 -1t39.5 -1q17 0 48.5 1t50.5 1l-11 -22l-84 -28q-95 -101 -249 -296q-15 -19 -20 -38q-55 -208 -55 -226l109 -29l-11 -21q-26 0 -77 0.5 t-77 0.5q-23 0 -69.5 -0.5t-70.5 -0.5l10 20l101 30q20 52 70 234q1 7 1 14q0 15 -5 31q-40 125 -96 283q-9 4 -74 28z" />
<glyph unicode="Z" horiz-adv-x="633" d="M663 658l-2 -16l-544 -599v-3q260 -5 345 -5q11 12 57.5 66.5t59.5 68.5l15 -1q-23 -83 -59 -173q-14 0 -97.5 1t-205.5 2t-231 1l-7 11l552 604v2q-48 0 -159 3t-155 3l-78 -120l-18 -5q2 12 7 51.5t9.5 71.5t8.5 47l5 3q64 -13 68 -13h429z" />
<glyph unicode="[" horiz-adv-x="312" d="M276 662l-202 -781l104 -24l-10 -26h-161l228 882h164l-7 -26z" />
<glyph unicode="\" horiz-adv-x="450" d="M356 -40h-50l-147 717h51z" />
<glyph unicode="]" horiz-adv-x="312" d="M65 -122l203 789l-105 24l9 22h163l-228 -882h-168l10 21z" />
<glyph unicode="^" horiz-adv-x="484" d="M452 302l-52 -8l-141 304l-132 -296l-56 -8l161 350l56 3z" />
<glyph unicode="_" horiz-adv-x="483" d="M426 -101v-48h-483v48h483z" />
<glyph unicode="`" horiz-adv-x="386" d="M314 505l-26 -11l-90 170l2 10q29 17 56 17q8 0 15 -1z" />
<glyph unicode="a" horiz-adv-x="522" d="M400 442l83 12l3 -9l-38 -45q-64 -208 -93 -355l2 -1q62 18 119 96l6 -11q-5 -51 -56 -96.5t-118 -45.5q-11 0 -31 4q7 29 30 111.5t25 88.5h-4q-59 -88 -127.5 -146t-118.5 -58q-65 0 -65 96q0 67 43.5 153.5t126.5 148.5q72 54 141 54q34 0 64 -22zM113 41 q34 0 88 47.5t110 131.5q40 62 71 165q-19 16 -49 16q-69 0 -131 -67q-55 -60 -84.5 -129.5t-29.5 -121.5q0 -42 25 -42z" />
<glyph unicode="b" horiz-adv-x="502" d="M130 661l9 19q29 11 75 21t69 11l2 -2l-20 -68l-45 -156l-62 -215h2q64 97 125 138t103 41q40 0 63 -34.5t23 -88.5q0 -89 -47.5 -168.5t-121 -125.5t-149.5 -46q-69 0 -124 40l64 239l65 238l38 145zM161 21q74 0 131.5 54.5t83.5 123.5q25 66 25 125q0 76 -45 76 q-53 0 -134 -98q-46 -54 -75 -120t-36 -125q2 -16 17.5 -26t32.5 -10z" />
<glyph unicode="c" horiz-adv-x="402" d="M359 143l7 -33q-86 -123 -208 -123q-64 0 -95 42t-31 106q0 56 25 119t79 114q85 82 181 82q54 0 74 -20q-3 -16 -15.5 -53t-24.5 -55l-17 -9q-5 12 -20 103q-4 1 -14 1q-60 0 -116 -65q-77 -91 -77 -211q0 -46 20 -74.5t61 -28.5q82 0 170 105h1z" />
<glyph unicode="d" horiz-adv-x="534" d="M400 662l10 18q28 11 76 21.5t67 10.5l2 -2q-156 -527 -184 -658l2 -1q18 5 35 15.5t30.5 23.5t22.5 24l19 22q9 12 10 14l8 -10q-8 -60 -63 -106.5t-115 -46.5q-17 0 -28 4q11 45 58 208h-2q-64 -97 -132 -154.5t-122 -57.5q-30 0 -51 27t-21 80q0 83 46 166.5 t117.5 136.5t140.5 53q42 0 80 -28q47 162 63 227zM330 410q-58 0 -113.5 -52t-88.5 -125.5t-33 -138.5q0 -54 33 -54q31 0 83 43t105 125q31 48 45.5 79.5t35.5 100.5q-30 22 -67 22z" />
<glyph unicode="e" horiz-adv-x="410" d="M366 144l4 -32q-41 -59 -95 -92t-112 -33q-55 0 -93 33q-38 35 -38 116q0 65 32 136q33 73 96 125.5t137 52.5q46 0 71.5 -27t25.5 -68t-24 -66q-25 -30 -111.5 -56.5t-147.5 -36.5q-5 -20 -5 -53q0 -46 20.5 -75.5t64.5 -29.5q46 0 93 33.5t79 72.5h3zM280 418 q-48 0 -95 -54t-69 -136q53 11 119 33t80 44q14 20 14 50t-14 46.5t-35 16.5z" />
<glyph unicode="f" horiz-adv-x="257" d="M71 438h72q33 149 108 219q60 56 126 56q44 0 64 -20q-19 -56 -41 -86l-15 -7q-10 27 -20 76q-2 1 -9 1q-93 0 -148 -240h109l-17 -30l-102 -15l-76 -334q-24 -99 -51 -154t-72 -96q-58 -51 -112 -51q-27 0 -47.5 12.5t-28.5 28.5l36 51l5 2q30 -42 79 -42q15 0 24.5 3.5 t24.5 18t29.5 51t29.5 94.5q36 142 94 417l-79 17z" />
<glyph unicode="g" horiz-adv-x="408" d="M469 461l-40 -65l-80 -4l-1 -2q19 -35 19 -69q0 -83 -59 -148.5t-143 -65.5q-18 0 -30 6q-13 -17 -13 -30q0 -25 28 -38l57 -28l79 -39q70 -35 70 -79q-1 -60 -72.5 -101.5t-136.5 -41.5q-60 0 -105 15.5t-66.5 38t-31.5 42.5t-10 35q0 18 19 32q41 34 143 85v1 q-28 26 -28 57q0 19 44 60q-57 33 -57 109q0 87 64 155q61 64 143 64h7q17 -1 46 -6q65 -12 73 -13l72 39zM250 419q-51 0 -91.5 -67t-40.5 -137q0 -38 15 -57.5t39 -19.5q52 0 92.5 66.5t40.5 136.5q0 37 -14.5 57.5t-40.5 20.5zM164 -202h4q57 0 91.5 21.5t34.5 50.5 q0 25 -38 47q-62 38 -137 72q-69 -39 -93 -59.5t-24 -37.5q0 -31 46 -62q47 -32 116 -32z" />
<glyph unicode="h" horiz-adv-x="526" d="M88 0l-66 -8l93 350q70 271 78 308l-73 12l9 18q29 11 78 21.5t69 10.5l2 -2q-3 -13 -19 -68l-49 -176l-75 -272h4q124 189 252 243q31 13 62 13q20 0 25 -8q1 -4 1 -10q0 -11 -5 -33q-73 -250 -87 -339l89 15l-11 -29q-53 -16 -163 -65l-7 5q3 16 53 187.5t58 202.5 q5 19 -9 19q-41 0 -115 -74t-119 -151q-44 -74 -75 -170z" />
<glyph unicode="i" horiz-adv-x="279" d="M236 658h5q7 -7 16.5 -27t10.5 -32l-2 -4q-7 -12 -27 -31t-30 -23h-5q-9 7 -18.5 25.5t-11.5 34.5l1 2q30 40 61 55zM146 383l-64 8l8 19q22 12 66 25.5t72 14.5l2 -3l-124 -415l3 -1q26 7 65 43.5t63 68.5l3 -10q-6 -46 -49 -96t-104 -50q-24 0 -33 25q-4 9 -4 24 q0 23 9 59q17 62 87 288z" />
<glyph unicode="j" horiz-adv-x="256" d="M143 386l-75 11l11 19q27 12 73 22.5t72 11.5l2 -2q-45 -186 -103 -395q-33 -125 -79 -188q-56 -77 -125 -109l-22 18q106 70 150 239zM227 658h5q7 -6 16.5 -26.5t10.5 -32.5l-2 -4q-7 -12 -27 -31t-30 -23h-5q-22 18 -30 60l1 2q30 40 61 55z" />
<glyph unicode="k" horiz-adv-x="457" d="M502 436l-14 -21q-90 -17 -109 -30q-62 -45 -139 -118v-2q20 -41 166 -280l-8 -6q-41 7 -62.5 19t-49.5 52q-29 40 -69.5 108.5t-47.5 84.5l3 4q86 76 154 142q16 16 21 24t17 36q4 1 13 1q18 0 55 -4q54 -6 70 -10zM203 650l-66 12l9 18q32 12 76 22t66 10l2 -2 q-64 -206 -200 -705q-10 -1 -33.5 -5t-38.5 -6q117 392 185 656z" />
<glyph unicode="l" horiz-adv-x="275" d="M205 649l-66 13l9 19q30 12 75 22t67 10l2 -2l-102 -346l-93 -333l2 -1q7 2 14.5 5.5t16.5 10.5l15 13q7 5 17 15l16 16l16 17q10 12 13.5 16.5t13.5 16t11 12.5l7 -7q-7 -52 -53 -105.5t-109 -53.5q-12 0 -21.5 11t-13.5 36v13q0 22 8 53z" />
<glyph unicode="m" horiz-adv-x="815" d="M101 0l-66 -8q17 49 59.5 206.5t46.5 185.5l-68 7l7 19q28 13 75.5 26.5t69.5 13.5l1 -3q-5 -19 -15 -53l-27 -90l-33 -110h2q122 192 252 244q33 12 60 12q19 0 23 -12q2 -5 2 -13q0 -12 -4 -31q-16 -67 -57 -196h3q119 186 247 239q31 13 63 13q19 0 22 -11q1 -3 1 -8 q0 -13 -6 -38q-76 -275 -85 -334l90 16l-11 -29q-24 -8 -57.5 -21t-66 -27t-41.5 -17l-6 10q2 11 52 180.5t59 205.5q6 18 -9 18q-39 0 -109.5 -69.5t-115.5 -144.5q-47 -77 -82 -181l-68 -8q21 63 60.5 196t50.5 189q3 18 -9 18q-44 0 -113.5 -69t-116.5 -149 q-27 -46 -43 -80t-37 -97z" />
<glyph unicode="n" horiz-adv-x="538" d="M101 0l-66 -8q16 49 59.5 208.5t46.5 183.5l-65 8l6 18q22 12 72 26t71 15l2 -2q-2 -9 -13 -45l-30 -95l-34 -117h3q127 194 253 246q29 12 60 12q20 0 24 -11v-8q0 -13 -6 -38q-75 -269 -87 -334l91 16l-11 -29q-31 -10 -165 -65l-6 10q86 283 113 386q6 17 -10 17 q-39 0 -110.5 -71t-116.5 -145q-49 -79 -81 -178z" />
<glyph unicode="o" horiz-adv-x="470" d="M298 450q61 0 97 -49t36 -119q0 -111 -78 -203t-180 -92q-58 0 -96.5 43.5t-39.5 119.5q0 116 78 208t183 92zM287 418q-50 0 -92.5 -49.5t-64 -114.5t-21.5 -122q0 -113 70 -113q45 0 87.5 45.5t67.5 110.5t25 125q0 118 -72 118z" />
<glyph unicode="p" horiz-adv-x="519" d="M141 385l-65 7l7 18q21 13 69.5 29t73.5 17l1 -3l-64 -215h3q54 82 107.5 132.5t86 65t58.5 14.5q33 0 53.5 -30t20.5 -79q0 -142 -98 -248t-208 -106q-46 0 -79 25q-20 -67 -46 -179l86 -20l-12 -24q-198 -12 -221 -12l9 25l63 26q21 50 67 224q66 236 88 333zM177 22 q70 0 128 53t87 125q28 71 28 136q0 64 -38 64q-25 0 -66 -32.5t-86 -99.5q-75 -96 -108 -210q23 -36 55 -36z" />
<glyph unicode="q" horiz-adv-x="495" d="M158 -221l5 19q11 6 36.5 17t33.5 15q24 65 105 356h-2q-72 -103 -136 -151t-112 -48q-26 0 -46.5 27t-20.5 77q0 129 99.5 244t210.5 115q42 0 69 -37l2 1l8 17q40 17 87 19l2 -10l-41 -52q-21 -58 -71 -244.5t-79 -312.5l80 -23l-7 -23q-63 -6 -223 -6zM328 409 q-46 0 -91 -33t-75.5 -82.5t-49.5 -105t-19 -101.5q-1 -24 7.5 -37t20.5 -13q33 0 83.5 43.5t98.5 111.5q34 48 46.5 75t41.5 113q-20 29 -63 29z" />
<glyph unicode="r" horiz-adv-x="373" d="M61 390l8 20q85 40 127 40l2 -2q0 -68 -32 -184h4q100 186 196 186q23 0 36 -11q-1 -12 -18.5 -56.5t-28.5 -62.5l-16 -8q-3 14 -14 78q-2 1 -8 1q-14 0 -35 -18t-54.5 -69t-66.5 -127q-21 -48 -59 -177l-68 -8q40 125 69 239t31 151z" />
<glyph unicode="s" horiz-adv-x="350" d="M237 450q61 0 93 -28q-4 -19 -19 -51.5t-25 -46.5l-16 -4q-4 26 -10 92q-10 6 -31 6q-40 0 -66.5 -23t-26.5 -56q0 -25 15 -43.5t55 -48.5q47 -37 65 -65.5t18 -60.5q0 -56 -46.5 -95t-121.5 -39q-41 0 -80 17.5t-51 33.5q20 50 55 100l13 3q9 -48 11 -110q23 -10 51 -10 q48 0 75.5 23.5t27.5 58.5q0 40 -61 86q-50 38 -68 67t-18 62q0 62 48 97t113 35z" />
<glyph unicode="t" horiz-adv-x="319" d="M185 538l73 52l5 -5l-43 -147h133l-21 -30l-124 -13q-54 -176 -97 -358l2 -2q42 4 89.5 36.5t85.5 80.5l5 -17q-18 -47 -46 -79.5t-57.5 -46t-49.5 -18t-37 -4.5q-53 0 -53 50q0 14 4 33q34 141 89 325l-80 13l19 30h73z" />
<glyph unicode="u" horiz-adv-x="552" d="M148 380l-77 4l7 22q81 35 152 44l7 -2q-25 -71 -62.5 -194.5t-46.5 -162.5q-4 -17 -4 -28q0 -21 14 -21q37 0 98 61t122 157q42 68 76 175q33 12 80 15l6 -10l-40 -53q-58 -202 -89 -338l2 -1q63 18 114 101l8 -13q-6 -54 -57.5 -101.5t-121.5 -47.5q-1 0 -25 3 q11 40 72 248h-3q-102 -158 -195 -219q-47 -32 -88 -32q-42 0 -42 49q0 19 6 46q14 56 51 177z" />
<glyph unicode="v" horiz-adv-x="443" d="M109 379l-71 3l6 21q21 13 69 30t63 17l2 -2q0 -193 10 -369h2q111 118 152 203q27 52 27 120q0 17 -2 34q2 4 20.5 12t31.5 8h3q15 -30 15 -64q0 -37 -30 -90t-65 -94l-90 -105q-56 -63 -77 -90q-19 -22 -41 -28l-5 1q-1 12 -3 62l-5 120l-5 116q-2 54 -7 95z" />
<glyph unicode="w" horiz-adv-x="673" d="M114 373l-71 12l5 18q22 12 73.5 29.5t59.5 17.5l2 -3q-1 -41 -2 -165.5t-3 -194.5h2l177 276q-3 54 -3 63q26 22 70 25l5 -6q-1 -5 -3 -16t-3.5 -22t-1.5 -23v-25q0 -64 4 -151q5 -105 9 -127h3q86 100 130 192q33 69 33 140q0 12 -1 23q23 20 52 20l2 -1q13 -21 13 -62 q-1 -36 -33.5 -95.5t-63 -100t-87.5 -110.5t-61 -76q-15 -14 -39 -26l-5 2q-4 19 -17 316l-2 -1l-192 -291q-18 -22 -41 -26l-4 2q-1 11 -1 60t-0.5 118t-1.5 116q0 25 -1 47t-2 33t-1 12z" />
<glyph unicode="x" horiz-adv-x="478" d="M-18 111l13 18q29 -42 59 -77q16 4 63 57t94 119q-37 142 -50 160q-41 -16 -98 -89l-10 22q19 44 64.5 86t82.5 43q7 -4 13.5 -15t12.5 -31l12 -34l11.5 -42t10.5 -37h3q43 58 73 91q49 58 85 74h8q15 -12 25 -46t10 -69l-17 -16q-26 55 -42 68q-18 -6 -62.5 -55.5 t-71.5 -87.5q6 -22 25 -84t26 -92q3 -12 8 -12q6 0 22 10.5t39.5 33.5t39.5 49l6 -26q-20 -64 -68.5 -103t-91.5 -39q-2 6 -18.5 72.5t-34.5 128.5h-2q-85 -117 -117 -152q-47 -55 -64 -57q-7 0 -11 1q-13 15 -27.5 52t-20.5 79z" />
<glyph unicode="y" horiz-adv-x="439" d="M58 278l-22 22q13 46 30 78.5t34 47t28.5 20.5t21.5 6q46 -4 70 -102q21 -88 21 -231q0 -28 -1 -59h3q43 66 82.5 167t43.5 155l-31 43l6 10q35 15 79 17q13 0 13 -12q-12 -70 -61 -192q-67 -167 -183 -323q-41 -54 -85.5 -94.5t-71 -56.5t-36.5 -16q-6 0 -15 6.5 t-21 26.5t-18 49l4 9q19 -2 92 -23q12 4 44.5 33t56.5 63q42 61 42 155q0 179 -35 276q-14 36 -22 36q-4 0 -15 -13.5t-26.5 -40.5t-27.5 -57z" />
<glyph unicode="z" horiz-adv-x="418" d="M384 130l11 -27q-78 -116 -125 -135q-15 1 -92 34l-67 29q-18 6 -32 6q-16 0 -28 -9q-17 -13 -34 -44h-7q-9 8 -9 22q0 11 6 26t21 31t26 21l161 170q92 99 112 123v2q-31 -5 -62 -5q-24 0 -48 3q-11 1 -23 2.5t-19.5 2t-15.5 1.5q-16 -9 -52 -46.5t-49 -55.5l-14 23 q21 38 57 87.5t50 60.5q67 -27 174 -27q49 0 88 39l14 -23q-13 -32 -317 -355l1 -2q32 -2 83 -21q58 -23 79 -28q42 22 111 95z" />
<glyph unicode="{" horiz-adv-x="311" d="M232 340l-115 -63v-2l83 -59q-63 -178 -71 -214q-6 -26 -6 -48q0 -23 7 -42q12 -35 53 -67l-15 -24q-50 21 -84 71q-23 34 -23 76q0 20 6 43q17 66 81 195l-86 65l11 15l112 65q0 122 20 204q14 56 70 103.5t113 66.5l9 -30q-59 -27 -88 -61.5t-43 -92.5 q-24 -103 -34 -201z" />
<glyph unicode="|" horiz-adv-x="292" d="M109 724h59v-965h-59v965z" />
<glyph unicode="}" horiz-adv-x="312" d="M109 219l115 61v2l-84 59q49 112 67 197q8 31 8 56q0 21 -6 39q-12 38 -54 68l17 24q47 -19 81 -72q23 -36 23 -75q0 -19 -5 -38q-19 -78 -80 -190l87 -66l-9 -16l-110 -62q-5 -133 -26 -215q-31 -119 -181 -170l-11 27q58 30 87.5 67t46.5 99q26 94 34 205z" />
<glyph unicode="~" horiz-adv-x="537" d="M507 308l33 -19q-29 -63 -62.5 -91.5t-79.5 -28.5q-43 0 -117 48q-3 2 -13.5 8.5t-13.5 8.5t-12.5 7.5t-13.5 7t-11.5 5t-13 5t-12 2.5t-13.5 1q-56 0 -105 -92l-32 19q24 58 62.5 89t83.5 31q22 0 46 -9t37 -18l40 -26q62 -39 97 -39q55 0 100 91z" />
<glyph unicode="&#xa1;" horiz-adv-x="226" d="M142 324h-6q-8 7 -20 28t-14 34l1 6q7 12 29 32t34 25h6q10 -8 22 -27.5t17 -37.5l-1 -2q-31 -43 -68 -58zM91 218l33 12q-61 -303 -70 -364l3 -49q-36 -27 -103 -34l-8 8l24 70l54 159z" />
<glyph unicode="&#xa2;" d="M344 538l22 81l34 5l-22 -84q40 0 68 -11t37 -22q-3 -14 -18.5 -47t-24.5 -45l-12 -4q-11 31 -17 91q-16 5 -36 5h-6l-101 -364q87 6 175 91l10 -27q-81 -99 -198 -113l-21 -77l-36 -9l22 83q-74 3 -109.5 47t-35.5 107q0 113 82 196.5t187 96.5zM234 143l99 358l-1 2 q-78 -16 -128.5 -90t-50.5 -159q0 -47 21 -77t60 -34z" />
<glyph unicode="&#xa3;" d="M452 147l20 -15q-32 -81 -68 -137q-4 0 -83.5 2.5t-136.5 2.5h-199l3 14l42 36q15 3 35 19q61 81 86 239l-97 14l19 28h86l7 37q32 172 130 236q48 31 105 31q63 0 98 -37q-17 -45 -44 -94l-20 -6q-9 35 -17 101q-11 4 -24 4q-111 0 -145 -186q-3 -15 -7 -44t-7 -42h193 l-15 -30l-185 -12q-18 -94 -44.5 -145t-87.5 -105l1 -2q30 -1 64 -1q92 0 213 6q31 25 78 86z" />
<glyph unicode="&#xa4;" d="M297 478q-60 0 -101 -47.5t-47 -115.5q-1 -12 -1 -23q0 -46 24 -78q29 -39 81 -39q60 0 100 46t45 116q1 8 1 16q0 50 -23 85q-26 40 -79 40zM501 504l-64 -59q20 -37 20 -82q0 -13 -2 -26q-8 -89 -63 -139l47 -49l-40 -42l-45 61q-47 -33 -109 -33q-67 0 -103 36 l-63 -63l-27 37l66 55q-29 41 -29 97q0 9 1 18q3 36 20.5 72.5t41.5 58.5l-49 52l40 44l46 -64q58 41 122 41q61 0 99 -42l64 63z" />
<glyph unicode="&#xa5;" d="M107 346h121q-30 139 -59 251l-53 23l9 22q15 0 44 -1t42 -1q18 0 53.5 1t53.5 1l-9 -22l-66 -23l45 -233l2 -1l165 233l-67 25l10 21q17 0 50 -1t48 -1q14 0 42 1t42 1l-10 -21l-63 -29q-54 -62 -192 -246h138l-19 -34h-137l-21 -77h147l-19 -34h-136q-34 -139 -37 -155 l85 -26l-10 -21q-20 0 -60.5 1t-59.5 1q-21 0 -63.5 -1t-62.5 -1l10 21l79 26q8 14 49 155h-141l20 34h130l20 77h-140z" />
<glyph unicode="&#xa6;" horiz-adv-x="292" d="M110 666h59v-366h-59v366zM110 -182v367h59v-367h-59z" />
<glyph unicode="&#xa7;" horiz-adv-x="445" d="M84 373q0 67 45.5 126.5t128.5 98.5q38 22 77 22q33 0 52 -12q18 9 56 19l8 -4q-6 -20 -22.5 -61t-30.5 -62l-13 -3q-1 2 -12 82q-13 11 -44 11q-28 0 -49.5 -19.5t-21.5 -47.5q-1 -14 10 -47q12 -32 65 -130q52 -107 52 -170q0 -139 -158 -240q-58 -42 -114 -42 q-33 0 -66.5 12.5t-47.5 29.5q3 14 20 43.5t31 43.5l12 1q2 -11 3.5 -41t3.5 -50q18 -8 43 -8h6q37 1 64 24t27 55q0 41 -31 106l-54 118q-40 84 -40 145zM137 403q0 -51 31 -124q8 -18 31.5 -67t36.5 -80q28 -61 28 -101q0 -14 -4 -34h2q67 65 67 142q0 49 -25 105l-34 72 q-18 35 -27 54.5t-17 40.5q-17 41 -17 76v7q0 28 10 47l-3 1q-39 -28 -59 -65.5t-20 -73.5z" />
<glyph unicode="&#xa8;" horiz-adv-x="386" d="M220 646h4q7 -5 18 -23.5t13 -29.5l-1 -5q-5 -12 -24.5 -30t-30.5 -22h-5q-27 25 -35 58l1 2q30 40 60 50zM403 646h5q7 -5 18 -24t13 -29l-2 -5q-5 -12 -24.5 -30t-29.5 -22h-6q-27 26 -34 58l1 2q29 40 59 50z" />
<glyph unicode="&#xa9;" horiz-adv-x="695" d="M373 623q124 0 210 -89t86 -218q0 -128 -86.5 -217t-210.5 -89q-126 0 -212.5 89t-86.5 217q0 130 86.5 218.5t213.5 88.5zM372 585q-109 0 -181 -76.5t-72 -191.5q0 -114 72.5 -191.5t181.5 -77.5q108 0 179 77t71 192t-71.5 191.5t-179.5 76.5zM391 477q36 0 62 -13 l26 10l16 5l7 -3q0 -13 -7 -50.5t-11 -41.5l-9 -7q-14 19 -29 59q-16 12 -47 12q-48 0 -83 -34t-35 -89q0 -58 35.5 -96t94.5 -38q12 0 23 5q51 44 62 49l9 -8q-1 -11 -14 -35.5t-19 -30.5q-31 -12 -81 -12q-70 0 -122 40.5t-52 116.5q0 43 17 75.5t44.5 50.5t56 26.5 t56.5 8.5z" />
<glyph unicode="&#xaa;" horiz-adv-x="321" d="M340 549l-18 -27q-16 -49 -47 -179q27 7 69 43l3 -7q-2 -25 -32.5 -51.5t-73.5 -26.5q-11 0 -19 5q12 46 28 100h-3q-78 -105 -144 -105q-21 0 -32.5 15t-11.5 40q0 37 23 81.5t69 77.5q45 31 84 31q15 0 27.5 -7.5t15.5 -16.5l8 22l49 8zM128 335q15 0 44 24t61 67 q24 35 38 70q-8 24 -38 24q-29 0 -55 -27q-31 -30 -49.5 -68t-18.5 -67q0 -23 18 -23z" />
<glyph unicode="&#xab;" horiz-adv-x="519" d="M226 42l-21 -17q-59 108 -146 195q102 74 214 193l14 -19q-32 -49 -143 -177q64 -121 82 -175zM420 42l-20 -17q-32 58 -75 113t-71 82q125 93 213 193l14 -19q-37 -59 -138 -177l25 -54q20 -41 32 -68.5t20 -52.5z" />
<glyph unicode="&#xac;" horiz-adv-x="595" d="M445 61v224h-372l19 47h408v-255z" />
<glyph unicode="&#xad;" horiz-adv-x="349" d="M270 213l-237 -24l31 66l51 -2l195 10v-4z" />
<glyph unicode="&#xae;" horiz-adv-x="288" d="M228 652q48 0 80.5 -32.5t32.5 -80.5q0 -50 -33 -83.5t-82 -33.5t-82 33t-33 82q0 48 34 81.5t83 33.5zM226 631q-36 0 -62 -26.5t-26 -65.5q0 -40 26 -68t63 -28t62 27.5t25 68.5q0 39 -25.5 65.5t-62.5 26.5zM176 580l3 9q17 4 45 4q44 -1 44 -26q0 -20 -22 -26 q10 -21 22 -35q5 -7 12 -13q3 -4 4 -6l-3 -1q-21 1 -35 13q-11 12 -28 41q15 4 20.5 8.5t5.5 13.5q0 20 -31 20v-79l16 -6l-2 -8h-51l2 8l13 6v76z" />
<glyph unicode="&#xaf;" horiz-adv-x="386" d="M390 555h-205l19 49h205z" />
<glyph unicode="&#xb0;" horiz-adv-x="287" d="M250 647q39 0 65.5 -27t26.5 -71q0 -55 -35.5 -89.5t-87.5 -34.5q-39 0 -65.5 26t-26.5 71q0 50 35 87q36 38 88 38zM242 611q-30 0 -51 -27t-21 -61q0 -29 16 -46t40 -17q36 0 55.5 26.5t19.5 60.5q0 29 -15 46.5t-44 17.5z" />
<glyph unicode="&#xb1;" horiz-adv-x="595" d="M515 47l-13 -47h-444l13 47h444zM314 110l-55 -12v208h-201l13 47h188v178l55 12v-190h200l-12 -47h-188v-196z" />
<glyph unicode="&#xb2;" horiz-adv-x="317" d="M86 437l31 29q13 6 22 13q5 4 31.5 23.5t35.5 27.5l32 26q23 19 33 31l23 29q14 16 19.5 31t5.5 30q0 30 -15.5 46.5t-41.5 16.5t-43 -10q-2 -5 -7 -22t-10 -30.5t-9 -20.5l-14 -7q-8 14 -18 71q59 50 122 50q43 0 70 -24.5t27 -68.5q0 -37 -25.5 -66.5t-79.5 -68.5 l-111 -77q14 0 71 1.5t65 1.5l21 21q17 17 29 28l18 -9q-26 -54 -46 -86q-6 0 -54 1.5t-80 1.5h-104z" />
<glyph unicode="&#xb3;" horiz-adv-x="317" d="M196 673l-13 -6q-9 17 -16 64q57 40 110 40q44 0 68 -21.5t24 -52.5q-1 -55 -92 -85l-1 -2q86 -15 86 -81q0 -50 -49 -80.5t-112 -30.5q-30 0 -60 9.5t-46 24.5q13 34 39 66l10 3q7 -29 13 -69q16 -7 39 -7q43 0 72.5 23t29.5 63q0 55 -59 61q-38 -8 -50 -8l-5 5 q1 7 9.5 19.5t14.5 17.5q8 0 20 -1.5t16 -1.5q68 23 68 69q0 25 -15 38t-38 13q-24 0 -38 -8q-16 -43 -25 -62z" />
<glyph unicode="&#xb4;" horiz-adv-x="386" d="M242 494l-20 19l112 160q8 1 15 1q31 0 59 -16v-10z" />
<glyph unicode="&#xb5;" horiz-adv-x="539" d="M419 440l82 10v-4l-35 -53q-49 -170 -87 -343l2 -1q15 5 29 14t24 17.5t20.5 20.5t15.5 18.5t13 18.5l8 11l7 -11q-4 -50 -54 -100.5t-117 -50.5q-2 0 -26 3q10 40 69 244h-3q-158 -247 -245 -247q-22 0 -35 16h-2q-47 -134 -48 -238l-8 -3q-22 10 -31 46q-3 14 -3 34 q0 33 9 83q9 38 50 191l92 314q34 15 72 20l3 -4q-75 -226 -107 -351q-4 -13 -4 -23.5t4 -16.5q7 -13 22 -13q36 0 92 59t116 156q41 65 75 183z" />
<glyph unicode="&#xb6;" horiz-adv-x="503" d="M513 655l-67 -119l-133 -512q-71 -269 -228 -269q-43 0 -61 24q-24 32 -28 52l9 10q31 -24 83 -26q56 0 102 48.5t81 171.5l13 43q-31 -13 -44 -13q-64 0 -120 54.5t-56 148.5q0 116 88 193q89 78 229 78q11 0 19 -1l27 107l83 12z" />
<glyph unicode="&#xb7;" horiz-adv-x="196" d="M123 305h6q8 -7 20 -28t15 -34l-1 -5q-6 -12 -29 -32t-35 -26h-6q-26 22 -39 65l1 2q32 44 68 58z" />
<glyph unicode="&#xb8;" horiz-adv-x="386" d="M136 0h41l-49 -59q49 -25 49 -63q0 -30 -26 -54t-54.5 -34.5t-53.5 -14.5l-8 26q25 8 51.5 25.5t26.5 37.5q0 26 -50 44l-1 3z" />
<glyph unicode="&#xb9;" horiz-adv-x="317" d="M272 706l-79 -4l11 19q4 2 22 9l50 19l53 21h9l-80 -308l74 -19l-11 -18q-22 0 -55.5 0.5t-48.5 0.5q-16 0 -47.5 -0.5t-47.5 -0.5l8 18l67 19z" />
<glyph unicode="&#xba;" horiz-adv-x="295" d="M227 553q41 0 63 -24t22 -67q0 -61 -43.5 -111t-109.5 -50q-38 0 -61.5 24.5t-23.5 66.5q0 59 45.5 110t107.5 51zM223 529q-37 0 -66.5 -51t-29.5 -99q0 -28 10.5 -41.5t24.5 -13.5q42 0 69.5 52t27.5 100q0 53 -36 53z" />
<glyph unicode="&#xbb;" horiz-adv-x="519" d="M292 396l21 17q58 -103 146 -195q-33 -24 -95 -79.5t-118 -113.5l-14 19q44 67 137 177q-53 104 -77 175zM98 396l21 17q31 -57 73.5 -111.5t71.5 -83.5q-114 -85 -213 -193l-13 19q33 55 138 177q-65 137 -78 175z" />
<glyph unicode="&#xbc;" horiz-adv-x="714" d="M230 590l-78 -4l10 19q4 2 22 9l50 20l54 20h8l-26 -100l-36 -139q-16 -63 -18 -69l74 -20l-11 -18q-22 0 -55.5 1t-48.5 1q-16 0 -47.5 -1t-47.5 -1l8 18l67 20zM642 662l23 -26l-565 -674l-22 28zM550 87l-17 -61l55 -22l-8 -16q-14 0 -40.5 1t-39.5 1q-14 0 -44.5 -1 t-46.5 -1l8 16l61 21l20 61l-152 -2l-7 17q33 43 114.5 126t98.5 95q14 7 64 12l-59 -220l30 -1q12 11 37 26h10q-2 -9 -12.5 -38.5t-15.5 -37.5l-10 -2q-2 4 -6 14t-6 13zM507 115l56 181h-3q-81 -81 -166 -178z" />
<glyph unicode="&#xbd;" horiz-adv-x="714" d="M229 590l-78 -4l10 19q4 2 22 9l50 20l54 20h8q-49 -201 -80 -308l74 -20l-11 -18q-22 0 -55.5 1t-48.5 1t-47 -1t-48 -1l8 18l67 20zM633 662l23 -26l-565 -674l-23 28zM358 0l31 29q13 6 22 13q5 4 31.5 23.5t35.5 27.5l32 27q23 18 33 30l23 28q14 17 19.5 32t5.5 30 q0 30 -15.5 46.5t-41.5 16.5t-43 -10q-2 -5 -7 -22t-10 -30.5t-9 -20.5l-14 -7q-8 14 -18 71q59 50 122 50q42 0 69.5 -25t27.5 -68q0 -37 -25.5 -66.5t-79.5 -68.5l-111 -77q14 0 71 1.5t65 1.5l21 21q17 17 29 28l18 -9q-26 -54 -46 -86q-6 0 -54 1.5t-80 1.5h-104z" />
<glyph unicode="&#xbe;" horiz-adv-x="714" d="M182 557l-13 -6q-9 15 -16 64q58 39 110 39q44 0 68 -21t24 -53q-1 -54 -93 -84l-1 -2q86 -15 86 -82q0 -50 -49.5 -80.5t-111.5 -30.5q-29 0 -59.5 10t-46.5 25q14 33 39 65l10 4q8 -30 13 -70q16 -7 39 -7q43 0 72.5 23t29.5 63q0 55 -59 61q-38 -8 -50 -8l-5 5 q1 7 9.5 19.5t14.5 17.5q35 -2 37 -2q68 22 68 69q0 24 -15 37t-38 13q-24 0 -38 -8q-14 -38 -25 -61zM655 662l23 -26l-565 -674l-23 28zM570 87l-18 -61l55 -22l-8 -16q-13 0 -40 1t-40 1q-14 0 -44.5 -1t-46.5 -1l8 16l62 21l19 61l-152 -2l-7 17q33 44 115 127t99 93 q15 8 63 13l-59 -220l31 -1q14 13 36 26h10q-1 -8 -12 -38t-16 -38l-10 -2q-2 4 -6 14t-6 13zM526 115l56 181h-2q-83 -81 -167 -178z" />
<glyph unicode="&#xbf;" horiz-adv-x="391" d="M241 324h-4q-8 7 -20 28t-15 34l1 6q6 12 28.5 31.5t34.5 25.5h6q10 -8 22 -27.5t17 -37.5l-1 -2q-33 -45 -69 -58zM220 -76l17 7q13 -31 25 -92q-32 -22 -77 -39.5t-79 -17.5q-57 0 -96 34t-39 94q0 70 108 141q41 26 63 41.5t44 37.5t26 40q2 9 2 18q0 18 -8 38l20 10 q14 -7 30 -40q13 -25 13 -49q0 -7 -1 -14q-27 -51 -122 -114q-58 -39 -81.5 -63.5t-23.5 -58.5t24.5 -56.5t64.5 -22.5q19 0 50 11q30 79 40 95z" />
<glyph unicode="&#xc0;" horiz-adv-x="673" d="M394 629l68 49l6 -5q-6 -15 -6 -46q0 -12 1 -26q2 -44 65 -522q10 -26 24.5 -35.5t56.5 -20.5l-8 -24q-16 0 -50 0.5t-51 0.5t-50.5 -0.5t-50.5 -0.5l4 19l51 27q-1 19 -4 47l-8 70q-5 42 -8 76q-69 -4 -163 -5q-32 0 -66 1q-97 -157 -111 -181l83 -32l-7 -22 q-19 0 -59.5 0.5t-60.5 0.5q-16 0 -49 -0.5t-50 -0.5l8 22l73 32q21 27 72 105l148 226l134 205q10 17 9 27zM401 544h-3l-165 -264q19 0 96 -2t101 -2zM502 739l-13 -24l-191 71v13q29 33 55 41z" />
<glyph unicode="&#xc1;" horiz-adv-x="673" d="M394 629l68 49l6 -5q-6 -15 -6 -46q0 -12 1 -26q2 -44 65 -522q10 -26 24.5 -35.5t56.5 -20.5l-8 -24q-16 0 -50 0.5t-51 0.5t-50.5 -0.5t-50.5 -0.5l4 19l51 27q-1 19 -4 47l-8 70q-5 42 -8 76q-69 -4 -163 -5q-32 0 -66 1q-97 -157 -111 -181l83 -32l-7 -22 q-19 0 -59.5 0.5t-60.5 0.5q-16 0 -49 -0.5t-50 -0.5l8 22l73 32q21 27 72 105l148 226l134 205q10 17 9 27zM401 544h-3l-165 -264q19 0 96 -2t101 -2zM406 700l-13 24l151 101q15 -2 32.5 -14.5t26.5 -25.5l-2 -13z" />
<glyph unicode="&#xc2;" horiz-adv-x="673" d="M394 629l68 49l6 -5q-6 -15 -6 -46q0 -12 1 -26q2 -44 65 -522q10 -26 24.5 -35.5t56.5 -20.5l-8 -24q-16 0 -50 0.5t-51 0.5t-50.5 -0.5t-50.5 -0.5l4 19l51 27q-1 19 -4 47l-8 70q-5 42 -8 76q-69 -4 -163 -5q-32 0 -66 1q-97 -157 -111 -181l83 -32l-7 -22 q-19 0 -59.5 0.5t-60.5 0.5q-16 0 -49 -0.5t-50 -0.5l8 22l73 32q21 27 72 105l148 226l134 205q10 17 9 27zM401 544h-3l-165 -264q19 0 96 -2t101 -2zM454 829h31l104 -106l-20 -23q-47 26 -109 64q-84 -40 -140 -64l-14 24z" />
<glyph unicode="&#xc3;" horiz-adv-x="673" d="M394 629l68 49l6 -5q-6 -15 -6 -46q0 -12 1 -26q2 -44 65 -522q10 -26 24.5 -35.5t56.5 -20.5l-8 -24q-16 0 -50 0.5t-51 0.5t-50.5 -0.5t-50.5 -0.5l4 19l51 27q-1 19 -4 47l-8 70q-5 42 -8 76q-69 -4 -163 -5q-32 0 -66 1q-97 -157 -111 -181l83 -32l-7 -22 q-19 0 -59.5 0.5t-60.5 0.5q-16 0 -49 -0.5t-50 -0.5l8 22l73 32q21 27 72 105l148 226l134 205q10 17 9 27zM401 544h-3l-165 -264q19 0 96 -2t101 -2zM585 801l18 -20q-26 -37 -54 -55t-48 -18q-14 0 -58 21q-35 19 -51 19q-27 0 -71 -42l-17 21q58 74 104 74q13 0 55 -21 q42 -19 52 -19q27 0 70 40z" />
<glyph unicode="&#xc4;" horiz-adv-x="673" d="M394 629l68 49l6 -5q-6 -15 -6 -46q0 -12 1 -26q2 -44 65 -522q10 -26 24.5 -35.5t56.5 -20.5l-8 -24q-16 0 -50 0.5t-51 0.5t-50.5 -0.5t-50.5 -0.5l4 19l51 27q-1 19 -4 47l-8 70q-5 42 -8 76q-69 -4 -163 -5q-32 0 -66 1q-97 -157 -111 -181l83 -32l-7 -22 q-19 0 -59.5 0.5t-60.5 0.5q-16 0 -49 -0.5t-50 -0.5l8 22l73 32q21 27 72 105l148 226l134 205q10 17 9 27zM401 544h-3l-165 -264q19 0 96 -2t101 -2zM376 821h5q9 -8 19.5 -26t12.5 -30l-1 -4q-5 -12 -25 -30t-32 -23h-5q-27 25 -35 58v2q28 36 61 53zM564 821h4 q8 -8 19 -26.5t13 -29.5l-1 -4q-5 -11 -25.5 -29.5t-31.5 -23.5h-5q-27 25 -35 58v2q29 39 62 53z" />
<glyph unicode="&#xc5;" horiz-adv-x="673" d="M394 629l68 49l6 -5q-6 -15 -6 -46q0 -12 1 -26q2 -44 65 -522q10 -26 24.5 -35.5t56.5 -20.5l-8 -24q-16 0 -50 0.5t-51 0.5t-50.5 -0.5t-50.5 -0.5l4 19l51 27q-1 19 -4 47l-8 70q-5 42 -8 76q-69 -4 -163 -5q-32 0 -66 1q-97 -157 -111 -181l83 -32l-7 -22 q-19 0 -59.5 0.5t-60.5 0.5q-16 0 -49 -0.5t-50 -0.5l8 22l73 32q21 27 72 105l148 226l134 205q10 17 9 27zM401 544h-3l-165 -264q19 0 96 -2t101 -2zM454 738q42 0 52 50q2 8 2 15q0 13 -7 22q-10 13 -31 13q-18 0 -33 -13t-20 -37q-1 -7 -1 -13q0 -15 8 -25 q10 -12 30 -12zM478 873q35 0 57 -23q16 -17 16 -42q0 -10 -2 -20q-7 -39 -37 -61.5t-64 -22.5q-35 0 -58 23q-16 17 -16 42q0 9 2 19q7 39 37 62t65 23z" />
<glyph unicode="&#xc6;" horiz-adv-x="927" d="M497 302h-213l-185 -251l86 -30l-11 -22q-18 0 -56 0.5t-57 0.5t-58 -0.5t-59 -0.5l9 22l79 29l440 562l-121 24l12 23q22 0 74.5 -1t87.5 -1h341q35 10 75 10l4 -4q-42 -134 -46 -143l-14 -7q-5 14 -12.5 55.5t-10.5 53.5l-224 -8l-57 -269q202 0 272 9l7 -10 q-6 -8 -35.5 -28.5t-34.5 -20.5q-3 0 -49.5 2t-99 3.5t-71.5 1.5q-4 -22 -23.5 -116t-27.5 -139l236 -11l121 114l14 -6q-40 -105 -66 -147q-95 3 -210 3h-145q-21 0 -63.5 -0.5t-63.5 -0.5l8 22l89 29q15 42 58 252zM315 345h193l63 273h-50z" />
<glyph unicode="&#xc7;" horiz-adv-x="661" d="M281 -88l60 71v1q-122 6 -195.5 83t-73.5 204q0 109 55 202t152.5 148t214.5 55q89 0 133 -35q27 12 74 23l7 -6q-31 -84 -67 -150l-18 -4q-9 50 -9 102q-35 29 -117 29q-146 0 -243 -104.5t-97 -258.5q0 -111 62 -179t174 -68q31 0 67 7l68 58q53 46 80 65l12 -23 q-43 -73 -90 -118q-77 -26 -146 -30l-35 -43q47 -25 47 -63q0 -42 -45 -69.5t-88 -33.5l-9 26q25 8 51.5 25.5t26.5 38.5q0 26 -49 43z" />
<glyph unicode="&#xc8;" horiz-adv-x="561" d="M138 639l10 20q20 0 57.5 -0.5t55.5 -0.5h248q42 9 68 9h5l4 -4q-24 -96 -45 -144l-16 -6q-2 10 -9.5 51.5t-11.5 58.5l-205 -9l-65 -251q172 0 259 11l2 -12q-7 -8 -35 -28.5t-32 -20.5q-2 0 -93.5 4.5t-112.5 4.5l-69 -276l241 -12l52 52q39 41 63 63l14 -10 q-7 -21 -27 -67.5t-38 -74.5q-95 3 -210 3h-152q-20 0 -61 -0.5t-61 -0.5l8 21l91 29q15 35 82 294l69 269zM473 724l-14 -24l-191 71v13q31 35 55 41z" />
<glyph unicode="&#xc9;" horiz-adv-x="561" d="M138 639l10 20q20 0 57.5 -0.5t55.5 -0.5h248q42 9 68 9h5l4 -4q-24 -96 -45 -144l-16 -6q-2 10 -9.5 51.5t-11.5 58.5l-205 -9l-65 -251q172 0 259 11l2 -12q-7 -8 -35 -28.5t-32 -20.5q-2 0 -93.5 4.5t-112.5 4.5l-69 -276l241 -12l52 52q39 41 63 63l14 -10 q-7 -21 -27 -67.5t-38 -74.5q-95 3 -210 3h-152q-20 0 -61 -0.5t-61 -0.5l8 21l91 29q15 35 82 294l69 269zM357 700l-13 25l152 100q15 -2 32.5 -14.5t26.5 -25.5l-3 -13z" />
<glyph unicode="&#xca;" horiz-adv-x="561" d="M138 639l10 20q20 0 57.5 -0.5t55.5 -0.5h248q42 9 68 9h5l4 -4q-24 -96 -45 -144l-16 -6q-2 10 -9.5 51.5t-11.5 58.5l-205 -9l-65 -251q172 0 259 11l2 -12q-7 -8 -35 -28.5t-32 -20.5q-2 0 -93.5 4.5t-112.5 4.5l-69 -276l241 -12l52 52q39 41 63 63l14 -10 q-7 -21 -27 -67.5t-38 -74.5q-95 3 -210 3h-152q-20 0 -61 -0.5t-61 -0.5l8 21l91 29q15 35 82 294l69 269zM406 829h31l104 -106l-20 -23l-110 64q-84 -40 -140 -64l-14 25z" />
<glyph unicode="&#xcb;" horiz-adv-x="561" d="M138 639l10 20q20 0 57.5 -0.5t55.5 -0.5h248q42 9 68 9h5l4 -4q-24 -96 -45 -144l-16 -6q-2 10 -9.5 51.5t-11.5 58.5l-205 -9l-65 -251q172 0 259 11l2 -12q-7 -8 -35 -28.5t-32 -20.5q-2 0 -93.5 4.5t-112.5 4.5l-69 -276l241 -12l52 52q39 41 63 63l14 -10 q-7 -21 -27 -67.5t-38 -74.5q-95 3 -210 3h-152q-20 0 -61 -0.5t-61 -0.5l8 21l91 29q15 35 82 294l69 269zM328 821h5q8 -7 19 -25.5t13 -30.5l-1 -4q-5 -12 -25 -30t-32 -22h-5q-10 8 -20.5 25t-14.5 32v2q26 36 61 53zM516 821h5q7 -7 18 -26t13 -30l-1 -4 q-5 -12 -25.5 -30t-31.5 -22h-4q-27 21 -36 57v2q27 37 62 53z" />
<glyph unicode="&#xcc;" horiz-adv-x="318" d="M154 638l8 21q18 0 52.5 -0.5t51.5 -0.5q19 0 56.5 0.5t56.5 0.5l-8 -21l-73 -29l-71 -266q-60 -225 -72 -294l84 -28l-12 -22q-19 0 -60.5 0.5t-62.5 0.5q-20 0 -61.5 -0.5t-64.5 -0.5l11 22l81 28q11 25 84 294l71 266zM372 724l-13 -24l-192 71v13q31 35 55 41z" />
<glyph unicode="&#xcd;" horiz-adv-x="318" d="M154 638l8 21q18 0 52.5 -0.5t51.5 -0.5q19 0 56.5 0.5t56.5 0.5l-8 -21l-73 -29l-71 -266q-60 -225 -72 -294l84 -28l-12 -22q-19 0 -60.5 0.5t-62.5 0.5q-20 0 -61.5 -0.5t-64.5 -0.5l11 22l81 28q11 25 84 294l71 266zM239 705l-14 24l152 100q15 -2 33 -14.5 t27 -25.5l-3 -12z" />
<glyph unicode="&#xce;" horiz-adv-x="318" d="M153 638l8 21q18 0 53 -0.5t52 -0.5q18 0 56 0.5t57 0.5l-8 -21l-73 -29l-71 -266q-67 -253 -72 -294l84 -28l-13 -22q-18 0 -59 0.5t-63 0.5q-20 0 -61.5 -0.5t-64.5 -0.5l11 22l81 28q11 25 84 294l71 266zM289 834h31l104 -106l-20 -23q-47 26 -109 64 q-104 -49 -140 -64l-14 25z" />
<glyph unicode="&#xcf;" horiz-adv-x="318" d="M153 638l8 21q18 0 53 -0.5t52 -0.5q18 0 56 0.5t57 0.5l-8 -21l-73 -29l-71 -266q-67 -253 -72 -294l84 -28l-13 -22q-18 0 -59 0.5t-63 0.5q-20 0 -61.5 -0.5t-64.5 -0.5l11 22l81 28q11 25 84 294l71 266zM213 821h5q8 -7 19 -25.5t13 -30.5l-1 -4q-5 -12 -25 -30 t-32 -22h-5q-26 22 -35 57v2q28 36 61 53zM401 821h5q7 -7 18 -26t13 -30l-1 -4q-5 -12 -25.5 -30t-31.5 -22h-4q-10 8 -21 25t-15 32v2q27 37 62 53z" />
<glyph unicode="&#xd0;" horiz-adv-x="739" d="M82 365h101l66 253l-85 15l10 19q84 12 218 12q153 0 242 -73.5t89 -209.5q0 -135 -83.5 -231t-217.5 -131q-74 -20 -243 -20h-31q-80 1 -119 1h-29l10 22l83 23q15 34 80 280h-111zM257 365h201l-25 -40h-186q-73 -273 -73 -291q103 0 178 12.5t132 49.5 q80 50 118.5 126t38.5 166q0 98 -50 158q-36 43 -98.5 63t-166.5 20z" />
<glyph unicode="&#xd1;" horiz-adv-x="730" d="M207 20l-9 -21q-19 0 -59 0.5t-59 0.5q-18 0 -54 -0.5t-54 -0.5l7 21l85 32q23 56 151 514q-18 39 -34 49t-72 21l10 22q5 0 58 2t78 4q5 -25 22 -58l263 -508h2q17 63 66 260.5t60 249.5l-81 30l10 21q21 0 59 -1t55 -1q19 0 55 1t51 1l-13 -23l-83 -30 q-15 -41 -63.5 -217.5t-87.5 -339.5l61 -38l-4 -11l-111 -11q-27 47 -275 531h-2q-106 -392 -118 -469zM616 801l18 -20q-26 -37 -54 -55t-48 -18q-14 0 -58 21q-35 19 -51 19q-27 0 -71 -42l-17 21q59 74 104 74q13 0 55 -21q44 -19 53 -19q27 0 69 40z" />
<glyph unicode="&#xd2;" horiz-adv-x="734" d="M458 676q44 0 86.5 -15.5t83 -47.5t65.5 -92t25 -139q0 -73 -25.5 -143.5t-72 -128t-120.5 -93t-163 -35.5q-49 0 -95 16.5t-85 49.5t-62.5 90.5t-23.5 132.5q0 102 48.5 194.5t139 151.5t199.5 59zM450 640q-90 0 -160 -58.5t-103 -141.5t-33 -170q0 -123 53 -188.5 t138 -65.5q86 0 154 58t102 142.5t34 173.5q0 126 -53.5 188t-131.5 62zM570 736l-13 -23l-192 71v13q29 34 55 40z" />
<glyph unicode="&#xd3;" horiz-adv-x="734" d="M458 676q44 0 86.5 -15.5t83 -47.5t65.5 -92t25 -139q0 -73 -25.5 -143.5t-72 -128t-120.5 -93t-163 -35.5q-49 0 -95 16.5t-85 49.5t-62.5 90.5t-23.5 132.5q0 102 48.5 194.5t139 151.5t199.5 59zM450 640q-90 0 -160 -58.5t-103 -141.5t-33 -170q0 -123 53 -188.5 t138 -65.5q86 0 154 58t102 142.5t34 173.5q0 126 -53.5 188t-131.5 62zM426 711l-13 24l152 100q15 -2 32.5 -14.5t26.5 -25.5l-2 -12z" />
<glyph unicode="&#xd4;" horiz-adv-x="734" d="M458 676q44 0 86.5 -15.5t83 -47.5t65.5 -92t25 -139q0 -73 -25.5 -143.5t-72 -128t-120.5 -93t-163 -35.5q-49 0 -95 16.5t-85 49.5t-62.5 90.5t-23.5 132.5q0 102 48.5 194.5t139 151.5t199.5 59zM450 640q-90 0 -160 -58.5t-103 -141.5t-33 -170q0 -123 53 -188.5 t138 -65.5q86 0 154 58t102 142.5t34 173.5q0 126 -53.5 188t-131.5 62zM474 834h31l104 -106l-20 -23l-110 64q-84 -40 -140 -64l-14 24z" />
<glyph unicode="&#xd5;" horiz-adv-x="734" d="M458 676q44 0 86.5 -15.5t83 -47.5t65.5 -92t25 -139q0 -73 -25.5 -143.5t-72 -128t-120.5 -93t-163 -35.5q-49 0 -95 16.5t-85 49.5t-62.5 90.5t-23.5 132.5q0 102 48.5 194.5t139 151.5t199.5 59zM450 640q-90 0 -160 -58.5t-103 -141.5t-33 -170q0 -123 53 -188.5 t138 -65.5q86 0 154 58t102 142.5t34 173.5q0 126 -53.5 188t-131.5 62zM618 816l18 -20q-54 -73 -103 -73q-16 0 -57 22q-37 19 -52 19q-27 0 -71 -42l-17 21q58 74 104 74q14 0 55 -22q44 -19 53 -19q27 0 70 40z" />
<glyph unicode="&#xd6;" horiz-adv-x="734" d="M458 676q44 0 86.5 -15.5t83 -47.5t65.5 -92t25 -139q0 -73 -25.5 -143.5t-72 -128t-120.5 -93t-163 -35.5q-49 0 -95 16.5t-85 49.5t-62.5 90.5t-23.5 132.5q0 102 48.5 194.5t139 151.5t199.5 59zM450 640q-90 0 -160 -58.5t-103 -141.5t-33 -170q0 -123 53 -188.5 t138 -65.5q86 0 154 58t102 142.5t34 173.5q0 126 -53.5 188t-131.5 62zM410 831h5q8 -7 19 -26t12 -30v-4q-6 -12 -26 -30t-31 -22h-6q-9 8 -20 25.5t-15 31.5l1 2q28 38 61 53zM598 831h5q7 -7 18 -26t13 -30l-1 -4q-5 -12 -25.5 -30t-31.5 -22h-5q-26 22 -35 57v2 q29 39 62 53z" />
<glyph unicode="&#xd7;" horiz-adv-x="595" d="M500 398l-169 -173l166 -167l-31 -40l-169 172l-169 -172l-32 39l166 168l-168 171l33 38l170 -173l172 175z" />
<glyph unicode="&#xd8;" horiz-adv-x="734" d="M618 619l64 74l26 -21l-64 -76q72 -77 72 -214q0 -72 -25.5 -142t-71.5 -128t-120.5 -94t-163.5 -36q-100 0 -171 60l-79 -91l-25 25l79 91q-69 77 -69 204q0 100 49 192.5t139 152.5t197 60q94 0 163 -57zM186 119l393 459q-47 63 -127 63q-69 0 -127.5 -35t-95 -90.5 t-56.5 -119.5t-20 -126q0 -83 30 -150zM599 547l-395 -461q49 -71 138 -71q85 0 153.5 58t103 142.5t34.5 172.5q0 86 -32 157z" />
<glyph unicode="&#xd9;" horiz-adv-x="736" d="M219 607l-76 32l12 20q16 0 51.5 -1t52.5 -1q14 0 39 1t36 1l-7 -20l-40 -37q-106 -360 -120 -444q-4 -21 -4 -38q0 -81 90 -81q134 0 277 143l118 427l-44 30l9 20q42 -2 81 -2q37 0 111 2l-12 -21l-76 -31q-15 -49 -78.5 -293t-64.5 -262l87 -17l-10 -22 q-122 -19 -169 -30l-5 3l41 139l-2 1q-60 -59 -138.5 -101t-156.5 -42q-65 0 -101 29q-38 31 -38 92q0 34 12 77q41 156 125 426zM556 724l-13 -24l-191 71v13q29 33 55 41z" />
<glyph unicode="&#xda;" horiz-adv-x="736" d="M219 607l-76 32l12 20q16 0 51.5 -1t52.5 -1q14 0 39 1t36 1l-7 -20l-40 -37q-106 -360 -120 -444q-4 -21 -4 -38q0 -81 90 -81q134 0 277 143l118 427l-44 30l9 20q42 -2 81 -2q37 0 111 2l-12 -21l-76 -31q-15 -49 -78.5 -293t-64.5 -262l87 -17l-10 -22 q-122 -19 -169 -30l-5 3l41 139l-2 1q-60 -59 -138.5 -101t-156.5 -42q-65 0 -101 29q-38 31 -38 92q0 34 12 77q41 156 125 426zM450 700l-13 25l152 100q15 -2 32.5 -14.5t26.5 -25.5l-3 -13z" />
<glyph unicode="&#xdb;" horiz-adv-x="736" d="M219 607l-76 32l12 20q16 0 51.5 -1t52.5 -1q14 0 39 1t36 1l-7 -20l-40 -37q-106 -360 -120 -444q-4 -21 -4 -38q0 -81 90 -81q134 0 277 143l118 427l-44 30l9 20q42 -2 81 -2q37 0 111 2l-12 -21l-76 -31q-15 -49 -78.5 -293t-64.5 -262l87 -17l-10 -22 q-122 -19 -169 -30l-5 3l41 139l-2 1q-60 -59 -138.5 -101t-156.5 -42q-65 0 -101 29q-38 31 -38 92q0 34 12 77q41 156 125 426zM502 829h31l104 -106l-20 -23l-110 64q-92 -44 -139 -64l-15 24z" />
<glyph unicode="&#xdc;" horiz-adv-x="736" d="M219 607l-76 32l12 20q16 0 51.5 -1t52.5 -1q14 0 39 1t36 1l-7 -20l-40 -37q-106 -360 -120 -444q-4 -21 -4 -38q0 -81 90 -81q134 0 277 143l118 427l-44 30l9 20q42 -2 81 -2q37 0 111 2l-12 -21l-76 -31q-15 -49 -78.5 -293t-64.5 -262l87 -17l-10 -22 q-122 -19 -169 -30l-5 3l41 139l-2 1q-60 -59 -138.5 -101t-156.5 -42q-65 0 -101 29q-38 31 -38 92q0 34 12 77q41 156 125 426zM430 821h5q8 -8 19 -26.5t12 -29.5v-4q-5 -12 -25 -30t-32 -23h-6q-26 26 -35 58l1 2q28 38 61 53zM618 821h5q26 -29 31 -56l-1 -4 q-5 -11 -25.5 -29.5t-31.5 -23.5h-5q-27 25 -35 58v2q29 39 62 53z" />
<glyph unicode="&#xdd;" horiz-adv-x="591" d="M109 639l9 20q14 0 48 -1t52 -1q15 0 45 1t45 1l-9 -21l-38 -22q14 -51 87 -274h3q152 184 209 270l-34 28l9 19q16 0 43.5 -1t39.5 -1q17 0 48.5 1t50.5 1l-11 -22l-84 -28q-95 -101 -249 -296q-15 -19 -20 -38q-55 -208 -55 -226l109 -29l-11 -21q-26 0 -77 0.5 t-77 0.5q-23 0 -69.5 -0.5t-70.5 -0.5l10 20l101 30q20 52 70 234q1 7 1 14q0 15 -5 31q-40 125 -96 283q-9 4 -74 28zM386 700l-14 24l152 100q15 -1 32.5 -13.5t26.5 -25.5l-3 -13z" />
<glyph unicode="&#xde;" horiz-adv-x="548" d="M-2 19l73 29q11 26 81 291l71 274l-67 26l9 20q17 0 48.5 -1t46.5 -1q22 0 64 1t61 1l-7 -21l-80 -26l-25 -90q46 4 52 4h12q204 0 204 -167q0 -85 -72 -144.5t-182 -59.5q-24 0 -48 9l-6 25h8q92 0 154 43q65 45 65 134q0 126 -147 126q-17 0 -50 -5l-32 -127 q-74 -284 -77 -310l83 -30l-7 -21q-20 0 -60.5 1t-60.5 1q-19 0 -58 -1t-59 -1z" />
<glyph unicode="&#xdf;" horiz-adv-x="517" d="M68 439h73q24 73 53 125.5t76 91.5q69 58 143 58q59 0 95 -32.5t36 -94.5q0 -13 -5 -21q-156 -127 -156 -204q0 -31 39 -103q38 -72 38 -118q0 -57 -54 -107q-52 -47 -129 -47q-33 0 -64 12t-46 29q17 33 44 75l14 3q4 -12 16 -77q14 -8 39 -8q50 0 82 30q34 31 34 69 q0 37 -37 108q-38 75 -38 109q0 46 36 93q37 49 121 122q6 18 6 34q0 39 -22.5 66.5t-66.5 27.5q-23 0 -43 -7t-43.5 -29t-44 -57.5t-41 -97.5t-37.5 -145q-19 -94 -58 -273q-41 -182 -117 -253q-64 -61 -122 -61q-55 0 -69 28l36 65l8 2q24 -43 68 -43q30 0 57 32.5 t50 128.5q32 133 93 424l-79 17z" />
<glyph unicode="&#xe0;" horiz-adv-x="522" d="M400 442l83 12l3 -9l-38 -45q-64 -208 -93 -355l2 -1q62 18 119 96l6 -11q-5 -51 -56 -96.5t-118 -45.5q-11 0 -31 4q7 29 30 111.5t25 88.5h-4q-59 -88 -127.5 -146t-118.5 -58q-65 0 -65 96q0 67 43.5 153.5t126.5 148.5q72 54 141 54q34 0 64 -22zM113 41 q34 0 88 47.5t110 131.5q40 62 71 165q-19 16 -49 16q-69 0 -131 -67q-55 -60 -84.5 -129.5t-29.5 -121.5q0 -42 25 -42zM371 504l-27 -10l-89 170l1 10q28 18 55 18q8 0 16 -2z" />
<glyph unicode="&#xe1;" horiz-adv-x="522" d="M400 442l83 12l3 -9l-38 -45q-64 -208 -93 -355l2 -1q62 18 119 96l6 -11q-5 -51 -56 -96.5t-118 -45.5q-11 0 -31 4q7 29 30 111.5t25 88.5h-4q-59 -88 -127.5 -146t-118.5 -58q-65 0 -65 96q0 67 43.5 153.5t126.5 148.5q72 54 141 54q34 0 64 -22zM113 41 q34 0 88 47.5t110 131.5q40 62 71 165q-19 16 -49 16q-69 0 -131 -67q-55 -60 -84.5 -129.5t-29.5 -121.5q0 -42 25 -42zM322 494l-21 18l113 161q8 1 15 1q31 0 58 -16v-10z" />
<glyph unicode="&#xe2;" horiz-adv-x="522" d="M400 442l83 12l3 -9l-38 -45q-64 -208 -93 -355l2 -1q62 18 119 96l6 -11q-5 -51 -56 -96.5t-118 -45.5q-11 0 -31 4q7 29 30 111.5t25 88.5h-4q-59 -88 -127.5 -146t-118.5 -58q-65 0 -65 96q0 67 43.5 153.5t126.5 148.5q72 54 141 54q34 0 64 -22zM113 41 q34 0 88 47.5t110 131.5q40 62 71 165q-19 16 -49 16q-69 0 -131 -67q-55 -60 -84.5 -129.5t-29.5 -121.5q0 -42 25 -42zM357 685l24 4l60 -170l-27 -17l-63 103l-111 -103l-23 20z" />
<glyph unicode="&#xe3;" horiz-adv-x="522" d="M400 442l83 12l3 -9l-38 -45q-64 -208 -93 -355l2 -1q62 18 119 96l6 -11q-5 -51 -56 -96.5t-118 -45.5q-11 0 -31 4q7 29 30 111.5t25 88.5h-4q-59 -88 -127.5 -146t-118.5 -58q-65 0 -65 96q0 67 43.5 153.5t126.5 148.5q72 54 141 54q34 0 64 -22zM113 41 q34 0 88 47.5t110 131.5q40 62 71 165q-19 16 -49 16q-69 0 -131 -67q-55 -60 -84.5 -129.5t-29.5 -121.5q0 -42 25 -42zM485 623l18 -16q-52 -74 -94 -74q-11 0 -55 20q-38 18 -48 18q-23 0 -64 -43l-20 21q59 74 98 74q17 0 52 -19q40 -19 51 -20q24 0 62 39z" />
<glyph unicode="&#xe4;" horiz-adv-x="522" d="M400 442l83 12l3 -9l-38 -45q-64 -208 -93 -355l2 -1q62 18 119 96l6 -11q-5 -51 -56 -96.5t-118 -45.5q-11 0 -31 4q7 29 30 111.5t25 88.5h-4q-59 -88 -127.5 -146t-118.5 -58q-65 0 -65 96q0 67 43.5 153.5t126.5 148.5q72 54 141 54q34 0 64 -22zM113 41 q34 0 88 47.5t110 131.5q40 62 71 165q-19 16 -49 16q-69 0 -131 -67q-55 -60 -84.5 -129.5t-29.5 -121.5q0 -42 25 -42zM278 646h3q7 -5 18.5 -23.5t13.5 -29.5l-1 -5q-5 -12 -25 -30t-31 -22h-5q-26 26 -35 58l1 2q30 40 61 50zM461 646h5q7 -5 18 -24t13 -29l-2 -5 q-6 -12 -25 -30t-29 -22h-6q-26 26 -35 58l2 2q29 40 59 50z" />
<glyph unicode="&#xe5;" horiz-adv-x="522" d="M400 442l83 12l3 -9l-38 -45q-64 -208 -93 -355l2 -1q62 18 119 96l6 -11q-5 -51 -56 -96.5t-118 -45.5q-11 0 -31 4q7 29 30 111.5t25 88.5h-4q-59 -88 -127.5 -146t-118.5 -58q-65 0 -65 96q0 67 43.5 153.5t126.5 148.5q72 54 141 54q34 0 64 -22zM113 41 q34 0 88 47.5t110 131.5q40 62 71 165q-19 16 -49 16q-69 0 -131 -67q-55 -60 -84.5 -129.5t-29.5 -121.5q0 -42 25 -42zM356 540q20 0 35 13t19 38q2 8 2 15q0 15 -8 24q-10 13 -30 13t-36 -13t-20 -39q-1 -8 -1 -14q0 -37 39 -37zM380 677q35 0 58 -23q16 -17 16 -43 q0 -10 -2 -20q-7 -39 -37.5 -62t-65.5 -23t-57 23q-18 18 -18 44q0 9 2 18q8 40 38.5 63t65.5 23z" />
<glyph unicode="&#xe6;" horiz-adv-x="694" d="M83 70q0 -35 28 -35q34 0 96 51t118 133q44 112 111 167l-1 3q-6 1 -12 1q-32 0 -74 -12q-51 -15 -97 -47q-75 -51 -122 -129t-47 -132zM658 147l5 -33q-43 -61 -100 -94t-118 -33q-57 0 -93.5 34t-37.5 107q0 4 1 12.5t1 12.5h-3q-54 -71 -118.5 -118.5t-113.5 -47.5 q-33 0 -50 23t-17 59q0 61 48 142t141 140q108 69 257 69h20q51 30 103 30q44 0 69 -26t26 -63q0 -36 -14 -64q-7 -15 -37 -33q-22 -14 -91.5 -37t-144.5 -33q-6 -27 -6 -57v-9q2 -41 23 -67.5t63 -26.5q95 0 186 113h1zM571 417q-47 0 -98.5 -54.5t-74.5 -133.5 q57 4 120 26q60 20 78 43q21 28 21 69q0 50 -46 50z" />
<glyph unicode="&#xe7;" horiz-adv-x="402" d="M88 -88l64 74v1q-61 2 -90.5 43.5t-29.5 104.5q0 55 25.5 119t79.5 116q84 80 179 80q55 0 75 -20q-3 -16 -15.5 -53t-24.5 -55l-17 -9q-5 13 -20 102q-5 2 -16 2q-57 0 -111 -61q-80 -92 -80 -215q0 -46 19.5 -74.5t60.5 -28.5q48 0 94 33.5t77 71.5l1 -1l7 -31 q-70 -102 -167 -119l-43 -51q48 -25 48 -63q0 -42 -45 -68.5t-89 -34.5l-9 27q25 6 52 24t27 39q0 25 -51 44z" />
<glyph unicode="&#xe8;" horiz-adv-x="410" d="M366 144l4 -32q-41 -59 -95 -92t-112 -33q-55 0 -93 33q-38 35 -38 116q0 65 32 136q33 73 96 125.5t137 52.5q46 0 71.5 -27t25.5 -68t-24 -66q-25 -30 -111.5 -56.5t-147.5 -36.5q-5 -20 -5 -53q0 -46 20.5 -75.5t64.5 -29.5q46 0 93 33.5t79 72.5h3zM280 418 q-48 0 -95 -54t-69 -136q53 11 119 33t80 44q14 20 14 50t-14 46.5t-35 16.5zM336 504l-26 -10l-90 170l2 10q29 17 56 17q8 0 15 -1z" />
<glyph unicode="&#xe9;" horiz-adv-x="410" d="M366 144l4 -32q-41 -59 -95 -92t-112 -33q-55 0 -93 33q-38 35 -38 116q0 65 32 136q33 73 96 125.5t137 52.5q46 0 71.5 -27t25.5 -68t-24 -66q-25 -30 -111.5 -56.5t-147.5 -36.5q-5 -20 -5 -53q0 -46 20.5 -75.5t64.5 -29.5q46 0 93 33.5t79 72.5h3zM280 418 q-48 0 -95 -54t-69 -136q53 11 119 33t80 44q14 20 14 50t-14 46.5t-35 16.5zM265 494l-21 18l113 161q8 1 15 1q30 0 58 -16v-10z" />
<glyph unicode="&#xea;" horiz-adv-x="410" d="M366 144l4 -32q-41 -59 -95 -92t-112 -33q-55 0 -93 33q-38 35 -38 116q0 65 32 136q33 73 96 125.5t137 52.5q46 0 71.5 -27t25.5 -68t-24 -66q-25 -30 -111.5 -56.5t-147.5 -36.5q-5 -20 -5 -53q0 -46 20.5 -75.5t64.5 -29.5q46 0 93 33.5t79 72.5h3zM280 418 q-48 0 -95 -54t-69 -136q53 11 119 33t80 44q14 20 14 50t-14 46.5t-35 16.5zM327 685l23 4l61 -170l-27 -17l-63 103l-111 -103l-24 20z" />
<glyph unicode="&#xeb;" horiz-adv-x="410" d="M366 144l4 -32q-41 -59 -95 -92t-112 -33q-55 0 -93 33q-38 35 -38 116q0 65 32 136q33 73 96 125.5t137 52.5q46 0 71.5 -27t25.5 -68t-24 -66q-25 -30 -111.5 -56.5t-147.5 -36.5q-5 -20 -5 -53q0 -46 20.5 -75.5t64.5 -29.5q46 0 93 33.5t79 72.5h3zM280 418 q-48 0 -95 -54t-69 -136q53 11 119 33t80 44q14 20 14 50t-14 46.5t-35 16.5zM239 646h4q7 -5 18.5 -23.5t13.5 -29.5l-1 -5q-5 -12 -25 -30t-31 -22h-5q-28 28 -35 58l1 2q30 39 60 50zM423 646h5q7 -5 18 -24t13 -29l-2 -5q-6 -11 -25 -29.5t-29 -22.5h-6q-25 23 -35 58 l1 2q30 40 60 50z" />
<glyph unicode="&#xec;" horiz-adv-x="279" d="M146 383l-64 8l8 19q22 12 66 25.5t72 14.5l2 -3l-124 -415l3 -1q26 7 65 43.5t63 68.5l3 -10q-6 -46 -49 -96t-104 -50q-24 0 -33 25q-4 9 -4 24q0 23 9 59q17 62 87 288zM233 504l-26 -10l-89 170l1 10q28 18 55 18q8 0 16 -2z" />
<glyph unicode="&#xed;" horiz-adv-x="279" d="M146 383l-64 8l8 19q22 12 66 25.5t72 14.5l2 -3l-124 -415l3 -1q26 7 65 43.5t63 68.5l3 -10q-6 -46 -49 -96t-104 -50q-24 0 -33 25q-4 9 -4 24q0 23 9 59q17 62 87 288zM183 494l-20 18l112 161q8 1 15 1q31 0 59 -16v-10z" />
<glyph unicode="&#xee;" horiz-adv-x="279" d="M146 383l-64 8l8 19q22 12 66 25.5t72 14.5l2 -3l-124 -415l3 -1q26 7 65 43.5t63 68.5l3 -10q-6 -46 -49 -96t-104 -50q-24 0 -33 25q-4 9 -4 24q0 23 9 59q17 62 87 288zM228 685l23 4l61 -170l-27 -17l-63 103l-111 -103l-23 20z" />
<glyph unicode="&#xef;" horiz-adv-x="279" d="M146 383l-64 8l8 19q22 12 66 25.5t72 14.5l2 -3l-124 -415l3 -1q26 7 65 43.5t63 68.5l3 -10q-6 -46 -49 -96t-104 -50q-24 0 -33 25q-4 9 -4 24q0 23 9 59q17 62 87 288zM143 646h4q7 -5 18.5 -23.5t13.5 -29.5l-1 -5q-5 -12 -25 -30t-31 -22h-5q-28 28 -35 58l1 2 q30 39 60 50zM327 646h5q7 -5 17.5 -23.5t12.5 -29.5l-1 -5q-6 -12 -25.5 -30t-29.5 -22h-5q-26 23 -35 58l1 2q30 40 60 50z" />
<glyph unicode="&#xf0;" horiz-adv-x="444" d="M170 520l130 69q-36 56 -119 102l18 22q37 -13 77 -41.5t65 -59.5l110 60l24 -27l-112 -60q61 -85 61 -219q0 -77 -22 -155.5t-68 -133.5q-74 -90 -166 -90q-63 0 -99 44.5t-36 113.5q0 55 22 113.5t66 105.5q79 86 164 86q45 0 74 -26q-6 80 -42 139l-125 -67zM282 418 q-42 0 -79 -36q-39 -39 -69 -108.5t-30 -145.5q0 -52 21 -80t52 -28q49 0 91 50q29 37 58 116.5t29 163.5q0 22 -17 41q-24 27 -56 27z" />
<glyph unicode="&#xf1;" horiz-adv-x="538" d="M101 0l-66 -8q16 49 59.5 208.5t46.5 183.5l-65 8l6 18q22 12 72 26t71 15l2 -2q-2 -9 -13 -45l-30 -95l-34 -117h3q127 194 253 246q29 12 60 12q20 0 24 -11v-8q0 -13 -6 -38q-75 -269 -87 -334l91 16l-11 -29q-31 -10 -165 -65l-6 10q86 283 113 386q6 17 -10 17 q-39 0 -110.5 -71t-116.5 -145q-49 -79 -81 -178zM462 623l18 -16q-53 -74 -94 -74q-13 0 -55 20q-37 18 -49 18q-22 0 -63 -43l-20 21q58 74 98 74q17 0 52 -19q38 -19 51 -20q23 0 62 39z" />
<glyph unicode="&#xf2;" horiz-adv-x="470" d="M298 450q61 0 97 -49t36 -119q0 -111 -78 -203t-180 -92q-58 0 -96.5 43.5t-39.5 119.5q0 116 78 208t183 92zM287 418q-50 0 -92.5 -49.5t-64 -114.5t-21.5 -122q0 -113 70 -113q45 0 87.5 45.5t67.5 110.5t25 125q0 118 -72 118zM349 504l-26 -10l-90 170l2 10 q28 18 55 18q8 0 16 -2z" />
<glyph unicode="&#xf3;" horiz-adv-x="470" d="M298 450q61 0 97 -49t36 -119q0 -111 -78 -203t-180 -92q-58 0 -96.5 43.5t-39.5 119.5q0 116 78 208t183 92zM287 418q-50 0 -92.5 -49.5t-64 -114.5t-21.5 -122q0 -113 70 -113q45 0 87.5 45.5t67.5 110.5t25 125q0 118 -72 118zM284 494l-20 18l112 161q8 1 15 1 q30 0 58 -16v-10z" />
<glyph unicode="&#xf4;" horiz-adv-x="470" d="M298 450q61 0 97 -49t36 -119q0 -111 -78 -203t-180 -92q-58 0 -96.5 43.5t-39.5 119.5q0 116 78 208t183 92zM287 418q-50 0 -92.5 -49.5t-64 -114.5t-21.5 -122q0 -113 70 -113q45 0 87.5 45.5t67.5 110.5t25 125q0 118 -72 118zM345 685l24 4l60 -170l-27 -17l-62 103 l-111 -103l-24 20z" />
<glyph unicode="&#xf5;" horiz-adv-x="470" d="M298 450q61 0 97 -49t36 -119q0 -111 -78 -203t-180 -92q-58 0 -96.5 43.5t-39.5 119.5q0 116 78 208t183 92zM287 418q-50 0 -92.5 -49.5t-64 -114.5t-21.5 -122q0 -113 70 -113q45 0 87.5 45.5t67.5 110.5t25 125q0 118 -72 118zM445 623l18 -16q-53 -74 -93 -74 q-13 0 -55 20q-37 18 -49 18q-22 0 -63 -43l-20 21q58 74 98 74q18 0 51 -19q40 -19 51 -20q24 0 62 39z" />
<glyph unicode="&#xf6;" horiz-adv-x="470" d="M298 450q61 0 97 -49t36 -119q0 -111 -78 -203t-180 -92q-58 0 -96.5 43.5t-39.5 119.5q0 116 78 208t183 92zM287 418q-50 0 -92.5 -49.5t-64 -114.5t-21.5 -122q0 -113 70 -113q45 0 87.5 45.5t67.5 110.5t25 125q0 118 -72 118zM255 646h3q7 -5 18.5 -23.5t13.5 -29.5 l-1 -5q-5 -12 -25 -30t-31 -22h-5q-26 26 -35 58l1 2q30 40 61 50zM437 646h5q7 -5 18 -24t13 -29l-2 -5q-5 -12 -24.5 -30t-29.5 -22h-6q-24 24 -34 58l1 2q29 40 59 50z" />
<glyph unicode="&#xf7;" horiz-adv-x="595" d="M80 259h447l-12 -47h-448zM298 140h6q8 -3 22 -18.5t19 -28.5l-2 -7q-5 -11 -19.5 -26.5t-24.5 -22.5l-6 -2q-13 7 -25 21.5t-17 26.5l1 9q29 37 46 48zM301 435l5 1q9 -4 23 -19.5t18 -28.5l-1 -7q-5 -11 -20 -26.5t-24 -21.5l-7 -2q-28 15 -42 48l1 7q20 31 47 49z" />
<glyph unicode="&#xf8;" horiz-adv-x="472" d="M380 423l44 55l19 -24l-43 -53q33 -41 33 -114q0 -115 -76.5 -207.5t-182.5 -92.5q-51 0 -84 29l-45 -55l-20 25l43 52q-32 42 -32 110q0 118 79.5 210t182.5 92q51 0 82 -27zM110 84l235 297q-17 37 -58 37q-61 0 -107.5 -59t-63.5 -136q-11 -47 -11 -89q0 -25 4 -49z M359 349l-233 -295q20 -35 53 -35q60 0 108 61t67 138q11 46 11 84q0 24 -5 45z" />
<glyph unicode="&#xf9;" horiz-adv-x="552" d="M148 380l-77 4l7 22q81 35 152 44l7 -2q-25 -71 -62.5 -194.5t-46.5 -162.5q-4 -17 -4 -28q0 -21 14 -21q37 0 98 61t122 157q42 68 76 175q33 12 80 15l6 -10l-40 -53q-58 -202 -89 -338l2 -1q63 18 114 101l8 -13q-6 -54 -57.5 -101.5t-121.5 -47.5q-1 0 -25 3 q11 40 72 248h-3q-102 -158 -195 -219q-47 -32 -88 -32q-42 0 -42 49q0 19 6 46q14 56 51 177zM375 504l-26 -10l-89 170l1 10q29 17 56 17q8 0 15 -1z" />
<glyph unicode="&#xfa;" horiz-adv-x="552" d="M148 380l-77 4l7 22q81 35 152 44l7 -2q-25 -71 -62.5 -194.5t-46.5 -162.5q-4 -17 -4 -28q0 -21 14 -21q37 0 98 61t122 157q42 68 76 175q33 12 80 15l6 -10l-40 -53q-58 -202 -89 -338l2 -1q63 18 114 101l8 -13q-6 -54 -57.5 -101.5t-121.5 -47.5q-1 0 -25 3 q11 40 72 248h-3q-102 -158 -195 -219q-47 -32 -88 -32q-42 0 -42 49q0 19 6 46q14 56 51 177zM325 494l-20 18l113 161q8 1 15 1q30 0 57 -16v-10z" />
<glyph unicode="&#xfb;" horiz-adv-x="552" d="M148 380l-77 4l7 22q81 35 152 44l7 -2q-25 -71 -62.5 -194.5t-46.5 -162.5q-4 -17 -4 -28q0 -21 14 -21q37 0 98 61t122 157q42 68 76 175q33 12 80 15l6 -10l-40 -53q-58 -202 -89 -338l2 -1q63 18 114 101l8 -13q-6 -54 -57.5 -101.5t-121.5 -47.5q-1 0 -25 3 q11 40 72 248h-3q-102 -158 -195 -219q-47 -32 -88 -32q-42 0 -42 49q0 19 6 46q14 56 51 177zM371 685l24 4l61 -170l-28 -17l-62 103l-111 -103l-24 20z" />
<glyph unicode="&#xfc;" horiz-adv-x="552" d="M148 380l-77 4l7 22q81 35 152 44l7 -2q-25 -71 -62.5 -194.5t-46.5 -162.5q-4 -17 -4 -28q0 -21 14 -21q37 0 98 61t122 157q42 68 76 175q33 12 80 15l6 -10l-40 -53q-58 -202 -89 -338l2 -1q63 18 114 101l8 -13q-6 -54 -57.5 -101.5t-121.5 -47.5q-1 0 -25 3 q11 40 72 248h-3q-102 -158 -195 -219q-47 -32 -88 -32q-42 0 -42 49q0 19 6 46q14 56 51 177zM275 646h4q7 -5 18 -23.5t13 -29.5l-1 -5q-5 -11 -25 -29.5t-30 -22.5h-5q-28 25 -35 58v2q32 40 61 50zM458 646h5q7 -5 18 -24t13 -29l-2 -5q-5 -12 -24.5 -30t-29.5 -22h-6 q-26 26 -35 58l2 2q29 40 59 50z" />
<glyph unicode="&#xfd;" horiz-adv-x="439" d="M267 494l-20 19l112 160q8 1 15 1q31 0 59 -16v-10zM58 278l-22 22q13 46 30 78.5t34 47t28.5 20.5t21.5 6q46 -4 70 -102q21 -88 21 -231q0 -28 -1 -59h3q43 66 82.5 167t43.5 155l-31 43l6 10q35 15 79 17q13 0 13 -12q-12 -70 -61 -192q-67 -167 -183 -323 q-41 -54 -85.5 -94.5t-71 -56.5t-36.5 -16q-6 0 -15 6.5t-21 26.5t-18 49l4 9q19 -2 92 -23q12 4 44.5 33t56.5 63q42 61 42 155q0 179 -35 276q-14 36 -22 36q-4 0 -15 -13.5t-26.5 -40.5t-27.5 -57z" />
<glyph unicode="&#xfe;" d="M129 662l7 19q30 12 75 21t68 9l2 -2l-133 -465h2q140 206 248 206q33 0 54 -31.5t21 -79.5q0 -132 -93 -242t-206 -110q-54 0 -83 24q-10 -31 -50 -191l96 -21l-10 -22q-134 -13 -229 -13l10 24l61 28q11 29 37 124l58 216q32 120 42 155q76 276 92 339zM358 401 q-61 0 -175 -166q-52 -75 -81 -184q27 -30 71 -30q66 0 121 53.5t82 123.5q25 68 25 130q0 73 -43 73z" />
<glyph unicode="&#xff;" horiz-adv-x="439" d="M58 278l-22 22q13 46 30 78.5t34 47t28.5 20.5t21.5 6q46 -4 70 -102q21 -88 21 -231q0 -28 -1 -59h3q43 66 82.5 167t43.5 155l-31 43l6 10q35 15 79 17q13 0 13 -12q-12 -70 -61 -192q-67 -167 -183 -323q-41 -54 -85.5 -94.5t-71 -56.5t-36.5 -16q-6 0 -15 6.5 t-21 26.5t-18 49l4 9q19 -2 92 -23q12 4 44.5 33t56.5 63q42 61 42 155q0 179 -35 276q-14 36 -22 36q-4 0 -15 -13.5t-26.5 -40.5t-27.5 -57zM209 646h3q7 -5 18.5 -23.5t13.5 -29.5l-1 -5q-5 -11 -25 -29t-31 -23h-5q-26 26 -35 58l1 2q30 40 61 50zM392 646h5 q7 -5 17.5 -23.5t13.5 -29.5l-2 -5q-6 -11 -25.5 -29t-29.5 -23h-5q-25 23 -35 58l1 2q30 40 60 50z" />
<glyph unicode="&#x152;" horiz-adv-x="969" d="M489 44l147 571q-45 14 -108 14q-182 0 -278.5 -98t-96.5 -255q0 -46 13.5 -87.5t40.5 -78t76 -58.5t113 -22q62 0 93 14zM718 657h201q35 10 72 10l3 -4q-3 -17 -20 -72t-26 -72l-17 -6q-3 12 -18 109l-205 -8l-65 -251q170 0 257 11l4 -12q-8 -8 -35.5 -28.5 t-31.5 -20.5q-3 0 -94.5 4t-111.5 4q-65 -258 -68 -275l239 -11l56 57q41 43 61 61l14 -9q-32 -96 -67 -147q-94 3 -209 3h-100q-22 0 -93.5 -3t-89.5 -3q-144 0 -222.5 77.5t-78.5 203.5q0 174 126 281.5t333 107.5q26 0 64.5 -1.5t76.5 -3.5t45 -2z" />
<glyph unicode="&#x153;" horiz-adv-x="712" d="M293 419q-54 0 -98 -54t-64.5 -119.5t-20.5 -117.5q0 -54 19.5 -81.5t46.5 -27.5q46 0 82.5 33.5t57 82.5t31 96.5t10.5 85.5q0 53 -18 77.5t-46 24.5zM300 450q46 0 77.5 -31.5t32.5 -87.5h2q38 57 89 88t101 31q45 0 70 -26.5t25 -68.5q0 -57 -56 -89q-71 -43 -228 -68 q-8 -32 -8 -55v-5q0 -42 19.5 -73.5t62.5 -31.5q56 0 102 34t77 75l2 -1l11 -27q-88 -127 -214 -127q-47 0 -79.5 26.5t-40.5 71.5h-2q-71 -98 -175 -98q-60 0 -95.5 39.5t-36.5 112.5q0 69 33.5 140t96 121t134.5 50zM590 420q-47 0 -98 -54t-74 -135q69 11 110 26 q53 18 78 41.5t26 60.5q0 31 -12 46t-30 15z" />
<glyph unicode="&#x178;" horiz-adv-x="591" d="M109 639l9 20q14 0 48 -1t52 -1q15 0 45 1t45 1l-9 -21l-38 -22q14 -51 87 -274h3q152 184 209 270l-34 28l9 19q16 0 43.5 -1t39.5 -1q17 0 48.5 1t50.5 1l-11 -22l-84 -28q-95 -101 -249 -296q-15 -19 -20 -38q-55 -208 -55 -226l109 -29l-11 -21q-26 0 -77 0.5 t-77 0.5q-23 0 -69.5 -0.5t-70.5 -0.5l10 20l101 30q20 52 70 234q1 7 1 14q0 15 -5 31q-40 125 -96 283q-9 4 -74 28zM362 821h5q8 -8 19 -26.5t12 -29.5v-4q-5 -12 -25 -30t-32 -23h-6q-26 26 -35 58l1 2q24 33 61 53zM550 821h4q8 -8 18.5 -26t13.5 -30l-1 -4 q-5 -11 -25.5 -29.5t-31.5 -23.5h-5q-27 25 -35 58v2q25 35 62 53z" />
<glyph unicode="&#x2c6;" horiz-adv-x="386" d="M304 685l23 4l61 -170l-27 -17l-63 103l-110 -103l-24 20z" />
<glyph unicode="&#x2dc;" horiz-adv-x="386" d="M424 623l18 -16q-53 -74 -94 -74q-13 0 -55 20q-37 18 -49 18q-21 0 -63 -42l-20 20q59 74 98 74q17 0 52 -19q38 -19 51 -20q23 0 62 39z" />
<glyph unicode="&#x2000;" horiz-adv-x="436" />
<glyph unicode="&#x2001;" horiz-adv-x="873" />
<glyph unicode="&#x2002;" horiz-adv-x="436" />
<glyph unicode="&#x2003;" horiz-adv-x="873" />
<glyph unicode="&#x2004;" horiz-adv-x="291" />
<glyph unicode="&#x2005;" horiz-adv-x="218" />
<glyph unicode="&#x2006;" horiz-adv-x="145" />
<glyph unicode="&#x2007;" horiz-adv-x="145" />
<glyph unicode="&#x2008;" horiz-adv-x="109" />
<glyph unicode="&#x2009;" horiz-adv-x="174" />
<glyph unicode="&#x200a;" horiz-adv-x="48" />
<glyph unicode="&#x2010;" horiz-adv-x="349" d="M270 213l-237 -24l31 66l51 -2l195 10v-4z" />
<glyph unicode="&#x2011;" horiz-adv-x="349" d="M270 213l-237 -24l31 66l51 -2l195 10v-4z" />
<glyph unicode="&#x2013;" horiz-adv-x="572" d="M527 203h-485l14 50h485z" />
<glyph unicode="&#x2014;" horiz-adv-x="854" d="M810 203h-768l14 50h768z" />
<glyph unicode="&#x2018;" horiz-adv-x="195" d="M256 704l15 -23q-84 -52 -85 -115q0 -7 3 -16l37 -26l-1 -11l-60 -45h-9q-11 5 -23 23t-12 47q1 51 37.5 94.5t97.5 71.5z" />
<glyph unicode="&#x2019;" horiz-adv-x="195" d="M115 464l-16 23q84 52 85 115q0 7 -3 16l-37 25l1 12l60 44h9q10 -3 22.5 -22.5t12.5 -49.5q-1 -49 -37 -91.5t-97 -71.5z" />
<glyph unicode="&#x201a;" horiz-adv-x="194" d="M-25 -104l-15 23q38 26 61.5 58.5t23.5 63.5q0 13 -2 18l-40 27v12l61 45h10q10 -3 22.5 -24t12.5 -54q0 -49 -37 -95t-97 -74z" />
<glyph unicode="&#x201c;" horiz-adv-x="340" d="M400 704l15 -22q-83 -52 -84 -116q0 -4 2 -16l37 -26l-1 -11l-60 -45h-9q-11 5 -23 23.5t-12 48.5q1 49 38 92.5t97 71.5zM256 704l15 -22q-84 -51 -85 -116q0 -7 3 -16l36 -26l-1 -11l-60 -45h-8q-11 5 -23 23.5t-12 48.5q1 49 38 92.5t97 71.5z" />
<glyph unicode="&#x201d;" horiz-adv-x="340" d="M114 464l-14 23q84 54 84 116q0 7 -3 15l-37 26l1 12l60 44h9q10 -3 22 -22t12 -49q-1 -50 -37 -93t-97 -72zM257 464l-14 23q85 53 85 115q0 5 -2 15l-38 26l1 12l60 44h9q10 -3 22.5 -22.5t12.5 -48.5q-1 -50 -37.5 -92.5t-98.5 -71.5z" />
<glyph unicode="&#x201e;" horiz-adv-x="343" d="M-31 -104l-15 23q38 26 61.5 58.5t23.5 63.5q0 13 -2 18l-40 27v12l61 45h9q11 -4 23.5 -24.5t12.5 -53.5q0 -49 -37 -95t-97 -74zM119 -104l-15 23q38 26 61.5 58.5t23.5 63.5q0 13 -2 18l-40 27l1 12l60 45h10q11 -4 23.5 -24.5t12.5 -53.5q0 -49 -37 -95t-98 -74z" />
<glyph unicode="&#x2022;" horiz-adv-x="353" d="M206 350h12q18 -15 46.5 -59.5t35.5 -70.5l-1 -12q-12 -25 -59.5 -67.5t-72.5 -54.5h-13q-22 18 -49.5 59.5t-40.5 78.5l2 7q34 45 74.5 77t65.5 42z" />
<glyph unicode="&#x2026;" horiz-adv-x="781" d="M95 111h7q8 -8 20 -29.5t14 -33.5l-1 -6q-6 -12 -28.5 -32t-35.5 -27h-6q-11 9 -23.5 29.5t-16.5 37.5l1 2q30 43 69 59zM354 111h5q9 -8 21.5 -29.5t13.5 -33.5l-1 -6q-6 -12 -28.5 -32t-35.5 -27h-6q-29 27 -39 67v2q33 45 70 59zM615 111h5q9 -8 21 -29.5t14 -33.5 l-1 -6q-5 -12 -28 -32t-36 -27h-6q-11 9 -23.5 29.5t-16.5 37.5l1 2q34 46 70 59z" />
<glyph unicode="&#x202f;" horiz-adv-x="174" />
<glyph unicode="&#x2039;" horiz-adv-x="324" d="M225 42l-20 -17q-59 108 -146 195q36 26 98.5 81.5t114.5 111.5l14 -19q-44 -67 -137 -177q54 -105 76 -175z" />
<glyph unicode="&#x203a;" horiz-adv-x="324" d="M98 396l21 17q31 -57 73.5 -111.5t71.5 -83.5q-114 -85 -213 -193l-13 19q39 64 138 177q-65 137 -78 175z" />
<glyph unicode="&#x205f;" horiz-adv-x="218" />
<glyph unicode="&#x20ac;" d="M71 401l39 1q43 115 125.5 180.5t183.5 65.5q77 0 132 -44q-5 -14 -24.5 -51t-28.5 -51l-15 -5q-6 34 -6 82v25q-21 9 -49 9q-79 0 -142 -52.5t-98 -157.5l302 4l-26 -43l-284 4q-11 -36 -13 -72l278 4l-26 -42l-253 3v-20q0 -95 34 -149q39 -59 108 -59q16 0 26 3 q26 18 72 54l58 44l8 -21q-43 -65 -90 -103q-43 -16 -97 -16q-94 0 -148 74q-51 71 -51 182v13h-64l15 32l50 1q2 34 13 73h-45z" />
<glyph unicode="&#x2122;" horiz-adv-x="467" d="M152 643h107q20 4 26 4l4 -2q0 -10 -9 -46q-8 -4 -13 -6q-1 6 -10 31l-37 -3v-112l36 -8l-5 -17h-98l6 17l27 8v112l-36 3q-6 -9 -11 -18l-6 -12q-2 2 -12 4q0 32 3 47q2 1 4 1q1 0 5 -0.5t9.5 -1.5t9.5 -1zM301 627l5 16h67l2 -11q8 -19 45 -91q13 24 46 93l1 9h70 l-6 -16l-21 -6q0 -83 3 -113l27 -7l-6 -17h-81l5 17l20 6v109l-60 -131h-12l-57 125q0 -13 -1.5 -48.5t-2.5 -52.5l28 -8l-3 -17h-76l4 16l22 9q2 12 10 109q-2 6 -29 9z" />
</font>
</defs>
</svg>
