<?xml version="1.0" standalone="no"?>
<!DOCTYPE svg PUBLIC "-//W3C//DTD SVG 1.1//EN" "http://www.w3.org/Graphics/SVG/1.1/DTD/svg11.dtd" >
<svg xmlns="http://www.w3.org/2000/svg">
<metadata>
This is a custom SVG webfont generated by Font Squirrel.
Designer    : Robert Slimbach
Foundry URL : http://www.adobe.com/type
</metadata>
<defs>
<font id="webfontmJ3D4Lr2" horiz-adv-x="502" >
<font-face units-per-em="1000" ascent="735" descent="-265" />
<missing-glyph horiz-adv-x="235" />
<glyph unicode=" "  horiz-adv-x="235" />
<glyph unicode="&#x09;" horiz-adv-x="235" />
<glyph unicode="&#xa0;" horiz-adv-x="235" />
<glyph unicode="!" horiz-adv-x="232" d="M138 220l-31 -16q-23 286 -33 359l-19 48q45 29 116 38l9 -6q-4 -64 -42 -423zM121 117l8 3q11 -4 29.5 -25t26.5 -37l-2 -10q-6 -14 -25 -33.5t-32 -26.5l-9 -3q-32 19 -57 61l3 10q26 41 58 61z" />
<glyph unicode="&#x22;" horiz-adv-x="332" d="M113 474l-32 -16q-18 162 -23 187l-18 29q43 21 87 32h13q-19 -186 -27 -232zM265 478l-32 -17q-3 23 -11 90t-12 97l-18 29q35 17 86 32h14q-17 -175 -27 -231z" />
<glyph unicode="#" d="M324 406h-118l-37 -142h119zM92 470h89l43 169l44 5l-44 -174h118l43 169l44 5l-46 -174h93l-31 -65l-80 1l-36 -142h91l-29 -63l-78 1l-47 -187l-43 -6l48 193h-118l-47 -187l-44 -6l49 193l-104 -1l30 63h90l37 142h-103z" />
<glyph unicode="$" d="M229 633v86l35 9v-95q68 -3 107 -37q9 7 65 29l7 -5q-4 -62 -28 -141l-16 -9q-21 38 -37 91q-31 31 -98 34v-228q40 -13 59.5 -20t51 -23.5t47 -32.5t28 -43.5t12.5 -60.5q0 -47 -20 -82t-52.5 -54t-63 -28t-62.5 -12v-97l-35 -10v105q-50 2 -107.5 22t-92.5 48 q3 17 20 55.5t27 53.5l13 6q6 -16 29 -121q10 -7 42 -15t69 -9v237q-41 13 -68.5 25.5t-56 33.5t-43 51t-14.5 70q0 68 49 115.5t133 51.5zM229 378v217q-53 -6 -80.5 -35t-27.5 -71q0 -43 26.5 -67.5t81.5 -43.5zM264 276v-225q50 4 83 33.5t33 77.5q0 44 -28 68t-88 46z " />
<glyph unicode="%" horiz-adv-x="698" d="M186 653q67 0 105 -51t38 -121q0 -81 -41.5 -130.5t-104.5 -49.5q-61 0 -102 45t-41 126q0 84 45 132.5t101 48.5zM185 621q-39 0 -56.5 -44.5t-17.5 -101.5q0 -54 18.5 -98.5t57.5 -44.5q25 0 42 24.5t23 55t6 64.5q0 21 -2.5 42t-9.5 46t-23 41t-38 16zM539 666l32 -27 l-418 -679l-31 29zM516 340q66 0 104 -52t38 -121q0 -80 -41.5 -129.5t-104.5 -49.5q-61 0 -102 45t-41 126q0 84 44.5 132.5t102.5 48.5zM514 308q-39 0 -56.5 -43.5t-17.5 -102.5q0 -32 6.5 -62.5t25 -55.5t45.5 -25q25 0 41.5 24.5t22.5 55t6 64.5q0 21 -3 42.5t-10 46.5 t-22.5 40.5t-37.5 15.5z" />
<glyph unicode="&#x26;" horiz-adv-x="737" d="M197 322h-2q-34 -29 -51 -56t-17 -65q0 -66 47 -109t112 -43q71 0 123 53v2q-43 37 -109.5 104t-102.5 114zM709 18l-7 -20q-30 -12 -76 -12q-45 0 -86.5 22t-102.5 71q-86 -93 -186 -93q-86 0 -149 50.5t-63 139.5q0 63 58 112q42 35 81 62q-53 73 -53 143 q0 63 46 111.5t113 48.5h1q65 0 103 -37t39 -92q0 -56 -57 -101q-16 -12 -97 -67q35 -43 97.5 -103t97.5 -87q33 45 60 101t33 85l-15 64l4 5q28 0 72.5 -12.5t62.5 -25.5l-2 -6l-62 -44q-71 -122 -125 -191q130 -103 213 -124zM250 383l3 -1q104 70 104 145q0 38 -21 64 t-55 26h-1q-37 0 -61 -30.5t-24 -72.5q0 -60 55 -131z" />
<glyph unicode="'" horiz-adv-x="180" d="M113 475l-32 -17q-1 11 -9 83.5t-14 103.5l-18 29q43 21 87 32h13q-17 -175 -27 -231z" />
<glyph unicode="(" horiz-adv-x="326" d="M70 273q0 131 50 253t152 198l19 -22q-60 -62 -102.5 -169.5t-42.5 -260.5q0 -151 42.5 -258t102.5 -172l-19 -22q-102 76 -152 198.5t-50 254.5z" />
<glyph unicode=")" horiz-adv-x="326" d="M256 272q0 -130 -50 -252.5t-153 -199.5l-19 22q60 63 103 171t43 260t-43 259.5t-103 169.5l19 21q103 -76 153 -197.5t50 -253.5z" />
<glyph unicode="*" horiz-adv-x="366" d="M191 488l7 4l90 -41l21 -4q-2 -17 -21 -40t-35 -26l-8 21zM173 520l-12 -4l-88 38l-23 4q2 17 20.5 41.5t32.5 26.5l9 -20zM164 503l-3 -11l-82 -60l-14 -17q-11 6 -21 38q-7 20 -7 33q0 8 2 13l19 -4zM197 503l2 12l81 61l15 15q13 -10 23 -41q7 -23 7 -36q0 -5 -1 -9 l-22 5zM193 526l-10 -2l-11 106l-5 19q6 3 17.5 3t28.5 -3q35 -5 39 -13l-13 -16zM173 479l8 5l13 -105l7 -25q-5 -2 -13 -2q-13 0 -33 4q-33 7 -43 18l16 17z" />
<glyph unicode="+" horiz-adv-x="590" d="M325 -3l-60 -12v225h-200l12 51h188v192l60 12v-204h199l-12 -51h-187v-213z" />
<glyph unicode="," horiz-adv-x="228" d="M50 -124l-20 25q68 61 68 123q0 21 -10 36l-41 22v15l78 47h15q11 -4 23 -27q13 -25 13 -61q0 -49 -32 -96q-33 -47 -94 -84z" />
<glyph unicode="-" horiz-adv-x="367" d="M282 212l-238 -27l33 72l51 -1l195 11l1 -6z" />
<glyph unicode="." horiz-adv-x="228" d="M113 119l6 3q12 -5 31.5 -26t27.5 -38l-3 -9q-7 -15 -26.5 -35.5t-32.5 -26.5l-8 -3q-15 9 -32 27.5t-26 34.5l3 10q28 44 60 63z" />
<glyph unicode="/" horiz-adv-x="365" d="M100 -56h-52l225 733h52z" />
<glyph unicode="0" d="M256 653q97 0 157.5 -86.5t60.5 -241.5q0 -91 -20 -159.5t-53 -106t-71 -55t-80 -17.5q-41 0 -78 17t-70 53t-53 102.5t-20 154.5q0 163 69.5 251t157.5 88zM250 618q-44 0 -74 -47.5t-42 -112.5t-12 -140q0 -71 13.5 -136.5t45 -112.5t74.5 -47q62 0 94 83.5t32 213.5 q0 69 -11 133t-42 115t-78 51z" />
<glyph unicode="1" d="M217 566h-131l10 22q5 2 36 12l78 26q46 15 79 27h10q0 -47 3 -321t3 -280l127 -30l-8 -23q-28 0 -84 0.5t-84 0.5q-30 0 -88 -0.5t-86 -0.5l8 23l118 30q9 162 9 514z" />
<glyph unicode="2" d="M33 12l38 46q13 8 19 14q110 101 180 199q66 92 66 184q0 65 -35 107t-97 42q-37 0 -77 -19q-4 -23 -15 -70t-17 -59l-15 -10q-27 42 -45 105q40 42 96.5 72t114.5 30q33 0 64 -10t59 -30.5t45 -58.5q18 -39 18 -90q0 -62 -30 -114q-31 -54 -94 -119q-62 -65 -170 -161 v-2q30 0 136.5 3t114.5 3q43 56 58 72l24 -1q-4 -26 -19 -80t-24 -70q-8 0 -87.5 2.5t-133.5 2.5h-174v12z" />
<glyph unicode="3" d="M87 153l14 7q13 -32 31 -123q25 -10 63 -10q72 0 118 42.5t46 112.5q0 60 -33 95.5t-95 43.5q-74 -16 -99 -18l-5 8q3 10 17 28.5t24 24.5q28 0 64 -4q101 33 101 130q0 54 -32.5 87.5t-88.5 33.5q-41 0 -74 -20q-11 -77 -26 -111l-15 -8q-23 33 -46 97q99 86 197 86 q91 0 134 -45.5t43 -102.5q0 -62 -39 -98t-105 -59v-4q91 -9 134.5 -51.5t44.5 -108.5q0 -62 -38 -108.5t-92.5 -68t-114.5 -21.5q-59 0 -106 17.5t-70 37.5q22 72 48 110z" />
<glyph unicode="4" d="M368 193l2 -142l93 -29l-8 -23q-23 0 -66 0.5t-66 0.5q-25 0 -75 -0.5t-74 -0.5l9 23l95 29q0 13 2 58.5t2 80.5l-254 -3l-18 32q37 70 142.5 228.5t124.5 178.5q38 20 90 27l2 -423h57q33 48 54 64l12 -1q0 -15 -9.5 -77.5t-13.5 -75.5l-13 -6q-16 20 -31 60zM282 231 l8 352l-4 1l-46 -74l-42 -66l-32 -50q-22 -36 -32 -54l-26 -46l-32 -59q70 -4 206 -4z" />
<glyph unicode="5" d="M81 294l-15 11q13 77 31 201l20 138q57 -3 230 -3q31 0 94 21l9 -19q-25 -33 -73 -64q-14 -10 -39 -11q-56 -3 -186 -3l-18 -99l-21 -120l2 -1q76 39 145 39q55 0 95.5 -17t61 -44.5t29.5 -56t9 -57.5q0 -57 -24 -101.5t-62.5 -69.5t-80.5 -38t-83 -13q-48 0 -93 15 t-67 32q25 82 46 115l15 7q21 -51 35 -126q20 -5 45 -5q72 0 121.5 47.5t49.5 123.5q0 58 -32.5 99.5t-107.5 41.5q-67 0 -136 -43z" />
<glyph unicode="6" d="M426 662l13 -29q-126 -19 -211.5 -100.5t-95.5 -206.5l2 -1q96 72 162 72t121 -49.5t55 -143.5q0 -101 -64.5 -159t-149.5 -58q-106 0 -165.5 75t-59.5 196q0 160 103 271q54 59 133.5 94t156.5 39zM256 341q-58 0 -111 -49q-15 -15 -15 -56q0 -85 35 -150t99 -65 q58 0 87 50t29 114q0 74 -35.5 115t-88.5 41z" />
<glyph unicode="7" d="M118 -12l-8 11q16 52 137 260q105 184 157 308q-33 2 -144 2q-93 0 -157 -2q-21 -51 -41 -82l-18 -7q-3 13 -5 81q-1 45 -1 68v16l3 3q40 -5 61 -5h190q128 0 173 1l-3 -26q-8 -47 -127 -285.5t-127 -271.5l-6 -59z" />
<glyph unicode="8" d="M259 653q82 0 129.5 -46.5t47.5 -110.5q0 -27 -9.5 -49.5t-31.5 -43.5t-34 -30.5t-41 -29.5v-2q46 -26 74 -48q65 -51 65 -127q0 -68 -56 -123.5t-158 -55.5q-91 0 -146.5 49t-55.5 114q0 50 28.5 84.5t104.5 83.5l-1 3q-30 18 -50 36q-56 49 -56 121q0 79 57.5 127 t132.5 48zM251 619q-41 0 -73 -30.5t-32 -84.5q0 -50 42 -88q27 -22 99 -58q73 56 73 132q0 55 -31 92q-30 37 -78 37zM259 21q48 0 81.5 31.5t33.5 85.5q0 52 -40 88q-35 34 -126 77q-81 -57 -81 -139q0 -65 38.5 -104t93.5 -39z" />
<glyph unicode="9" d="M84 -18l-15 29q22 5 43 11.5t66 29t79 51t66 81t42 117.5l-2 1q-74 -54 -142 -54q-74 0 -129 52t-55 140q0 95 65.5 154t148.5 59q59 0 103 -25.5t67 -67t34 -84.5t11 -88q0 -91 -33 -166t-87.5 -124.5t-121.5 -79t-140 -36.5zM245 619q-59 0 -89 -49q-29 -46 -29 -109 q0 -75 41 -117q40 -42 97 -42q47 0 81 25q17 11 20 28q4 28 4 52q0 93 -33.5 152.5t-91.5 59.5z" />
<glyph unicode=":" horiz-adv-x="227" d="M113 119l6 3q12 -5 31.5 -26t27.5 -38l-3 -9q-7 -15 -26.5 -35.5t-32.5 -26.5l-8 -3q-15 9 -32 27.5t-26 34.5l3 10q28 44 60 63zM113 428l6 3q12 -4 31.5 -25t27.5 -38l-3 -10q-6 -15 -25.5 -35t-33.5 -28l-8 -2q-15 9 -32 28t-26 35l3 9q26 43 60 63z" />
<glyph unicode=";" horiz-adv-x="227" d="M112 428l8 2q11 -5 30 -25.5t28 -37.5l-3 -10q-6 -15 -25.5 -35t-32.5 -28l-9 -2q-15 9 -32 28t-26 35l3 9q25 41 59 64zM48 -124l-19 25q68 61 68 123q0 21 -10 36l-41 22v15l78 47h14q12 -5 24 -28q13 -24 13 -60q0 -49 -32 -96q-33 -48 -95 -84z" />
<glyph unicode="&#x3c;" horiz-adv-x="547" d="M66 191l12 61l403 208l-9 -62l-350 -178v-2l359 -181l-9 -57z" />
<glyph unicode="=" horiz-adv-x="590" d="M522 173l-13 -51h-440l13 51h440zM522 351l-13 -51h-440l13 51h440z" />
<glyph unicode="&#x3e;" horiz-adv-x="547" d="M481 252l-12 -60l-402 -210l9 61l345 179v3l-354 178l9 57z" />
<glyph unicode="?" horiz-adv-x="391" d="M200 650h2q62 0 108 -37t46 -109q0 -37 -18.5 -65.5t-55.5 -61.5q-85 -74 -85 -109q0 -25 16 -51l-23 -13q-22 8 -45.5 38.5t-24.5 64.5q21 49 88 110q38 35 52 58t14 47q0 32 -24.5 60t-70.5 28q-28 0 -48 -11q-10 -59 -29 -103l-14 -7q-27 41 -44 98q30 26 74.5 44.5 t81.5 18.5zM183 117l9 3q11 -5 30 -25.5t26 -36.5l-2 -10q-6 -14 -25.5 -33.5t-32.5 -26.5l-9 -3q-34 20 -56 61l2 10q32 46 58 61z" />
<glyph unicode="@" horiz-adv-x="816" d="M480 363q-41 0 -82 -38q-40 -37 -69.5 -100t-29.5 -113q0 -38 21 -38q25 0 71.5 40t86.5 105q27 39 52 125q-18 19 -50 19zM616 409l6 -5l-27 -51q-33 -114 -66 -279q-3 -11 5 -11q78 0 132 60.5t54 158.5q0 112 -74 182t-193 70q-82 0 -148 -30.5t-105.5 -81t-60.5 -112 t-21 -127.5q0 -148 88 -230t217 -82q170 0 295 122l18 -25q-137 -148 -336 -148q-158 0 -256 99.5t-98 259.5q0 165 115 279t295 114q137 0 227 -80t90 -215q0 -110 -83 -184q-79 -71 -194 -71h-9q-23 0 -37 6q5 21 21.5 80t19.5 72h-4q-46 -69 -102.5 -113t-100.5 -44 q-28 0 -44.5 23.5t-16.5 62.5q0 61 35 131.5t99 115.5q61 45 119 45q40 0 64 -26l6 20z" />
<glyph unicode="A" horiz-adv-x="710" d="M297 633l75 49l6 -5q-1 -24 14 -69q28 -83 209 -530q14 -19 32.5 -29.5t68.5 -26.5l-7 -23q-74 2 -118 2q-30 0 -106 -2l6 21l37 29q-8 28 -75 193q-73 -5 -167 -5h-56q-51 -130 -68 -181l88 -34l-6 -23q-70 2 -118 2q-33 0 -103 -2l6 24l70 33q25 51 94 213t125 306 q4 11 4 21q0 5 -1 10zM331 539h-2l-51 -133q-31 -83 -43 -118q12 0 89.5 -2t100.5 -2z" />
<glyph unicode="B" horiz-adv-x="603" d="M39 629l8 23q149 13 229 13q246 0 246 -151q0 -67 -49 -105t-116 -49v-7q208 -21 208 -161q0 -195 -334 -195q-97 0 -193 3l7 24l72 29q6 45 6 234v322zM212 627v-260q98 2 156 32.5t58 107.5q0 67 -53 97q-43 23 -131 23h-30zM461 193q0 24 -5 43t-21 38t-42.5 31.5 t-72.5 20.5q-41 6 -94 6h-14v-28q0 -232 3 -270q92 0 139.5 14t72.5 43q34 38 34 102z" />
<glyph unicode="C" horiz-adv-x="687" d="M421 677h2q97 0 156 -38q29 18 76 29l6 -4q-3 -30 -17.5 -88t-22.5 -73l-18 -10q-19 38 -34 111q-17 12 -53 21t-73 9q-138 0 -218 -85.5t-80 -219.5q0 -131 83.5 -216t225.5 -85q42 0 66 8q84 88 117 113l23 -5q-6 -23 -32 -73t-36 -58q-28 -13 -80 -22.5t-93 -9.5 q-72 0 -138 20.5t-120 61t-86 108t-32 153.5q0 85 35 154.5t91 111.5t121 64.5t131 22.5z" />
<glyph unicode="D" horiz-adv-x="735" d="M36 630l7 22q143 13 231 13q196 0 306.5 -80t110.5 -241q0 -70 -20.5 -126t-56 -92t-69 -57.5t-71.5 -35.5q-98 -36 -270 -36q-48 0 -174 3l8 24l79 26q6 20 6 293v269zM212 627v-284q0 -297 4 -309q192 0 278 77q94 82 94 229q0 142 -92 216q-86 71 -269 71h-15z" />
<glyph unicode="E" horiz-adv-x="565" d="M36 637l7 22q21 0 62 -0.5t61 -0.5h248q30 9 83 12l3 -3q-3 -41 -26 -146l-16 -9q-18 39 -43 108l-203 -7v-250q148 0 254 12l4 -9q-4 -8 -28 -33t-32 -25q-6 0 -94 5.5t-104 5.5q0 -189 4 -272l212 -8q2 2 37.5 52t49.5 66l20 1q-2 -24 -14.5 -80t-20.5 -80 q-65 2 -181 2h-158q-23 0 -69.5 -0.5t-67.5 -0.5l8 24l85 29q6 24 6 291v266z" />
<glyph unicode="F" horiz-adv-x="531" d="M40 638l9 21q18 0 55.5 -0.5t56.5 -0.5h253q67 12 81 13l3 -3q-3 -56 -23 -150l-18 -10q-22 51 -42 112l-203 -9v-264q154 0 260 12l4 -10q-4 -7 -28 -32t-29 -25q-11 0 -101 5.5t-106 5.5q0 -194 4 -248l111 -32l-8 -24q-40 1 -150 1q-83 0 -127 -1l6 24l71 32 q4 19 4 286v268z" />
<glyph unicode="G" horiz-adv-x="743" d="M368 289l45 30q95 9 274 9q-9 -85 -29.5 -205.5t-29.5 -137.5h-7q-41 7 -50 33q-82 -37 -163 -37q-162 0 -263.5 94.5t-101.5 251.5q0 149 109 249.5t276 100.5q96 0 161 -43q36 25 77 38l7 -5q-2 -27 -18 -91t-24 -81l-19 -9q-16 37 -33 113q-55 33 -137 33 q-131 0 -214 -83t-83 -220q0 -128 79.5 -213t220.5 -85q70 0 122 20q2 45 16 220l-211 6z" />
<glyph unicode="H" horiz-adv-x="771" d="M43 635l9 24q18 0 57 -0.5t58 -0.5q21 0 52 0.5t43 0.5l-7 -24l-43 -31v-227h348v226l-49 35l8 21q15 0 43 -0.5t43 -0.5q25 0 69 0.5t63 0.5l-8 -25l-80 -30v-263q0 -265 7 -284l92 -33l-9 -25q-80 2 -134 2q-37 0 -93 -2l7 25l40 31q1 33 1 279q-34 -6 -129 -6h-219 q0 -243 1 -269l46 -37l-8 -23q-52 2 -87 2q-51 0 -131 -2l9 24l75 30q6 150 6 294v259z" />
<glyph unicode="I" horiz-adv-x="336" d="M44 636l7 23q19 0 58 -0.5t59 -0.5t62 0.5t62 0.5l-7 -24l-73 -29v-263q0 -250 5 -290l92 -30l-7 -24q-17 0 -61.5 0.5t-72.5 0.5q-26 0 -72.5 -0.5t-64.5 -0.5l7 24l79 30q6 24 6 290v264z" />
<glyph unicode="J" horiz-adv-x="317" d="M30 635l9 24q21 0 61.5 -0.5t63.5 -0.5q20 0 61.5 0.5t61.5 0.5l-6 -25l-69 -30v-459q0 -63 -16 -106q-24 -73 -69 -129t-79 -78l-26 16v7q61 51 82 114q19 60 19 149v9q1 36 1 96.5t-1 146.5q-2 200 -4 236z" />
<glyph unicode="K" horiz-adv-x="676" d="M667 659l-13 -25l-50 -14q-39 -10 -56 -15q-15 -3 -33 -19q-53 -51 -193 -214v-2q89 -106 223 -251l59 -63l42 -44q14 -15 20 -22l-12 -5q-66 3 -107 24t-82 63q-108 108 -227 252v8l166 192q46 55 71 93q-3 16 -3 30q0 7 1 14q38 2 65 2q7 0 13 -1q31 0 69 -1.5t47 -1.5 zM44 638l7 22q19 0 57 -0.5t57 -0.5q21 0 63 0.5t64 0.5l-7 -23l-73 -31v-263q0 -250 5 -290l92 -30l-7 -24q-18 0 -64.5 0.5t-75.5 0.5q-25 0 -69.5 -0.5t-61.5 -0.5l6 24l80 30q6 25 6 290v264z" />
<glyph unicode="L" horiz-adv-x="563" d="M40 635l8 24q16 0 55.5 -0.5t63.5 -0.5q23 0 64 0.5t60 0.5l-9 -24l-70 -30v-261q0 -264 4 -296l214 -13q74 109 93 131l19 1q-3 -34 -14.5 -92t-19.5 -79q-9 0 -49 1t-116 2t-174 1q-25 0 -72 -0.5t-68 -0.5l7 23l83 29q4 28 4 292v262z" />
<glyph unicode="M" horiz-adv-x="933" d="M61 633l10 25l162 1q1 -11 11 -46l225 -464h2l229 470q3 7 3 40l185 -1l-8 -25l-85 -29q2 -92 11.5 -311t12.5 -239l91 -31l-5 -24q-18 0 -63 0.5t-67 0.5q-21 0 -61.5 -0.5t-59.5 -0.5l8 24l62 30q-2 66 -4.5 253t-3.5 255h-3l-259 -570l-19 -2l-242 547h-3 q-24 -307 -29 -480l90 -34l-6 -23q-18 0 -57.5 0.5t-61.5 0.5q-17 0 -52 -0.5t-51 -0.5l5 23l71 33q22 124 60 526q-7 21 -21 28t-77 24z" />
<glyph unicode="N" horiz-adv-x="766" d="M269 23l-7 -24q-19 0 -58 0.5t-61 0.5q-18 0 -57.5 -0.5t-57.5 -0.5l6 24l82 36q13 179 18 500q-8 12 -14 20l-10 14q-5 6 -12 11t-10 7.5t-12 6.5l-13 4q-4 2 -17 6l-21 6l9 25l137 5q9 -20 38 -57q169 -213 407 -479h3q0 20 -3 229.5t-3 243.5l-85 35l10 23 q19 0 52.5 -0.5t48.5 -0.5q19 0 60.5 0.5t61.5 0.5l-6 -26l-85 -32q-11 -476 -11 -515q0 -62 -5 -102l-11 -5q-60 43 -173 175l-297 360h-2v-130q0 -270 7 -325z" />
<glyph unicode="O" horiz-adv-x="785" d="M391 677q49 0 97.5 -12.5t94 -40t80.5 -66t56.5 -95t22.5 -122.5v-6q0 -86 -30 -155q-30 -72 -81.5 -114t-112 -63.5t-124.5 -21.5t-125 21t-112.5 61.5t-82.5 107.5t-31 151q0 85 32.5 155t84 112t111.5 65t120 23zM385 640q-110 0 -173.5 -85t-63.5 -217 q0 -129 71.5 -225t185.5 -96q61 0 107.5 27t73 73t39 99t12.5 113q0 128 -71.5 219.5t-180.5 91.5z" />
<glyph unicode="P" horiz-adv-x="568" d="M42 627l8 23q139 15 209 15q123 0 189 -42q82 -50 82 -154q0 -56 -22.5 -98.5t-57.5 -64.5t-70 -32.5t-68 -10.5q-26 0 -40 5l-10 25q84 7 126.5 52t42.5 119q0 163 -202 163h-17v-271q0 -105 1.5 -175.5t3 -97t1.5 -27.5l110 -33l-9 -24q-25 0 -77 0.5t-78 0.5 q-20 0 -60.5 -0.5t-60.5 -0.5l6 23l70 32q4 20 4 299v254z" />
<glyph unicode="Q" horiz-adv-x="785" d="M391 677q60 0 119.5 -20t112 -59.5t85.5 -106.5t34 -152v-7q0 -61 -16 -113q-17 -55 -43 -91.5t-61 -65t-66.5 -44t-63.5 -24.5v-2q98 -56 297 -161l-11 -16q-11 -1 -23 -1q-91 0 -196 50q-31 15 -187 104q-9 5 -57 20q-57 17 -103.5 43.5t-85.5 66.5t-61 97.5t-22 127.5 q0 84 31.5 153.5t82.5 112t111.5 65.5t122.5 23zM385 640q-110 0 -174 -88t-64 -219q0 -124 71.5 -218t192.5 -104q77 7 129.5 56.5t74.5 116.5t22 147q0 127 -71 218t-181 91z" />
<glyph unicode="R" horiz-adv-x="620" d="M39 620l9 25q92 20 235 20q245 0 245 -168q0 -126 -157 -176v-2q44 -74 153 -218l43 -56l28 -35q9 -11 14 -18l-7 -8q-95 5 -161 79q-76 84 -178 246l3 6q80 21 123 59t43 108q0 36 -12 63t-31.5 42.5t-48.5 25t-59 11.5q-21 2 -47 2h-21v-307q0 -231 2 -264l98 -32 l-7 -24q-24 0 -71 0.5t-71 0.5q-22 0 -65 -0.5t-64 -0.5l7 24l75 31q7 133 7 264v290z" />
<glyph unicode="S" horiz-adv-x="512" d="M264 677q62 0 105 -32q20 16 67 32l9 -5q-14 -100 -36 -152l-15 -8q-11 22 -35 98q-33 25 -88 25q-57 0 -91 -33.5t-34 -81.5q0 -63 58 -98q18 -11 42 -24l56 -28l52 -28q68 -36 93 -76t25 -87q0 -56 -24 -97t-62 -61.5t-75 -30t-73 -9.5q-56 0 -114 21.5t-82 44.5 q4 19 21 66.5t24 59.5l16 7q5 -13 31 -140q34 -18 92 -18h6q68 1 108.5 35t40.5 95q0 64 -72 106q-11 6 -66.5 34.5t-83.5 46.5q-95 56 -95 156q0 72 54.5 127t145.5 55z" />
<glyph unicode="T" horiz-adv-x="670" d="M125 659h428q43 10 82 14l2 -4q-5 -61 -29 -159l-16 -8q-30 82 -41 121l-175 -8v-248q0 -139 6 -313l117 -31l-9 -24q-104 2 -157 2q-52 0 -162 -2l7 24l106 31q3 51 3 280v281l-164 8q-48 -96 -61 -116l-16 -5q-2 28 -2 86t2 81l3 4q26 -3 76 -14z" />
<glyph unicode="U" horiz-adv-x="735" d="M26 635l8 24q20 0 60 -0.5t59 -0.5t56.5 0.5t52.5 0.5l-6 -24l-54 -31q-1 -124 -1 -384q0 -65 29 -107q53 -75 164 -75q104 0 158 70q33 45 36 128q1 52 1 127q0 100 -2 241l-73 31l7 24q17 0 49 -0.5t47 -0.5q20 0 60 0.5t57 0.5l-6 -24l-81 -31q-3 -24 -12 -356 q-2 -97 -41 -156q-70 -109 -222 -109q-165 0 -230 112q-29 47 -31 143q-1 53 -1 100v46q1 34 1 66t-1 64q0 63 -1 91z" />
<glyph unicode="V" horiz-adv-x="694" d="M223 659l-7 -25l-30 -28q34 -91 193 -490h2q144 387 177 489l-37 30l9 24q9 0 32.5 -0.5t36.5 -0.5q18 0 51.5 0.5t49.5 0.5l-6 -24q-59 -23 -81 -45q-42 -82 -223 -547q-18 -33 -43 -62h-12q-82 223 -238 603q-14 19 -31.5 28.5t-59.5 23.5l10 23q13 0 49 -0.5t59 -0.5 q17 0 50.5 0.5t48.5 0.5z" />
<glyph unicode="W" horiz-adv-x="1020" d="M9 635l10 24q15 0 51.5 -0.5t57.5 -0.5q61 0 90 1l-6 -24l-29 -24q15 -41 205 -505h3q38 75 113 240q-52 127 -110 251q-23 23 -78 38l9 24q14 0 49.5 -0.5t52.5 -0.5q38 0 55 1l1 -4l5 -45q14 -42 70 -170h2q60 131 74 169l2 46l2 4q14 -1 45 -1q18 0 50 0.5t46 0.5 l-7 -24q-64 -19 -92 -47q-54 -95 -102 -194l122 -283h1q101 264 180 496l-33 28l9 24q18 -1 59 -1q20 0 57 0.5t53 0.5l-6 -24q-57 -16 -86 -43q-25 -45 -221 -548q-14 -31 -44 -63h-8q-8 17 -29 65l-51 122l-55 128h-2l-124 -256q-20 -35 -46 -59h-7l-118 283 q-109 263 -140 331q-23 23 -80 40z" />
<glyph unicode="X" horiz-adv-x="697" d="M42 636l11 23q21 0 65 -0.5t66 -0.5q18 0 48 0.5t43 0.5l-6 -25l-26 -27q54 -99 119 -201h2q65 102 119 199l-30 31l10 23q11 0 34 -0.5t33 -0.5q20 0 59 0.5t58 0.5l-7 -25q-70 -17 -109 -51q-65 -88 -148 -213q155 -262 171 -287q14 -23 39 -31l91 -30l-9 -23 q-25 0 -73.5 0.5t-72.5 0.5q-17 0 -50 -0.5t-50 -0.5l6 24l31 26q-25 49 -137 239h-2l-45 -73l-54 -87q-23 -38 -40 -70l46 -35l-7 -24q-12 0 -42.5 0.5t-46.5 0.5q-19 0 -57.5 -0.5t-58.5 -0.5l7 24l66 24q21 6 43 33q57 72 170 246q-118 204 -150 254q-16 26 -40 32z" />
<glyph unicode="Y" horiz-adv-x="631" d="M6 636l10 23q78 -2 117 -2q32 0 84 2l-6 -25l-23 -21q15 -31 153 -276h3l142 271l-35 26l9 25q40 -2 62 -2q35 0 111 2l-9 -25l-46 -18q-19 -4 -29.5 -11.5t-21.5 -23.5q-75 -114 -157 -267q-9 -18 -9 -37q0 -202 3 -223l118 -31l-8 -24q-21 0 -73.5 0.5t-84.5 0.5 q-31 0 -84 -0.5t-74 -0.5l7 22l101 33q7 63 7 213q0 18 -10 37l-167 287q-27 29 -90 45z" />
<glyph unicode="Z" horiz-adv-x="635" d="M599 659l1 -11l-422 -602v-3q46 0 182 -2t150 -2l28 42l38 55q18 26 28 38l15 2q-2 -26 -12.5 -92.5t-16.5 -87.5q-7 0 -88.5 1t-209 2t-245.5 1l-6 9l434 605l-5 2q-30 0 -145 3q-86 2 -135 2h-29q-6 -12 -26 -57.5t-27 -59.5l-19 -8q-5 42 -9 169l4 4q23 -3 47 -6.5 t28 -3.5h440z" />
<glyph unicode="[" horiz-adv-x="326" d="M175 659v-776l114 -25l-8 -27h-167v881h175l-8 -28z" />
<glyph unicode="\" horiz-adv-x="345" d="M304 -56h-52l-213 733h52z" />
<glyph unicode="]" horiz-adv-x="326" d="M151 -117v776l-116 25l10 28h166v-881h-176l9 27z" />
<glyph unicode="^" horiz-adv-x="519" d="M454 293l-56 -8l-139 307h-2l-134 -299l-58 -9l164 355l58 9z" />
<glyph unicode="_" horiz-adv-x="483" d="M483 -99v-48h-483v48h483z" />
<glyph unicode="`" horiz-adv-x="386" d="M242 515l-23 -22l-146 152v15q32 15 70 15h13z" />
<glyph unicode="a" horiz-adv-x="455" d="M285 258v21q-1 72 -27 98.5t-72 26.5q-30 0 -61 -18q-5 -68 -12 -101l-11 -5q-9 5 -32.5 36t-30.5 50q15 15 53 36.5t68 32.5q41 17 70 17q70 0 103.5 -47.5t33.5 -105.5q0 -34 -1 -111.5t-1 -111.5q25 -41 78 -58l-7 -16q-21 -13 -50 -13q-79 0 -99 57h-2 q-60 -59 -121 -59q-60 0 -93 37t-33 80q0 60 40 82q64 37 207 72zM125 122q0 -40 25.5 -59t55.5 -19q38 0 68 31q9 11 9 23l2 127q-85 -23 -125 -47q-35 -19 -35 -56z" />
<glyph unicode="b" horiz-adv-x="526" d="M76 -12v393q0 139 -3 252l-58 25l8 20q49 20 140 32q-3 -160 -3 -305q88 47 117 47q82 0 147 -58.5t65 -159.5q0 -64 -24.5 -113.5t-62.5 -77.5t-78 -42t-78 -14q-34 0 -98 32q-39 -23 -72 -31zM160 374v-325q39 -15 70 -15q75 0 121 53.5t46 134.5q0 74 -43 124t-114 50 q-41 0 -80 -22z" />
<glyph unicode="c" horiz-adv-x="453" d="M37 214q0 59 23.5 106t61 75t82 42.5t90.5 14.5q40 0 77 -12.5t50 -25.5q-16 -66 -37 -106l-15 -6q-16 37 -32 107q-11 7 -38 7q-79 0 -124 -56t-45 -134q0 -84 49 -137t129 -53q9 0 28 8q50 42 83 57l7 -14q-6 -19 -28 -46.5t-36 -37.5q-48 -16 -94 -16q-38 0 -76 12 t-74 37t-58.5 71t-22.5 107z" />
<glyph unicode="d" horiz-adv-x="539" d="M448 398v-325q31 -42 77 -59l-8 -17q-13 -10 -46 -10q-30 0 -59 14t-41 43h-2q-79 -57 -121 -57q-34 0 -69.5 13t-68 38.5t-53 69.5t-20.5 100q0 76 39.5 133.5t93.5 84t110 26.5q34 0 83 -30h1q0 98 -3 211l-63 26l9 19q50 20 144 32q-3 -156 -3 -312zM364 76v308 q-32 21 -74 21q-70 0 -116 -54t-46 -128q0 -73 44.5 -124.5t110.5 -51.5q41 0 81 29z" />
<glyph unicode="e" horiz-adv-x="454" d="M319 233h-190q-1 -5 -1 -14q0 -83 45.5 -131.5t114.5 -48.5q20 0 34 6q64 44 84 54l5 -16q-4 -16 -24.5 -40t-32.5 -32q-51 -24 -105 -24q-94 0 -153 61t-59 163q0 104 64.5 172.5t152.5 68.5q72 0 120.5 -46t48.5 -127q0 -25 -10 -32q-35 -14 -94 -14zM130 271h199 q5 12 5 30q0 48 -23.5 82t-64.5 34q-55 0 -85.5 -51t-30.5 -95z" />
<glyph unicode="f" horiz-adv-x="300" d="M22 -1l6 21l65 31q3 39 3 202v139l-67 15l16 32h51q0 138 69 210q58 61 135 61q49 0 73 -22q-19 -62 -34 -89l-14 -8q-19 27 -39 80q-10 2 -13 2q-37 0 -60.5 -39.5t-27.5 -112.5q-2 -30 -2 -82h128l-17 -33l-111 -13q-3 -60 -3 -132q0 -180 2 -208l95 -31l-7 -23 q-21 0 -67 0.5t-71 0.5q-18 0 -54.5 -0.5t-55.5 -0.5z" />
<glyph unicode="g" horiz-adv-x="480" d="M437 396l-71 -4v-2q34 -34 34 -97q0 -69 -50.5 -112.5t-126.5 -43.5q-45 0 -83 18q-28 -28 -28 -45q0 -14 15.5 -29.5t31.5 -16.5q69 7 125 7q47 0 84 -5q38 -5 63 -27q35 -31 35 -80q0 -79 -84 -140q-79 -62 -181 -62q-74 0 -123.5 33t-49.5 83q0 14 15 31l81 88v2 q-24 11 -45 32q-33 33 -33 65q0 20 69 78q-63 39 -63 120q0 65 50.5 114t137.5 49q24 0 76 -8q52 -10 72 -12l86 36l4 -10zM226 418q-42 0 -65.5 -36.5t-23.5 -86.5q0 -48 24 -85.5t68 -37.5q42 0 65.5 35t23.5 90q0 46 -24 83.5t-68 37.5zM240 -9q-60 0 -84 -11 q-15 -13 -31.5 -38.5t-16.5 -40.5q0 -45 39 -68.5t91 -23.5q67 0 111.5 29t44.5 84q0 51 -51 62q-34 7 -103 7z" />
<glyph unicode="h" horiz-adv-x="551" d="M463 301v-228q0 -13 4 -18t16 -10l53 -26l-7 -22h-27q-66 0 -132 8q9 76 9 255q0 134 -108 134q-53 0 -98 -36q0 -288 3 -306l72 -31l-8 -22q-18 0 -54.5 0.5t-55.5 0.5q-18 0 -53 -0.5t-52 -0.5l7 22l54 31q3 20 3 232q0 240 -3 349l-58 26l6 19q44 15 142 32 q-3 -144 -3 -317l2 -1q77 60 139 60q71 0 110 -46.5t39 -104.5z" />
<glyph unicode="i" horiz-adv-x="268" d="M134 658l6 1q11 -4 27 -22t23 -34l-2 -8q-6 -14 -24 -32.5t-29 -24.5l-8 -2q-30 18 -49 57l2 8q24 39 54 57zM41 404l5 19q72 23 133 29v-202q0 -142 2 -198l71 -29l-7 -24q-70 2 -112 2q-26 0 -104 -2l7 24l57 29q2 68 2 200v126z" />
<glyph unicode="j" horiz-adv-x="253" d="M127 658l7 1q10 -4 26 -22.5t23 -33.5l-2 -8q-6 -13 -23.5 -31t-29.5 -26l-8 -2q-13 8 -28 25.5t-22 31.5l3 8q26 39 54 57zM32 405l6 18q21 8 67 18t70 11v-364q0 -94 -38 -167q-56 -107 -133 -164l-26 14l-1 9q37 28 61 63t35 78t14.5 80t3.5 89q0 232 -3 291 q-41 17 -56 24z" />
<glyph unicode="k" horiz-adv-x="500" d="M498 -11l-6 -5q-89 5 -136 49q-71 66 -165 197l-1 5q96 109 138 165l19 52q85 0 135 -13l-14 -23q-7 -4 -26 -11l-44 -16q-25 -9 -34 -12q-40 -39 -96 -102v-3q43 -59 230 -283zM175 52l73 -30l-6 -23q-74 2 -114 2q-35 0 -105 -2l6 22l57 30q3 31 3 229q0 246 -3 353 l-56 26l9 20q72 22 136 31q-3 -159 -3 -346q0 -278 3 -312z" />
<glyph unicode="l" horiz-adv-x="261" d="M175 50l71 -27l-9 -24q-76 2 -106 2q-38 0 -112 -2l5 22l63 29q2 82 2 347q0 190 -3 239l-58 24l10 21q60 20 138 29q-3 -154 -3 -309q0 -203 2 -351z" />
<glyph unicode="m" horiz-adv-x="840" d="M96 254v119l-53 22l7 20q19 9 64 22.5t66 14.5l-5 -81h2q98 81 156 81q40 0 72.5 -22.5t46.5 -60.5q98 83 165 83q61 0 98 -42t37 -108v-238q0 -10 19 -20l53 -23l-5 -22q-17 0 -53 0.5t-55 0.5q-15 0 -47.5 -0.5t-49.5 -0.5l6 23l44 30q4 77 4 176v41q0 123 -93 123 q-53 0 -115 -56q6 -38 6 -83v-201l59 -30l-7 -23q-14 0 -46 0.5t-48 0.5t-48.5 -0.5t-49.5 -0.5l6 24l48 28q2 120 2 226q0 114 -96 114q-46 0 -106 -55q0 -254 2 -285l60 -28l-6 -24q-11 0 -45.5 0.5t-56.5 0.5q-16 0 -51 -0.5t-50 -0.5l6 24l55 28q2 40 2 203z" />
<glyph unicode="n" horiz-adv-x="557" d="M96 283v88l-53 23l7 21q14 8 61 22t69 15l-6 -79h2q97 79 158 79q71 0 103 -47t32 -112v-227q0 -13 14 -19l59 -25l-7 -23q-12 0 -51.5 0.5t-60.5 0.5q-14 0 -43.5 -0.5t-45.5 -0.5l7 25l40 29q4 60 4 232q0 54 -26.5 80.5t-67.5 26.5q-29 0 -59.5 -16.5t-51.5 -38.5 q0 -267 2 -287l56 -27l-6 -24q-26 1 -96 1q-18 0 -53.5 -0.5t-51.5 -0.5l7 23l55 28q3 24 3 233z" />
<glyph unicode="o" horiz-adv-x="525" d="M266 452q94 0 158 -64.5t64 -163.5q0 -106 -64 -171.5t-161 -65.5q-90 0 -157.5 61.5t-67.5 165.5q0 108 71 173t157 65zM261 417q-60 0 -93 -57.5t-33 -137.5q0 -77 36.5 -138.5t99.5 -61.5q43 0 71.5 31.5t38.5 72.5t10 89q0 78 -34.5 140t-95.5 62z" />
<glyph unicode="p" horiz-adv-x="538" d="M173 454l-4 -65l2 -1q92 64 136 64q71 0 132 -57t61 -156q0 -63 -24.5 -114t-62 -79.5t-78 -43.5t-77.5 -15q-35 0 -83 31l-2 -2q0 -92 4 -188l93 -31l-9 -23q-90 2 -131 2q-35 0 -105 -2l9 25l51 26q4 136 4 275v277l-56 30l9 20q13 6 59.5 16t71.5 11zM173 356v-300 q34 -21 75 -21q66 0 113.5 52t47.5 136q0 71 -39.5 120.5t-103.5 49.5q-42 0 -93 -37z" />
<glyph unicode="q" horiz-adv-x="532" d="M449 370v-236q0 -63 0.5 -175.5t0.5 -131.5l85 -29l-7 -24q-82 2 -124 2q-39 0 -121 -2l6 23l71 29q1 27 2.5 100t2.5 103l-2 1q-73 -43 -110 -43q-90 0 -152.5 62.5t-62.5 162.5q0 97 72 168.5t169 71.5q45 0 98 -38q16 12 48 24t53 14l3 -6q-7 -37 -32 -76zM365 67v314 q-31 24 -74 24q-67 0 -113.5 -53.5t-46.5 -128.5q0 -80 45.5 -129.5t109.5 -49.5q44 0 79 23z" />
<glyph unicode="r" horiz-adv-x="383" d="M44 398l8 20q14 7 54.5 20t60.5 14q10 -39 10 -83v-15h2q28 49 67 73.5t72 24.5q34 0 49 -17q-2 -21 -12.5 -55.5t-20.5 -53.5l-12 -7q-19 26 -36 67q-6 3 -15 3q-23 0 -50 -25t-41 -61v-253l101 -29l-5 -22q-76 2 -142 2q-44 0 -104 -2l5 22l57 30q4 105 4 318z" />
<glyph unicode="s" horiz-adv-x="388" d="M199 452q38 0 74 -24q28 18 52 26l8 -7q0 -15 -8.5 -60t-15.5 -61l-14 -6q-15 28 -35 77q-20 17 -59 17q-36 0 -56 -20t-20 -49q0 -34 36 -55q17 -10 62 -30t58 -27q76 -37 76 -106q0 -38 -18.5 -67t-47 -44t-56.5 -22t-54 -7q-82 0 -145 43q0 14 9 56t14 53l14 8 q2 -4 47 -114q25 -10 61 -10q40 0 66.5 21t26.5 52q0 41 -40 60q-25 14 -97 47q-88 42 -88 119q0 52 39.5 91t110.5 39z" />
<glyph unicode="t" horiz-adv-x="332" d="M170 439h153l-19 -36l-134 -12q0 -14 -0.5 -113t-0.5 -168q0 -28 16 -47q21 -15 50 -15q49 0 81 24l4 -2l-1 -31q-42 -52 -116 -52q-59 0 -96 42q-23 32 -23 108v254l-67 13l17 35h52q9 65 27 115q9 11 29 20.5t31 9.5z" />
<glyph unicode="u" horiz-adv-x="543" d="M84 384l-57 24l10 21q50 16 136 16q-7 -79 -7 -293q0 -47 18 -73q27 -29 73 -29q31 0 62.5 16t46.5 42v262q-5 12 -18.5 19.5t-50.5 20.5l10 20q60 15 130 15h16q-3 -47 -3 -369q25 -43 78 -57l-6 -17q-22 -13 -57 -13q-81 0 -96 75h-2q-71 -77 -146 -77q-63 0 -100 37 q-40 39 -40 124q0 32 1.5 116t1.5 120z" />
<glyph unicode="v" horiz-adv-x="465" d="M-6 417l9 23q27 -1 94 -1q60 0 90 1l-8 -26l-31 -25q16 -46 108 -280l2 -1q33 81 103 277l-43 31l7 24q17 -1 68 -1q60 0 83 1l-7 -25q-38 -16 -62 -45q-33 -62 -141 -335q-15 -32 -38 -53h-9q-3 7 -27 68l-63 156l-68 166q-19 26 -67 45z" />
<glyph unicode="w" horiz-adv-x="708" d="M200 440l-6 -25l-38 -26q10 -35 90 -276h2l91 232l-9 60q7 6 32.5 18.5t40.5 16.5l7 -5l5 -74q22 -62 98 -253h2q54 168 85 280l-52 28l9 24q12 0 38 -0.5t40 -0.5q13 0 39.5 0.5t39.5 0.5l-5 -24q-38 -15 -61 -38q-26 -64 -125 -350q-12 -18 -40 -46h-8l-117 297h-2 l-103 -250q-18 -27 -40 -47h-8q-84 250 -140 396q-17 22 -63 37l8 25q18 0 50.5 -0.5t48.5 -0.5q15 0 45.5 0.5t45.5 0.5z" />
<glyph unicode="x" horiz-adv-x="490" d="M190 402l66 -114h2q43 71 55 95q8 22 8 57q19 -1 56 -1q62 0 92 1l-7 -24q-72 -24 -102 -47q-59 -78 -84 -115q43 -82 104 -175q16 -25 38 -31l71 -24l-9 -24q-10 0 -68 -2.5t-88 -2.5q-42 84 -99 182h-2q-55 -88 -72 -124q3 -13 26 -32l-7 -22q-10 0 -36 0.5t-39 0.5 q-17 0 -46.5 -0.5t-41.5 -0.5l6 23l55 25q27 13 41 32q78 108 96 135q-85 148 -99 166q-19 16 -87 36l9 24q28 -1 89 -1q47 0 77 1z" />
<glyph unicode="y" horiz-adv-x="458" d="M310 416l8 24q10 0 33.5 -1t34.5 -1q16 0 44.5 1t40.5 1l-6 -24q-38 -17 -61 -41q-17 -36 -48 -110l-79 -191l-84 -202q-3 -12 -12 -52.5t-14 -60.5q-7 -4 -23 -4q-21 0 -43 11t-29 21q10 24 87 111q25 50 51 109q-4 8 -31 79l-61 158q-34 89 -51 129q-10 15 -23.5 23 t-46.5 21l9 23q62 -2 94 -2q31 0 95 2l-7 -24l-32 -25q9 -27 99 -275h2q74 192 99 274z" />
<glyph unicode="z" horiz-adv-x="447" d="M397 439l6 -10q-29 -50 -133 -211l-117 -180v-2q153 0 182 8q48 67 69 92l16 4q-8 -94 -23 -145q-4 0 -79 2.5t-128 2.5h-159l-1 8l262 393l-1 2q-58 0 -169 -5q-39 -69 -50 -82l-15 -4q-3 14 -5 66q-2 29 -2 46q0 14 1 20l3 3l71 -8h272z" />
<glyph unicode="{" horiz-adv-x="326" d="M218 343l-97 -62v-2l97 -64q-14 -146 -14 -217q0 -52 20 -87t67 -64l-12 -27q-53 17 -101 63.5t-48 97.5q0 85 30 226l-99 64l5 15l94 64q-30 112 -30 210q0 51 48.5 99t100.5 64l12 -27q-48 -27 -67.5 -62.5t-19.5 -89.5q0 -92 14 -201z" />
<glyph unicode="|" horiz-adv-x="336" d="M136 724h64v-965h-64v965z" />
<glyph unicode="}" horiz-adv-x="325" d="M113 216l100 63v1l-100 65q15 159 15 203q0 52 -20.5 86.5t-67.5 62.5l10 27q54 -17 103 -63.5t49 -98.5q0 -100 -31 -210l98 -64l-4 -15l-94 -65q31 -116 31 -223q0 -52 -49 -100t-103 -65l-10 27q48 27 68 63.5t20 90.5q0 92 -15 215z" />
<glyph unicode="~" horiz-adv-x="626" d="M532 308l34 -23q-32 -66 -66 -95t-80 -29q-44 0 -118 48l-12 8l-13 8l-11 7q-8 5 -11.5 6.5t-10.5 5t-12 4.5l-10 4q-6 2 -11 2.5t-11 0.5q-53 0 -106 -94l-34 22q55 125 151 125q22 0 45.5 -9t37.5 -18l42 -27q59 -39 95 -39q53 0 101 93z" />
<glyph unicode="&#xa1;" horiz-adv-x="232" d="M110 316l-8 -3q-11 5 -29.5 25.5t-27.5 36.5l3 10q7 15 26 35t32 26l8 3q31 -16 57 -61l-2 -10q-30 -43 -59 -62zM93 212l31 17q23 -288 32 -360l21 -48q-48 -29 -116 -38l-10 5l7 70l14 158q10 98 21 196z" />
<glyph unicode="&#xa2;" d="M273 542v77l34 9v-83q47 0 92 -16.5t62 -33.5q-17 -59 -37 -90l-15 -7q-12 27 -29 98q-21 11 -56 11q-8 0 -17 -1v-369q10 -2 21 -2q16 0 33 4q52 43 88 65l9 -16q-6 -19 -28 -46t-42 -38q-48 -13 -81 -14v-76l-34 -13v89q-41 2 -77.5 15t-70 38t-53 68t-19.5 99 q0 102 66.5 161.5t153.5 70.5zM273 143v359q-62 -16 -94.5 -65t-32.5 -117q0 -69 33 -115t94 -62z" />
<glyph unicode="&#xa3;" d="M453 157l22 -14q-17 -91 -38 -148q-5 0 -89 2.5t-141 2.5h-204v12l36 38q26 7 34 18q41 62 41 210v27l-99 10l16 33h82v27q0 172 104 245q49 33 113 33q32 0 60 -9.5t39 -21.5q-12 -58 -34 -103l-17 -8q-21 56 -31 104q-9 3 -20 3q-59 0 -93 -52q-31 -47 -31 -138v-17 q0 -25 2 -63h178l-16 -33l-164 -10q-2 -85 -25 -139t-63 -99l1 -3q39 -1 80 -1q93 0 195 6q51 74 62 88z" />
<glyph unicode="&#xa4;" d="M460 508l-61 -60q42 -56 42 -123q0 -71 -48 -127l63 -54l-39 -45l-58 66q-47 -36 -109 -36q-29 0 -62.5 10t-53.5 28l-57 -67l-33 42l59 52q-45 56 -45 131q0 72 41 121l-62 56l36 47l62 -69q53 43 118 43q63 0 115 -44l56 69zM249 477q-58 0 -93.5 -44t-35.5 -107 q0 -65 38 -108.5t92 -43.5q58 0 93.5 43t35.5 109q0 64 -37.5 107.5t-92.5 43.5z" />
<glyph unicode="&#xa5;" d="M70 347h123l-132 248l-54 23l7 25q16 0 47 -1t46 -1q17 0 52.5 1t53.5 1l-9 -24l-48 -23l113 -231h2l113 229l-62 26l11 23q10 0 38 -1t44 -1q13 0 43 1t46 1l-6 -24l-61 -29q-91 -155 -137 -243h136l-13 -35h-135l1 -74h147l-14 -35h-133q2 -131 4 -154l89 -27l-7 -23 q-21 0 -63 1t-63 1q-22 0 -66.5 -1t-67.5 -1l7 23l77 27q4 14 6 154h-148l13 35h135l1 74h-148z" />
<glyph unicode="&#xa6;" horiz-adv-x="336" d="M136 666h64v-366h-64v366zM136 -183v367h64v-367h-64z" />
<glyph unicode="&#xa7;" horiz-adv-x="450" d="M95 25l13 7q3 -6 7 -20l10 -37q6 -22 11 -38q11 -7 42 -7t57 18q25 18 25 44q0 40 -61 115l-96 123q-70 95 -70 165q0 61 35 115q33 51 91 86q46 28 90 28q32 0 53 -14q15 13 55 25l8 -4q-1 -16 -10.5 -60.5t-18.5 -60.5l-14 -7q-10 16 -28 74q-18 12 -46 12 q-30 0 -46 -15t-16 -38q0 -24 20 -55q19 -28 124 -157q81 -96 81 -179q0 -52 -29 -105.5t-86 -95.5q-52 -48 -121 -48q-65 0 -111 34q0 12 11 46.5t20 48.5zM313 4h3q38 46 38 108q0 67 -59 143l-50 63l-41 52q-16 19 -30 40q-39 57 -39 100q0 20 5 35h-3q-49 -49 -49 -117 q0 -60 57 -140l57 -72l56 -70q57 -73 57 -119q0 -9 -2 -23z" />
<glyph unicode="&#xa8;" horiz-adv-x="386" d="M102 641l8 2q9 -6 24.5 -23t21.5 -30l-2 -8q-12 -27 -47 -53l-8 -2q-13 8 -27 23.5t-21 28.5l2 9q19 32 49 53zM281 641l7 2q9 -6 24.5 -23t22.5 -30l-2 -8q-10 -25 -48 -53l-8 -2q-32 22 -47 52l1 9q23 35 50 53z" />
<glyph unicode="&#xa9;" horiz-adv-x="683" d="M343 624q125 0 211.5 -89.5t86.5 -219.5q0 -128 -87 -217t-212 -89q-126 0 -213 89t-87 217q0 130 87 219.5t214 89.5zM342 586q-109 0 -182 -77t-73 -193q0 -114 73 -191.5t183 -77.5q109 0 181 77t72 192q0 116 -72 193t-182 77zM364 477q36 0 61 -14q21 10 46 15l6 -2 q0 -14 -7 -52t-11 -43l-10 -7q-19 27 -30 63q-17 10 -45 10q-49 0 -83 -35t-34 -91q0 -55 34.5 -92t91.5 -37q12 0 23 5q8 6 22 18.5t24.5 21t15.5 11.5l11 -9q-1 -11 -15.5 -36.5t-22.5 -32.5q-39 -12 -77 -12q-75 0 -126.5 41.5t-51.5 116.5q0 43 18 76t46 50.5t57 26 t57 8.5z" />
<glyph unicode="&#xaa;" horiz-adv-x="290" d="M180 454v10q0 60 -57 60q-19 0 -31 -8q-8 -43 -14 -57l-10 -5q-4 1 -17.5 20.5t-16.5 32.5q26 23 72 39q29 9 42 9q46 0 67.5 -26t21.5 -62q0 -44 -2 -112q9 -15 44 -36l-5 -11q-10 -7 -32 -7q-48 0 -61 35q-44 -35 -77 -35q-34 0 -54.5 21.5t-20.5 47.5q0 30 22 43 q13 8 54 21t75 20zM179 371l1 58q-40 -6 -71 -22q-20 -11 -20 -29q0 -17 12.5 -27.5t29.5 -10.5q25 0 43 16q5 5 5 15z" />
<glyph unicode="&#xab;" d="M253 41l-21 -16q-85 110 -182 195q89 80 178 193l23 -17q-32 -65 -104 -176q78 -114 106 -179zM450 41l-24 -16q-48 60 -100 115t-81 80q88 82 177 193l22 -18q-61 -109 -102 -175q80 -120 108 -179z" />
<glyph unicode="&#xac;" horiz-adv-x="590" d="M448 51v222h-368l18 51h409v-257z" />
<glyph unicode="&#xad;" horiz-adv-x="367" d="M282 212l-238 -27l33 72l51 -1l195 11l1 -6z" />
<glyph unicode="&#xae;" horiz-adv-x="301" d="M151 658q51 0 86.5 -35t35.5 -87q0 -54 -35.5 -89t-87.5 -35t-87 35t-35 87t35.5 88t87.5 36zM149 635q-38 0 -64.5 -29t-26.5 -70q0 -42 26.5 -71.5t65.5 -29.5q40 0 66.5 29.5t26.5 71.5t-27 70.5t-67 28.5zM92 580l3 11q21 5 52 5q50 -1 50 -30q0 -19 -24 -28 q7 -15 24 -37q13 -17 17 -21l-4 -2q-24 1 -39 14q-11 12 -30 44q16 5 21.5 9.5t5.5 14.5q0 12 -9.5 18t-22.5 4v-85l18 -7l-2 -9h-59l2 9l14 7v81z" />
<glyph unicode="&#xaf;" horiz-adv-x="386" d="M292 547h-212l16 56h212z" />
<glyph unicode="&#xb0;" horiz-adv-x="283" d="M143 646q44 0 75 -32t31 -78t-31 -77.5t-76 -31.5q-46 0 -77 31.5t-32 77.5q0 46 31.5 78t78.5 32zM140 608q-26 0 -43 -21t-17 -51q0 -31 18 -51t44 -20q25 0 43.5 20t18.5 51q0 30 -18 51t-46 21z" />
<glyph unicode="&#xb1;" horiz-adv-x="590" d="M524 51l-13 -51h-447l13 51h447zM324 113l-59 -13v206h-201l13 51h188v177l59 12v-189h200l-13 -51h-187v-193z" />
<glyph unicode="&#xb2;" horiz-adv-x="326" d="M282 529l16 -13q-12 -55 -28 -93q-2 0 -50 1.5t-82 1.5h-107v10l24 32l18 12q34 29 47 41.5t38 39.5t35 52t10 52q0 29 -18 49.5t-52 20.5q-15 0 -34 -7q-5 -32 -21 -82l-13 -7q-19 23 -32 74q64 58 130 58q44 0 77.5 -26t33.5 -79q0 -12 -2 -23t-8 -22l-10 -19 q-5 -9 -16 -21l-18 -19l-24 -20l-24 -19l-30 -23l-30 -22q15 0 69 2t64 2l9 12l14 18q9 10 14 17z" />
<glyph unicode="&#xb3;" horiz-adv-x="326" d="M83 664l-13 -5q-15 23 -27 59q24 22 58 37.5t64 15.5q51 0 78 -23.5t27 -57.5q0 -55 -73 -79v-5q94 -12 94 -82q-1 -50 -46.5 -78t-97.5 -28q-35 0 -66.5 10.5t-44.5 23.5q14 45 30 67l11 5q9 -16 26 -71q10 -5 30 -5q36 0 60 21t24 54q0 29 -17 45t-44 18 q-11 -2 -24.5 -4t-21.5 -3.5t-11 -1.5l-6 7q0 5 8.5 18.5t15.5 18.5q3 0 9 -0.5t15.5 -1.5t14.5 -1q46 15 46 58q0 26 -16.5 43.5t-46.5 17.5q-15 0 -37 -9q-13 -52 -19 -64z" />
<glyph unicode="&#xb4;" horiz-adv-x="386" d="M178 493l-23 21l96 161q37 0 76 -18v-12z" />
<glyph unicode="&#xb5;" horiz-adv-x="542" d="M445 389v-327q10 -18 84 -25l-5 -21q-36 -29 -83 -29q-28 0 -51.5 18t-26.5 60h-2q-67 -78 -135 -78q-45 0 -72 30l-2 -1q-4 -69 -4 -122q0 -88 12 -133l-9 -4q-39 4 -56.5 33.5t-17.5 91.5v286q0 153 2 263q10 6 38 13t52 8l2 -3q-15 -188 -15 -307q0 -38 18 -60 q25 -33 74 -33q32 0 64 18.5t49 45.5v318q9 6 42.5 13.5t57.5 7.5l4 -7q-3 -8 -9.5 -27t-10.5 -29z" />
<glyph unicode="&#xb6;" horiz-adv-x="506" d="M405 654l-34 -118v-498q0 -83 -16.5 -143t-44 -89t-53.5 -41t-54 -12q-21 0 -37 11q-29 27 -38 52l8 13q21 -7 53 -7q138 0 138 212v41q-34 -15 -51 -15q-87 0 -162 63.5t-75 169.5q0 109 80 176t188 67h16l4 104z" />
<glyph unicode="&#xb7;" horiz-adv-x="217" d="M107 294l6 3q12 -5 31.5 -26t27.5 -37l-3 -10q-6 -15 -25.5 -35t-33.5 -27l-8 -3q-15 9 -32 28t-26 35l3 9q28 44 60 63z" />
<glyph unicode="&#xb8;" horiz-adv-x="386" d="M223 1h38l-39 -57q34 -18 47 -34.5t13 -39.5q0 -30 -28.5 -55.5t-81.5 -41.5l-14 28q61 24 61 56q0 14 -13.5 24.5t-49.5 25.5z" />
<glyph unicode="&#xb9;" horiz-adv-x="326" d="M134 705l-78 -2l5 20q39 16 127 48h11q0 -36 1.5 -168.5t1.5 -137.5l71 -19l-7 -21q-16 0 -49.5 0.5t-50.5 0.5q-18 0 -54 -0.5t-54 -0.5l9 21l60 19q7 143 7 240z" />
<glyph unicode="&#xba;" horiz-adv-x="321" d="M162 557q56 0 94 -35t38 -89q0 -58 -38.5 -94.5t-96.5 -36.5q-54 0 -93.5 32.5t-39.5 90.5q0 61 42 96.5t94 35.5zM157 529q-30 0 -46.5 -30t-16.5 -68q0 -39 19 -70.5t50 -31.5q32 0 48 30t16 71q0 36 -18 67.5t-52 31.5z" />
<glyph unicode="&#xbb;" d="M247 396l22 17q85 -110 182 -195q-97 -88 -178 -193l-23 18q39 77 104 175q-74 109 -107 178zM51 396l24 17q90 -114 179 -195q-112 -112 -175 -193l-22 18l102 175q-82 123 -108 178z" />
<glyph unicode="&#xbc;" horiz-adv-x="704" d="M133 588l-78 -3l5 20q39 16 127 48h11q0 -36 1.5 -168t1.5 -137l71 -19l-7 -21q-16 0 -49.5 0.5t-50.5 0.5q-18 0 -54 -0.5t-54 -0.5l9 21l60 19q7 144 7 240zM546 666l30 -25l-420 -682l-28 27zM578 99l1 -63l59 -19l-6 -17q-15 0 -44.5 0.5t-43.5 0.5q-17 0 -49.5 -0.5 t-48.5 -0.5l5 18l59 19l4 59l-147 -2l-10 20q26 45 82.5 125t67.5 89q8 8 71 17v-216h32q16 18 27 29l11 -3q0 -8 -4.5 -41.5t-6.5 -41.5l-12 -5q-13 19 -18 33zM515 131l7 167h-4q-48 -67 -108 -166z" />
<glyph unicode="&#xbd;" horiz-adv-x="704" d="M125 588l-78 -3l5 20q39 16 127 48h11q0 -36 1.5 -168t1.5 -137l71 -19l-7 -21q-16 0 -49.5 0.5t-50.5 0.5q-18 0 -54 -0.5t-54 -0.5l9 21l60 19q7 144 7 240zM535 666l30 -25l-421 -682l-28 27zM653 103l16 -13q-12 -53 -28 -93q-2 0 -50 1.5t-82 1.5h-107v11l24 32 q11 6 18 12l38 32q9 8 32 31t32.5 38t18.5 37.5t9 44.5q0 29 -18 49.5t-52 20.5q-15 0 -34 -7q-5 -32 -21 -82l-13 -7q-19 26 -32 74q64 58 130 58q44 0 77.5 -26t33.5 -79q0 -11 -2.5 -21t-5 -18.5t-9.5 -19t-12 -17t-16 -17.5l-18 -17q-6 -6 -22 -18l-23 -17l-27 -20 l-27 -21q15 0 69 1.5t64 1.5q10 14 37 47z" />
<glyph unicode="&#xbe;" horiz-adv-x="704" d="M96 547l-12 -5q-13 18 -27 59q24 22 58 37t64 15q51 0 78 -23t27 -58q0 -54 -74 -79v-4q94 -13 94 -82q-1 -50 -46.5 -78t-97.5 -28q-35 0 -66.5 11t-44.5 24q14 43 30 66l11 5q10 -20 26 -71q15 -5 30 -5q36 0 60 21t24 53q0 59 -61 63q-55 -8 -56 -8l-6 6q0 5 8.5 19 t15.5 19q3 0 9 -0.5t15.5 -1.5t14.5 -1q46 14 46 58q0 25 -16.5 42.5t-46.5 17.5q-22 0 -37 -9q-13 -50 -20 -63zM554 666l30 -25l-420 -682l-28 27zM581 99l1 -63l59 -19l-6 -17q-15 0 -44.5 0.5t-43.5 0.5q-17 0 -49.5 -0.5t-48.5 -0.5l5 18l59 19l4 59l-147 -2l-10 20 q26 45 82.5 125t67.5 89q8 8 71 17v-216h32q16 18 27 29l11 -3q0 -8 -4.5 -41.5t-6.5 -41.5l-12 -5q-13 19 -18 33zM518 131l7 167h-4q-48 -67 -108 -166z" />
<glyph unicode="&#xbf;" horiz-adv-x="391" d="M207 316l-7 -3q-11 5 -30.5 26t-26.5 36l2 10q6 14 25.5 34t32.5 26l9 3q14 -8 31 -27t25 -34l-2 -10q-29 -44 -59 -61zM189 -217q-61 0 -107.5 37.5t-46.5 109.5q0 37 18 65.5t55 61.5q86 72 86 108q0 23 -16 51l23 13q22 -8 45.5 -38.5t24.5 -64.5q-23 -49 -88 -109 q-38 -35 -51.5 -58.5t-13.5 -47.5q0 -31 25 -58.5t67 -27.5q28 0 50 10q13 67 29 100l14 6q29 -43 44 -96q-30 -26 -74.5 -44t-83.5 -18z" />
<glyph unicode="&#xc0;" horiz-adv-x="710" d="M297 633l75 49l6 -5q-1 -24 14 -69q28 -83 209 -530q14 -19 32.5 -29.5t68.5 -26.5l-7 -23q-74 2 -118 2q-30 0 -106 -2l6 21l37 29q-8 28 -75 193q-73 -5 -167 -5h-56q-51 -130 -68 -181l88 -34l-6 -23q-70 2 -118 2q-33 0 -103 -2l6 24l70 33q25 51 94 213t125 306 q4 11 4 21q0 5 -1 10zM331 539h-2l-51 -133q-31 -83 -43 -118q12 0 89.5 -2t100.5 -2zM408 739l-16 -25l-196 73l-1 12q26 41 57 53z" />
<glyph unicode="&#xc1;" horiz-adv-x="710" d="M297 633l75 49l6 -5q-1 -24 14 -69q28 -83 209 -530q14 -19 32.5 -29.5t68.5 -26.5l-7 -23q-74 2 -118 2q-30 0 -106 -2l6 21l37 29q-8 28 -75 193q-73 -5 -167 -5h-56q-51 -130 -68 -181l88 -34l-6 -23q-70 2 -118 2q-33 0 -103 -2l6 24l70 33q25 51 94 213t125 306 q4 11 4 21q0 5 -1 10zM331 539h-2l-51 -133q-31 -83 -43 -118q12 0 89.5 -2t100.5 -2zM300 701l-14 26l155 112q16 -4 34.5 -19.5t27.5 -31.5l-2 -13z" />
<glyph unicode="&#xc2;" horiz-adv-x="710" d="M297 633l75 49l6 -5q-1 -24 14 -69q28 -83 209 -530q14 -19 32.5 -29.5t68.5 -26.5l-7 -23q-74 2 -118 2q-30 0 -106 -2l6 21l37 29q-8 28 -75 193q-73 -5 -167 -5h-56q-51 -130 -68 -181l88 -34l-6 -23q-70 2 -118 2q-33 0 -103 -2l6 24l70 33q25 51 94 213t125 306 q4 11 4 21q0 5 -1 10zM331 539h-2l-51 -133q-31 -83 -43 -118q12 0 89.5 -2t100.5 -2zM337 835h21l131 -108l-17 -26l-125 61l-125 -61l-15 26z" />
<glyph unicode="&#xc3;" horiz-adv-x="710" d="M297 633l75 49l6 -5q-1 -24 14 -69q28 -83 209 -530q14 -19 32.5 -29.5t68.5 -26.5l-7 -23q-74 2 -118 2q-30 0 -106 -2l6 21l37 29q-8 28 -75 193q-73 -5 -167 -5h-56q-51 -130 -68 -181l88 -34l-6 -23q-70 2 -118 2q-33 0 -103 -2l6 24l70 33q25 51 94 213t125 306 q4 11 4 21q0 5 -1 10zM331 539h-2l-51 -133q-31 -83 -43 -118q12 0 89.5 -2t100.5 -2zM471 811l25 -19q-25 -42 -51.5 -62.5t-46.5 -20.5q-18 0 -62 23q-34 19 -45 19q-25 0 -59 -46l-25 19q50 88 96 88q17 0 56 -21q37 -22 53 -22q24 0 59 42z" />
<glyph unicode="&#xc4;" horiz-adv-x="710" d="M297 633l75 49l6 -5q-1 -24 14 -69q28 -83 209 -530q14 -19 32.5 -29.5t68.5 -26.5l-7 -23q-74 2 -118 2q-30 0 -106 -2l6 21l37 29q-8 28 -75 193q-73 -5 -167 -5h-56q-51 -130 -68 -181l88 -34l-6 -23q-70 2 -118 2q-33 0 -103 -2l6 24l70 33q25 51 94 213t125 306 q4 11 4 21q0 5 -1 10zM331 539h-2l-51 -133q-31 -83 -43 -118q12 0 89.5 -2t100.5 -2zM248 822l7 2q9 -5 25 -22.5t23 -31.5l-2 -7q-5 -12 -21 -29t-27 -24l-9 -3q-26 16 -49 53l2 8q22 34 51 54zM445 822l7 2q10 -5 25.5 -22.5t22.5 -31.5l-2 -7q-5 -12 -21 -29t-27 -24 l-8 -3q-29 18 -49 53l2 8q23 35 50 54z" />
<glyph unicode="&#xc5;" horiz-adv-x="710" d="M297 633l76 49l5 -5q-1 -24 14 -69q40 -110 210 -530q15 -19 33 -29.5t67 -26.5l-7 -23q-72 2 -117 2q-31 0 -107 -2l6 21l37 29q-8 28 -75 193q-72 -5 -167 -5h-56q-51 -130 -68 -181l88 -34l-6 -23q-70 2 -118 2q-35 0 -103 -2l6 24l70 33q25 51 94 213t125 306 q4 13 4 22q0 5 -1 9zM331 539h-2l-51 -133q-31 -83 -43 -118q12 0 89.5 -2t100.5 -2zM347 876q35 0 62 -23t27 -63q0 -39 -27.5 -62.5t-62.5 -23.5q-36 0 -63.5 23.5t-27.5 62.5q0 40 27.5 63t64.5 23zM345 842q-19 0 -32.5 -13t-13.5 -39t13.5 -39t33.5 -13q46 0 46 52 t-47 52z" />
<glyph unicode="&#xc6;" horiz-adv-x="932" d="M484 299h-218l-115 -243l89 -33l-9 -24q-16 0 -56.5 0.5t-62.5 0.5q-17 0 -51 -0.5t-52 -0.5l9 24l68 33l288 553l-115 25l8 26q33 0 89 -0.5t81 -0.5l351 -1q48 12 81 12l3 -3q-6 -60 -27 -153l-14 -7q-26 59 -44 113l-225 -7l10 -269q149 0 263 11l6 -9 q-3 -8 -26.5 -32.5t-31.5 -24.5q-5 0 -102 5t-108 5q2 -93 12 -252l208 -8l92 121l16 -1q-3 -27 -15.5 -83t-20.5 -79q-61 3 -186 3h-140q-24 0 -72.5 -0.5t-73.5 -0.5l7 24l86 30q1 2 1 30q0 55 -3 216zM290 344h192l-2 271h-56z" />
<glyph unicode="&#xc7;" horiz-adv-x="687" d="M434 -19l-27 -37q35 -19 48 -35.5t13 -38.5q0 -30 -29 -55.5t-81 -41.5l-14 28q61 27 61 56q0 14 -13.5 24t-50.5 26l55 75q-70 3 -132 25t-112 63t-79.5 106.5t-29.5 147.5q0 85 34.5 154.5t90.5 111.5t121.5 64.5t132.5 22.5h2q98 0 155 -38q28 15 76 26l6 -4 q-3 -29 -17.5 -86t-22.5 -71l-18 -10q-19 39 -34 110q-17 12 -53 21t-73 9q-138 0 -218 -85.5t-80 -219.5q0 -131 83.5 -216t225.5 -85q42 0 66 8q78 81 121 113l19 -5q-6 -22 -32 -73t-36 -59q-62 -27 -158 -31z" />
<glyph unicode="&#xc8;" horiz-adv-x="565" d="M36 637l7 22q21 0 62 -0.5t61 -0.5h248q30 9 83 12l3 -3q-3 -41 -26 -146l-16 -9q-18 39 -43 108l-203 -7v-250q148 0 254 12l4 -9q-4 -8 -28 -33t-32 -25q-6 0 -94 5.5t-104 5.5q0 -189 4 -272l212 -8q2 2 37.5 52t49.5 66l20 1q-2 -24 -14.5 -80t-20.5 -80 q-65 2 -181 2h-158q-23 0 -69.5 -0.5t-67.5 -0.5l8 24l85 29q6 24 6 291v266zM360 726l-15 -25l-197 73l-1 13q26 41 57 53z" />
<glyph unicode="&#xc9;" horiz-adv-x="565" d="M36 637l7 22q21 0 62 -0.5t61 -0.5h248q30 9 83 12l3 -3q-3 -41 -26 -146l-16 -9q-18 39 -43 108l-203 -7v-250q148 0 254 12l4 -9q-4 -8 -28 -33t-32 -25q-6 0 -94 5.5t-104 5.5q0 -189 4 -272l212 -8q2 2 37.5 52t49.5 66l20 1q-2 -24 -14.5 -80t-20.5 -80 q-65 2 -181 2h-158q-23 0 -69.5 -0.5t-67.5 -0.5l8 24l85 29q6 24 6 291v266zM230 701l-13 26l155 111q16 -3 34 -18.5t28 -31.5l-2 -13z" />
<glyph unicode="&#xca;" horiz-adv-x="565" d="M36 637l7 22q21 0 62 -0.5t61 -0.5h248q30 9 83 12l3 -3q-3 -41 -26 -146l-16 -9q-18 39 -43 108l-203 -7v-250q148 0 254 12l4 -9q-4 -8 -28 -33t-32 -25q-6 0 -94 5.5t-104 5.5q0 -189 4 -272l212 -8q2 2 37.5 52t49.5 66l20 1q-2 -24 -14.5 -80t-20.5 -80 q-65 2 -181 2h-158q-23 0 -69.5 -0.5t-67.5 -0.5l8 24l85 29q6 24 6 291v266zM279 834h20l131 -107l-17 -26l-124 61l-126 -61l-15 26z" />
<glyph unicode="&#xcb;" horiz-adv-x="565" d="M36 637l7 22q21 0 62 -0.5t61 -0.5h248q30 9 83 12l3 -3q-3 -41 -26 -146l-16 -9q-18 39 -43 108l-203 -7v-250q148 0 254 12l4 -9q-4 -8 -28 -33t-32 -25q-6 0 -94 5.5t-104 5.5q0 -189 4 -272l212 -8q2 2 37.5 52t49.5 66l20 1q-2 -24 -14.5 -80t-20.5 -80 q-65 2 -181 2h-158q-23 0 -69.5 -0.5t-67.5 -0.5l8 24l85 29q6 24 6 291v266zM185 822l7 3q9 -5 25 -22.5t23 -31.5l-2 -7q-6 -13 -22 -30t-27 -24l-8 -2q-26 15 -49 53l2 8q23 34 51 53zM382 822l7 3q10 -5 25.5 -22.5t22.5 -31.5l-2 -7q-5 -13 -21 -30t-27 -24l-8 -2 q-13 7 -27.5 23t-21.5 30l2 8q22 33 50 53z" />
<glyph unicode="&#xcc;" horiz-adv-x="336" d="M44 636l7 23q19 0 58 -0.5t59 -0.5t62 0.5t62 0.5l-7 -24l-73 -29v-263q0 -250 5 -290l92 -30l-7 -24q-17 0 -61.5 0.5t-72.5 0.5q-26 0 -72.5 -0.5t-64.5 -0.5l7 24l79 30q6 24 6 290v264zM240 726l-15 -25l-196 73l-2 13q28 42 58 53z" />
<glyph unicode="&#xcd;" horiz-adv-x="336" d="M44 636l7 23q19 0 58 -0.5t59 -0.5t62 0.5t62 0.5l-7 -24l-73 -29v-263q0 -250 5 -290l92 -30l-7 -24q-17 0 -61.5 0.5t-72.5 0.5q-26 0 -72.5 -0.5t-64.5 -0.5l7 24l79 30q6 24 6 290v264zM113 701l-14 26l155 111q16 -3 34.5 -18.5t28.5 -31.5l-3 -13z" />
<glyph unicode="&#xce;" horiz-adv-x="336" d="M44 636l7 23q19 0 58 -0.5t59 -0.5t62 0.5t62 0.5l-7 -24l-73 -29v-263q0 -250 5 -290l92 -30l-7 -24q-17 0 -61.5 0.5t-72.5 0.5q-26 0 -72.5 -0.5t-64.5 -0.5l7 24l79 30q6 24 6 290v264zM159 838h21l130 -108l-17 -25l-124 60q-97 -48 -125 -60l-16 25z" />
<glyph unicode="&#xcf;" horiz-adv-x="336" d="M44 636l7 23q19 0 58 -0.5t59 -0.5t62 0.5t62 0.5l-7 -24l-73 -29v-263q0 -250 5 -290l92 -30l-7 -24q-17 0 -61.5 0.5t-72.5 0.5q-26 0 -72.5 -0.5t-64.5 -0.5l7 24l79 30q6 24 6 290v264zM68 823l7 2q9 -5 25 -22.5t23 -31.5l-2 -7q-6 -13 -21.5 -29.5t-26.5 -23.5 l-8 -3q-28 16 -49 53l2 8q20 33 50 54zM266 823l6 2q10 -5 26 -22.5t23 -31.5l-2 -7q-6 -13 -22 -29.5t-27 -23.5l-8 -3q-31 19 -48 53l1 8q24 36 51 54z" />
<glyph unicode="&#xd0;" horiz-adv-x="746" d="M45 366h89v246l-88 18l8 22q143 13 231 13q196 0 306.5 -80t110.5 -240q0 -70 -21 -126.5t-56.5 -92.5t-69 -57t-71.5 -36q-97 -36 -266 -36q-51 0 -177 3l8 24l79 26q6 18 6 274h-102zM223 366h188l-18 -42h-170q0 -277 4 -289q192 0 278 77q94 83 94 228q0 143 -92 217 q-48 39 -115 54q-63 14 -156 14h-13v-259z" />
<glyph unicode="&#xd1;" horiz-adv-x="766" d="M269 23l-7 -24q-19 0 -58 0.5t-61 0.5q-18 0 -57.5 -0.5t-57.5 -0.5l6 24l82 36q13 179 18 500q-8 12 -14 20l-10 14q-5 6 -12 11t-10 7.5t-12 6.5l-13 4q-4 2 -17 6l-21 6l9 25l137 5q9 -20 38 -57q169 -213 407 -479h3q0 20 -3 229.5t-3 243.5l-85 35l10 23 q19 0 52.5 -0.5t48.5 -0.5q19 0 60.5 0.5t61.5 0.5l-6 -26l-85 -32q-11 -476 -11 -515q0 -62 -5 -102l-11 -5q-60 43 -173 175l-297 360h-2v-130q0 -270 7 -325zM518 803l25 -19q-49 -83 -99 -83q-18 0 -62 23q-34 18 -45 18q-25 0 -59 -46l-24 19q49 88 95 88q17 0 57 -20 q37 -22 52 -22q25 0 60 42z" />
<glyph unicode="&#xd2;" horiz-adv-x="785" d="M391 677q49 0 97.5 -12.5t94 -40t80.5 -66t56.5 -95t22.5 -122.5v-6q0 -86 -30 -155q-30 -72 -81.5 -114t-112 -63.5t-124.5 -21.5t-125 21t-112.5 61.5t-82.5 107.5t-31 151q0 85 32.5 155t84 112t111.5 65t120 23zM385 640q-110 0 -173.5 -85t-63.5 -217 q0 -129 71.5 -225t185.5 -96q61 0 107.5 27t73 73t39 99t12.5 113q0 128 -71.5 219.5t-180.5 91.5zM471 737l-16 -25l-196 73l-2 13q28 42 58 53z" />
<glyph unicode="&#xd3;" horiz-adv-x="785" d="M391 677q49 0 97.5 -12.5t94 -40t80.5 -66t56.5 -95t22.5 -122.5v-6q0 -86 -30 -155q-30 -72 -81.5 -114t-112 -63.5t-124.5 -21.5t-125 21t-112.5 61.5t-82.5 107.5t-31 151q0 85 32.5 155t84 112t111.5 65t120 23zM385 640q-110 0 -173.5 -85t-63.5 -217 q0 -129 71.5 -225t185.5 -96q61 0 107.5 27t73 73t39 99t12.5 113q0 128 -71.5 219.5t-180.5 91.5zM332 713l-13 26l155 111q16 -3 34 -18.5t28 -31.5l-2 -13z" />
<glyph unicode="&#xd4;" horiz-adv-x="785" d="M391 677q49 0 97.5 -12.5t94 -40t80.5 -66t56.5 -95t22.5 -122.5v-6q0 -86 -30 -155q-30 -72 -81.5 -114t-112 -63.5t-124.5 -21.5t-125 21t-112.5 61.5t-82.5 107.5t-31 151q0 85 32.5 155t84 112t111.5 65t120 23zM385 640q-110 0 -173.5 -85t-63.5 -217 q0 -129 71.5 -225t185.5 -96q61 0 107.5 27t73 73t39 99t12.5 113q0 128 -71.5 219.5t-180.5 91.5zM383 838h21l131 -108l-18 -25l-124 61q-74 -38 -125 -61l-16 25z" />
<glyph unicode="&#xd5;" horiz-adv-x="785" d="M391 677q49 0 97.5 -12.5t94 -40t80.5 -66t56.5 -95t22.5 -122.5v-6q0 -86 -30 -155q-30 -72 -81.5 -114t-112 -63.5t-124.5 -21.5t-125 21t-112.5 61.5t-82.5 107.5t-31 151q0 85 32.5 155t84 112t111.5 65t120 23zM385 640q-110 0 -173.5 -85t-63.5 -217 q0 -129 71.5 -225t185.5 -96q61 0 107.5 27t73 73t39 99t12.5 113q0 128 -71.5 219.5t-180.5 91.5zM517 819l24 -19q-48 -83 -98 -83q-19 0 -62 24q-35 18 -45 18q-24 0 -59 -46l-24 19q49 88 95 88q18 0 57 -21q37 -22 52 -22q25 0 60 42z" />
<glyph unicode="&#xd6;" horiz-adv-x="785" d="M391 677q49 0 97.5 -12.5t94 -40t80.5 -66t56.5 -95t22.5 -122.5v-6q0 -86 -30 -155q-30 -72 -81.5 -114t-112 -63.5t-124.5 -21.5t-125 21t-112.5 61.5t-82.5 107.5t-31 151q0 85 32.5 155t84 112t111.5 65t120 23zM385 640q-110 0 -173.5 -85t-63.5 -217 q0 -129 71.5 -225t185.5 -96q61 0 107.5 27t73 73t39 99t12.5 113q0 128 -71.5 219.5t-180.5 91.5zM293 823l7 2q9 -5 25 -22.5t23 -31.5l-2 -7q-6 -13 -21.5 -29.5t-26.5 -23.5l-8 -2q-29 15 -49 53l2 8q21 32 50 53zM491 823l7 2q9 -5 25 -22.5t23 -31.5l-2 -7 q-6 -13 -22 -29.5t-27 -23.5l-8 -2q-29 17 -48 53l1 8q25 36 51 53z" />
<glyph unicode="&#xd7;" horiz-adv-x="590" d="M507 407l-172 -177l170 -172l-37 -45l-173 176l-172 -176l-38 44l169 173l-171 175l39 42l173 -177l175 179z" />
<glyph unicode="&#xd8;" horiz-adv-x="785" d="M591 618l59 77l28 -26l-56 -73q118 -98 119 -253v-6q0 -87 -30 -157q-31 -72 -82.5 -114t-111 -63.5t-121.5 -21.5q-117 0 -208 58l-68 -90l-27 28l66 86q-116 100 -116 260q0 86 33 156t85 111.5t111.5 64t117.5 22.5q112 0 201 -59zM214 126l336 443q-62 71 -165 71 q-109 0 -173.5 -87t-64.5 -222q0 -118 65 -205h2zM574 537l-338 -444q27 -33 72.5 -54.5t93.5 -21.5q50 0 90 18t67 48.5t45 71.5t26 85t8 91q0 117 -62 206h-2z" />
<glyph unicode="&#xd9;" horiz-adv-x="735" d="M26 635l8 24q20 0 60 -0.5t59 -0.5t56.5 0.5t52.5 0.5l-6 -24l-54 -31q-1 -124 -1 -384q0 -65 29 -107q53 -75 164 -75q104 0 158 70q33 45 36 128q1 52 1 127q0 100 -2 241l-73 31l7 24q17 0 49 -0.5t47 -0.5q20 0 60 0.5t57 0.5l-6 -24l-81 -31q-3 -24 -12 -356 q-2 -97 -41 -156q-70 -109 -222 -109q-165 0 -230 112q-29 47 -31 143q-1 53 -1 100v46q1 34 1 66t-1 64q0 63 -1 91zM449 726l-15 -25l-197 73l-1 13q26 41 57 53z" />
<glyph unicode="&#xda;" horiz-adv-x="735" d="M26 635l8 24q20 0 60 -0.5t59 -0.5t56.5 0.5t52.5 0.5l-6 -24l-54 -31q-1 -124 -1 -384q0 -65 29 -107q53 -75 164 -75q104 0 158 70q33 45 36 128q1 52 1 127q0 100 -2 241l-73 31l7 24q17 0 49 -0.5t47 -0.5q20 0 60 0.5t57 0.5l-6 -24l-81 -31q-3 -24 -12 -356 q-2 -97 -41 -156q-70 -109 -222 -109q-165 0 -230 112q-29 47 -31 143q-1 53 -1 100v46q1 34 1 66t-1 64q0 63 -1 91zM324 701l-13 26l155 112q16 -4 34.5 -19.5t28.5 -31.5l-3 -13z" />
<glyph unicode="&#xdb;" horiz-adv-x="735" d="M26 635l8 24q20 0 60 -0.5t59 -0.5t56.5 0.5t52.5 0.5l-6 -24l-54 -31q-1 -124 -1 -384q0 -65 29 -107q53 -75 164 -75q104 0 158 70q33 45 36 128q1 52 1 127q0 100 -2 241l-73 31l7 24q17 0 49 -0.5t47 -0.5q20 0 60 0.5t57 0.5l-6 -24l-81 -31q-3 -24 -12 -356 q-2 -97 -41 -156q-70 -109 -222 -109q-165 0 -230 112q-29 47 -31 143q-1 53 -1 100v46q1 34 1 66t-1 64q0 63 -1 91zM376 835h21l131 -108l-17 -26l-125 61l-125 -61l-16 26z" />
<glyph unicode="&#xdc;" horiz-adv-x="735" d="M26 635l8 24q20 0 60 -0.5t59 -0.5t56.5 0.5t52.5 0.5l-6 -24l-54 -31q-1 -124 -1 -384q0 -65 29 -107q53 -75 164 -75q104 0 158 70q33 45 36 128q1 52 1 127q0 100 -2 241l-73 31l7 24q17 0 49 -0.5t47 -0.5q20 0 60 0.5t57 0.5l-6 -24l-81 -31q-3 -24 -12 -356 q-2 -97 -41 -156q-70 -109 -222 -109q-165 0 -230 112q-29 47 -31 143q-1 53 -1 100v46q1 34 1 66t-1 64q0 63 -1 91zM287 823l6 2q9 -5 25 -22.5t23 -31.5l-1 -7q-6 -13 -22 -29.5t-27 -23.5l-8 -3q-28 16 -49 53l2 8q21 34 51 54zM484 823l7 2q9 -5 25 -22.5t23 -31.5 l-2 -7q-6 -13 -21.5 -29.5t-26.5 -23.5l-9 -3q-29 19 -48 53l1 8q22 34 51 54z" />
<glyph unicode="&#xdd;" horiz-adv-x="631" d="M6 636l10 23q78 -2 117 -2q32 0 84 2l-6 -25l-23 -21q15 -31 153 -276h3l142 271l-35 26l9 25q40 -2 62 -2q35 0 111 2l-9 -25l-46 -18q-19 -4 -29.5 -11.5t-21.5 -23.5q-75 -114 -157 -267q-9 -18 -9 -37q0 -202 3 -223l118 -31l-8 -24q-21 0 -73.5 0.5t-84.5 0.5 q-31 0 -84 -0.5t-74 -0.5l7 22l101 33q7 63 7 213q0 18 -10 37l-167 287q-27 29 -90 45zM280 701l-14 26l155 111q16 -3 34.5 -18.5t27.5 -31.5l-2 -13z" />
<glyph unicode="&#xde;" horiz-adv-x="564" d="M50 21l69 29q4 17 4 294v267l-76 26l8 22q19 0 55.5 -0.5t54.5 -0.5q21 0 62.5 0.5t63.5 0.5l-8 -23l-71 -26v-88q26 2 69 4h14q99 0 163 -40q69 -43 69 -136q0 -55 -22.5 -95.5t-58 -60.5t-67.5 -28.5t-61 -8.5q-32 0 -51 8l-8 27h15q78 0 115.5 43.5t37.5 107.5 q0 73 -44 110.5t-120 37.5q-29 0 -51 -6v-127q0 -67 0.5 -122t1.5 -86.5t2 -53.5l2 -32v-13l89 -28l-9 -24q-22 0 -65 0.5t-64 0.5q-19 0 -61 -0.5t-66 -0.5z" />
<glyph unicode="&#xdf;" horiz-adv-x="553" d="M43 439h54q4 134 75 208q61 63 151 63q71 0 116.5 -41.5t45.5 -106.5q0 -22 -3 -29q-47 -32 -79.5 -72.5t-32.5 -74.5q0 -18 11 -33t46 -44q49 -41 71 -76t22 -78q0 -78 -57.5 -123t-136.5 -45q-47 0 -80 13q8 48 24 91l14 8q18 -31 38 -77q4 -1 14 -1q36 0 71 28t35 77 q0 27 -13.5 49t-46.5 51l-69 63q-19 19 -19 44q0 71 113 184q7 19 7 28q0 61 -30 95t-74 34q-58 0 -90.5 -51.5t-35.5 -154.5q-3 -74 -3 -208q0 -181 4 -211l20 -32l-4 -18q-20 1 -68 1q-15 0 -50 -0.5t-57 -0.5l6 21l60 28q5 32 5 204v141l-69 12z" />
<glyph unicode="&#xe0;" horiz-adv-x="455" d="M285 258v21q-1 72 -27 98.5t-72 26.5q-30 0 -61 -18q-5 -68 -12 -101l-11 -5q-9 5 -32.5 36t-30.5 50q15 15 53 36.5t68 32.5q41 17 70 17q70 0 103.5 -47.5t33.5 -105.5q0 -34 -1 -111.5t-1 -111.5q25 -41 78 -58l-7 -16q-21 -13 -50 -13q-79 0 -99 57h-2 q-60 -59 -121 -59q-60 0 -93 37t-33 80q0 60 40 82q64 37 207 72zM125 122q0 -40 25.5 -59t55.5 -19q38 0 68 30q9 12 9 24l2 127q-85 -23 -125 -47q-35 -19 -35 -56zM257 515l-23 -22l-145 152v15q30 15 70 15h13z" />
<glyph unicode="&#xe1;" horiz-adv-x="455" d="M285 258v21q-1 72 -27 98.5t-72 26.5q-30 0 -61 -18q-5 -68 -12 -101l-11 -5q-9 5 -32.5 36t-30.5 50q15 15 53 36.5t68 32.5q41 17 70 17q70 0 103.5 -47.5t33.5 -105.5q0 -34 -1 -111.5t-1 -111.5q25 -41 78 -58l-7 -16q-21 -13 -50 -13q-79 0 -99 57h-2 q-60 -59 -121 -59q-60 0 -93 37t-33 80q0 60 40 82q64 37 207 72zM125 122q0 -40 25.5 -59t55.5 -19q38 0 68 31q9 11 9 23l2 127q-85 -23 -125 -47q-35 -19 -35 -56zM196 493l-23 21l96 161q36 0 75 -18v-12z" />
<glyph unicode="&#xe2;" horiz-adv-x="455" d="M285 258v21q-1 72 -27 98.5t-72 26.5q-30 0 -61 -18q-5 -68 -12 -101l-11 -5q-9 5 -32.5 36t-30.5 50q15 15 53 36.5t68 32.5q41 17 70 17q70 0 103.5 -47.5t33.5 -105.5q0 -34 -1 -111.5t-1 -111.5q25 -41 78 -58l-7 -16q-21 -13 -50 -13q-79 0 -99 57h-2 q-60 -59 -121 -59q-60 0 -93 37t-33 80q0 60 40 82q64 37 207 72zM125 122q0 -40 25.5 -59t55.5 -19q38 0 68 31q9 11 9 23l2 127q-85 -23 -125 -47q-35 -19 -35 -56zM199 671l21 5l100 -161l-23 -19l-87 93l-86 -93l-23 19z" />
<glyph unicode="&#xe3;" horiz-adv-x="455" d="M285 258v21q-1 72 -27 98.5t-72 26.5q-30 0 -61 -18q-5 -68 -12 -101l-11 -5q-9 5 -32.5 36t-30.5 50q15 15 53 36.5t68 32.5q41 17 70 17q70 0 103.5 -47.5t33.5 -105.5q0 -34 -1 -111.5t-1 -111.5q25 -41 78 -58l-7 -16q-21 -13 -50 -13q-79 0 -99 57h-2 q-60 -59 -121 -59q-60 0 -93 37t-33 80q0 60 40 82q64 37 207 72zM125 122q0 -40 25.5 -59t55.5 -19q38 0 68 31q9 11 9 23l2 127q-85 -23 -125 -47q-35 -19 -35 -56zM332 626l24 -16q-46 -85 -94 -85q-16 0 -61 24q-33 17 -44 17q-23 0 -58 -46l-23 19q52 86 94 86 q17 0 54 -21q35 -21 49 -21q29 0 59 43z" />
<glyph unicode="&#xe4;" horiz-adv-x="455" d="M285 258v21q-1 72 -27 98.5t-72 26.5q-30 0 -61 -18q-5 -68 -12 -101l-11 -5q-9 5 -32.5 36t-30.5 50q15 15 53 36.5t68 32.5q41 17 70 17q70 0 103.5 -47.5t33.5 -105.5q0 -34 -1 -111.5t-1 -111.5q25 -41 78 -58l-7 -16q-21 -13 -50 -13q-79 0 -99 57h-2 q-60 -59 -121 -59q-60 0 -93 37t-33 80q0 60 40 82q64 37 207 72zM125 122q0 -40 25.5 -59t55.5 -19q38 0 68 31q9 11 9 23l2 127q-85 -23 -125 -47q-35 -19 -35 -56zM122 641l7 2q9 -6 24.5 -23t21.5 -30l-1 -8q-5 -12 -20.5 -28t-27.5 -25l-8 -2q-31 20 -47 52l2 9 q20 34 49 53zM300 641l7 2q9 -6 24.5 -23t22.5 -30l-2 -8q-10 -25 -48 -53l-8 -2q-32 22 -47 52l2 9q23 36 49 53z" />
<glyph unicode="&#xe5;" horiz-adv-x="455" d="M285 258v21q-1 72 -27 98.5t-71 26.5q-32 0 -61 -18q-4 -60 -13 -101l-11 -5q-9 5 -32.5 36t-30.5 50q16 15 53.5 36.5t67.5 32.5q41 17 70 17q70 0 103.5 -47.5t33.5 -105.5q0 -34 -1 -111.5t-1 -111.5q25 -41 78 -58l-7 -16q-21 -13 -50 -13q-79 0 -99 57h-2 q-60 -59 -121 -59q-60 0 -93 37t-33 80q0 60 40 82q64 37 207 72zM125 122q0 -40 25.5 -59t55.5 -19q38 0 68 31q9 11 9 23l2 127q-85 -23 -125 -47q-35 -19 -35 -56zM214 641q-20 0 -32.5 -14.5t-12.5 -37.5q0 -24 13 -38t33 -14t33 14t13 38t-13 38t-34 14zM216 676 q36 0 62.5 -24.5t26.5 -62.5q0 -39 -27 -62.5t-63 -23.5q-37 0 -63.5 23t-26.5 61q0 40 27 64.5t64 24.5z" />
<glyph unicode="&#xe6;" horiz-adv-x="707" d="M114 286l-10 -6q-11 8 -33.5 38.5t-28.5 48.5q15 12 53.5 34t64.5 32q41 17 72 17q88 0 120 -75q63 75 156 75q70 0 119 -44t49 -126q0 -31 -10 -35q-38 -21 -95 -21h-190v-12q0 -86 44 -132.5t122 -46.5q12 0 32 9q46 35 76 51q5 -3 7 -13q-4 -15 -24 -41t-33 -35 q-54 -17 -100 -17q-59 0 -107 24t-70 66q-93 -90 -166 -90q-59 0 -92 37t-33 80q0 55 41 80q18 12 87.5 36.5t129.5 34.5v19q0 72 -27 100t-74 28q-32 0 -70 -22q0 -40 -10 -94zM382 262h196q8 24 8 45q0 42 -21.5 74t-66.5 32q-41 0 -69.5 -28.5t-38.5 -60.5q-8 -29 -8 -56 v-6zM201 44q24 0 56 16t56 46q-18 43 -18 116q-102 -21 -137 -43q-20 -12 -27 -25t-7 -36q0 -38 24.5 -56t52.5 -18z" />
<glyph unicode="&#xe7;" horiz-adv-x="454" d="M194 -93l57 79v2q-97 6 -155.5 67t-58.5 160q0 112 78.5 174.5t176.5 62.5q41 0 79 -12.5t51 -25.5q-17 -70 -36 -105l-16 -7q-16 39 -33 107q-11 7 -38 7q-78 0 -123.5 -55t-45.5 -135q0 -82 48.5 -136t129.5 -54q8 0 29 8q46 38 82 57l8 -13q-6 -20 -28.5 -48 t-36.5 -37q-34 -11 -72 -14l-31 -45q35 -18 47.5 -34t12.5 -39q0 -30 -28 -54.5t-81 -40.5l-14 27q61 26 61 55q0 14 -13.5 24t-49.5 25z" />
<glyph unicode="&#xe8;" horiz-adv-x="454" d="M319 233h-190q-1 -5 -1 -14q0 -83 45.5 -131.5t114.5 -48.5q20 0 34 6q64 44 84 54l5 -16q-4 -16 -24.5 -40t-32.5 -32q-51 -24 -105 -24q-94 0 -153 61t-59 163q0 104 64.5 172.5t152.5 68.5q72 0 120.5 -46t48.5 -127q0 -25 -10 -32q-35 -14 -94 -14zM130 271h199 q5 12 5 30q0 48 -23.5 82t-64.5 34q-55 0 -85.5 -51t-30.5 -95zM288 515l-23 -22l-146 152v15q32 15 71 15h13z" />
<glyph unicode="&#xe9;" horiz-adv-x="454" d="M226 493l-23 21l96 161q37 0 76 -18v-12zM319 233h-190q-1 -5 -1 -14q0 -83 45.5 -131.5t114.5 -48.5q20 0 34 6q64 44 84 54l5 -16q-4 -16 -24.5 -40t-32.5 -32q-51 -24 -105 -24q-94 0 -153 61t-59 163q0 104 64.5 172.5t152.5 68.5q72 0 120.5 -46t48.5 -127 q0 -25 -10 -32q-35 -14 -94 -14zM130 271h199q5 12 5 30q0 48 -23.5 82t-64.5 34q-55 0 -85.5 -51t-30.5 -95z" />
<glyph unicode="&#xea;" horiz-adv-x="454" d="M319 233h-190q-1 -5 -1 -14q0 -83 45.5 -131.5t114.5 -48.5q20 0 34 6q64 44 84 54l5 -16q-4 -16 -24.5 -40t-32.5 -32q-51 -24 -105 -24q-94 0 -153 61t-59 163q0 104 64.5 172.5t152.5 68.5q72 0 120.5 -46t48.5 -127q0 -25 -10 -32q-35 -14 -94 -14zM130 271h199 q5 12 5 30q0 48 -23.5 82t-64.5 34q-55 0 -85.5 -51t-30.5 -95zM237 671l21 5l100 -161l-23 -19l-87 93l-87 -93l-23 19z" />
<glyph unicode="&#xeb;" horiz-adv-x="454" d="M319 233h-190q-1 -5 -1 -14q0 -83 45.5 -131.5t114.5 -48.5q20 0 34 6q64 44 84 54l5 -16q-4 -16 -24.5 -40t-32.5 -32q-51 -24 -105 -24q-94 0 -153 61t-59 163q0 104 64.5 172.5t152.5 68.5q72 0 120.5 -46t48.5 -127q0 -25 -10 -32q-35 -14 -94 -14zM130 271h199 q5 12 5 30q0 48 -23.5 82t-64.5 34q-55 0 -85.5 -51t-30.5 -95zM154 641l8 2q9 -6 24.5 -23t21.5 -30l-1 -8q-5 -12 -20.5 -28t-27.5 -25l-8 -2q-13 8 -27 23.5t-21 28.5l2 9q20 34 49 53zM333 641l8 2q9 -6 24.5 -23t21.5 -30l-1 -8q-10 -25 -48 -53l-8 -2q-29 19 -48 52 l2 9q22 34 49 53z" />
<glyph unicode="&#xec;" horiz-adv-x="268" d="M41 404l5 19q72 23 133 29v-202q0 -142 2 -198l71 -29l-7 -24q-70 2 -112 2q-26 0 -104 -2l7 24l57 29q2 78 2 200v126zM168 515l-23 -22l-145 152v15q30 15 70 15h13z" />
<glyph unicode="&#xed;" horiz-adv-x="268" d="M41 404l5 19q72 23 133 29v-202q0 -142 2 -198l71 -29l-7 -24q-70 2 -112 2q-26 0 -104 -2l7 24l57 29q2 78 2 200v126zM112 493l-23 21l96 161q36 0 75 -18v-12z" />
<glyph unicode="&#xee;" horiz-adv-x="268" d="M41 404l5 19q72 23 133 29v-202q0 -142 2 -198l71 -29l-7 -24q-70 2 -112 2q-26 0 -104 -2l7 24l57 29q2 78 2 200v126zM113 671l21 5l100 -161l-23 -19l-87 93l-86 -93l-24 19z" />
<glyph unicode="&#xef;" horiz-adv-x="268" d="M41 404l5 19q72 23 133 29v-202q0 -142 2 -198l71 -29l-7 -24q-70 2 -112 2q-26 0 -104 -2l7 24l57 29q2 78 2 200v126zM33 641l8 2q9 -6 24.5 -23t21.5 -30l-2 -8q-10 -25 -47 -53l-8 -2q-13 8 -27 23.5t-21 28.5l2 9q19 32 49 53zM212 641l7 2q9 -5 24.5 -22.5 t22.5 -30.5l-2 -8q-9 -25 -47 -53l-9 -2q-29 20 -47 52l2 9q23 36 49 53z" />
<glyph unicode="&#xf0;" horiz-adv-x="512" d="M96 681l14 29q107 -25 188 -83l122 66l22 -28l-113 -63q65 -57 105 -144.5t40 -189.5q0 -138 -60.5 -209.5t-160.5 -71.5q-87 0 -151 60t-64 166q0 110 68 174.5t154 64.5q65 0 107 -37l2 2q-30 94 -93 157l-145 -79l-25 27l142 78q-55 47 -152 81zM260 416 q-60 0 -93 -59t-33 -132q0 -79 32 -141.5t94 -62.5q35 0 60 20.5t38 55t18.5 71t5.5 76.5q0 94 -37 135q-32 37 -85 37z" />
<glyph unicode="&#xf1;" horiz-adv-x="557" d="M96 283v88l-53 23l7 21q14 8 61 22t69 15l-6 -79h2q97 79 158 79q71 0 103 -47t32 -112v-227q0 -13 14 -19l59 -25l-7 -23q-12 0 -51.5 0.5t-60.5 0.5q-14 0 -43.5 -0.5t-45.5 -0.5l7 25l40 29q4 60 4 232q0 54 -26.5 80.5t-67.5 26.5q-29 0 -59.5 -16.5t-51.5 -38.5 q0 -267 2 -287l56 -27l-6 -24q-26 1 -96 1q-18 0 -53.5 -0.5t-51.5 -0.5l7 23l55 28q3 24 3 233zM394 626l24 -16q-46 -85 -94 -85q-16 0 -62 24q-31 17 -43 17q-25 0 -59 -46l-23 19q52 86 94 86q17 0 55 -21q35 -21 49 -21q29 0 59 43z" />
<glyph unicode="&#xf2;" horiz-adv-x="525" d="M266 452q94 0 158 -64.5t64 -163.5q0 -106 -64 -171.5t-161 -65.5q-90 0 -157.5 61.5t-67.5 165.5q0 108 71 173t157 65zM261 417q-60 0 -93 -57.5t-33 -137.5q0 -77 36.5 -138.5t99.5 -61.5q43 0 71.5 31.5t38.5 72.5t10 89q0 78 -34.5 140t-95.5 62zM309 516l-24 -23 l-145 152v15q30 15 70 15h13z" />
<glyph unicode="&#xf3;" horiz-adv-x="525" d="M266 452q94 0 158 -64.5t64 -163.5q0 -106 -64 -171.5t-161 -65.5q-90 0 -157.5 61.5t-67.5 165.5q0 108 71 173t157 65zM261 417q-60 0 -93 -57.5t-33 -137.5q0 -77 36.5 -138.5t99.5 -61.5q43 0 71.5 31.5t38.5 72.5t10 89q0 78 -34.5 140t-95.5 62zM248 494l-23 20 l96 161q37 0 76 -18v-12z" />
<glyph unicode="&#xf4;" horiz-adv-x="525" d="M266 452q94 0 158 -64.5t64 -163.5q0 -106 -64 -171.5t-161 -65.5q-90 0 -157.5 61.5t-67.5 165.5q0 108 71 173t157 65zM261 417q-60 0 -93 -57.5t-33 -137.5q0 -77 36.5 -138.5t99.5 -61.5q43 0 71.5 31.5t38.5 72.5t10 89q0 78 -34.5 140t-95.5 62zM252 671l21 5 l100 -161l-23 -19l-87 93l-87 -93l-23 19z" />
<glyph unicode="&#xf5;" horiz-adv-x="525" d="M266 452q94 0 158 -64.5t64 -163.5q0 -106 -64 -171.5t-161 -65.5q-90 0 -157.5 61.5t-67.5 165.5q0 108 71 173t157 65zM261 417q-60 0 -93 -57.5t-33 -137.5q0 -77 36.5 -138.5t99.5 -61.5q43 0 71.5 31.5t38.5 72.5t10 89q0 78 -34.5 140t-95.5 62zM375 626l24 -16 q-45 -85 -94 -85q-16 0 -61 24q-33 17 -44 17q-24 0 -59 -46l-23 19q53 86 95 86q17 0 54 -21q35 -21 49 -21q29 0 59 43z" />
<glyph unicode="&#xf6;" horiz-adv-x="525" d="M266 452q94 0 158 -64.5t64 -163.5q0 -106 -64 -171.5t-161 -65.5q-90 0 -157.5 61.5t-67.5 165.5q0 108 71 173t157 65zM261 417q-60 0 -93 -57.5t-33 -137.5q0 -77 36.5 -138.5t99.5 -61.5q43 0 71.5 31.5t38.5 72.5t10 89q0 78 -34.5 140t-95.5 62zM173 641l7 2 q9 -6 25 -23t22 -30l-2 -8q-5 -12 -21 -28.5t-27 -24.5l-8 -2q-29 19 -48 52l2 9q23 35 50 53zM352 641l7 2q9 -6 25 -23t22 -30l-2 -8q-10 -25 -48 -53l-8 -2q-32 22 -47 52l1 9q23 35 50 53z" />
<glyph unicode="&#xf7;" horiz-adv-x="590" d="M77 261h448l-12 -51h-449zM294 142h8q8 -3 23 -20t21 -30l-2 -8q-6 -12 -21.5 -29t-26.5 -23l-7 -2q-30 17 -44 51l1 9q25 35 48 52zM298 439l5 1q9 -4 24 -20.5t21 -30.5l-1 -7q-6 -12 -22 -28.5t-26 -22.5l-7 -3q-13 7 -26.5 22.5t-18.5 28.5l1 8q20 30 50 52z" />
<glyph unicode="&#xf8;" horiz-adv-x="526" d="M392 414l41 57l26 -22l-40 -56q70 -65 70 -169q0 -106 -64.5 -171.5t-161.5 -65.5q-66 0 -121 34l-48 -64l-25 25l44 59q-34 27 -55 72.5t-21 100.5q0 109 71 173.5t157 64.5q72 0 127 -38zM159 98l195 269q-35 50 -91 50q-64 0 -99.5 -58.5t-35.5 -138.5q0 -74 29 -122 h2zM374 335l-195 -267q35 -46 93 -46q64 0 95 59t31 138q0 68 -23 115z" />
<glyph unicode="&#xf9;" horiz-adv-x="543" d="M84 384l-57 24l10 21q50 16 136 16q-7 -79 -7 -293q0 -47 18 -73q27 -29 73 -29q31 0 62.5 16t46.5 42v262q-5 12 -18.5 19.5t-50.5 20.5l10 20q60 15 130 15h16q-3 -47 -3 -369q25 -43 78 -57l-6 -17q-22 -13 -57 -13q-81 0 -96 75h-2q-71 -77 -146 -77q-63 0 -100 37 q-40 39 -40 124q0 32 1.5 116t1.5 120zM296 515l-23 -22l-145 152v15q30 15 70 15h13z" />
<glyph unicode="&#xfa;" horiz-adv-x="543" d="M243 493l-23 21l96 161q37 0 76 -18v-12zM84 384l-57 24l10 21q50 16 136 16q-7 -79 -7 -293q0 -47 18 -73q27 -29 73 -29q31 0 62.5 16t46.5 42v262q-5 12 -18.5 19.5t-50.5 20.5l10 20q60 15 130 15h16q-3 -47 -3 -369q25 -43 78 -57l-6 -17q-22 -13 -57 -13 q-81 0 -96 75h-2q-71 -77 -146 -77q-63 0 -100 37q-40 39 -40 124q0 32 1.5 116t1.5 120z" />
<glyph unicode="&#xfb;" horiz-adv-x="543" d="M84 384l-57 24l10 21q50 16 136 16q-7 -79 -7 -293q0 -47 18 -73q27 -29 73 -29q31 0 62.5 16t46.5 42v262q-5 12 -18.5 19.5t-50.5 20.5l10 20q60 15 130 15h16q-3 -47 -3 -369q25 -43 78 -57l-6 -17q-22 -13 -57 -13q-81 0 -96 75h-2q-71 -77 -146 -77q-63 0 -100 37 q-40 39 -40 124q0 32 1.5 116t1.5 120zM251 671l22 5l99 -161l-23 -20l-87 94l-86 -94l-23 20z" />
<glyph unicode="&#xfc;" horiz-adv-x="543" d="M84 384l-57 24l10 21q50 16 136 16q-7 -79 -7 -293q0 -47 18 -73q27 -29 73 -29q31 0 62.5 16t46.5 42v262q-5 12 -18.5 19.5t-50.5 20.5l10 20q60 15 130 15h16q-3 -47 -3 -369q25 -43 78 -57l-6 -17q-22 -13 -57 -13q-81 0 -96 75h-2q-71 -77 -146 -77q-63 0 -100 37 q-40 39 -40 124q0 32 1.5 116t1.5 120zM168 641l8 2q9 -6 24.5 -23.5t21.5 -29.5l-2 -8q-5 -12 -21 -28.5t-27 -24.5l-8 -2q-31 20 -47 52l2 9q20 34 49 53zM347 641l7 2q9 -6 24.5 -23t22.5 -30l-2 -8q-10 -25 -48 -53l-8 -2q-32 22 -47 52l1 9q23 35 50 53z" />
<glyph unicode="&#xfd;" horiz-adv-x="458" d="M310 416l8 24q10 0 33.5 -1t34.5 -1q16 0 44.5 1t40.5 1l-6 -24q-38 -17 -61 -41q-17 -36 -48 -110l-79 -191l-84 -202q-3 -12 -12 -52.5t-14 -60.5q-7 -4 -23 -4q-21 0 -43 11t-29 21q10 24 87 111q25 50 51 109q-4 8 -31 79l-61 158q-34 89 -51 129q-10 15 -23.5 23 t-46.5 21l9 23q62 -2 94 -2q31 0 95 2l-7 -24l-32 -25q9 -27 99 -275h2q74 192 99 274zM233 493l-23 21l96 161q36 0 76 -18v-12z" />
<glyph unicode="&#xfe;" horiz-adv-x="533" d="M77 105v292q0 190 -3 239l-59 24l8 22q64 17 141 28q-3 -140 -3 -316l2 -1q91 59 137 59q31 0 64 -13.5t63 -38.5t49 -68t19 -96q0 -65 -25 -115.5t-63.5 -78t-78 -41.5t-76.5 -14q-17 0 -44 11.5t-45 24.5l-2 -1q0 -53 4 -197l91 -31l-9 -22q-84 2 -129 2q-37 0 -109 -2 l9 25l55 25q4 204 4 283zM161 356v-292q38 -29 81 -29q65 0 112 52t47 136q0 72 -38 121t-103 49q-48 0 -99 -37z" />
<glyph unicode="&#xff;" horiz-adv-x="458" d="M310 416l8 24q10 0 33.5 -1t34.5 -1q16 0 44.5 1t40.5 1l-6 -24q-38 -17 -61 -41q-17 -36 -48 -110l-79 -191l-84 -202q-3 -12 -12 -52.5t-14 -60.5q-7 -4 -23 -4q-21 0 -43 11t-29 21q10 24 87 111q25 50 51 109q-4 8 -31 79l-61 158q-34 89 -51 129q-10 15 -23.5 23 t-46.5 21l9 23q62 -2 94 -2q31 0 95 2l-7 -24l-32 -25q9 -27 99 -275h2q74 192 99 274zM153 641l7 2q9 -6 24.5 -23t22.5 -30l-2 -8q-5 -12 -20.5 -28t-27.5 -25l-8 -2q-13 8 -27 23.5t-21 28.5l2 9q20 33 50 53zM331 641l8 2q9 -6 24.5 -23t21.5 -30l-1 -8q-10 -25 -48 -53 l-9 -2q-29 20 -47 52l2 9q22 34 49 53z" />
<glyph unicode="&#x152;" horiz-adv-x="991" d="M622 658h216q31 9 84 12l3 -3q-5 -46 -26 -150l-15 -7q-32 72 -44 109l-203 -7v-248q148 0 254 12l4 -10q-4 -8 -28 -33t-32 -25q-7 0 -95 5t-103 5q0 -188 4 -271l212 -9q41 57 93 120l15 -1q-11 -85 -34 -160q-66 3 -183 3h-122q-23 0 -102 -3t-91 -3q-183 0 -284.5 90 t-101.5 237q0 149 109 246t309 97q16 0 82.5 -3t78.5 -3zM548 47v565q-34 14 -94 14q-64 0 -116 -16.5t-87 -45t-59 -67.5t-34.5 -81.5t-10.5 -89.5q0 -58 18 -109.5t53 -93.5t94.5 -67t136.5 -25q60 0 99 16z" />
<glyph unicode="&#x153;" horiz-adv-x="798" d="M254 416q-44 0 -73 -32.5t-38.5 -73.5t-9.5 -88q0 -49 12.5 -93t43 -76t73.5 -32q33 0 56.5 19t35.5 50t17 62.5t5 66.5q0 75 -31 136t-91 61zM660 226h-193v-16q0 -82 44.5 -129.5t122.5 -47.5q12 0 30 8q54 42 82 54l5 -15q-10 -24 -28.5 -47t-32.5 -29 q-44 -17 -98 -17q-57 0 -102.5 22.5t-69.5 64.5q-24 -41 -70.5 -64t-98.5 -23q-89 0 -151.5 60.5t-62.5 167.5q0 108 69 172t154 64q111 0 166 -91q30 44 75 67.5t95 23.5q72 0 120.5 -44.5t48.5 -128.5q0 -28 -11 -32q-40 -20 -94 -20zM467 263h200q8 18 8 45 q0 45 -22.5 77t-67.5 32q-55 0 -85.5 -50t-32.5 -104z" />
<glyph unicode="&#x178;" horiz-adv-x="631" d="M6 636l10 23q78 -2 117 -2q32 0 84 2l-6 -25l-23 -21q15 -31 153 -276h3l142 271l-35 26l9 25q40 -2 62 -2q35 0 111 2l-9 -25l-46 -18q-19 -4 -29.5 -11.5t-21.5 -23.5q-75 -114 -157 -267q-9 -18 -9 -37q0 -202 3 -223l118 -31l-8 -24q-21 0 -73.5 0.5t-84.5 0.5 q-31 0 -84 -0.5t-74 -0.5l7 22l101 33q7 63 7 213q0 18 -10 37l-167 287q-27 29 -90 45zM233 822l7 3q9 -5 25 -22.5t23 -31.5l-2 -7q-5 -13 -21 -30t-27 -24l-9 -2q-26 15 -49 53l3 8q19 31 50 53zM430 822l7 3q9 -5 25 -22.5t23 -31.5l-2 -7q-6 -13 -21.5 -30.5 t-26.5 -23.5l-9 -2q-29 17 -48 53l1 8q21 32 51 53z" />
<glyph unicode="&#x2c6;" horiz-adv-x="386" d="M182 671l21 5l100 -161l-24 -20l-86 94l-87 -94l-23 20z" />
<glyph unicode="&#x2dc;" horiz-adv-x="386" d="M311 626l24 -16q-46 -85 -95 -85q-15 0 -61 24q-31 17 -43 17q-24 0 -59 -46l-23 19q52 86 95 86q15 0 54 -21q33 -21 49 -21q29 0 59 43z" />
<glyph unicode="&#x2000;" horiz-adv-x="438" />
<glyph unicode="&#x2001;" horiz-adv-x="876" />
<glyph unicode="&#x2002;" horiz-adv-x="438" />
<glyph unicode="&#x2003;" horiz-adv-x="876" />
<glyph unicode="&#x2004;" horiz-adv-x="292" />
<glyph unicode="&#x2005;" horiz-adv-x="219" />
<glyph unicode="&#x2006;" horiz-adv-x="146" />
<glyph unicode="&#x2007;" horiz-adv-x="146" />
<glyph unicode="&#x2008;" horiz-adv-x="109" />
<glyph unicode="&#x2009;" horiz-adv-x="175" />
<glyph unicode="&#x200a;" horiz-adv-x="48" />
<glyph unicode="&#x2010;" horiz-adv-x="367" d="M282 212l-238 -27l33 72l51 -1l195 11l1 -6z" />
<glyph unicode="&#x2011;" horiz-adv-x="367" d="M282 212l-238 -27l33 72l51 -1l195 11l1 -6z" />
<glyph unicode="&#x2013;" horiz-adv-x="605" d="M547 201h-499l10 55h499z" />
<glyph unicode="&#x2014;" horiz-adv-x="927" d="M868 201h-820l10 55h820z" />
<glyph unicode="&#x2018;" horiz-adv-x="206" d="M155 711l15 -23q-59 -55 -59 -115q0 -18 8 -34l39 -20v-13l-76 -44h-12q-11 5 -22 24q-11 22 -11 51q0 45 30 91q31 48 88 83z" />
<glyph unicode="&#x2019;" horiz-adv-x="206" d="M51 460l-15 23q59 55 59 115q0 21 -8 34l-38 20v13l76 44h12q10 -4 21 -25q12 -23 12 -51q0 -45 -30 -91q-31 -47 -89 -82z" />
<glyph unicode="&#x201a;" horiz-adv-x="217" d="M50 -118l-16 24q27 24 44 57.5t17 62.5q0 21 -7 35l-41 20v15l81 46h13q10 -3 21 -26q12 -25 12 -53q0 -47 -32 -95q-32 -49 -92 -86z" />
<glyph unicode="&#x201c;" horiz-adv-x="372" d="M319 711l16 -24q-59 -55 -59 -114q0 -21 7 -32l38 -20v-15l-75 -44h-12q-10 5 -21 27q-12 24 -12 55q0 94 118 167zM155 711l15 -24q-59 -55 -59 -114q0 -21 7 -32l39 -20v-15l-76 -44h-12q-10 5 -21 24q-12 22 -12 51q0 45 30 91q31 48 89 83z" />
<glyph unicode="&#x201d;" horiz-adv-x="372" d="M52 460l-16 23q59 57 59 115q0 23 -7 32l-38 20v15l75 44h13q9 -4 20 -27q12 -26 12 -57q0 -92 -118 -165zM216 460l-15 23q59 57 59 115q0 23 -7 32l-39 20v15l76 44h12q10 -4 21 -25q12 -23 12 -51q0 -45 -30 -91q-31 -47 -89 -82z" />
<glyph unicode="&#x201e;" horiz-adv-x="387" d="M50 -118l-16 24q26 25 43.5 58t17.5 62q0 22 -8 35l-40 20v15l80 46h14q10 -3 21 -26.5t12 -50.5v-5q0 -46 -31 -92q-33 -49 -93 -86zM219 -118l-17 24q27 25 44.5 58t17.5 62q0 22 -8 35l-40 20v15l80 46h13q10 -3 21 -26t12 -50v-6q0 -45 -30 -92q-33 -49 -93 -86z" />
<glyph unicode="&#x2022;" horiz-adv-x="399" d="M195 359l16 6q23 -10 63 -54t59 -78l-6 -20q-13 -32 -54 -73t-69 -57l-17 -6q-32 18 -68 57.5t-54 72.5l5 21q70 100 125 131z" />
<glyph unicode="&#x2026;" horiz-adv-x="864" d="M141 119l7 3q11 -5 30.5 -26.5t27.5 -37.5l-2 -8q-7 -15 -26.5 -35t-32.5 -28l-9 -3q-35 22 -58 63l2 9q30 45 61 63zM426 119l8 3q11 -5 30.5 -26.5t27.5 -37.5l-3 -8q-6 -15 -25 -34.5t-34 -28.5l-8 -3q-16 9 -33 28t-25 35l3 9q27 44 59 63zM712 119l8 3 q11 -5 30.5 -26.5t27.5 -37.5l-3 -8q-6 -15 -25 -34.5t-34 -28.5l-8 -3q-35 22 -58 63l2 9q30 44 60 63z" />
<glyph unicode="&#x202f;" horiz-adv-x="175" />
<glyph unicode="&#x2039;" horiz-adv-x="306" d="M253 41l-21 -16q-85 110 -182 195q88 79 179 193l20 -17q-33 -66 -102 -176q75 -113 106 -179z" />
<glyph unicode="&#x203a;" horiz-adv-x="306" d="M51 396l22 17q47 -60 99 -115t82 -80q-98 -91 -177 -193l-20 18l43 77q38 66 58 98q-79 118 -107 178z" />
<glyph unicode="&#x205f;" horiz-adv-x="219" />
<glyph unicode="&#x20ac;" d="M44 398l34 1q23 119 97.5 183t168.5 64q72 0 134 -40q-3 -20 -14 -56.5t-18 -49.5l-15 -7q-22 44 -33 109q-18 7 -44 7q-72 0 -119.5 -55.5t-61.5 -153.5l276 6l-18 -48l-263 6q-2 -12 -2 -35q-1 -8 -1 -14q0 -13 1 -20l252 6l-18 -48l-231 5q5 -101 49 -161.5t116 -60.5 q16 0 29 5q71 78 98 101l22 -7q-5 -18 -26.5 -63t-30.5 -55q-56 -23 -110 -23q-100 0 -167 71t-77 195l-66 1l11 33l52 1q-1 10 -1 20q0 24 4 50h-40z" />
<glyph unicode="&#x2122;" horiz-adv-x="478" d="M57 643h110q2 0 8.5 1.5t11.5 2t8 0.5t3 -3q0 -11 -9 -47q-2 -1 -5.5 -3t-5.5 -3q-1 2 -12 32l-37 -3v-116l35 -8l-4 -17h-103l7 17l27 8v116l-36 3l-9 -15q-4 -7 -6 -11t-3 -5l-12 4q0 32 3 49q1 1 3 1q1 0 5 -0.5t10 -1.5t11 -1zM212 626l5 17h71l2 -12q10 -23 45 -90 q9 14 46 92l1 10h75l-5 -17l-22 -6q0 -81 4 -117l27 -7l-6 -17h-86l5 17l20 5v114q-9 -21 -62 -135h-13l-59 129q-3 -89 -4 -105l30 -8l-4 -17h-78l4 15l22 10q3 20 11 113q-2 6 -29 9z" />
</font>
</defs>
</svg>
