<?xml version="1.0" standalone="no"?>
<!DOCTYPE svg PUBLIC "-//W3C//DTD SVG 1.1//EN" "http://www.w3.org/Graphics/SVG/1.1/DTD/svg11.dtd" >
<svg xmlns="http://www.w3.org/2000/svg">
<metadata>
This is a custom SVG webfont generated by Font Squirrel.
Designer    : Robert Slimbach
Foundry URL : http://www.adobe.com/type
</metadata>
<defs>
<font id="webfontJJ6gW4F8" horiz-adv-x="507" >
<font-face units-per-em="1000" ascent="735" descent="-265" />
<missing-glyph horiz-adv-x="235" />
<glyph unicode=" "  horiz-adv-x="235" />
<glyph unicode="&#x09;" horiz-adv-x="235" />
<glyph unicode="&#xa0;" horiz-adv-x="235" />
<glyph unicode="!" horiz-adv-x="235" d="M134 217l-34 -13q60 322 65 363l-4 48q40 30 120 35l7 -8zM87 118h7q8 -8 21 -30.5t16 -35.5l-1 -7q-6 -13 -31 -34t-38 -28h-6q-11 9 -24.5 30.5t-18.5 39.5l1 3q36 48 74 62z" />
<glyph unicode="&#x22;" horiz-adv-x="332" d="M160 461l-37 -17q35 160 38 190l-9 29q42 24 94 32h14q-51 -134 -100 -234zM312 465l-37 -15q3 14 17.5 86t19.5 103l-9 30q38 20 95 32l13 -1q-47 -123 -99 -235z" />
<glyph unicode="#" d="M366 406h-110l-52 -138h112zM150 469h90l60 164l43 5l-63 -169h111l61 164l43 5l-64 -169h93l-38 -64l-79 1l-52 -138h92l-37 -62l-79 1l-66 -181l-42 -6l68 187h-111l-67 -181l-42 -6l69 187l-103 -1l37 62h90l51 138h-101z" />
<glyph unicode="$" d="M351 632l26 91l32 4l-27 -100q40 -13 66 -37q31 20 67 30l8 -5q-35 -104 -61 -146l-16 -6q-8 39 -12 96q-21 24 -62 34l-67 -235q33 -21 51 -33.5t41 -34.5t34 -47.5t11 -58.5q0 -83 -66 -132q-65 -48 -162 -48h-8l-27 -96l-36 -9l30 107q-51 8 -96.5 32.5t-66.5 49.5 q2 11 24 49t37 57l16 4q2 -15 2 -61t1 -64q32 -26 91 -33l72 249q-65 39 -98 76.5t-34 94.5q0 86 68 134q55 40 128 40q17 0 34 -2zM278 373l63 225q-9 1 -17 1q-51 0 -88 -27q-41 -29 -41 -87q0 -37 21 -62t62 -50zM281 273l-66 -234q73 2 109.5 35t36.5 83q0 38 -20 64 t-60 52z" />
<glyph unicode="%" horiz-adv-x="784" d="M304 654q52 0 81.5 -36.5t29.5 -100.5q0 -85 -58 -156.5t-142 -71.5q-47 0 -79 33q-33 35 -33 99q0 81 58 157q59 76 143 76zM302 623q-39 0 -71 -42.5t-46 -92.5t-14 -89q0 -36 13 -58t38 -22q50 0 88 78.5t38 147.5q0 36 -12 57t-34 21zM677 662l23 -28l-564 -672 l-22 29zM616 353q52 0 81.5 -36.5t29.5 -100.5q0 -85 -58 -156.5t-142 -71.5q-48 0 -79 34q-33 34 -33 98q0 81 57 156q59 77 144 77zM614 322q-39 0 -70.5 -42.5t-46 -93t-14.5 -88.5q0 -36 13.5 -58t38.5 -22q34 0 64 40.5t45.5 92t15.5 93.5q0 78 -46 78z" />
<glyph unicode="&#x26;" horiz-adv-x="712" d="M333 195l-3 27q79 85 193 85q51 0 114 -6q35 34 72 62l17 -17q-45 -57 -80 -119q-27 8 -78 14q-21 -129 -105.5 -191.5t-188.5 -62.5q-103 0 -167 55t-64 142q0 137 184 197v3q-24 15 -39 42t-15 59q0 74 60.5 121t150.5 47q41 0 79 -13.5t58 -34.5q-1 -13 -18 -43.5 t-31 -46.5l-20 -7q-10 42 -14 103q-18 8 -49 8q-59 0 -96.5 -34.5t-37.5 -91.5q0 -38 28.5 -66.5t83.5 -38.5l-21 -29q-11 3 -34 3q-69 -1 -123 -42q-53 -41 -53 -113q0 -71 46.5 -115t124.5 -44q81 0 144.5 53.5t81.5 143.5q-22 2 -56 2q-80 0 -144 -52z" />
<glyph unicode="'" horiz-adv-x="181" d="M158 461l-36 -17q32 138 38 190l-10 29q44 25 94 32l14 -1q-9 -27 -44 -110t-56 -123z" />
<glyph unicode="(" horiz-adv-x="305" d="M390 723l18 -19q-130 -93 -208.5 -250t-78.5 -333q0 -178 64 -283l-24 -18q-109 126 -108 334q2 172 92 328t245 241z" />
<glyph unicode=")" horiz-adv-x="315" d="M-43 -180l-16 23q127 86 204.5 246.5t78.5 330.5v6q0 183 -64 281l25 16q50 -58 79 -147q28 -86 28 -185v-7q-2 -173 -92 -329.5t-243 -234.5z" />
<glyph unicode="*" horiz-adv-x="373" d="M269 479l6 4l96 -47l22 -5q-4 -19 -22 -40t-33 -25l-9 21zM251 510l-12 -5l-93 46l-24 5q2 17 20.5 40.5t34.5 27.5l9 -21zM243 495l-3 -12l-88 -59l-17 -18q-11 7 -21 38q-7 19 -7 32q0 7 2 12l21 -4zM274 496l3 12l87 60l16 18q14 -11 24 -42q8 -23 8 -36q0 -4 -1 -7 l-23 6zM271 517l-11 -2l-7 113l-5 21q5 3 18 3q10 0 25 -2q33 -5 40 -15l-14 -18zM250 473l9 5l9 -113l8 -27q-5 -1 -12 -1q-14 0 -34 5q-31 6 -42 15l17 20z" />
<glyph unicode="+" horiz-adv-x="604" d="M337 -4l-59 -12v226h-201l12 51h189v193l59 12v-205h200l-11 -51h-189v-214z" />
<glyph unicode="," horiz-adv-x="219" d="M-28 -120l-16 24q41 27 67.5 63.5t26.5 71.5q0 9 -4 23l-42 28l1 13l72 49h11q12 -4 24.5 -26.5t12.5 -57.5q0 -57 -42 -107.5t-111 -80.5z" />
<glyph unicode="-" horiz-adv-x="353" d="M274 217l-240 -27l34 72l51 -2l198 11v-5z" />
<glyph unicode="." horiz-adv-x="219" d="M80 122h6q9 -9 22.5 -32t16.5 -37l-1 -6q-7 -13 -32 -35t-38 -29h-6q-11 9 -24.5 31t-19.5 41l1 3q18 24 40 41.5t35 22.5z" />
<glyph unicode="/" horiz-adv-x="381" d="M30 -39h-58l443 715h57z" />
<glyph unicode="0" d="M352 654q71 0 115 -56.5t44 -167.5q0 -66 -19 -140.5t-54.5 -143.5t-95 -114t-130.5 -45q-73 0 -120 56t-47 169q0 69 21.5 145t59.5 143t98 110.5t128 43.5zM347 621q-58 0 -109.5 -75t-79.5 -179t-28 -198q0 -79 24.5 -114t60.5 -35q59 0 110 79t77 182.5t26 191.5 q0 148 -81 148z" />
<glyph unicode="1" d="M321 573l-124 -2l12 19q4 1 38 12l81 24q47 15 82 28h12q-146 -563 -153 -603l115 -30l-11 -22q-28 0 -80.5 0.5t-77.5 0.5q-30 0 -88.5 -0.5t-86.5 -0.5l11 22l123 30q37 119 147 522z" />
<glyph unicode="2" d="M6 13l43 49q13 3 23 11q124 89 224 197q103 110 103 212q0 60 -31 93t-86 33q-46 0 -82 -22q-16 -87 -37 -134l-14 -8q-11 20 -23.5 56.5t-14.5 55.5q100 98 212 98q74 0 122 -45t48 -124q0 -69 -47 -131.5t-152 -149.5q-85 -71 -170 -134v-2q21 0 69 1t105 2.5t72 1.5 l80 80l18 -16q-30 -74 -71 -142q-14 0 -100.5 2.5t-137.5 2.5h-156z" />
<glyph unicode="3" d="M169 482l-15 -8q-20 39 -33 103q103 77 200 77q70 0 112.5 -37t42.5 -96q0 -35 -15.5 -64t-44.5 -49.5t-58 -34t-66 -25.5l-1 -4q159 -27 159 -154q0 -89 -79.5 -146t-185.5 -57q-57 0 -106 19.5t-77 46.5q33 72 61 107l16 3q9 -52 11 -123q30 -14 78 -14q80 0 132 45 t52 121q0 59 -33 91.5t-85 36.5q-64 -11 -84 -13l-6 9q17 34 39 48q39 -2 61 -3q70 23 106 63q34 38 34 86q0 50 -29 77q-28 26 -77 26q-44 0 -73 -18q-24 -92 -36 -113z" />
<glyph unicode="4" d="M363 201l-36 -151l86 -29l-10 -22q-23 0 -66.5 0.5t-64.5 0.5q-25 0 -73 -0.5t-71 -0.5l8 22l101 29q30 96 44 150l-254 -2l-15 29q55 73 201.5 229t175.5 177q37 18 92 21l-107 -416l55 -1q44 44 65 55l13 1q-5 -19 -26 -75t-29 -69l-13 -5q-13 29 -18 58zM292 239 l101 347l-7 -1q-108 -110 -164.5 -175t-137.5 -167q98 -4 208 -4z" />
<glyph unicode="5" d="M107 357l-6 16q1 4 100 267q82 -2 212 -2q35 0 86 23l10 -22q-29 -31 -69 -57q-22 -13 -48 -14q-66 -4 -171 -4l-67 -159q66 -20 120 -39q94 -32 131 -70.5t37 -102.5q0 -87 -72.5 -146.5t-179.5 -59.5q-51 0 -101 21t-72 44q8 20 28.5 54t32.5 47l15 6q7 -48 12 -120 q26 -14 76 -14q76 0 123.5 44t47.5 107q0 48 -33.5 80t-104.5 61q-30 12 -107 40z" />
<glyph unicode="6" d="M513 662l12 -27q-125 -24 -218 -93q-123 -90 -160 -220l2 -1q86 68 164 68q64 0 110 -43.5t46 -131.5q0 -93 -66.5 -160t-169.5 -67q-87 0 -139.5 59t-52.5 163q0 91 43.5 180.5t137.5 160.5q67 51 149.5 80t141.5 32zM238 19q61 0 101.5 58.5t40.5 129.5q0 67 -30 99.5 t-74 32.5q-36 0 -74 -18t-62 -44q-11 -33 -11 -84q0 -82 30 -128t79 -46z" />
<glyph unicode="7" d="M90 -13l-7 11q22 47 193 263q142 179 227 308l1 2q-35 1 -150 1q-90 0 -152 -2q-46 -74 -55 -85l-23 -6q17 119 27 167q46 -5 66 -5q273 0 360 1l-8 -29q-15 -44 -187.5 -285t-186.5 -276l-9 -51z" />
<glyph unicode="8" d="M336 340v-2q28 -24 40.5 -36t33 -35t29 -47t8.5 -52q0 -73 -61.5 -127t-160.5 -54q-90 0 -144.5 46t-54.5 110q0 55 39 92.5t142 93.5v2q-88 64 -88 144q0 77 58.5 128t141.5 51q74 0 119.5 -43t45.5 -106q0 -18 -4 -34t-14 -30.5t-18 -24t-25.5 -22t-26 -18t-30.5 -18.5 zM309 621q-50 0 -83 -36q-32 -35 -32 -81t29 -78t84 -68q104 64 104 150q0 50 -28 81.5t-74 31.5zM231 20q58 0 94.5 35t36.5 94q0 21 -10 42t-18.5 34t-33 34l-30.5 26l-34 25q-127 -76 -127 -163q0 -56 35.5 -91.5t86.5 -35.5z" />
<glyph unicode="9" d="M327 654q84 0 133.5 -59.5t49.5 -165.5q0 -202 -180 -341q-68 -51 -143 -78t-123 -31l-12 27q105 28 195 95q116 86 160 214l-2 1q-72 -62 -150 -62q-63 0 -113 42.5t-50 130.5q0 89 69 158t166 69zM320 621q-62 0 -100 -56t-38 -129q0 -65 33.5 -97.5t73.5 -32.5 q32 0 66.5 14t54.5 40q15 43 15 94q0 167 -105 167z" />
<glyph unicode=":" horiz-adv-x="219" d="M81 122h7q9 -9 22 -32.5t16 -36.5l-1 -6q-6 -13 -31 -35t-39 -29h-7q-28 24 -43 72l1 3q35 47 75 64zM148 429h6q9 -7 22 -31t16 -38l-1 -6q-7 -13 -32 -36t-38 -28h-6q-12 9 -25.5 31.5t-17.5 40.5l1 3q33 46 75 64z" />
<glyph unicode=";" horiz-adv-x="219" d="M144 429h6q9 -9 22.5 -32t16.5 -37l-1 -6q-6 -14 -31.5 -36t-39.5 -28h-6q-11 10 -24.5 31.5t-18.5 40.5l1 3q33 46 75 64zM-28 -120l-16 24q41 28 67.5 64t26.5 71q0 15 -4 23l-42 28l1 13l72 49h11q12 -4 24.5 -26.5t12.5 -56.5q0 -58 -42 -108.5t-111 -80.5z" />
<glyph unicode="&#x3c;" horiz-adv-x="594" d="M59 194l12 62l407 209l-9 -60l-353 -181v-2l362 -184l-9 -55z" />
<glyph unicode="=" horiz-adv-x="604" d="M533 173l-12 -51h-442l12 51h442zM533 352l-12 -51h-442l12 51h442z" />
<glyph unicode="&#x3e;" horiz-adv-x="594" d="M529 256l-12 -60l-406 -212l8 60l351 182v3l-359 180l8 56z" />
<glyph unicode="?" horiz-adv-x="402" d="M179 501l-17 -7q-16 35 -26 96q34 24 80 41.5t82 17.5q58 0 98.5 -34.5t40.5 -94.5q0 -42 -28 -74.5t-78 -66.5l-63 -43q-22 -15 -43.5 -36t-24.5 -37q-2 -9 -2 -17q0 -18 7 -36l-22 -11q-16 7 -35 41q-14 26 -14 52q0 7 1 14q27 48 122 113q40 28 56 40.5t30.5 33 t14.5 43.5q0 32 -23.5 53.5t-63.5 21.5q-17 0 -46 -9q-32 -80 -46 -101zM168 118h6q9 -7 22 -30t16 -36l-1 -7q-7 -13 -31.5 -34t-37.5 -28h-6q-11 9 -24.5 30.5t-18.5 39.5l1 3q36 48 74 62z" />
<glyph unicode="@" horiz-adv-x="819" d="M496 361q-46 0 -95 -45q-44 -38 -75.5 -99t-31.5 -111q0 -34 20 -34q25 0 74.5 41t96.5 111q34 49 57 117q-14 20 -46 20zM631 407l6 -5l-31 -50q-42 -116 -81 -276q-2 -13 5 -13q83 0 140 59.5t57 167.5q0 110 -69.5 176t-187.5 66q-160 0 -255.5 -105t-95.5 -262 q0 -138 82 -217t208 -79q165 0 292 123l19 -26q-138 -149 -335 -149q-154 0 -245 93.5t-91 245.5q0 179 123.5 296.5t306.5 117.5q132 0 218 -75t86 -201q0 -124 -89 -200q-86 -74 -204 -74h-9q-23 0 -37 6q25 85 51 157h-4q-52 -72 -112 -117t-104 -45q-28 0 -42 21t-14 57 q0 60 39.5 132t103.5 118q71 50 127 50q40 0 64 -24l8 19z" />
<glyph unicode="A" horiz-adv-x="677" d="M394 631l79 48l6 -5q-6 -20 -6 -48q0 -11 1 -23q3 -63 61 -519q9 -28 23.5 -38t59.5 -22l-8 -25q-18 0 -55 0.5t-56 0.5q-17 0 -52 -0.5t-53 -0.5l5 20l50 28q-1 11 -19 189q-60 -5 -163 -5h-62q-85 -134 -109 -176l83 -33l-7 -23q-19 0 -59.5 0.5t-60.5 0.5 q-17 0 -51 -0.5t-51 -0.5l8 23l73 33q21 26 73 105l149 227l133 204q9 14 9 27zM400 543h-3l-163 -263q20 0 95.5 -2t97.5 -2l-15 152q-10 93 -12 115z" />
<glyph unicode="B" horiz-adv-x="606" d="M140 630l12 21q95 11 204 13q227 0 227 -146q0 -69 -57 -110t-143 -54l-1 -3q174 -29 174 -155q-1 -97 -92 -148q-89 -50 -242 -50h-12q-94 1 -233 3l8 23l87 28q11 22 68 236l85 324zM314 630l-68 -264q115 1 180 40.5t65 113.5q0 110 -166 110h-11zM238 332 q-64 -244 -76 -296h30q137 0 197 41q69 46 69 124q0 65 -50 98q-49 33 -163 33h-7z" />
<glyph unicode="C" horiz-adv-x="667" d="M617 158l12 -24q-45 -75 -90 -119q-90 -33 -171 -33q-134 0 -215.5 77.5t-81.5 211.5q0 167 122.5 286t301.5 119q95 0 136 -37q27 14 77 24l6 -7q-10 -31 -34.5 -85.5t-34.5 -70.5l-17 -5q-8 47 -10 110q-37 28 -114 28q-145 0 -240 -104.5t-95 -254.5q0 -112 61 -179.5 t171 -67.5q30 0 65 7q121 103 151 124z" />
<glyph unicode="D" horiz-adv-x="722" d="M140 631l11 21q102 12 211 12q166 0 256.5 -74.5t90.5 -212.5q0 -134 -84.5 -229.5t-220.5 -130.5q-77 -19 -253 -19h-35q-102 2 -139 2l10 23l84 25q8 16 82 295l72 272zM314 626l-73 -283q-74 -285 -77 -309q97 1 167.5 13t126.5 48q79 50 117 127.5t38 168.5 q0 94 -47 151q-70 84 -248 84h-4z" />
<glyph unicode="E" horiz-adv-x="571" d="M138 638l10 21q21 0 60.5 -0.5t58.5 -0.5h247q46 9 73 9h5l4 -4q-24 -98 -46 -148l-15 -6q-6 17 -14.5 59.5t-11.5 52.5l-198 -9l-64 -248q167 0 254 11l4 -13q-7 -8 -35.5 -29.5t-32.5 -21.5q-3 0 -94 4.5t-109 4.5q-61 -240 -68 -272l232 -12l56 56q42 42 65 62l14 -9 q-6 -21 -27 -70.5t-38 -77.5q-94 3 -210 3h-155q-21 0 -65 -0.5t-65 -0.5l9 23l91 30q18 51 81 291l70 266z" />
<glyph unicode="F" horiz-adv-x="532" d="M142 637l12 22q19 0 57.5 -0.5t56.5 -0.5h250q7 2 39.5 5.5t45.5 3.5l5 -6q-32 -108 -51 -154l-15 -6l-25 121l-206 -10l-69 -267q179 0 257 13l4 -13q-5 -8 -33 -30t-33 -22q-3 0 -95.5 4.5t-111.5 4.5q-55 -212 -60 -248l114 -32l-11 -23q-27 0 -81.5 0.5t-81.5 0.5 q-21 0 -61 -0.5t-60 -0.5l8 22l76 33q9 18 80 286l71 270z" />
<glyph unicode="G" horiz-adv-x="729" d="M554 -19h-4q-36 11 -44 32q-60 -30 -144 -30q-134 0 -213 80t-79 206q0 170 121.5 288t311.5 118q47 0 87 -12.5t59 -29.5q19 10 81 27l4 -7q-7 -24 -32.5 -84t-36.5 -79l-16 -5q-9 47 -12 112q-47 35 -131 35q-151 0 -245 -105t-94 -249q0 -116 63.5 -182t172.5 -66 q63 0 106 18l75 215l-226 5l-1 12l47 29q100 7 293 7q-17 -57 -73.5 -188t-69.5 -147z" />
<glyph unicode="H" horiz-adv-x="746" d="M142 636l14 23q18 0 55 -0.5t56 -0.5q17 0 51 0.5t50 0.5l-7 -23l-56 -31l-59 -229h331l60 230l-45 33l9 20q14 0 40 -0.5t39 -0.5q23 0 68 0.5t67 0.5l-10 -23l-82 -31q-14 -44 -70 -264q-68 -265 -66 -286l82 -31l-12 -25q-21 0 -64.5 0.5t-66.5 0.5q-16 0 -49 -0.5 t-50 -0.5l10 24l54 31q17 58 42.5 158.5t32.5 125.5q-62 -9 -165 -9h-166q-50 -187 -69 -277l46 -31l-7 -22q-16 0 -47.5 0.5t-48.5 0.5q-21 0 -64.5 -0.5t-66.5 -0.5l11 24l80 30q6 13 35 111.5t50 183.5l66 259z" />
<glyph unicode="I" horiz-adv-x="330" d="M152 637l9 22q19 0 55 -1t55 -1q20 0 60.5 1t61.5 1l-8 -22l-75 -31l-70 -263q-66 -249 -71 -292l84 -29l-13 -23q-20 0 -63.5 0.5t-65.5 0.5t-65.5 -0.5t-67.5 -0.5l10 23l82 29q11 23 84 292l71 264z" />
<glyph unicode="J" horiz-adv-x="312" d="M133 637l12 22q21 0 61 -0.5t60 -0.5q21 0 63 0.5t64 0.5l-11 -24l-78 -30l-120 -472q-24 -85 -57 -134q-34 -54 -83.5 -89.5t-90.5 -50.5l-22 18l3 11q49 21 84 59q42 46 73 159q12 44 70 276q44 175 54 225z" />
<glyph unicode="K" horiz-adv-x="660" d="M758 658l-12 -22q-5 -2 -114 -29q-18 -5 -37 -21q-65 -54 -246 -224v-2q56 -92 160 -244l89 -123l-9 -8q-58 5 -92.5 26t-66.5 65q-84 113 -167 253l2 7q230 214 290 278q-3 8 -6.5 26.5t-3.5 20.5q18 1 47 1q59 0 166 -4zM149 637l10 22q18 0 56 -0.5t57 -0.5 q20 0 60 0.5t61 0.5l-9 -22l-74 -30l-70 -264q-67 -252 -72 -291l85 -30l-12 -23q-21 0 -63.5 0.5t-64.5 0.5q-23 0 -67 -0.5t-66 -0.5l10 23l81 29q21 50 83 292l69 264z" />
<glyph unicode="L" horiz-adv-x="551" d="M147 637l10 22q19 0 56.5 -1t55.5 -1q22 0 66 1t65 1l-11 -24l-79 -28l-69 -261q-71 -265 -75 -299l203 -10q120 120 131 130l16 -7q-45 -108 -73 -164q-8 0 -42.5 1t-109.5 2t-181 1q-22 0 -65 -0.5t-64 -0.5l8 21l84 31q5 12 80 293l70 263z" />
<glyph unicode="M" horiz-adv-x="924" d="M181 636l11 22h169q-5 -23 -5 -41v-9q11 -66 87 -455h2l307 464q8 15 11 41h182l-9 -24l-91 -28q-15 -73 -42 -274t-36 -281l88 -29l-10 -23q-21 0 -63 0.5t-62 0.5q-22 0 -66 -0.5t-66 -0.5l9 23l77 28l90 520h-2l-361 -572l-22 -7q-17 119 -85 540h-2l-52 -133 l-72 -186q-35 -90 -59 -160l90 -31l-9 -22q-21 0 -64.5 0.5t-64.5 0.5q-15 0 -47 -0.5t-48 -0.5l7 22l76 34q108 235 226 528q-4 21 -19.5 29.5t-74.5 23.5z" />
<glyph unicode="N" horiz-adv-x="731" d="M210 21l-10 -22q-19 0 -59 1t-60 1q-18 0 -54 -1t-55 -1l8 22l85 34q25 64 152 510q-20 39 -36.5 49.5t-70.5 21.5l12 22q9 0 65.5 2t82.5 4q3 -21 22 -59l252 -498h2q79 303 123 498l-81 32l11 22q20 0 57 -1t54 -1q20 0 57 1t54 1l-12 -24l-84 -32q-38 -95 -151 -549 l61 -42l-4 -12l-122 -11q-38 69 -265 527h-2q-101 -368 -117 -462z" />
<glyph unicode="O" horiz-adv-x="739" d="M461 675q44 0 87.5 -15.5t84 -48t65.5 -92t25 -138.5q0 -71 -25 -140.5t-72 -127.5t-122 -94t-166 -36q-50 0 -96 16.5t-85.5 49.5t-63 90.5t-23.5 131.5q0 101 48.5 193t140 151.5t202.5 59.5zM454 638q-85 0 -153 -59.5t-101.5 -144.5t-33.5 -173q0 -118 49 -180.5 t130 -62.5q82 0 148.5 60t100 147t33.5 176q0 119 -49 178t-124 59z" />
<glyph unicode="P" horiz-adv-x="565" d="M136 628l12 22q118 14 195 14q109 0 177 -43.5t68 -144.5t-77.5 -160t-184.5 -59q-29 0 -51 8l-3 24q99 5 161 53.5t62 140.5q0 54 -28 87.5t-67 45.5q-36 10 -81 10h-8l-68 -271q-71 -283 -73 -301l103 -32l-11 -23q-22 0 -72 0.5t-76 0.5q-22 0 -66 -0.5t-66 -0.5l7 22 l83 33q11 25 83 298l70 260z" />
<glyph unicode="Q" horiz-adv-x="737" d="M674 -172l-11 -13q-11 -1 -23 -1q-71 0 -165 47q-50 24 -181 109q-26 17 -45 24q-181 68 -181 270q0 101 48 194.5t139.5 155t202.5 61.5q36 0 71.5 -9.5t71 -31t62 -53.5t43 -81.5t16.5 -109.5q0 -153 -87.5 -259.5t-226.5 -139.5v-2zM450 639q-86 0 -153.5 -65 t-99.5 -151.5t-32 -169.5q0 -103 44 -165t125 -80q70 8 127.5 48t92 97.5t53 122t18.5 126.5q0 120 -48 178.5t-127 58.5z" />
<glyph unicode="R" horiz-adv-x="602" d="M142 620l11 25q97 19 205 19q223 0 223 -159q0 -139 -204 -199l-1 -2q33 -75 116 -219l27 -47l19 -30l8 -16l-9 -7q-81 6 -129 76q-53 77 -132 240l4 8q209 51 209 189q0 127 -161 127h-15l-79 -307q-62 -242 -66 -263l91 -32l-10 -24q-22 0 -66.5 0.5t-66.5 0.5 q-23 0 -66.5 -0.5t-65.5 -0.5l11 24l77 30q14 42 75 264l81 294z" />
<glyph unicode="S" horiz-adv-x="499" d="M329 675q70 0 110 -38q35 19 68 30l10 -4q-3 -18 -25.5 -79.5t-32.5 -77.5l-15 -4q-7 28 -16 99q-9 12 -33 22.5t-58 10.5q-62 0 -98 -35t-36 -86q0 -54 48 -96q15 -13 55 -45l66 -52q77 -63 77 -140q0 -85 -66 -141t-168 -56q-64 0 -120 25.5t-87 57.5q5 16 28 64.5 t37 64.5l14 4q3 -13 5 -40t3.5 -62.5t2.5 -48.5q35 -23 105 -23q76 0 116.5 38t40.5 92q0 55 -55 102l-109 91q-73 62 -73 139q0 84 60 136t146 52z" />
<glyph unicode="T" horiz-adv-x="640" d="M225 658h414q33 7 85 13l6 -2q-18 -53 -73 -170l-16 -4q-7 76 -9 128l-163 -8l-65 -253q-56 -210 -75 -310l116 -31l-13 -22q-27 0 -80.5 1t-80.5 1t-80 -1t-79 -1l11 22l107 31q16 43 79 281l74 282l-164 8q-63 -86 -96 -123l-19 -4q44 164 47 172l3 3q30 0 71 -13z" />
<glyph unicode="U" horiz-adv-x="743" d="M217 605l-76 32l12 22q16 0 52.5 -0.5t53.5 -0.5q16 0 45.5 0.5t43.5 0.5l-9 -22l-41 -37q-15 -47 -62 -215t-57 -223q-4 -21 -4 -38q0 -81 87 -81q132 0 261 133l121 431l-46 30l10 22q25 -1 91 -1q20 0 58 0.5t57 0.5l-12 -23l-77 -31q-15 -47 -78.5 -290.5 t-64.5 -260.5l88 -18l-11 -23q-143 -21 -182 -30l-6 3l40 133h-2q-143 -136 -286 -136q-66 0 -102 29q-40 31 -40 95q0 34 12 79q20 75 124 419z" />
<glyph unicode="V" horiz-adv-x="670" d="M110 637l8 22q18 0 54 -0.5t53 -0.5t49 0.5t49 0.5l-8 -24l-41 -29q0 -12 2 -31t7 -59l11 -85l18 -135l23 -185h2q218 342 309 497l-42 28l12 23q13 0 39.5 -0.5t40.5 -0.5q16 0 49.5 0.5t50.5 0.5l-10 -23q-60 -25 -84 -37q-88 -118 -372 -567q-24 -30 -52 -51h-11 q-4 28 -15 118l-33 245l-34 256q-21 15 -75 37z" />
<glyph unicode="W" horiz-adv-x="951" d="M112 637l10 22q14 0 47.5 -0.5t49.5 -0.5q17 0 46.5 0.5t42.5 0.5l-9 -23l-33 -24q7 -75 70 -502h1l167 249q-26 163 -42 245q-27 16 -73 32l9 23q13 0 48.5 -0.5t52.5 -0.5h57l-2 -8l-7 -39q6 -53 25 -173h2q85 128 110 173l11 44l3 3h50q14 0 44 0.5t46 0.5l-10 -23 q-68 -26 -93 -37q-50 -61 -153 -212q13 -91 43 -273h2l296 495l-25 27l11 23q12 0 36 -0.5t35 -0.5q15 0 44.5 0.5t45.5 0.5l-9 -23q-58 -24 -84 -38q-43 -56 -355 -559q-20 -29 -50 -57l-9 -2q-4 18 -21 132t-30 189h-2l-182 -265q-23 -31 -49 -54l-9 -1l-41 286 q-37 259 -49 336q-23 15 -68 34z" />
<glyph unicode="X" horiz-adv-x="656" d="M121 637l11 22q21 0 62 -0.5t61 -0.5q16 0 46 0.5t45 0.5l-9 -24l-32 -26l45 -127q26 -71 28 -77h3q108 127 164 204l-28 27l10 23q10 0 33.5 -0.5t34.5 -0.5q20 0 58.5 0.5t59.5 0.5l-11 -24l-98 -34q-73 -74 -211 -235q72 -205 114 -313l98 -33l-12 -21q-21 0 -65 1 t-66 1q-14 0 -42 -1t-42 -1l34 50q-13 54 -82 243h-3q-164 -200 -194 -241l50 -30l-11 -22q-15 0 -46 1t-47 1q-19 0 -57.5 -1t-57.5 -1l10 22l92 34q55 54 248 282q-41 120 -98 267z" />
<glyph unicode="Y" horiz-adv-x="594" d="M106 638l10 21q15 0 51 -0.5t54 -0.5q16 0 48 0.5t48 0.5l-9 -23l-38 -23q7 -26 85 -268h2q132 160 204 265l-35 28l10 21q15 0 42 -0.5t39 -0.5q17 0 51 0.5t53 0.5l-11 -23l-85 -30q-96 -103 -243 -291q-14 -17 -20 -39q-54 -196 -56 -224l108 -31l-10 -22 q-27 0 -79.5 1t-78.5 1q-24 0 -74 -1t-74 -1l10 21l100 31q19 49 70 232q2 9 2 18q0 13 -4 26l-94 278q-17 10 -76 33z" />
<glyph unicode="Z" horiz-adv-x="634" d="M664 658l-1 -16l-532 -597v-3q24 0 172 -2.5t158 -2.5l122 138l16 -3q-30 -102 -60 -176q-2 0 -196.5 2t-344.5 2l-7 12l542 601v2q-37 0 -143 2l-157 3q-37 -59 -83 -121l-18 -6q25 169 27 175l5 4q19 -3 36 -6.5t25.5 -5.5t11.5 -2h427z" />
<glyph unicode="[" horiz-adv-x="315" d="M282 661l-202 -779l104 -24l-11 -27h-167l228 882h169l-9 -27z" />
<glyph unicode="\" horiz-adv-x="453" d="M360 -39h-53l-147 715h53z" />
<glyph unicode="]" horiz-adv-x="315" d="M63 -121l202 786l-103 25l10 23h168l-228 -882h-172l11 22z" />
<glyph unicode="^" horiz-adv-x="498" d="M463 292l-57 -8l-141 309l-132 -301l-61 -8l164 359l60 3z" />
<glyph unicode="_" horiz-adv-x="483" d="M426 -100v-48h-483v48h483z" />
<glyph unicode="`" horiz-adv-x="386" d="M314 507l-27 -12l-99 170l2 10q31 17 63 17q7 0 15 -1z" />
<glyph unicode="a" horiz-adv-x="532" d="M403 443l93 12l3 -9l-38 -48q-59 -185 -93 -349l2 -1q59 18 119 96l6 -10q-4 -53 -57.5 -100t-125.5 -47q-14 0 -32 4q6 24 26.5 98t27.5 101h-3q-60 -89 -127.5 -146t-119.5 -57q-33 0 -50.5 26t-17.5 71q0 68 43.5 154t125.5 147q72 55 146 55q35 0 65 -22zM123 45 q31 0 81.5 44.5t106.5 128.5q26 40 40.5 72.5t32.5 94.5q-18 15 -45 15q-66 0 -126 -65q-54 -58 -83.5 -127.5t-29.5 -121.5q0 -41 23 -41z" />
<glyph unicode="b" horiz-adv-x="512" d="M127 656l9 20q30 11 81 21t75 11l3 -2q-4 -15 -19 -67l-46 -152l-61 -209h3q63 93 123 133t103 40q41 0 64.5 -34t23.5 -88q0 -136 -100.5 -239t-221.5 -103q-68 0 -134 43l165 614zM169 22q52 0 97.5 32t74 80t44.5 100q15 50 15 92v5q-1 67 -40 67q-49 0 -129 -94 q-45 -53 -75 -120.5t-36 -124.5q2 -17 16.5 -27t32.5 -10z" />
<glyph unicode="c" horiz-adv-x="408" d="M366 142l7 -32q-87 -123 -211 -123q-66 0 -98.5 42.5t-32.5 108.5q0 56 25 118.5t78 112.5q86 82 186 82q58 0 80 -22q-3 -16 -17 -54.5t-26 -55.5l-17 -9q-6 12 -23 106q-1 0 -5.5 0.5t-7.5 0.5q-57 0 -110 -62q-76 -90 -76 -209q0 -48 20 -76t60 -28q47 0 91.5 32 t74.5 69z" />
<glyph unicode="d" horiz-adv-x="544" d="M396 657l11 19q28 12 78.5 22t78.5 10l2 -2q-137 -438 -182 -651l2 -2q18 6 35 16.5t31 24.5l22 22q9 10 18 22t10 13l8 -9q-8 -60 -63.5 -107.5t-120.5 -47.5q-15 0 -33 4l57 203h-3q-64 -95 -130 -151t-122 -56q-32 0 -53 28.5t-21 80.5q0 82 45.5 165.5t116.5 136.5 t142 53q44 0 81 -30q58 205 62 223zM332 408q-54 0 -108 -51.5t-86 -124t-32 -135.5q0 -52 31 -52q28 0 78 41t101 121q30 45 45 78.5t35 100.5q-27 22 -64 22z" />
<glyph unicode="e" horiz-adv-x="419" d="M375 145l5 -34q-41 -59 -96.5 -91.5t-115.5 -32.5q-57 0 -96 35q-41 35 -41 117q0 65 32 135q33 72 97.5 124.5t141.5 52.5q49 0 76 -27.5t28 -70.5q0 -41 -26 -67q-24 -29 -109 -55t-148 -36q-5 -25 -5 -54q0 -43 19.5 -71.5t62.5 -28.5q46 0 94 32.5t78 71.5h3z M286 418q-44 0 -90 -54t-67 -135q52 11 111.5 31t74.5 43q15 21 15 56q0 29 -12.5 44t-31.5 15z" />
<glyph unicode="f" horiz-adv-x="268" d="M69 438h72q35 146 112 215q61 56 131 56q48 0 71 -22q-21 -60 -45 -91l-17 -6q-13 36 -20 81q-3 1 -10 1q-89 0 -142 -235h109l-17 -32l-103 -14q-51 -227 -75 -324q-24 -101 -52.5 -155.5t-75.5 -96.5q-63 -54 -119 -54q-27 0 -49 12.5t-30 28.5l39 56l7 2 q31 -45 81 -45q14 0 23 3.5t22.5 17t26.5 46.5t26 85q38 156 97 425l-80 17z" />
<glyph unicode="g" horiz-adv-x="419" d="M478 464l-41 -68l-78 -4l-1 -2q20 -34 20 -71q0 -82 -58.5 -145.5t-146.5 -63.5q-21 0 -35 7q-12 -13 -12 -25q0 -26 33 -42l139 -65q70 -36 70 -80q0 -42 -39 -77t-88 -51.5t-90 -16.5q-61 0 -106.5 15.5t-67 38t-31.5 42.5t-10 35q0 18 17 32q48 36 139 80v1 q-29 27 -29 59q0 21 50 64q-59 34 -59 111q0 85 65 151q61 62 144 62h10q18 -1 49 -6q51 -12 70 -14l78 43zM255 418q-48 0 -87.5 -68t-39.5 -137q0 -35 13.5 -53t35.5 -18q50 0 89 68t39 135q0 35 -13.5 54t-36.5 19zM174 -198h3q54 0 86.5 20.5t32.5 48.5q0 24 -40 47 q-74 41 -139 69q-59 -33 -82 -52.5t-23 -36.5q0 -32 46 -64t116 -32z" />
<glyph unicode="h" horiz-adv-x="533" d="M98 0l-79 -8l94 348q69 262 77 304l-73 13l10 19q28 11 82.5 21.5t77.5 10.5l2 -2l-142 -505h3q119 181 241 234q38 16 70 16q22 0 27 -9q2 -3 2 -9q0 -12 -6 -34q-77 -265 -87 -335l90 12l-12 -30q-91 -27 -176 -65l-8 6q3 14 53.5 183.5t58.5 201.5q5 19 -8 19 q-37 0 -106 -69.5t-114 -146.5q-43 -72 -77 -175z" />
<glyph unicode="i" horiz-adv-x="290" d="M240 661h6q8 -7 18 -28.5t11 -34.5l-1 -5q-8 -13 -30.5 -33.5t-32.5 -24.5h-6q-9 8 -19 28t-14 37l1 2q33 43 67 59zM143 380l-65 9l9 20q23 12 73.5 26.5t78.5 15.5l1 -3q-88 -288 -123 -413l3 -1q26 7 65 43t62 67l4 -12q-7 -46 -51 -95.5t-109 -49.5q-27 0 -37 25 q-5 11 -5 28q0 22 8 56q21 82 86 284z" />
<glyph unicode="j" horiz-adv-x="262" d="M141 386l-74 11l11 21q27 11 78 22t79 12l2 -2q-44 -184 -101 -389q-35 -127 -80 -188q-57 -77 -136 -113l-22 21q20 13 34.5 26t36.5 39.5t41.5 69t34.5 98.5zM233 661h5q8 -7 18.5 -28.5t11.5 -34.5l-2 -4q-7 -13 -29.5 -33.5t-33.5 -25.5h-5q-9 8 -19.5 28t-13.5 37v2 q32 42 68 59z" />
<glyph unicode="k" horiz-adv-x="468" d="M512 436l-14 -22q-88 -18 -110 -32q-48 -32 -130 -108v-2q13 -27 43 -80l67 -118l52 -88l-8 -7q-47 6 -72.5 19.5t-53.5 56.5t-65 108.5t-42 79.5l3 4l151 142q15 15 19.5 23t16.5 38q5 1 14 1q19 0 57 -4q57 -6 72 -11zM199 643l-66 13l9 20q31 11 81.5 21.5t73.5 10.5 l3 -2q-51 -160 -200 -701q-53 -8 -85 -11q120 401 184 649z" />
<glyph unicode="l" horiz-adv-x="283" d="M200 644l-66 13l10 20q29 11 80 21.5t75 10.5l2 -2l-101 -342l-92 -330l2 -1q41 10 131 119l7 -9q-6 -51 -53.5 -104t-113.5 -53q-25 0 -35 25q-5 12 -5 32q0 22 6 55z" />
<glyph unicode="m" horiz-adv-x="822" d="M110 0l-79 -8q17 49 60.5 206.5t46.5 182.5l-70 8l8 20q27 12 81 27t76 16l2 -3q-5 -19 -30 -101l-44 -147h2q117 184 241 235q36 15 71 15q18 0 23 -11q1 -5 1 -12q0 -13 -5 -35q-19 -73 -55 -188h2q113 177 237 231q38 15 74 15q19 0 23 -11q1 -3 1 -9q0 -13 -6 -37 q-77 -269 -86 -331l90 13l-12 -30q-50 -15 -178 -65l-6 10q2 12 52.5 180.5t59.5 201.5q6 18 -8 18q-36 0 -102.5 -66t-112.5 -142q-46 -77 -82 -183l-80 -8q22 66 61.5 197t49.5 184q3 18 -8 18q-40 0 -105 -65t-113 -146q-42 -69 -80 -180z" />
<glyph unicode="n" horiz-adv-x="546" d="M110 0l-78 -8q18 52 61.5 209.5t44.5 179.5l-67 8l7 20q22 11 78.5 26.5t77.5 16.5l2 -2q-2 -10 -12 -45l-29 -95l-33 -112h3q120 187 241 238q34 15 70 15q22 0 26 -11q1 -2 1 -8q0 -12 -7 -38q-77 -270 -87 -331l91 13l-12 -30q-86 -26 -177 -65l-7 10q2 8 52.5 176 t60.5 206q6 17 -8 17q-37 0 -103.5 -67t-112.5 -141q-49 -80 -83 -182z" />
<glyph unicode="o" horiz-adv-x="478" d="M302 451q64 0 102 -48.5t38 -122.5q0 -112 -79 -202.5t-184 -90.5q-61 0 -101.5 44t-41.5 121q0 117 79.5 208t186.5 91zM291 418q-46 0 -86.5 -49.5t-62 -116t-21.5 -124.5q0 -108 65 -108q42 0 82.5 46t64.5 113t24 128q0 111 -66 111z" />
<glyph unicode="p" horiz-adv-x="528" d="M139 383l-68 6l8 20q20 12 75 29.5t81 18.5l1 -3l-63 -209h3q77 114 141.5 160t109.5 46q35 0 55.5 -30t20.5 -81q0 -142 -98.5 -247.5t-210.5 -105.5q-45 0 -77 24q-26 -93 -45 -174l85 -22l-12 -25q-187 -11 -233 -11l10 25l63 28q21 52 67 223q61 218 87 328zM185 23 q64 0 120 53t85 126q28 70 28 134q0 61 -35 61q-23 0 -61.5 -30.5t-82.5 -94.5q-73 -93 -106 -212q8 -15 22.5 -26t29.5 -11z" />
<glyph unicode="q" horiz-adv-x="506" d="M159 -221l6 21q11 6 37 17t33 15q18 51 105 348h-2q-72 -101 -136 -147t-111 -46q-28 0 -49 26.5t-21 79.5q0 85 46.5 169t119 136.5t143.5 52.5q43 0 72 -40l2 1l8 19q46 16 96 20l3 -10l-40 -52q-21 -57 -70.5 -242.5t-79.5 -313.5l80 -24l-7 -23q-68 -7 -235 -7z M331 409q-57 0 -111.5 -56t-85 -130.5t-30.5 -134.5q0 -48 27 -48q31 0 79 41.5t94 105.5q33 48 47 77t41 112q-21 33 -61 33z" />
<glyph unicode="r" horiz-adv-x="382" d="M59 388l7 21q29 14 73 27.5t65 14.5l2 -2v-8q0 -63 -29 -172h3q99 182 194 182q22 0 37 -11q-1 -14 -18.5 -60.5t-29.5 -64.5l-16 -8q-9 28 -18 79q-2 1 -7 1q-13 0 -32.5 -16t-51.5 -64t-63 -121q-23 -52 -62 -186l-80 -8q39 126 68 239t31 149z" />
<glyph unicode="s" horiz-adv-x="357" d="M242 451q66 0 98 -30q-5 -20 -20.5 -53t-25.5 -46l-15 -5q-8 52 -13 94q-10 6 -32 6q-39 0 -64 -21.5t-25 -52.5q0 -24 16 -43.5t57 -50.5q47 -36 64.5 -64t17.5 -62q0 -55 -47.5 -95.5t-125.5 -40.5q-42 0 -82.5 18t-54.5 34q23 55 56 104l14 4q10 -49 15 -114 q19 -10 50 -10q46 0 72.5 22t26.5 54q0 22 -14.5 41.5t-48.5 46.5q-85 64 -85 128q0 63 49.5 99.5t116.5 36.5z" />
<glyph unicode="t" horiz-adv-x="326" d="M183 536l87 54l6 -5l-44 -147h131l-20 -32l-124 -13q-59 -195 -95 -354l1 -1q87 11 172 116l5 -19q-17 -46 -45.5 -78.5t-58.5 -46t-51.5 -18.5t-40.5 -5q-58 0 -58 52q0 14 4 32q19 83 89 322l-79 13l19 32h73z" />
<glyph unicode="u" horiz-adv-x="561" d="M145 378l-77 6l8 22q27 11 79.5 26t85.5 19l7 -2q-24 -64 -62.5 -190.5t-48.5 -169.5q-4 -15 -4 -25q0 -17 13 -17q36 0 95 60t116 151q41 67 76 177q38 11 93 16l5 -9l-40 -54q-45 -142 -90 -335l2 -1q59 16 114 95l7 -14q-6 -53 -58 -99.5t-126 -46.5q-3 0 -30 3 q20 76 71 241h-3q-102 -158 -193 -214q-49 -30 -90 -30q-45 0 -45 48q0 18 7 44l47 162z" />
<glyph unicode="v" horiz-adv-x="449" d="M106 378l-68 4l5 22q22 13 75 30t68 17l2 -2q2 -218 9 -363h3q105 110 144 196q27 52 27 120q0 17 -2 34q6 6 25 13t34 8l2 -1q15 -28 15 -63q0 -37 -31 -90.5t-66 -96.5l-92 -104q-56 -63 -76 -88q-19 -21 -48 -28l-5 1q-1 11 -5.5 123t-7.5 174q-4 79 -8 94z" />
<glyph unicode="w" horiz-adv-x="679" d="M111 372l-70 12l4 20q24 12 80 29.5t66 17.5l2 -3q-1 -39 -2 -160t-3 -189h2l166 260q-2 39 -4 65q13 11 40 19t43 8l4 -5q-1 -5 -3 -16t-3.5 -22.5t-1.5 -23.5q0 -71 5 -172.5t8 -121.5h3q85 98 124 184q32 67 32 142q0 10 -1 21q27 20 58 20l2 -1q13 -20 13 -62 q0 -29 -18 -69t-52 -88t-61 -82l-68 -83l-49 -59q-24 -19 -46 -27l-4 2q-5 24 -18 308l-2 -1l-186 -282q-23 -23 -47 -27l-4 2q-1 11 -1 60.5t-0.5 117.5t-2.5 115q-1 76 -5 91z" />
<glyph unicode="x" horiz-adv-x="484" d="M-18 114l14 18q35 -50 62 -76q17 5 63.5 57.5t89.5 112.5q-34 136 -49 157q-42 -16 -99 -89l-11 21q19 48 66.5 91.5t91.5 44.5q7 -4 13.5 -15.5t13 -30.5l11.5 -34l11 -40l10 -36h3q33 44 71 89q51 59 83 73h9q16 -13 27 -48.5t11 -72.5l-18 -17q-28 57 -45 69 q-16 -5 -59 -52t-70 -83l51 -176q3 -12 8 -12t20.5 10t39 33t41.5 51l8 -26q-20 -67 -71.5 -106.5t-101.5 -39.5q-1 3 -18 70l-35 128h-2q-88 -122 -111 -147q-44 -55 -65 -60q-8 0 -12 1q-14 16 -29.5 55t-21.5 80z" />
<glyph unicode="y" horiz-adv-x="445" d="M57 278l-23 22q26 83 61.5 117t63.5 35q48 -4 71 -105q21 -92 21 -240v-38h3q39 60 77.5 160t41.5 150l-30 43l5 10q38 18 83 20q6 0 10 -2q3 -3 3 -7q0 -14 -16.5 -70t-44.5 -125q-71 -173 -186 -321q-42 -53 -86 -93.5t-69.5 -56t-35.5 -15.5q-6 0 -15.5 7.5t-22 28 t-18.5 50.5l3 10q29 -2 97 -25q12 6 40.5 31t50.5 56q43 62 43 158q-2 176 -37 271q-11 33 -20 33q-8 0 -29.5 -31t-40.5 -73z" />
<glyph unicode="z" horiz-adv-x="426" d="M391 138l14 -28q-76 -122 -127 -142q-15 1 -94 34q-31 15 -69 28q-17 6 -31 6q-18 0 -30 -10q-18 -12 -35 -42h-8q-9 9 -9 22t7 29q6 15 21.5 31.5t28.5 23.5l155 160q90 95 111 120l-1 2q-29 -5 -59 -5q-24 0 -48 3q-14 2 -31.5 3.5t-26.5 2.5q-16 -9 -51 -45.5 t-48 -54.5l-16 23q21 40 57 92t50 63q72 -27 178 -27q52 0 93 39l14 -24q-13 -33 -316 -349l1 -2q30 0 83 -20q10 -4 26 -9l30 -10q12 -5 22 -8q40 19 109 94z" />
<glyph unicode="{" horiz-adv-x="313" d="M235 338l-113 -61v-2l82 -57q-56 -161 -69 -214q-7 -29 -7 -53q0 -21 6 -39q12 -35 55 -66l-15 -25q-55 20 -90 70q-24 34 -24 75q0 21 6 43q16 66 82 200l-84 63l9 14l111 63q0 128 19 207q14 55 73.5 103.5t115.5 64.5l8 -29q-58 -28 -86.5 -62.5t-42.5 -91.5 q-27 -108 -36 -203z" />
<glyph unicode="|" horiz-adv-x="301" d="M110 724h63v-965h-63v965z" />
<glyph unicode="}" horiz-adv-x="315" d="M111 221l112 59v2l-82 57q42 96 66 199q8 31 8 56q0 21 -6 39q-12 38 -54 66l16 25q51 -20 87 -72q24 -36 24 -76q0 -17 -4 -35q-19 -79 -82 -193l86 -64l-8 -15l-109 -61q-5 -144 -24 -218q-17 -65 -72.5 -108t-115.5 -61l-10 27q57 29 86.5 66t46.5 98q24 94 35 209z " />
<glyph unicode="~" horiz-adv-x="552" d="M515 312l33 -19q-29 -66 -64 -96t-82 -30q-42 0 -118 48q-60 39 -85 44q-9 2 -18 2q-53 0 -106 -93l-33 20q54 125 150 125q8 0 17 -1.5t16 -3t17 -5.5l14 -7q6 -2 17 -8l15 -8q3 -2 15 -9.5t15 -9.5q62 -39 95 -39q56 0 102 90z" />
<glyph unicode="&#xa1;" horiz-adv-x="235" d="M143 314h-7q-9 8 -22 31t-15 36l1 6q7 13 31.5 35t37.5 27h6q11 -8 24 -29.5t19 -40.5l-1 -3q-35 -47 -74 -62zM95 215l35 13q-57 -300 -65 -363l4 -48q-40 -30 -120 -35l-7 8z" />
<glyph unicode="&#xa2;" d="M351 540l23 81l34 5l-22 -84q39 0 67 -10.5t39 -22.5q-3 -14 -20 -50t-26 -47l-12 -4q-13 32 -19 95q-15 5 -33 5h-6l-99 -359q87 6 171 90l10 -29q-78 -97 -195 -112l-22 -79l-36 -8l24 85q-76 2 -113.5 45.5t-37.5 108.5q0 113 82.5 195t190.5 95zM243 149l97 353l-1 2 q-75 -16 -123.5 -91t-48.5 -157q0 -45 19.5 -73.5t56.5 -33.5z" />
<glyph unicode="&#xa3;" d="M457 154l21 -15q-25 -71 -66 -144q-5 0 -84.5 2.5t-136.5 2.5h-205l3 15l42 38q16 3 36 19q58 70 84 236l-98 13l20 30h85l7 36q30 168 126 232q52 35 115 35q66 0 100 -36q-16 -44 -48 -98l-20 -6q-7 29 -18 104q-10 3 -22 3q-105 0 -138 -185q-4 -20 -8.5 -50.5 t-5.5 -34.5h187l-17 -31l-177 -12q-17 -91 -46 -142t-89 -101l1 -2q30 -1 64 -1q91 0 212 6q24 22 76 86z" />
<glyph unicode="&#xa4;" d="M299 478q-61 0 -101.5 -47.5t-46.5 -114.5q-1 -9 -1 -17q0 -51 26 -84q29 -39 79 -39q60 0 99.5 46t44.5 116q1 10 1 19q0 48 -22 81q-27 40 -79 40zM509 505l-67 -59q20 -35 20 -82q0 -13 -1 -26q-8 -87 -64 -140l48 -50l-43 -44l-45 62q-47 -33 -111 -33q-68 0 -105 37 l-64 -65l-29 40l67 55q-27 38 -27 92q0 12 1 24q2 36 19.5 72t42.5 60l-51 52l44 45l46 -64q59 40 123 40q61 0 101 -41l65 64z" />
<glyph unicode="&#xa5;" d="M106 346h120l-57 250l-56 23l10 23q15 0 46.5 -0.5t45.5 -0.5q19 0 56 0.5t55 0.5l-10 -23l-63 -23l43 -231l2 -1l163 231l-67 25l11 22q15 0 48 -0.5t48 -0.5q14 0 43 0.5t45 0.5l-10 -22l-64 -29q-59 -67 -191 -245h136l-19 -35h-135l-21 -77h145l-19 -34h-134 q-35 -142 -36 -153l83 -26l-10 -22q-20 0 -62 0.5t-62 0.5q-21 0 -65 -0.5t-66 -0.5l10 22l79 26q10 19 48 153h-140l20 34h129l20 77h-139z" />
<glyph unicode="&#xa6;" horiz-adv-x="301" d="M110 666h63v-366h-63v366zM110 -183v367h63v-367h-63z" />
<glyph unicode="&#xa7;" horiz-adv-x="458" d="M84 367q0 70 46.5 129.5t131.5 99.5q39 24 80 24q34 0 53 -13q25 11 59 20l8 -4q-5 -19 -22.5 -61.5t-32.5 -62.5l-13 -3q-4 11 -13 80q-14 12 -45 12q-29 0 -50 -19t-21 -46q0 -19 11 -46q11 -33 71 -133q52 -104 52 -167q0 -136 -156 -238q-62 -46 -126 -46 q-32 0 -65.5 12t-50.5 30q3 13 21 45t31 46l13 2q1 -4 9 -94q19 -8 42 -8h5q38 1 65.5 23.5t27.5 54.5q0 39 -32 100l-59 119q-40 82 -40 144zM141 400q0 -49 33 -121q9 -20 33.5 -67.5t37.5 -75.5q31 -62 31 -102q0 -8 -3 -35h2q64 61 64 138q0 50 -28 106l-35 69l-28 55 q-10 20 -19 41q-18 40 -18 76v7q0 28 10 48l-3 1q-77 -57 -77 -140z" />
<glyph unicode="&#xa8;" horiz-adv-x="386" d="M218 649h4q8 -6 19.5 -25.5t14.5 -31.5l-2 -5q-5 -12 -26 -31t-33 -24h-5q-27 25 -37 62l1 2q30 39 64 53zM404 649h5q7 -6 18.5 -25.5t14.5 -31.5l-2 -5q-6 -12 -26.5 -31t-31.5 -24h-6q-27 25 -37 62l1 2q31 40 64 53z" />
<glyph unicode="&#xa9;" horiz-adv-x="696" d="M373 625q125 0 211.5 -89.5t86.5 -219.5q0 -129 -87 -218t-212 -89q-127 0 -213.5 88.5t-86.5 218.5t87 219.5t214 89.5zM373 585q-108 0 -180.5 -77t-72.5 -191t73 -191t181 -77q107 0 178 77t71 191t-71 191t-179 77zM392 477q36 0 62 -13q5 2 43 15l7 -3 q0 -13 -7 -51.5t-10 -43.5l-11 -7q-12 17 -30 61q-15 11 -44 11q-47 0 -81 -34t-34 -88q0 -57 34 -94.5t91 -37.5q12 0 24 4q49 44 62 51l10 -9q-2 -11 -15 -36t-19 -31q-34 -13 -81 -13q-74 0 -125.5 41.5t-51.5 115.5q0 44 17.5 77t45.5 50.5t56.5 26t56.5 8.5z" />
<glyph unicode="&#xaa;" horiz-adv-x="334" d="M351 553l-20 -30q-14 -45 -47 -176q29 8 69 45l3 -7q-2 -28 -34.5 -56t-80.5 -28q-11 0 -19 4l28 100h-3q-78 -104 -144 -104q-21 0 -33 15.5t-12 40.5q0 38 24 83.5t70 78.5q44 31 85 31q16 0 28.5 -7.5t16.5 -17.5l8 22l57 9zM133 339q14 0 41 22t57 64q30 41 41 75 q-7 23 -34 23t-53 -26q-30 -30 -49 -69t-19 -68q0 -21 16 -21z" />
<glyph unicode="&#xab;" horiz-adv-x="524" d="M228 45l-24 -17q-31 58 -74 113t-72 82q38 26 101 80.5t115 112.5l17 -18q-43 -68 -138 -178q56 -115 75 -175zM424 45l-23 -17q-31 58 -74 113t-72 82q118 82 215 193l17 -18q-34 -58 -134 -178q60 -136 71 -175z" />
<glyph unicode="&#xac;" horiz-adv-x="604" d="M447 59v223h-371l18 51h412v-259z" />
<glyph unicode="&#xad;" horiz-adv-x="353" d="M274 217l-240 -27l34 72l51 -2l198 11v-5z" />
<glyph unicode="&#xae;" horiz-adv-x="292" d="M228 652q49 0 82.5 -33.5t33.5 -82.5q0 -51 -34 -84.5t-84 -33.5q-49 0 -82.5 33.5t-33.5 83.5q0 49 34.5 83t83.5 34zM226 630q-36 0 -62 -27.5t-26 -66.5q0 -40 26 -68t63 -28q39 0 64 28t25 69q0 39 -26 66t-64 27zM175 578l3 10q19 4 47 4q46 0 46 -27q0 -18 -22 -27 q6 -15 22 -34q6 -7 10.5 -13t5.5 -7l-3 -2q-22 1 -37 14q-13 14 -28 41q14 5 19.5 9.5t5.5 13.5q0 10 -9 15.5t-21 4.5v-80l17 -6l-2 -9h-54l2 9l13 5v78z" />
<glyph unicode="&#xaf;" horiz-adv-x="386" d="M394 553h-214l22 54h214z" />
<glyph unicode="&#xb0;" horiz-adv-x="287" d="M250 647q40 0 66.5 -26.5t26.5 -70.5q0 -54 -36 -88.5t-88 -34.5q-40 0 -66 26t-26 70q0 50 35 87q36 37 88 37zM242 611q-30 0 -50 -27t-20 -60q0 -28 15 -44.5t39 -16.5q35 0 54 26t19 59q0 63 -57 63z" />
<glyph unicode="&#xb1;" horiz-adv-x="602" d="M519 51l-13 -51h-443l14 51h442zM320 114l-59 -12v203h-198l13 51h185v175l59 12v-187h197l-12 -51h-185v-191z" />
<glyph unicode="&#xb2;" horiz-adv-x="326" d="M87 436l31 32q14 8 21 13l23 17l28 20l25 20q18 14 27 22l22 22q15 13 22 24l15 23q8 13 11.5 25t3.5 24q0 29 -15 45t-40 16q-20 0 -38 -9q-22 -66 -29 -76l-15 -8q-12 24 -19 74q58 51 127 51q43 0 71.5 -25t28.5 -69q0 -37 -26 -66.5t-81 -66.5q-59 -41 -108 -72 q12 0 69 1.5t66 1.5l51 48l18 -10q-26 -58 -48 -91q-6 0 -56 1.5t-83 1.5h-104z" />
<glyph unicode="&#xb3;" horiz-adv-x="326" d="M197 670l-12 -5q-9 17 -19 65q59 41 116 41q46 0 70.5 -21.5t24.5 -53.5t-25.5 -51.5t-70.5 -33.5l-1 -2q89 -14 89 -80q0 -51 -50 -81t-115 -30q-30 0 -61 10t-48 24q13 33 40 68l12 4q1 -3 14 -72q13 -6 35 -6q42 0 71 23t29 62q0 55 -56 59q-36 -8 -49 -8l-5 5 q2 8 9.5 21t14.5 17q4 0 17.5 -1.5t19.5 -1.5q64 21 64 68q0 24 -14.5 37.5t-38.5 13.5q-20 0 -34 -7q-14 -40 -27 -64z" />
<glyph unicode="&#xb4;" horiz-adv-x="386" d="M243 495l-20 20l112 158q8 1 16 1q33 0 63 -17v-11z" />
<glyph unicode="&#xb5;" horiz-adv-x="549" d="M419 439l96 12v-4l-37 -54q-47 -151 -88 -339l2 -1q15 5 29 13t24 16t20.5 19t15.5 18l13 17q7 10 8 11l7 -10q-4 -50 -55.5 -100t-123.5 -50q-3 0 -30 3q11 43 66 234h-3q-21 -33 -42.5 -63.5t-57 -75t-71.5 -71.5t-64 -27q-20 0 -34 13h-2q-45 -129 -50 -236l-7 -3 q-29 8 -39 45q-5 15 -5 36q0 33 10 82q12 55 51 192l92 314q29 12 86 22l4 -4q-79 -228 -112 -352q-3 -13 -3 -23q0 -27 24 -27q36 0 91 58t111 151q39 66 74 184z" />
<glyph unicode="&#xb6;" horiz-adv-x="506" d="M519 654l-66 -118l-132 -511q-70 -269 -228 -269q-42 0 -62 23q-22 28 -29 54l9 11q30 -24 74 -24h10q122 0 183 214l12 42q-29 -12 -45 -12q-66 0 -122.5 54.5t-57.5 146.5q0 121 91 197t231 76h18l28 106l83 12z" />
<glyph unicode="&#xb7;" horiz-adv-x="204" d="M129 311h7q9 -7 22 -30t16 -37l-1 -6q-7 -13 -31.5 -35t-38.5 -28h-6q-11 9 -24 30.5t-19 40.5l1 2q36 49 74 63z" />
<glyph unicode="&#xb8;" horiz-adv-x="386" d="M135 0h41l-50 -58q49 -26 49 -64q0 -43 -44.5 -70t-90.5 -34l-9 26q27 8 53 25.5t26 38.5q0 26 -50 45l-1 3z" />
<glyph unicode="&#xb9;" horiz-adv-x="326" d="M271 705l-79 -3l11 20q5 2 25 9l52 19q34 11 58 20h9l-79 -307l71 -20l-10 -19q-21 0 -56 0.5t-51 0.5t-49.5 -0.5t-51.5 -0.5l8 19l67 20q42 130 75 242z" />
<glyph unicode="&#xba;" horiz-adv-x="307" d="M231 556q44 0 68 -25t24 -69q0 -62 -45.5 -111.5t-114.5 -49.5q-42 0 -66.5 25.5t-24.5 67.5q0 61 47 111.5t112 50.5zM228 531q-37 0 -65.5 -52.5t-28.5 -101.5q0 -51 33 -51q40 0 67 53.5t27 101.5q0 50 -33 50z" />
<glyph unicode="&#xbb;" horiz-adv-x="524" d="M295 399l24 17q63 -114 146 -195q-36 -25 -99 -80t-117 -113l-16 18q53 85 134 178q-48 98 -72 175zM100 399l22 17q63 -114 146 -195q-39 -28 -101.5 -82t-113.5 -111l-16 18q34 58 134 178q-55 122 -71 175z" />
<glyph unicode="&#xbc;" horiz-adv-x="730" d="M230 588l-79 -3l11 20q7 3 136 49h8l-79 -308l72 -20l-11 -19q-21 0 -56 0.5t-51 0.5t-49.5 -0.5t-51.5 -0.5l8 19l67 20q42 130 75 242zM648 662l24 -27l-560 -673l-24 28zM565 87l-16 -60l53 -22l-8 -17q-14 0 -42 1t-42 1q-16 0 -48 -1t-48 -1l8 17l62 22l19 58 l-149 -1l-7 19q32 41 112.5 123t96.5 93q26 12 73 14l-57 -217l31 -1q20 17 37 26h10q-2 -10 -12.5 -40t-15.5 -39l-10 -2q-6 10 -13 28zM512 117l54 174h-3q-84 -84 -159 -172z" />
<glyph unicode="&#xbd;" horiz-adv-x="730" d="M227 588l-79 -3l11 20q5 2 24 9l55 20l57 20h8l-25 -100l-36 -138l-18 -70l72 -20l-11 -19q-21 0 -55.5 0.5t-50.5 0.5q-17 0 -50.5 -0.5t-51.5 -0.5l9 19l66 20q23 65 75 242zM637 662l24 -27l-560 -673l-24 28zM366 0l31 32q7 3 21 13q99 71 131 106q46 49 46 90 q0 29 -15 45t-40 16q-20 0 -38 -9q-21 -64 -29 -76l-15 -7q-12 24 -19 73q60 51 127 51q43 0 71.5 -25t28.5 -69q0 -37 -26 -66.5t-81 -66.5l-108 -71q12 0 69 1.5t66 1.5l51 48l18 -10q-26 -58 -48 -91q-5 0 -56 1.5t-83 1.5h-104z" />
<glyph unicode="&#xbe;" horiz-adv-x="730" d="M181 554l-12 -6q-10 20 -19 65q59 41 116 41q46 0 70.5 -21.5t24.5 -52.5q0 -33 -25.5 -51.5t-70.5 -33.5l-1 -2q89 -14 89 -81q0 -50 -50 -80.5t-115 -30.5q-70 0 -109 35q15 35 40 68l12 4q1 -4 14 -72q16 -7 35 -7q42 0 71 23t29 63q0 55 -56 59q-36 -8 -49 -8l-5 5 q2 8 9.5 21t14.5 17q4 0 17.5 -1.5t19.5 -1.5q64 21 64 67q0 25 -14.5 38t-38.5 13q-20 0 -34 -7q-16 -42 -27 -63zM658 662l25 -27l-560 -673l-24 28zM580 87l-16 -60l53 -22l-8 -17q-14 0 -42 1t-42 1q-15 0 -47 -1t-48 -1l7 17l62 22l19 58l-149 -1l-6 19q32 42 112 124 t96 92q17 9 73 15l-57 -218l32 -1q16 15 37 26h9q-2 -10 -12.5 -40t-15.5 -39l-10 -2q-6 10 -13 28zM527 117l54 174h-3q-78 -77 -158 -172z" />
<glyph unicode="&#xbf;" horiz-adv-x="402" d="M244 314h-5q-9 8 -22.5 31t-15.5 36v6q7 13 31.5 35t37.5 27h6q11 -8 25 -30t19 -40l-1 -3q-36 -48 -75 -62zM231 -69l17 6q17 -36 26 -96q-35 -23 -80.5 -40.5t-81.5 -17.5q-58 0 -98.5 34t-40.5 94q0 42 27.5 75t78.5 67l63 43q22 15 43.5 36t24.5 37q2 8 2 17 q0 17 -7 36l22 11q16 -7 35 -41q14 -26 14 -52q0 -7 -1 -14q-27 -48 -122 -113q-38 -26 -55.5 -40t-31.5 -35t-14 -43q0 -32 23 -53.5t62 -21.5q20 0 49 11q31 79 45 100z" />
<glyph unicode="&#xc0;" horiz-adv-x="677" d="M394 631l79 48l6 -5q-6 -20 -6 -48q0 -11 1 -23q3 -63 61 -519q9 -28 23.5 -38t59.5 -22l-8 -25q-18 0 -55 0.5t-56 0.5q-17 0 -52 -0.5t-53 -0.5l5 20l50 28q-1 11 -19 189q-60 -5 -163 -5h-62q-85 -134 -109 -176l83 -33l-7 -23q-19 0 -59.5 0.5t-60.5 0.5 q-17 0 -51 -0.5t-51 -0.5l8 23l73 33q21 26 73 105l149 227l133 204q9 14 9 27zM400 543h-3l-163 -263q20 0 95.5 -2t97.5 -2l-15 152q-10 93 -12 115zM511 741l-15 -24l-195 70v12q29 41 57 49z" />
<glyph unicode="&#xc1;" horiz-adv-x="677" d="M394 631l79 48l6 -5q-6 -20 -6 -48q0 -11 1 -23q3 -63 61 -519q9 -28 23.5 -38t59.5 -22l-8 -25q-18 0 -55 0.5t-56 0.5q-17 0 -52 -0.5t-53 -0.5l5 20l50 28q-1 11 -19 189q-60 -5 -163 -5h-62q-85 -134 -109 -176l83 -33l-7 -23q-19 0 -59.5 0.5t-60.5 0.5 q-17 0 -51 -0.5t-51 -0.5l8 23l73 33q21 26 73 105l149 227l133 204q9 14 9 27zM400 543h-3l-163 -263q20 0 95.5 -2t97.5 -2l-15 152q-10 93 -12 115zM410 702l-15 25l154 106q16 -2 34.5 -16.5t28.5 -30.5l-2 -12z" />
<glyph unicode="&#xc2;" horiz-adv-x="677" d="M394 631l79 48l6 -5q-6 -20 -6 -48q0 -11 1 -23q3 -63 61 -519q9 -28 23.5 -38t59.5 -22l-8 -25q-18 0 -55 0.5t-56 0.5q-17 0 -52 -0.5t-53 -0.5l5 20l50 28q-1 11 -19 189q-60 -5 -163 -5h-62q-85 -134 -109 -176l83 -33l-7 -23q-19 0 -59.5 0.5t-60.5 0.5 q-17 0 -51 -0.5t-51 -0.5l8 23l73 33q21 26 73 105l149 227l133 204q9 14 9 27zM400 543h-3l-163 -263q20 0 95.5 -2t97.5 -2l-15 152q-10 93 -12 115zM460 834h31l106 -109l-21 -24l-112 63l-142 -63l-15 25z" />
<glyph unicode="&#xc3;" horiz-adv-x="677" d="M394 631l79 49l6 -6q-6 -20 -6 -48q0 -11 1 -23q3 -63 61 -519q9 -28 23.5 -38t59.5 -22l-8 -25q-18 0 -55 0.5t-56 0.5q-17 0 -52 -0.5t-53 -0.5l5 20l50 28q-1 11 -19 189q-60 -5 -163 -5h-62q-85 -134 -109 -176l83 -33l-7 -23q-19 0 -59.5 0.5t-60.5 0.5 q-17 0 -51 -0.5t-51 -0.5l8 23l73 33q21 26 73 105l149 227l133 204q9 14 9 27zM400 543h-3l-163 -263q20 0 95.5 -2t97.5 -2l-15 152q-10 93 -12 115zM594 809l19 -20q-54 -79 -106 -79q-15 0 -59 22q-37 19 -52 19q-30 0 -71 -43l-19 22q62 79 106 79q17 0 57 -21 q40 -20 54 -20q28 0 71 41z" />
<glyph unicode="&#xc4;" horiz-adv-x="677" d="M394 631l79 48l6 -5q-6 -20 -6 -48q0 -11 1 -23q3 -63 61 -519q9 -28 23.5 -38t59.5 -22l-8 -25q-18 0 -55 0.5t-56 0.5q-17 0 -52 -0.5t-53 -0.5l5 20l50 28q-1 11 -19 189q-60 -5 -163 -5h-62q-85 -134 -109 -176l83 -33l-7 -23q-19 0 -59.5 0.5t-60.5 0.5 q-17 0 -51 -0.5t-51 -0.5l8 23l73 33q21 26 73 105l149 227l133 204q9 14 9 27zM400 543h-3l-163 -263q20 0 95.5 -2t97.5 -2l-15 152q-10 93 -12 115zM380 830h5q8 -7 20 -27t14 -32l-1 -5q-6 -13 -27.5 -32.5t-33.5 -24.5h-6q-29 29 -38 63l1 2q31 41 66 56zM573 830h5 q8 -7 20 -27t14 -32l-1 -5q-5 -12 -27 -32t-34 -25h-5q-30 28 -38 63v2q31 41 66 56z" />
<glyph unicode="&#xc5;" horiz-adv-x="677" d="M394 631l79 48l6 -5q-6 -20 -6 -48q0 -11 1 -23q3 -63 61 -519q9 -28 23.5 -38t59.5 -22l-8 -25q-18 0 -55 0.5t-56 0.5q-17 0 -52 -0.5t-53 -0.5l5 20l50 28q-1 11 -19 189q-60 -5 -163 -5h-62q-85 -134 -109 -176l83 -33l-7 -23q-19 0 -59.5 0.5t-60.5 0.5 q-17 0 -51 -0.5t-51 -0.5l8 23l73 33q21 26 73 105l149 227l133 204q9 14 9 27zM400 543h-3l-163 -263q20 0 95.5 -2t97.5 -2l-15 152q-10 93 -12 115zM458 739q43 0 53 50q2 8 2 15q0 14 -7 23q-10 13 -31 13q-19 0 -34 -13t-19 -38q-2 -8 -2 -15q0 -14 8 -22 q10 -13 30 -13zM483 875q35 0 57 -23q17 -18 17 -44q0 -10 -2 -20q-7 -39 -37.5 -61.5t-65.5 -22.5q-36 0 -58 23q-17 17 -17 43q0 9 2 19q7 40 37.5 63t66.5 23z" />
<glyph unicode="&#xc6;" horiz-adv-x="932" d="M493 300h-210l-180 -248l85 -29l-11 -24q-18 0 -56.5 1t-58.5 1q-19 0 -58 -1t-58 -1l9 24l78 29l434 559l-119 24l13 24q23 0 76.5 -1t87.5 -1h345q30 10 79 10l4 -4q-23 -91 -46 -146l-14 -6q-4 10 -27 109l-220 -8l-56 -268q188 0 265 11l7 -12q-6 -8 -36 -29.5 t-35 -21.5q-2 0 -49 2l-96 4q-51 2 -67 2q-50 -244 -52 -252l231 -10q93 88 124 115l13 -6q-7 -22 -27.5 -72t-37.5 -77q-95 3 -210 3h-150q-22 0 -66.5 -1t-66.5 -1l8 24l89 29q12 28 59 248zM316 344h188l64 272h-50z" />
<glyph unicode="&#xc7;" horiz-adv-x="667" d="M283 -88l62 70l-1 1q-124 7 -198.5 83.5t-74.5 204.5q0 167 122.5 286t301.5 119q93 0 136 -37q29 14 77 24l7 -7q-11 -31 -35 -85.5t-34 -69.5l-18 -4q-8 44 -10 108q-37 28 -114 28q-145 0 -240 -104.5t-95 -254.5q0 -112 60.5 -179.5t170.5 -67.5q31 0 66 7 q121 103 151 124l12 -24q-45 -75 -90 -119q-78 -28 -150 -32l-36 -41q48 -25 48 -64q0 -43 -45.5 -70.5t-90.5 -33.5l-10 26q27 8 53 25.5t26 38.5q0 26 -49 44z" />
<glyph unicode="&#xc8;" horiz-adv-x="571" d="M138 638l10 21q21 0 60.5 -0.5t58.5 -0.5h247q46 9 73 9h5l4 -4q-24 -98 -46 -148l-15 -6q-6 17 -14.5 59.5t-11.5 52.5l-198 -9l-64 -248q167 0 254 11l4 -13q-7 -8 -35.5 -29.5t-32.5 -21.5q-3 0 -94 4.5t-109 4.5q-61 -240 -68 -272l232 -12l56 56q42 42 65 62l14 -9 q-6 -21 -27 -70.5t-38 -77.5q-94 3 -210 3h-155q-21 0 -65 -0.5t-65 -0.5l9 23l91 30q18 51 81 291l70 266zM480 726l-15 -25l-195 70v13q29 41 57 48z" />
<glyph unicode="&#xc9;" horiz-adv-x="571" d="M138 638l10 21q21 0 60.5 -0.5t58.5 -0.5h247q46 9 73 9h5l4 -4q-24 -98 -46 -148l-15 -6q-6 17 -14.5 59.5t-11.5 52.5l-198 -9l-64 -248q167 0 254 11l4 -13q-7 -8 -35.5 -29.5t-32.5 -21.5q-3 0 -94 4.5t-109 4.5q-61 -240 -68 -272l232 -12l56 56q42 42 65 62l14 -9 q-6 -21 -27 -70.5t-38 -77.5q-94 3 -210 3h-155q-21 0 -65 -0.5t-65 -0.5l9 23l91 30q18 51 81 291l70 266zM361 701l-15 25l155 106q16 -2 34.5 -16t27.5 -30l-2 -13z" />
<glyph unicode="&#xca;" horiz-adv-x="571" d="M138 638l10 21q21 0 60.5 -0.5t58.5 -0.5h247q46 9 73 9h5l4 -4q-24 -98 -46 -148l-15 -6q-6 17 -14.5 59.5t-11.5 52.5l-198 -9l-64 -248q167 0 254 11l4 -13q-7 -8 -35.5 -29.5t-32.5 -21.5q-3 0 -94 4.5t-109 4.5q-61 -240 -68 -272l232 -12l56 56q42 42 65 62l14 -9 q-6 -21 -27 -70.5t-38 -77.5q-94 3 -210 3h-155q-21 0 -65 -0.5t-65 -0.5l9 23l91 30q18 51 81 291l70 266zM414 834h31l106 -108l-21 -24l-112 63q-127 -57 -142 -63l-15 25z" />
<glyph unicode="&#xcb;" horiz-adv-x="571" d="M138 638l10 21q21 0 60.5 -0.5t58.5 -0.5h247q46 9 73 9h5l4 -4q-24 -98 -46 -148l-15 -6q-6 17 -14.5 59.5t-11.5 52.5l-198 -9l-64 -248q167 0 254 11l4 -13q-7 -8 -35.5 -29.5t-32.5 -21.5q-3 0 -94 4.5t-109 4.5q-61 -240 -68 -272l232 -12l56 56q42 42 65 62l14 -9 q-6 -21 -27 -70.5t-38 -77.5q-94 3 -210 3h-155q-21 0 -65 -0.5t-65 -0.5l9 23l91 30q18 51 81 291l70 266zM332 830h5q9 -8 20.5 -28t13.5 -32l-1 -5q-6 -12 -27.5 -31.5t-33.5 -24.5h-6q-28 26 -38 62l1 3q29 38 66 56zM525 830h6q8 -8 19.5 -28t13.5 -32l-1 -5 q-5 -12 -27 -31.5t-34 -24.5h-5q-27 23 -38 62v3q29 38 66 56z" />
<glyph unicode="&#xcc;" horiz-adv-x="330" d="M152 637l9 22q19 0 55 -1t55 -1q20 0 60.5 1t61.5 1l-8 -22l-75 -31l-70 -263q-66 -249 -71 -292l84 -29l-13 -23q-20 0 -63.5 0.5t-65.5 0.5t-65.5 -0.5t-67.5 -0.5l10 23l82 29q11 23 84 292l71 264zM380 725l-15 -24l-195 70v13q29 41 57 48z" />
<glyph unicode="&#xcd;" horiz-adv-x="330" d="M152 637l9 22q19 0 55 -1t55 -1q20 0 60.5 1t61.5 1l-8 -22l-75 -31l-70 -263q-66 -249 -71 -292l84 -29l-13 -23q-20 0 -63.5 0.5t-65.5 0.5t-66 -0.5t-67 -0.5l10 23l82 29q11 23 84 292l71 264zM246 704l-15 26l155 105q16 -1 34.5 -15t28.5 -31l-2 -13z" />
<glyph unicode="&#xce;" horiz-adv-x="330" d="M152 637l9 22q19 0 55 -1t54 -1q20 0 61 1t61 1l-8 -22l-74 -31l-70 -263q-66 -244 -72 -292l84 -29l-12 -23q-21 0 -64.5 0.5t-65.5 0.5q-21 0 -65 -0.5t-67 -0.5l10 23l82 29q11 23 84 292l71 264zM298 838h31l106 -108l-21 -24l-112 63q-57 -27 -141 -63l-16 25z" />
<glyph unicode="&#xcf;" horiz-adv-x="330" d="M152 637l9 22q19 0 55 -1t55 -1q20 0 60.5 1t61.5 1l-8 -22l-75 -31l-70 -263q-66 -249 -71 -292l84 -29l-13 -23q-20 0 -63.5 0.5t-65.5 0.5t-65.5 -0.5t-67.5 -0.5l10 23l82 29q11 23 84 292l71 264zM220 830h5q9 -8 20.5 -28t13.5 -32l-1 -5q-5 -12 -26.5 -31.5 t-34.5 -24.5h-6q-26 24 -38 62l1 3q29 38 66 56zM414 830h5q8 -8 19.5 -28t14.5 -32l-1 -5q-6 -12 -28 -31.5t-33 -24.5h-5q-11 8 -23 27t-16 35l1 3q27 37 66 56z" />
<glyph unicode="&#xd0;" horiz-adv-x="745" d="M83 366h99l65 249l-83 16l10 21q102 12 220 12q158 0 247.5 -73t89.5 -210q0 -134 -85 -231t-221 -132q-73 -20 -245 -20h-32q-142 2 -149 2l10 23l83 25q11 21 79 276h-108zM269 366h190l-25 -42h-176q-72 -270 -72 -290q197 0 292 62q79 50 118 126.5t39 167.5 q0 96 -48 155q-69 82 -251 82z" />
<glyph unicode="&#xd1;" horiz-adv-x="731" d="M210 21l-10 -22q-19 0 -59 1t-60 1q-18 0 -54 -1t-55 -1l8 22l85 34q25 64 152 510q-20 39 -36.5 49.5t-70.5 21.5l12 22q9 0 65.5 2t82.5 4q3 -21 22 -59l252 -498h2q79 303 123 498l-81 32l11 22q20 0 57 -1t54 -1q20 0 57 1t54 1l-12 -24l-84 -32q-38 -95 -151 -549 l61 -42l-4 -12l-122 -11q-38 69 -265 527h-2q-101 -368 -117 -462zM626 808l20 -20q-55 -79 -106 -79q-16 0 -60 22q-37 19 -52 19q-30 0 -71 -43l-19 22q62 79 107 79q16 0 56 -21q42 -20 54 -20q28 0 71 41z" />
<glyph unicode="&#xd2;" horiz-adv-x="739" d="M461 675q44 0 87.5 -15.5t84 -48t65.5 -92t25 -138.5q0 -71 -25 -140.5t-72 -127.5t-122 -94t-166 -36q-50 0 -96 16.5t-85.5 49.5t-63 90.5t-23.5 131.5q0 101 48.5 193t140 151.5t202.5 59.5zM454 638q-85 0 -153 -59.5t-101.5 -144.5t-33.5 -173q0 -118 49 -180.5 t130 -62.5q82 0 148.5 60t100 147t33.5 176q0 119 -49 178t-124 59zM575 736l-15 -24l-195 70v13q29 41 57 48z" />
<glyph unicode="&#xd3;" horiz-adv-x="739" d="M461 675q44 0 87.5 -15.5t84 -48t65.5 -92t25 -138.5q0 -71 -25 -140.5t-72 -127.5t-122 -94t-166 -36q-50 0 -96 16.5t-85.5 49.5t-63 90.5t-23.5 131.5q0 101 48.5 193t140 151.5t202.5 59.5zM454 638q-85 0 -153 -59.5t-101.5 -144.5t-33.5 -173q0 -118 49 -180.5 t130 -62.5q82 0 148.5 60t100 147t33.5 176q0 119 -49 178t-124 59zM428 711l-14 25l154 106q16 -2 34.5 -16t28.5 -30l-2 -13z" />
<glyph unicode="&#xd4;" horiz-adv-x="739" d="M461 675q44 0 87.5 -15.5t84 -48t65.5 -92t25 -138.5q0 -71 -25 -140.5t-72 -127.5t-122 -94t-166 -36q-50 0 -96 16.5t-85.5 49.5t-63 90.5t-23.5 131.5q0 101 48.5 193t140 151.5t202.5 59.5zM454 638q-85 0 -153 -59.5t-101.5 -144.5t-33.5 -173q0 -118 49 -180.5 t130 -62.5q82 0 148.5 60t100 147t33.5 176q0 119 -49 178t-124 59zM479 837h31l106 -109l-21 -24l-111 63q-113 -51 -143 -63l-15 25z" />
<glyph unicode="&#xd5;" horiz-adv-x="739" d="M461 675q44 0 87.5 -15.5t84 -48t65.5 -92t25 -138.5q0 -71 -25 -140.5t-72 -127.5t-122 -94t-166 -36q-50 0 -96 16.5t-85.5 49.5t-63 90.5t-23.5 131.5q0 101 48.5 193t140 151.5t202.5 59.5zM454 638q-85 0 -153 -59.5t-101.5 -144.5t-33.5 -173q0 -118 49 -180.5 t130 -62.5q82 0 148.5 60t100 147t33.5 176q0 119 -49 178t-124 59zM625 822l19 -20q-54 -79 -106 -79q-15 0 -59 22q-37 19 -52 19q-29 0 -72 -43l-19 22q62 79 107 79q17 0 57 -21q40 -20 54 -20q28 0 71 41z" />
<glyph unicode="&#xd6;" horiz-adv-x="739" d="M461 675q44 0 87.5 -15.5t84 -48t65.5 -92t25 -138.5q0 -71 -25 -140.5t-72 -127.5t-122 -94t-166 -36q-50 0 -96 16.5t-85.5 49.5t-63 90.5t-23.5 131.5q0 101 48.5 193t140 151.5t202.5 59.5zM454 638q-85 0 -153 -59.5t-101.5 -144.5t-33.5 -173q0 -118 49 -180.5 t130 -62.5q82 0 148.5 60t100 147t33.5 176q0 119 -49 178t-124 59zM412 837h5q8 -7 20 -27.5t14 -32.5l-1 -5q-5 -12 -27 -31.5t-34 -24.5h-6q-27 25 -37 63v2q31 41 66 56zM606 837h5q8 -7 19.5 -27.5t14.5 -32.5l-1 -5q-6 -12 -28 -31.5t-33 -24.5h-5q-28 22 -39 63l1 2 q29 41 66 56z" />
<glyph unicode="&#xd7;" horiz-adv-x="604" d="M506 398l-166 -171l164 -166l-35 -43l-168 170l-166 -170l-36 42l164 167l-166 168l37 42l167 -171l170 173z" />
<glyph unicode="&#xd8;" horiz-adv-x="738" d="M625 617l64 76l27 -23l-66 -76q72 -77 72 -213q0 -70 -25 -139t-71 -127.5t-121.5 -95t-167.5 -36.5q-101 0 -173 59l-79 -92l-24 27l78 90q-69 77 -69 203q0 99 48.5 191.5t139.5 153t201 60.5q95 0 166 -58zM193 125l388 448q-45 66 -124 66q-86 0 -155 -60.5 t-103 -145.5t-34 -171q0 -74 25 -136zM599 538l-390 -448q45 -72 132 -72q83 0 150.5 59.5t101.5 145.5t34 174q0 79 -26 139z" />
<glyph unicode="&#xd9;" horiz-adv-x="743" d="M217 605l-76 32l12 22q16 0 52.5 -0.5t53.5 -0.5q16 0 45.5 0.5t43.5 0.5l-9 -22l-41 -37q-15 -47 -62 -215t-57 -223q-4 -21 -4 -38q0 -81 87 -81q132 0 261 133l121 431l-46 30l10 22q25 -1 91 -1q20 0 58 0.5t57 0.5l-12 -23l-77 -31q-15 -47 -78.5 -290.5 t-64.5 -260.5l88 -18l-11 -23q-143 -21 -182 -30l-6 3l40 133h-2q-143 -136 -286 -136q-66 0 -102 29q-40 31 -40 95q0 34 12 79q20 75 124 419zM565 726l-15 -25l-195 70v13q29 41 57 48z" />
<glyph unicode="&#xda;" horiz-adv-x="743" d="M217 605l-76 32l12 22q16 0 52.5 -0.5t53.5 -0.5q16 0 45.5 0.5t43.5 0.5l-9 -22l-41 -37q-15 -47 -62 -215t-57 -223q-4 -21 -4 -38q0 -81 87 -81q132 0 261 133l121 431l-46 30l10 22q25 -1 91 -1q20 0 58 0.5t57 0.5l-12 -23l-77 -31q-15 -47 -78.5 -290.5 t-64.5 -260.5l88 -18l-11 -23q-143 -21 -182 -30l-6 3l40 133h-2q-143 -136 -286 -136q-66 0 -102 29q-40 31 -40 95q0 34 12 79q20 75 124 419zM456 701l-15 25l155 106q16 -2 34.5 -16t28.5 -30l-2 -13z" />
<glyph unicode="&#xdb;" horiz-adv-x="743" d="M217 605l-76 32l12 22q16 0 52.5 -0.5t53.5 -0.5q16 0 45.5 0.5t43.5 0.5l-9 -22l-41 -37q-15 -47 -62 -215t-57 -223q-4 -21 -4 -38q0 -81 87 -81q132 0 261 133l121 431l-46 30l10 22q25 -1 91 -1q20 0 58 0.5t57 0.5l-12 -23l-77 -31q-15 -47 -78.5 -290.5 t-64.5 -260.5l88 -18l-11 -23q-143 -21 -182 -30l-6 3l40 133h-2q-143 -136 -286 -136q-66 0 -102 29q-40 31 -40 95q0 34 12 79q20 75 124 419zM509 833h31l106 -108l-21 -24l-112 63q-127 -57 -142 -63l-15 25z" />
<glyph unicode="&#xdc;" horiz-adv-x="743" d="M217 605l-76 32l12 22q16 0 52.5 -0.5t53.5 -0.5q16 0 45.5 0.5t43.5 0.5l-9 -22l-41 -37q-15 -47 -62 -215t-57 -223q-4 -21 -4 -38q0 -81 87 -81q132 0 261 133l121 431l-46 30l10 22q25 -1 91 -1q20 0 58 0.5t57 0.5l-12 -23l-77 -31q-15 -47 -78.5 -290.5 t-64.5 -260.5l88 -18l-11 -23q-143 -21 -182 -30l-6 3l40 133h-2q-143 -136 -286 -136q-66 0 -102 29q-40 31 -40 95q0 34 12 79q20 75 124 419zM431 830h6q9 -8 20 -28t13 -32v-5q-6 -12 -27.5 -31.5t-33.5 -24.5h-6q-27 23 -38 62v3q27 35 66 56zM625 830h5q9 -8 20.5 -28 t13.5 -32l-1 -5q-5 -12 -27 -31.5t-34 -24.5h-5q-11 8 -23 27t-16 35l1 3q28 37 66 56z" />
<glyph unicode="&#xdd;" horiz-adv-x="594" d="M106 638l10 21q15 0 51 -0.5t54 -0.5q16 0 48 0.5t48 0.5l-9 -23l-38 -23q7 -26 85 -268h2q132 160 204 265l-35 28l10 21q15 0 42 -0.5t39 -0.5q17 0 51 0.5t53 0.5l-11 -23l-85 -30q-96 -103 -243 -291q-14 -17 -20 -39q-54 -196 -56 -224l108 -31l-10 -22 q-27 0 -79.5 1t-78.5 1q-24 0 -74 -1t-74 -1l10 21l100 31q19 49 70 232q2 9 2 18q0 13 -4 26l-94 278q-17 10 -76 33zM389 701l-15 25l155 106q16 -2 34.5 -16t27.5 -30l-2 -13z" />
<glyph unicode="&#xde;" horiz-adv-x="560" d="M-3 21l74 30q11 26 82 294l70 265l-68 28l9 21q18 0 52.5 -1t50.5 -1q22 0 65.5 1t63.5 1l-8 -23l-80 -27l-23 -86q44 4 52 4h12q206 0 206 -167q0 -85 -72.5 -144.5t-180.5 -59.5q-24 0 -51 9l-6 26h4q91 0 151 44q61 45 61 133q0 123 -140 123q-23 0 -46 -5l-33 -126 q-73 -283 -76 -308l84 -30l-8 -23q-21 0 -63.5 0.5t-62.5 0.5t-62 -0.5t-63 -0.5z" />
<glyph unicode="&#xdf;" horiz-adv-x="530" d="M66 438h73q24 72 53 123.5t77 89.5q70 58 149 58q62 0 99.5 -33t37.5 -96q0 -13 -5 -20q-152 -116 -152 -198q0 -32 39 -103q38 -73 38 -116q0 -57 -55 -107q-52 -49 -132 -49q-32 0 -63.5 11.5t-47.5 29.5q24 47 48 79l14 3q7 -20 18 -81q12 -7 35 -7q46 0 77 28 q32 29 32 64q0 36 -38 105q-38 71 -38 112q0 46 36 93q37 47 119 118q6 20 6 36q0 42 -22 69t-63 27q-27 0 -51.5 -13t-52 -45.5t-53 -100t-45.5 -166.5l-58 -270q-23 -102 -52 -160.5t-72 -97.5q-66 -60 -125 -60q-57 0 -74 31l40 68l8 1q13 -23 33.5 -35t38.5 -12 q28 0 52 30t45 118q31 125 94 430l-78 17z" />
<glyph unicode="&#xe0;" horiz-adv-x="532" d="M403 443l93 12l3 -9l-38 -48q-59 -185 -93 -349l2 -1q59 18 119 96l6 -10q-4 -53 -57.5 -100t-125.5 -47q-14 0 -32 4q6 24 26.5 98t27.5 101h-3q-60 -89 -127.5 -146t-119.5 -57q-33 0 -50.5 26t-17.5 71q0 68 43.5 154t125.5 147q72 55 146 55q35 0 65 -22zM123 45 q31 0 81.5 44.5t106.5 128.5q26 40 40.5 72.5t32.5 94.5q-18 15 -45 15q-66 0 -126 -65q-54 -58 -83.5 -127.5t-29.5 -121.5q0 -41 23 -41zM378 506l-27 -12l-99 171l2 10q31 17 63 17q8 0 16 -1z" />
<glyph unicode="&#xe1;" horiz-adv-x="532" d="M403 443l93 12l3 -9l-38 -48q-59 -185 -93 -349l2 -1q59 18 119 96l6 -10q-4 -53 -57.5 -100t-125.5 -47q-14 0 -32 4q6 24 26.5 98t27.5 101h-3q-60 -89 -127.5 -146t-119.5 -57q-33 0 -50.5 26t-17.5 71q0 68 43.5 154t125.5 147q72 55 146 55q35 0 65 -22zM123 45 q31 0 81.5 44.5t106.5 128.5q26 40 40.5 72.5t32.5 94.5q-18 15 -45 15q-66 0 -126 -65q-54 -58 -83.5 -127.5t-29.5 -121.5q0 -41 23 -41zM326 494l-21 20l112 159q8 1 16 1q34 0 64 -17v-11z" />
<glyph unicode="&#xe2;" horiz-adv-x="532" d="M403 443l93 12l3 -9l-38 -48q-59 -185 -93 -349l2 -1q59 18 119 96l6 -10q-4 -53 -57.5 -100t-125.5 -47q-14 0 -32 4q6 24 26.5 98t27.5 101h-3q-60 -89 -127.5 -146t-119.5 -57q-33 0 -50.5 26t-17.5 71q0 68 43.5 154t125.5 147q72 55 146 55q35 0 65 -22zM123 45 q31 0 81.5 44.5t106.5 128.5q26 40 40.5 72.5t32.5 94.5q-18 15 -45 15q-66 0 -126 -65q-54 -58 -83.5 -127.5t-29.5 -121.5q0 -41 23 -41zM361 684l27 6l61 -172l-28 -18l-63 101l-114 -101l-23 21z" />
<glyph unicode="&#xe3;" horiz-adv-x="532" d="M403 443l93 12l3 -9l-38 -48q-59 -185 -93 -349l2 -1q59 18 119 96l6 -10q-4 -53 -57.5 -100t-125.5 -47q-14 0 -32 4q6 24 26.5 98t27.5 101h-3q-60 -89 -127.5 -146t-119.5 -57q-33 0 -50.5 26t-17.5 71q0 68 43.5 154t125.5 147q72 55 146 55q35 0 65 -22zM123 45 q31 0 81.5 44.5t106.5 128.5q26 40 40.5 72.5t32.5 94.5q-18 15 -45 15q-66 0 -126 -65q-54 -58 -83.5 -127.5t-29.5 -121.5q0 -41 23 -41zM494 626l20 -18q-55 -78 -98 -78q-12 0 -58 21q-37 19 -49 19q-24 0 -65 -43l-21 21q59 77 102 77q17 0 53 -19q36 -20 52 -21 q27 0 64 41z" />
<glyph unicode="&#xe4;" horiz-adv-x="532" d="M403 443l93 12l3 -9l-38 -48q-59 -185 -93 -349l2 -1q59 18 119 96l6 -10q-4 -53 -57.5 -100t-125.5 -47q-14 0 -32 4q6 24 26.5 98t27.5 101h-3q-60 -89 -127.5 -146t-119.5 -57q-33 0 -50.5 26t-17.5 71q0 68 43.5 154t125.5 147q72 55 146 55q35 0 65 -22zM123 45 q31 0 81.5 44.5t106.5 128.5q26 40 40.5 72.5t32.5 94.5q-18 15 -45 15q-66 0 -126 -65q-54 -58 -83.5 -127.5t-29.5 -121.5q0 -41 23 -41zM283 649h4q8 -6 19.5 -25.5t14.5 -31.5l-1 -5q-6 -12 -27 -31.5t-32 -23.5h-6q-27 25 -37 62l1 2q30 39 64 53zM469 649h5 q7 -6 18.5 -25.5t14.5 -31.5l-2 -5q-6 -12 -26.5 -31.5t-31.5 -23.5h-5q-27 23 -37 62l1 2q28 39 63 53z" />
<glyph unicode="&#xe5;" horiz-adv-x="532" d="M403 443l93 12l3 -9l-38 -48q-59 -185 -93 -349l2 -1q59 18 119 96l6 -10q-4 -53 -57.5 -100t-125.5 -47q-14 0 -32 4q6 24 26.5 98t27.5 101h-3q-60 -89 -127.5 -146t-119.5 -57q-33 0 -50.5 26t-17.5 71q0 68 43.5 154t125.5 147q72 55 146 55q35 0 65 -22zM123 45 q31 0 81.5 44.5t106.5 128.5q26 40 40.5 72.5t32.5 94.5q-18 15 -45 15q-66 0 -126 -65q-54 -58 -83.5 -127.5t-29.5 -121.5q0 -41 23 -41zM360 539q46 0 55 51q2 8 2 15q0 15 -7 25q-11 13 -32 13q-19 0 -35 -13.5t-21 -39.5q-1 -8 -1 -14q0 -37 39 -37zM385 677 q35 0 57 -23q17 -18 17 -44q0 -10 -2 -20q-7 -39 -37.5 -62.5t-65.5 -23.5q-36 0 -59 24q-17 17 -17 43q0 9 2 19q8 40 38.5 63.5t66.5 23.5z" />
<glyph unicode="&#xe6;" horiz-adv-x="704" d="M95 73q0 -35 27 -35q31 0 91 49t112 132q46 114 113 168l-2 3h-15q-83 0 -167 -61q-69 -48 -114 -125.5t-45 -130.5zM667 147l5 -34q-90 -126 -221 -126q-59 0 -96.5 34t-38.5 105q0 16 1 23h-3q-53 -69 -115.5 -115.5t-113.5 -46.5q-34 0 -52.5 24t-18.5 62 q0 63 48.5 145t142.5 140q102 64 244 64q16 0 33 -1q52 30 106 30q48 0 74.5 -26.5t27.5 -64.5q0 -36 -14 -64q-9 -16 -36 -32q-24 -14 -92.5 -37t-143.5 -33q-7 -25 -7 -49q0 -8 1 -16q2 -39 22 -65.5t62 -26.5q94 0 183 110h2zM576 417q-44 0 -93 -54t-72 -133 q60 7 115 26q53 18 72 42q20 28 20 70q0 49 -42 49z" />
<glyph unicode="&#xe7;" horiz-adv-x="408" d="M92 -88l64 74v1q-63 2 -94 44.5t-31 106.5q0 55 25.5 118.5t78.5 114.5q87 80 185 80q58 0 80 -22q-3 -16 -17 -54t-26 -56l-17 -8q-6 16 -23 104q-8 2 -15 2q-54 0 -106 -59q-78 -89 -78 -212q0 -48 20 -76t60 -28q47 0 92 32t75 69h1l7 -33q-71 -102 -170 -118l-41 -49 q47 -26 47 -64q0 -43 -45 -70.5t-91 -34.5l-9 27q27 8 53 25t26 38q0 26 -50 45z" />
<glyph unicode="&#xe8;" horiz-adv-x="419" d="M375 145l5 -34q-41 -59 -96.5 -91.5t-115.5 -32.5q-57 0 -96 35q-41 35 -41 117q0 65 32 135q33 72 97.5 124.5t141.5 52.5q49 0 76 -27.5t28 -70.5q0 -41 -26 -67q-24 -29 -109 -55t-148 -36q-5 -25 -5 -54q0 -43 19.5 -71.5t62.5 -28.5q46 0 94 32.5t78 71.5h3z M286 418q-44 0 -90 -54t-67 -135q52 11 111.5 31t74.5 43q15 21 15 56q0 29 -12.5 44t-31.5 15zM341 506l-27 -12l-99 171l2 10q31 17 63 17q8 0 16 -1z" />
<glyph unicode="&#xe9;" horiz-adv-x="419" d="M375 145l5 -34q-41 -59 -96.5 -91.5t-115.5 -32.5q-57 0 -96 35q-41 35 -41 117q0 65 32 135q33 72 97.5 124.5t141.5 52.5q49 0 76 -27.5t28 -70.5q0 -41 -26 -67q-24 -29 -109 -55t-148 -36q-5 -25 -5 -54q0 -43 19.5 -71.5t62.5 -28.5q46 0 94 32.5t78 71.5h3z M286 418q-44 0 -90 -54t-67 -135q52 11 111.5 31t74.5 43q15 21 15 56q0 29 -12.5 44t-31.5 15zM270 494l-20 20l112 159q8 1 16 1q33 0 63 -17v-11z" />
<glyph unicode="&#xea;" horiz-adv-x="419" d="M375 145l5 -34q-41 -59 -96.5 -91.5t-115.5 -32.5q-57 0 -96 35q-41 35 -41 117q0 65 32 135q33 72 97.5 124.5t141.5 52.5q49 0 76 -27.5t28 -70.5q0 -41 -26 -67q-24 -29 -109 -55t-148 -36q-5 -25 -5 -54q0 -43 19.5 -71.5t62.5 -28.5q46 0 94 32.5t78 71.5h3z M286 418q-44 0 -90 -54t-67 -135q52 11 111.5 31t74.5 43q15 21 15 56q0 29 -12.5 44t-31.5 15zM332 684l26 6l61 -172l-27 -18l-64 101l-114 -101l-22 21z" />
<glyph unicode="&#xeb;" horiz-adv-x="419" d="M375 145l5 -34q-41 -59 -96.5 -91.5t-115.5 -32.5q-57 0 -96 35q-41 35 -41 117q0 65 32 135q33 72 97.5 124.5t141.5 52.5q49 0 76 -27.5t28 -70.5q0 -41 -26 -67q-24 -29 -109 -55t-148 -36q-5 -25 -5 -54q0 -43 19.5 -71.5t62.5 -28.5q46 0 94 32.5t78 71.5h3z M286 418q-44 0 -90 -54t-67 -135q52 11 111.5 31t74.5 43q15 21 15 56q0 29 -12.5 44t-31.5 15zM245 649h4q8 -6 19.5 -25.5t14.5 -31.5l-1 -5q-6 -12 -27 -31.5t-32 -23.5h-6q-27 25 -37 62l1 2q30 39 64 53zM431 649h5q8 -6 19.5 -26t13.5 -31l-1 -5q-6 -12 -27 -31.5 t-32 -23.5h-5q-27 23 -37 62l1 2q28 39 63 53z" />
<glyph unicode="&#xec;" horiz-adv-x="290" d="M143 380l-65 9l9 20q23 12 73.5 26.5t78.5 15.5l1 -3q-88 -288 -123 -413l3 -1q26 7 65 43.5t62 66.5l4 -12q-7 -46 -51 -95.5t-109 -49.5q-27 0 -37 25q-5 11 -5 28q0 22 8 56q21 82 86 284zM241 506l-27 -12l-99 171l2 10q29 17 62 17q8 0 16 -1z" />
<glyph unicode="&#xed;" horiz-adv-x="290" d="M143 380l-65 9l9 20q23 12 73.5 26.5t78.5 15.5l1 -3q-88 -288 -123 -413l3 -1q26 7 65 43.5t62 66.5l4 -12q-7 -46 -51 -95.5t-109 -49.5q-27 0 -37 25q-5 11 -5 28q0 22 8 56q21 82 86 284zM186 494l-20 20l112 159q8 1 16 1q33 0 63 -17v-11z" />
<glyph unicode="&#xee;" horiz-adv-x="290" d="M143 380l-65 9l9 20q23 12 73.5 26.5t78.5 15.5l1 -3q-88 -288 -123 -413l3 -1q26 7 65 43.5t62 66.5l4 -12q-7 -46 -51 -95.5t-109 -49.5q-27 0 -37 25q-5 11 -5 28q0 22 8 56q21 82 86 284zM233 684l26 6l61 -173l-27 -17l-64 101l-114 -101l-22 21z" />
<glyph unicode="&#xef;" horiz-adv-x="290" d="M143 380l-65 9l9 20q23 12 73.5 26.5t78.5 15.5l1 -3q-88 -288 -123 -413l3 -1q26 7 65 43.5t62 66.5l4 -12q-7 -46 -51 -95.5t-109 -49.5q-27 0 -37 25q-5 11 -5 28q0 22 8 56q21 82 86 284zM148 649h4q8 -6 19.5 -26t13.5 -31l-1 -5q-5 -12 -26 -31.5t-33 -24.5h-5 q-30 30 -37 62v3q32 40 65 53zM333 649h6q7 -6 18.5 -25.5t14.5 -31.5l-2 -5q-6 -12 -26.5 -31.5t-31.5 -24.5h-6q-28 28 -37 62l1 3q30 39 63 53z" />
<glyph unicode="&#xf0;" horiz-adv-x="455" d="M171 521l130 66q-36 56 -114 98l19 23q37 -12 76.5 -39t65.5 -58l111 57l24 -29l-112 -56q64 -89 64 -220q0 -175 -91 -286q-75 -90 -172 -90q-65 0 -102.5 45t-37.5 116q-1 54 21.5 112t65.5 104q81 87 170 87q43 0 70 -23q-6 74 -39 131l-126 -64zM288 418 q-39 0 -75 -37q-40 -41 -69 -112t-29 -146q0 -49 18.5 -75.5t47.5 -26.5q47 0 87 51q30 38 58 117t28 164q0 23 -15 41q-24 24 -51 24z" />
<glyph unicode="&#xf1;" horiz-adv-x="546" d="M110 0l-78 -8q18 52 61.5 209.5t44.5 179.5l-67 8l7 20q22 11 78.5 26.5t77.5 16.5l2 -2q-2 -10 -12 -45l-29 -95l-33 -112h3q120 187 241 238q34 15 70 15q22 0 26 -11q1 -2 1 -8q0 -12 -7 -38q-77 -270 -87 -331l91 13l-12 -30q-86 -26 -177 -65l-7 10q2 8 52.5 176 t60.5 206q6 17 -8 17q-37 0 -103.5 -67t-112.5 -141q-49 -80 -83 -182zM472 626l19 -18q-55 -78 -98 -78q-13 0 -58 21q-37 19 -49 19q-24 0 -65 -43l-21 21q59 77 102 77q17 0 53 -19q36 -20 52 -21q27 0 65 41z" />
<glyph unicode="&#xf2;" horiz-adv-x="478" d="M302 451q64 0 102 -48.5t38 -122.5q0 -112 -79 -202.5t-184 -90.5q-61 0 -101.5 44t-41.5 121q0 117 79.5 208t186.5 91zM291 418q-46 0 -86.5 -49.5t-62 -116t-21.5 -124.5q0 -108 65 -108q42 0 82.5 46t64.5 113t24 128q0 111 -66 111zM356 506l-27 -12l-99 171l2 10 q31 17 63 17q7 0 15 -1z" />
<glyph unicode="&#xf3;" horiz-adv-x="478" d="M302 451q64 0 102 -48.5t38 -122.5q0 -112 -79 -202.5t-184 -90.5q-61 0 -101.5 44t-41.5 121q0 117 79.5 208t186.5 91zM291 418q-46 0 -86.5 -49.5t-62 -116t-21.5 -124.5q0 -108 65 -108q42 0 82.5 46t64.5 113t24 128q0 111 -66 111zM288 494l-21 20l112 159 q8 1 16 1q34 0 64 -17v-11z" />
<glyph unicode="&#xf4;" horiz-adv-x="478" d="M302 451q64 0 102 -48.5t38 -122.5q0 -112 -79 -202.5t-184 -90.5q-61 0 -101.5 44t-41.5 121q0 117 79.5 208t186.5 91zM291 418q-46 0 -86.5 -49.5t-62 -116t-21.5 -124.5q0 -108 65 -108q42 0 82.5 46t64.5 113t24 128q0 111 -66 111zM348 684l26 6l61 -172l-28 -18 l-63 101l-114 -101l-22 21z" />
<glyph unicode="&#xf5;" horiz-adv-x="478" d="M302 451q64 0 102 -48.5t38 -122.5q0 -112 -79 -202.5t-184 -90.5q-61 0 -101.5 44t-41.5 121q0 117 79.5 208t186.5 91zM291 418q-46 0 -86.5 -49.5t-62 -116t-21.5 -124.5q0 -108 65 -108q42 0 82.5 46t64.5 113t24 128q0 111 -66 111zM455 626l19 -18q-55 -78 -98 -78 q-13 0 -57 21q-38 19 -50 19q-22 0 -65 -43l-20 21q59 77 101 77q17 0 53 -19q36 -20 52 -21q27 0 65 41z" />
<glyph unicode="&#xf6;" horiz-adv-x="478" d="M302 451q64 0 102 -48.5t38 -122.5q0 -112 -79 -202.5t-184 -90.5q-61 0 -101.5 44t-41.5 121q0 117 79.5 208t186.5 91zM291 418q-46 0 -86.5 -49.5t-62 -116t-21.5 -124.5q0 -108 65 -108q42 0 82.5 46t64.5 113t24 128q0 111 -66 111zM259 649h4q8 -6 19.5 -25.5 t14.5 -31.5l-1 -5q-6 -12 -27 -31.5t-32 -23.5h-6q-27 25 -37 62l1 2q32 40 64 53zM445 649h5q7 -6 18.5 -25.5t14.5 -31.5l-2 -5q-6 -12 -26.5 -31.5t-31.5 -23.5h-6q-27 25 -37 62l1 2q31 40 64 53z" />
<glyph unicode="&#xf7;" horiz-adv-x="604" d="M83 261h450l-12 -51h-451zM302 141l7 1q9 -4 24 -21t20 -30l-2 -8q-6 -12 -21.5 -29t-26.5 -23l-7 -2q-30 17 -44 51l1 10q29 39 49 51zM305 440l5 1q10 -4 25 -20.5t20 -30.5l-1 -8q-6 -11 -22 -28t-26 -23l-7 -3q-30 17 -46 52l2 8q20 30 50 52z" />
<glyph unicode="&#xf8;" horiz-adv-x="480" d="M385 425l44 56l20 -25l-43 -53q37 -42 37 -118q0 -116 -77.5 -207t-186.5 -91q-51 0 -86 29l-45 -56l-20 25l42 52q-35 43 -35 114q0 118 80.5 209t185.5 91q51 0 84 -26zM120 92l226 288q-15 38 -55 38q-54 0 -98.5 -56t-63.5 -132q-13 -51 -13 -96q0 -21 3 -41z M358 344l-224 -286q17 -38 51 -38q55 0 100 57.5t64 132.5q13 51 13 93q0 21 -3 39z" />
<glyph unicode="&#xf9;" horiz-adv-x="561" d="M145 378l-77 6l8 22q27 11 79.5 26t85.5 19l7 -2q-24 -64 -62.5 -190.5t-48.5 -169.5q-4 -15 -4 -25q0 -17 13 -17q36 0 95 60t116 151q41 67 76 177q38 11 93 16l5 -9l-40 -54q-45 -142 -90 -335l2 -1q59 16 114 95l7 -14q-6 -53 -58 -99.5t-126 -46.5q-3 0 -30 3 q20 76 71 241h-3q-102 -158 -193 -214q-49 -30 -90 -30q-45 0 -45 48q0 18 7 44l47 162zM382 506l-28 -12l-99 171l3 10q29 17 62 17q8 0 16 -1z" />
<glyph unicode="&#xfa;" horiz-adv-x="561" d="M145 378l-77 6l8 22q27 11 79.5 26t85.5 19l7 -2q-24 -64 -62.5 -190.5t-48.5 -169.5q-4 -15 -4 -25q0 -17 13 -17q36 0 95 60t116 151q41 67 76 177q38 11 93 16l5 -9l-40 -54q-45 -142 -90 -335l2 -1q59 16 114 95l7 -14q-6 -53 -58 -99.5t-126 -46.5q-3 0 -30 3 q20 76 71 241h-3q-102 -158 -193 -214q-49 -30 -90 -30q-45 0 -45 48q0 18 7 44l47 162zM330 494l-21 20l112 159q8 1 16 1q33 0 64 -17v-11z" />
<glyph unicode="&#xfb;" horiz-adv-x="561" d="M145 378l-77 6l8 22q27 11 79.5 26t85.5 19l7 -2q-24 -64 -62.5 -190.5t-48.5 -169.5q-4 -15 -4 -25q0 -17 13 -17q36 0 95 60t116 151q41 67 76 177q38 11 93 16l5 -9l-40 -54q-45 -142 -90 -335l2 -1q59 16 114 95l7 -14q-6 -53 -58 -99.5t-126 -46.5q-3 0 -30 3 q20 76 71 241h-3q-102 -158 -193 -214q-49 -30 -90 -30q-45 0 -45 48q0 18 7 44l47 162zM376 684l26 6l61 -173l-28 -17l-63 101l-114 -101l-22 21z" />
<glyph unicode="&#xfc;" horiz-adv-x="561" d="M145 378l-77 6l8 22q27 11 79.5 26t85.5 19l7 -2q-24 -64 -62.5 -190.5t-48.5 -169.5q-4 -15 -4 -25q0 -17 13 -17q36 0 95 60t116 151q41 67 76 177q38 11 93 16l5 -9l-40 -54q-45 -142 -90 -335l2 -1q59 16 114 95l7 -14q-6 -53 -58 -99.5t-126 -46.5q-3 0 -30 3 q20 76 71 241h-3q-102 -158 -193 -214q-49 -30 -90 -30q-45 0 -45 48q0 18 7 44l47 162zM280 649h4q8 -6 19.5 -25.5t14.5 -31.5l-2 -5q-5 -12 -26 -31.5t-33 -24.5h-5q-28 28 -37 62l1 3q30 39 64 53zM466 649h5q7 -6 18.5 -25.5t14.5 -31.5l-2 -5q-6 -12 -26.5 -31.5 t-31.5 -24.5h-6q-28 28 -37 62l1 3q31 40 64 53z" />
<glyph unicode="&#xfd;" horiz-adv-x="445" d="M57 278l-23 22q26 83 61.5 117t63.5 35q48 -4 71 -105q21 -92 21 -240v-38h3q39 60 77.5 160t41.5 150l-30 43l5 10q38 18 83 20q6 0 10 -2q3 -3 3 -7q0 -14 -16.5 -70t-44.5 -125q-71 -173 -186 -321q-42 -53 -86 -93.5t-69.5 -56t-35.5 -15.5q-6 0 -15.5 7.5t-22 28 t-18.5 50.5l3 10q29 -2 97 -25q12 6 40.5 31t50.5 56q43 62 43 158q-2 176 -37 271q-11 33 -20 33q-8 0 -29.5 -31t-40.5 -73zM272 494l-20 20l112 159q8 1 16 1q33 0 63 -17v-11z" />
<glyph unicode="&#xfe;" horiz-adv-x="510" d="M127 656l8 20q29 11 80.5 20.5t76.5 9.5l1 -2l-132 -452h2q136 199 245 199q35 0 57 -32t22 -81q0 -132 -93 -241.5t-207 -109.5q-54 0 -85 28q-14 -50 -48 -189l95 -21l-10 -24q-192 -12 -242 -12l10 25l62 28q10 27 35 119l60 216l42 158l90 328zM362 397 q-60 0 -165 -153q-52 -74 -84 -188q27 -33 70 -33q62 0 114.5 54.5t78.5 124.5q25 68 25 127q0 68 -39 68z" />
<glyph unicode="&#xff;" horiz-adv-x="445" d="M57 278l-23 22q26 83 61.5 117t63.5 35q48 -4 71 -105q21 -92 21 -240v-38h3q39 60 77.5 160t41.5 150l-30 43l5 10q38 18 83 20q6 0 10 -2q3 -3 3 -7q0 -14 -16.5 -70t-44.5 -125q-71 -173 -186 -321q-42 -53 -86 -93.5t-69.5 -56t-35.5 -15.5q-6 0 -15.5 7.5t-22 28 t-18.5 50.5l3 10q29 -2 97 -25q12 6 40.5 31t50.5 56q43 62 43 158q-2 176 -37 271q-11 33 -20 33q-8 0 -29.5 -31t-40.5 -73zM212 649h4q8 -6 19.5 -25.5t14.5 -31.5l-2 -5q-5 -12 -26 -31.5t-33 -24.5h-5q-30 30 -37 62l1 3q30 39 64 53zM398 649h5q7 -6 18.5 -25.5 t14.5 -31.5l-2 -5q-6 -12 -26.5 -31.5t-31.5 -24.5h-6q-28 28 -37 62l1 3q31 40 64 53z" />
<glyph unicode="&#x152;" horiz-adv-x="983" d="M494 46l146 567q-45 15 -110 15q-174 0 -269 -99t-95 -253q0 -101 59 -173t179 -72q57 0 90 15zM725 657h203q27 10 78 10l3 -4q-27 -110 -47 -149l-16 -6q-7 19 -24 112l-198 -8l-64 -248q166 0 253 11l5 -13q-7 -8 -35.5 -29.5t-32.5 -21.5q-3 0 -94 4t-108 4 q-47 -173 -68 -271l231 -11l55 55q47 47 68 66l13 -9q-30 -93 -66 -152q-96 3 -211 3h-106q-22 0 -94 -3t-89 -3q-147 0 -228.5 78t-81.5 204q0 172 125.5 280t335.5 108q28 0 68.5 -1.5t79.5 -3.5t45 -2z" />
<glyph unicode="&#x153;" horiz-adv-x="720" d="M298 418q-50 0 -93 -56t-63.5 -123.5t-20.5 -117.5q0 -51 17.5 -76t43.5 -25q42 0 77 34t54.5 84t30.5 99t11 86q0 95 -57 95zM305 451q46 0 77.5 -28.5t35.5 -80.5h2q37 51 86.5 80t97.5 29q50 0 76.5 -27.5t26.5 -70.5q0 -57 -54 -89q-74 -43 -231 -68q-8 -29 -8 -58 q1 -42 20.5 -71.5t61.5 -29.5q53 0 99.5 33t78.5 72l2 -1l9 -29q-41 -60 -97.5 -92.5t-118.5 -32.5q-45 0 -77.5 24t-44.5 68l-2 -1q-71 -91 -172 -91q-63 0 -100 40.5t-38 112.5q0 112 80.5 211.5t189.5 99.5zM592 419q-42 0 -91.5 -54t-72.5 -135q55 8 106 26 q97 33 97 106q0 57 -39 57z" />
<glyph unicode="&#x178;" horiz-adv-x="594" d="M106 638l10 21q15 0 51 -0.5t54 -0.5q16 0 48 0.5t48 0.5l-9 -23l-38 -23q7 -26 85 -268h2q132 160 204 265l-35 28l10 21q15 0 42 -0.5t39 -0.5q17 0 51 0.5t53 0.5l-11 -23l-85 -30q-96 -103 -243 -291q-14 -17 -20 -39q-54 -196 -56 -224l108 -31l-10 -22 q-27 0 -79.5 1t-78.5 1q-24 0 -74 -1t-74 -1l10 21l100 31q19 49 70 232q2 9 2 18q0 13 -4 26l-94 278q-17 10 -76 33zM365 830h5q9 -8 20.5 -28t13.5 -32l-1 -5q-6 -12 -27.5 -31.5t-33.5 -24.5h-6q-26 24 -38 62l1 3q28 37 66 56zM559 830h5q8 -8 19.5 -28t14.5 -32l-2 -5 q-5 -12 -27 -31.5t-34 -24.5h-5q-27 23 -38 62l1 3q26 36 66 56z" />
<glyph unicode="&#x2c6;" horiz-adv-x="386" d="M303 684l26 6l61 -172l-28 -18l-63 101l-113 -101l-23 21z" />
<glyph unicode="&#x2dc;" horiz-adv-x="386" d="M427 626l19 -18q-55 -78 -98 -78q-16 0 -58 22q-38 18 -49 18q-24 0 -65 -43l-21 21q59 77 102 77q17 0 53 -19q36 -20 52 -21q27 0 65 41z" />
<glyph unicode="&#x2000;" horiz-adv-x="437" />
<glyph unicode="&#x2001;" horiz-adv-x="875" />
<glyph unicode="&#x2002;" horiz-adv-x="437" />
<glyph unicode="&#x2003;" horiz-adv-x="875" />
<glyph unicode="&#x2004;" horiz-adv-x="291" />
<glyph unicode="&#x2005;" horiz-adv-x="218" />
<glyph unicode="&#x2006;" horiz-adv-x="145" />
<glyph unicode="&#x2007;" horiz-adv-x="145" />
<glyph unicode="&#x2008;" horiz-adv-x="109" />
<glyph unicode="&#x2009;" horiz-adv-x="175" />
<glyph unicode="&#x200a;" horiz-adv-x="48" />
<glyph unicode="&#x2010;" horiz-adv-x="353" d="M274 217l-240 -27l34 72l51 -2l198 11v-5z" />
<glyph unicode="&#x2011;" horiz-adv-x="353" d="M274 217l-240 -27l34 72l51 -2l198 11v-5z" />
<glyph unicode="&#x2013;" horiz-adv-x="582" d="M532 202h-488l17 54h487z" />
<glyph unicode="&#x2014;" horiz-adv-x="883" d="M834 202h-790l17 54h790z" />
<glyph unicode="&#x2018;" horiz-adv-x="204" d="M265 702l14 -24q-88 -54 -89 -120q0 -11 4 -20l38 -26l-1 -12l-65 -47h-11q-11 6 -23.5 25.5t-12.5 48.5q1 55 40.5 101t105.5 74z" />
<glyph unicode="&#x2019;" horiz-adv-x="204" d="M112 450l-16 24q39 23 64 54.5t26 64.5q0 8 -4 20l-38 25l2 13l64 46h11q11 -4 23.5 -24.5t12.5 -50.5q-1 -55 -40 -99.5t-105 -72.5z" />
<glyph unicode="&#x201a;" horiz-adv-x="206" d="M-27 -111l-15 25q39 25 64.5 59t25.5 67q0 14 -4 22l-40 27l1 13l67 47h11q11 -5 24 -26.5t13 -54.5q0 -55 -40.5 -102.5t-106.5 -76.5z" />
<glyph unicode="&#x201c;" horiz-adv-x="357" d="M418 702l15 -24q-88 -51 -89 -121q0 -9 3 -19l38 -26l-1 -12l-65 -47h-11q-11 6 -23.5 25.5t-12.5 49.5q1 55 40.5 100t105.5 74zM265 702l15 -24q-40 -23 -64.5 -54.5t-25.5 -66.5q0 -10 4 -19l37 -26l-1 -12l-65 -47h-10q-11 6 -23.5 25.5t-12.5 49.5q1 55 40.5 100.5 t105.5 73.5z" />
<glyph unicode="&#x201d;" horiz-adv-x="357" d="M113 450l-15 24q89 53 89 120q0 11 -4 19l-38 26l1 13l65 46h11q11 -4 23 -24t12 -50q-1 -56 -39.5 -101t-104.5 -73zM265 450l-15 24q90 52 90 119q0 11 -4 19l-38 27l1 12l65 46h11q11 -4 23.5 -24t12.5 -50q-1 -56 -40 -100.5t-106 -72.5z" />
<glyph unicode="&#x201e;" horiz-adv-x="367" d="M-31 -111l-15 25q39 25 64.5 59t25.5 67q0 14 -4 22l-40 27l1 13l67 47h11q11 -5 24 -26.5t13 -54.5q0 -55 -40.5 -102.5t-106.5 -76.5zM130 -111l-15 25q40 25 65 59t25 67q0 14 -4 22l-40 27l1 13l67 47h11q11 -5 24 -26.5t13 -54.5q0 -55 -40.5 -102.5t-106.5 -76.5z " />
<glyph unicode="&#x2022;" horiz-adv-x="369" d="M216 359h12q19 -15 48.5 -62t36.5 -75l-1 -12q-13 -27 -63 -71.5t-77 -56.5h-12q-23 19 -52 62.5t-42 82.5l3 7q35 47 78 81t69 44z" />
<glyph unicode="&#x2026;" horiz-adv-x="814" d="M103 121h6q9 -9 22.5 -32t15.5 -36l-1 -6q-6 -13 -31 -35t-38 -29h-7q-11 9 -24.5 31t-18.5 40l1 3q33 46 75 64zM373 121h6q9 -9 22.5 -32t15.5 -36l-1 -6q-6 -13 -31 -35t-39 -29h-5q-11 9 -24.5 30.5t-19.5 40.5l1 3q33 46 75 64zM644 121h6q9 -8 22 -31.5t16 -36.5 l-1 -6q-6 -13 -31 -35t-39 -29h-6q-11 9 -24.5 31t-18.5 40l1 3q33 46 75 64z" />
<glyph unicode="&#x202f;" horiz-adv-x="175" />
<glyph unicode="&#x2039;" horiz-adv-x="328" d="M227 45l-23 -17q-31 58 -74 113t-72 82q39 27 102 81.5t114 111.5l16 -18q-53 -85 -134 -178q49 -100 71 -175z" />
<glyph unicode="&#x203a;" horiz-adv-x="328" d="M100 399l22 17q32 -58 75 -113.5t71 -81.5q-39 -27 -101.5 -81.5t-113.5 -111.5l-16 18q39 67 134 178q-55 122 -71 175z" />
<glyph unicode="&#x205f;" horiz-adv-x="218" />
<glyph unicode="&#x20ac;" d="M74 401l40 1q42 113 125.5 179.5t186.5 66.5q78 0 135 -44q-6 -17 -25 -53.5t-29 -50.5l-15 -5q-10 46 -10 108q-20 8 -45 8q-77 0 -138.5 -53.5t-93.5 -153.5l291 4l-26 -44l-274 4q-12 -39 -12 -71l267 4l-27 -44l-242 3v-21q0 -92 32 -145q37 -58 105 -58q14 0 23 3 q25 17 70.5 51t60.5 44l9 -21q-45 -66 -93 -103q-41 -16 -97 -16q-95 0 -150 74q-52 71 -52 185v8l-65 1l15 32l51 1q2 37 13 74h-45z" />
<glyph unicode="&#x2122;" horiz-adv-x="475" d="M152 642h108q20 4 26 4q3 0 3 -3q0 -19 -9 -46q-6 -4 -10 -5q0 2 -2 6l-4 10q-3 7 -6 15l-36 -3v-114l34 -8l-4 -17h-100l6 17l27 8v114l-35 3l-8 -15l-7 -10q-2 -4 -3 -5q-3 1 -11 3q0 26 2 48q1 1 4 1q1 0 5 -0.5t10 -1.5t10 -1zM303 626l4 16h70l2 -12l44 -88l45 91 l1 9h73l-6 -16l-21 -6q0 -75 4 -115l26 -7l-6 -17h-83l5 17l19 5v112l-60 -133l-13 1q-9 21 -57 126q0 -14 -1.5 -50.5t-2.5 -52.5l29 -8l-4 -17h-76l4 16l22 9q2 15 10 111q-2 6 -28 9z" />
</font>
</defs>
</svg>
