<?xml version="1.0" standalone="no"?>
<!DOCTYPE svg PUBLIC "-//W3C//DTD SVG 1.1//EN" "http://www.w3.org/Graphics/SVG/1.1/DTD/svg11.dtd" >
<svg xmlns="http://www.w3.org/2000/svg">
<metadata>
This is a custom SVG webfont generated by Font Squirrel.
Designer    : Robert Slimbach
Foundry URL : http://www.adobe.com/type
</metadata>
<defs>
<font id="webfontD0m38lcq" horiz-adv-x="538" >
<font-face units-per-em="1000" ascent="735" descent="-265" />
<missing-glyph horiz-adv-x="227" />
<glyph unicode=" "  horiz-adv-x="227" />
<glyph unicode="&#x09;" horiz-adv-x="227" />
<glyph unicode="&#xa0;" horiz-adv-x="227" />
<glyph unicode="!" horiz-adv-x="268" d="M149 225l-39 -15q10 83 25.5 196t20.5 158l-11 48q19 14 77 28q54 13 100 13h6l5 -9q-28 -73 -184 -419zM114 156h8q13 -9 30 -38.5t21 -47.5v-7q-9 -17 -41.5 -45t-50.5 -35h-7q-15 11 -33 38t-26 52l2 3q23 30 51 51.5t46 28.5z" />
<glyph unicode="&#x22;" horiz-adv-x="386" d="M167 412l-44 -20q30 176 34 221l-10 38q21 12 60.5 24t70.5 14l11 -5q-8 -28 -50.5 -124t-71.5 -148zM349 416l-44 -18q3 21 16.5 102t16.5 119l-9 37q52 31 130 38l10 -8q-8 -25 -49.5 -119.5t-70.5 -150.5z" />
<glyph unicode="#" d="M373 395h-110l-47 -120h110zM157 482h96l59 153l46 5l-62 -158h111l59 153l46 5l-62 -158h98l-44 -88l-87 1l-48 -120h98l-43 -86l-85 1l-68 -171l-45 -6l69 177h-110l-68 -171l-45 -6l69 177l-109 -1l44 86h96l48 120h-107z" />
<glyph unicode="$" d="M363 637l27 93l37 5l-30 -105q34 -8 64 -35q28 17 81 30l8 -4q-6 -28 -29 -87t-40 -83l-18 -5q-17 77 -20 111q-20 23 -58 35l-61 -214q36 -22 57 -37.5t45 -39.5t36 -52.5t12 -62.5q0 -53 -26 -93.5t-67 -60.5t-84 -29q-30 -6 -58 -6q-12 0 -24 1l-28 -98l-39 -10 l31 110q-110 17 -179 86q2 15 26.5 60t43.5 69l15 5q11 -47 20 -152q26 -21 85 -29l65 224q-36 22 -56 37t-45 38.5t-36.5 51.5t-11.5 64q0 97 76 146q60 40 137 40q21 0 44 -3zM293 396l59 202q-8 1 -16 1q-45 0 -78 -25q-40 -29 -40 -81q0 -27 17 -49t58 -48zM285 244 l-60 -208q59 1 94.5 31t35.5 76q0 60 -70 101z" />
<glyph unicode="%" horiz-adv-x="799" d="M318 654q55 0 87.5 -34t32.5 -97q0 -83 -59 -152t-149 -69q-54 0 -87 34q-34 34 -34 96q0 78 59 150t150 72zM314 620q-45 0 -78 -83.5t-33 -141.5q0 -25 8.5 -43t23.5 -18q29 0 55.5 46.5t40 99.5t13.5 86q0 54 -30 54zM694 665l32 -28l-578 -678l-29 30zM630 339 q54 0 86.5 -34t32.5 -96q0 -83 -58.5 -152t-147.5 -69q-55 0 -88 34q-34 34 -34 96q0 78 59 149q59 72 150 72zM626 305q-31 0 -57.5 -45t-39.5 -95.5t-13 -83.5q0 -25 8.5 -43t22.5 -18q42 0 75.5 86.5t33.5 145.5q0 53 -30 53z" />
<glyph unicode="&#x26;" horiz-adv-x="742" d="M358 190l-20 28q80 112 214 112q76 0 114 -4q46 40 71 59l24 -22q-37 -55 -83 -147q-26 8 -77 15q-18 -86 -70 -143t-112.5 -79.5t-129.5 -22.5q-112 0 -177.5 55t-65.5 141q0 138 185 192v2q-26 13 -43 41.5t-17 63.5q0 74 66 123.5t171 49.5q46 0 88 -14.5t65 -36.5 q-2 -15 -23.5 -55.5t-36.5 -55.5l-24 -5q-16 36 -23 119q-17 5 -33 5q-54 0 -88.5 -30.5t-34.5 -83.5q0 -76 109 -104l-20 -38q-11 3 -33 3q-71 -1 -116.5 -39.5t-45.5 -102.5q0 -63 41.5 -103.5t115.5 -40.5q75 0 131.5 45.5t74.5 118.5q-35 3 -61 3q-79 0 -136 -49z" />
<glyph unicode="'" horiz-adv-x="205" d="M167 412l-44 -20q30 163 34 221l-10 37q21 13 60 25t71 14l11 -6q-8 -27 -50.5 -122.5t-71.5 -148.5z" />
<glyph unicode="(" horiz-adv-x="326" d="M403 719l17 -25q-123 -84 -200 -237.5t-77 -340.5q0 -156 56 -273l-27 -20q-126 137 -126 341q0 178 98 330q98 150 259 225z" />
<glyph unicode=")" horiz-adv-x="326" d="M-43 -177l-18 26q123 82 200 239.5t77 336.5q0 151 -57 278l30 16q56 -61 91 -151q33 -87 33 -185v-6q-1 -177 -94.5 -326t-261.5 -228z" />
<glyph unicode="*" horiz-adv-x="396" d="M283 467l7 5l103 -46l23 -5q-3 -21 -23.5 -46t-39.5 -29l-8 22zM264 500l-12 -5l-101 44l-26 5q2 21 23.5 47.5t40.5 30.5l10 -23zM256 484l-3 -12l-92 -67l-17 -19q-14 8 -26 43q-7 23 -7 38q0 8 2 13l22 -5zM289 485l3 13l92 70l16 17q15 -13 26 -49q9 -26 9 -40 q0 -5 -1 -9l-24 6zM286 507l-12 -2l-12 121l-6 22q5 3 17 3q13 0 33 -3q39 -7 48 -17l-16 -19zM263 461l10 4l15 -118l7 -29q-5 -1 -11 -1q-15 0 -42 5q-37 7 -48 17l17 22z" />
<glyph unicode="+" horiz-adv-x="638" d="M363 -11l-76 -10v222h-198l10 67h188v192l76 10v-202h198l-9 -67h-189v-212z" />
<glyph unicode="," horiz-adv-x="247" d="M-30 -143l-20 30q48 25 81 66.5t33 85.5q0 19 -10 39l-42 26l2 16l92 58h19q14 -9 27.5 -33.5t13.5 -58.5q0 -80 -52.5 -138.5t-143.5 -90.5z" />
<glyph unicode="-" horiz-adv-x="370" d="M290 231l-252 -36l46 92l54 -2l204 14l3 -9z" />
<glyph unicode="." horiz-adv-x="247" d="M108 161h8q12 -10 29.5 -40.5t21.5 -47.5l-1 -8q-9 -18 -41 -46.5t-50 -35.5h-7q-15 11 -33 39.5t-26 52.5l3 4q22 30 49.5 52t46.5 30z" />
<glyph unicode="/" horiz-adv-x="397" d="M46 -38h-69l442 709h69z" />
<glyph unicode="0" d="M366 654q83 0 128.5 -61t45.5 -165q0 -53 -11 -110.5t-35.5 -117t-59.5 -106.5t-88.5 -77t-117.5 -30q-81 0 -130.5 58t-49.5 170q0 68 20 142t57.5 141.5t101 111.5t139.5 44zM363 617q-46 0 -91.5 -87t-71 -198.5t-25.5 -194.5q0 -112 56 -112q50 0 95 97.5t67.5 208.5 t22.5 181q0 55 -12.5 80t-40.5 25z" />
<glyph unicode="1" d="M308 564h-119l11 26q9 3 46 13l95 25q59 15 98 26h13l-80 -320q-65 -258 -69 -278l120 -30l-13 -27q-30 0 -90 0.5t-91 0.5q-32 0 -98 -0.5t-99 -0.5l12 27l120 30q31 88 144 508z" />
<glyph unicode="2" d="M5 16l46 69q18 5 30 14q103 66 196 167q96 103 96 211q0 61 -27.5 92t-75.5 31q-25 0 -53 -13q-24 -95 -52 -143l-18 -9q-11 21 -25.5 61.5t-15.5 61.5q45 41 105 68.5t122 27.5q80 0 131.5 -45t51.5 -131q0 -70 -51 -131t-164 -142q-96 -69 -158 -108v-2q21 1 70.5 2 t105 2t69.5 1l18 18l34 32q17 16 33 28l21 -23q-14 -38 -38.5 -88t-41.5 -72q-18 0 -109.5 2.5t-141.5 2.5h-161z" />
<glyph unicode="3" d="M174 475l-17 -5q-7 10 -20.5 47.5t-16.5 57.5q104 79 214 79q71 0 120.5 -35.5t50.5 -103.5q0 -116 -199 -165l-1 -5q178 -22 178 -155q0 -90 -83 -146q-85 -57 -203 -57q-56 0 -110 19t-84 45q9 22 33.5 62t37.5 53l18 6q15 -44 25 -135q21 -7 52 -7q73 0 121.5 49 t48.5 117q0 56 -27.5 87t-70.5 33q-50 -10 -94 -15l-6 10q5 15 19.5 33.5t26.5 24.5q13 -1 34.5 -3.5t28.5 -2.5q61 19 90 56q27 36 27 79q0 53 -27 82q-27 27 -74 27q-18 0 -41 -9q-27 -84 -51 -123z" />
<glyph unicode="4" d="M399 197l-32 -141l79 -30l-10 -27q-24 0 -73 0.5t-74 0.5q-26 0 -78 -0.5t-78 -0.5l10 27l92 30q17 46 40 138l-241 -3l-15 31q54 78 193.5 233.5t168.5 175.5q34 15 136 23l-105 -415h36q38 38 71 58h14q-3 -16 -24 -77t-28 -74l-17 -6q-16 26 -24 59zM287 240l101 341 h-4q-110 -123 -162.5 -187t-113.5 -149q67 -5 179 -5z" />
<glyph unicode="5" d="M104 345l-7 11q10 37 106 288q98 -4 166 -4q45 0 76 2q13 0 82 29l14 -21q-11 -19 -37.5 -50t-45.5 -46q-17 -13 -48 -16q-57 -5 -192 -5q0 -1 -18 -40t-32 -74q44 -9 116 -33q104 -31 148 -72q45 -41 45 -115q0 -88 -74 -149q-76 -63 -191 -63q-57 0 -111.5 22t-79.5 47 q9 25 32 62t38 53l16 4q4 -13 25 -136q28 -8 56 -8q68 0 113 41q44 41 44 97q0 48 -33 79q-31 31 -102 60z" />
<glyph unicode="6" d="M536 666l11 -32q-113 -32 -188 -85q-121 -86 -159 -213l2 -1q80 54 150 54q62 0 107 -42.5t45 -124.5q0 -96 -70.5 -165.5t-184.5 -69.5q-94 0 -150.5 60.5t-56.5 168.5q0 88 41 173t126 152q72 58 163 90.5t164 34.5zM255 25q47 0 83 60q33 57 33 120v7q-1 60 -25.5 86 t-61.5 26q-51 0 -96 -36q-17 -42 -17 -117q0 -69 22 -107.5t62 -38.5z" />
<glyph unicode="7" d="M99 -14l-7 12q29 60 187 249l228 284l1 2q-64 2 -147 2q-87 0 -155 -2q-30 -44 -58 -80l-28 -6q25 158 36 199q55 -6 76 -6q249 0 373 1l-11 -47q-12 -41 -184.5 -274t-183.5 -261l-15 -59z" />
<glyph unicode="8" d="M368 347v-2q31 -25 42 -35t32.5 -33.5t29.5 -47.5t8 -53q0 -77 -67 -133t-175 -56q-92 0 -150 45q-60 47 -60 112q0 53 38 90q40 39 134 82v3q-84 67 -84 145q0 83 63 136.5t155 53.5q81 0 131 -42t50 -105q0 -54 -36.5 -88.5t-110.5 -71.5zM325 616q-44 0 -71 -32 t-27 -73t28 -73t82 -69q31 19 53.5 56.5t22.5 83.5q0 44 -23.5 75.5t-64.5 31.5zM253 24q48 0 77.5 32.5t29.5 77.5q0 40 -32 76.5t-95 82.5q-87 -59 -87 -149q0 -54 31 -88q30 -32 76 -32z" />
<glyph unicode="9" d="M342 654q94 0 147 -62t53 -167q0 -200 -183 -337q-121 -90 -286 -111l-14 29q92 33 172 91q53 39 93 90.5t60 97.5l-2 2q-62 -39 -124 -41q-68 0 -117 45.5t-49 129.5q0 92 71.5 162.5t178.5 70.5zM338 617q-48 0 -81 -55t-33 -125q0 -63 29.5 -95.5t71.5 -32.5t69 21 q23 64 23 143q0 72 -21 108t-58 36z" />
<glyph unicode=":" horiz-adv-x="247" d="M108 161h8q12 -10 29.5 -40.5t21.5 -47.5l-1 -8q-9 -18 -41 -46.5t-50 -35.5h-7q-15 11 -33 39t-26 53l3 4q22 30 49.5 52t46.5 30zM176 440h7q12 -10 29.5 -39.5t22.5 -48.5l-1 -8q-9 -18 -41 -46.5t-50 -35.5h-8q-15 13 -33 41t-24 52l1 3q22 31 50.5 53t46.5 29z" />
<glyph unicode=";" horiz-adv-x="247" d="M170 439h8q13 -10 30.5 -40t21.5 -48v-8q-10 -17 -42.5 -46t-49.5 -36h-8q-15 12 -33 40.5t-25 52.5l2 3q23 31 51 53t45 29zM-30 -143l-20 30q48 26 81 67t33 85q0 22 -10 39l-42 26l2 17l92 58h19q15 -9 28 -33.5t13 -59.5q0 -80 -52.5 -138.5t-143.5 -90.5z" />
<glyph unicode="&#x3c;" horiz-adv-x="617" d="M73 193l2 79l429 208l-8 -77l-360 -169v-3l368 -173l-8 -74z" />
<glyph unicode="=" horiz-adv-x="638" d="M553 177l-11 -67h-453l11 67h453zM553 361l-11 -67h-453l11 67h453z" />
<glyph unicode="&#x3e;" horiz-adv-x="617" d="M545 272l-2 -79l-428 -209l8 78l350 169v3l-358 170l8 76z" />
<glyph unicode="?" horiz-adv-x="441" d="M183 471l-15 -5q-27 53 -32 113q93 64 184 64q62 0 108 -34t46 -99q0 -46 -24.5 -76.5t-73.5 -64.5l-19 -13l-41 -28l-31 -23q-17 -13 -24 -22t-8 -16t-1 -14q0 -13 3 -29l-28 -15q-28 9 -53 44q-20 28 -20 62q0 8 1 16q15 23 40 45t82 66l22 16l21 17t16 14.5t14.5 15.5 t8 15t3.5 18q0 25 -21 43t-56 18q-18 0 -33 -6q-31 -72 -69 -122zM202 156h8q12 -9 29.5 -38.5t21.5 -47.5v-7q-9 -17 -41.5 -45t-50.5 -35h-7q-15 12 -33.5 39t-25.5 51l2 3q22 30 50.5 51.5t46.5 28.5z" />
<glyph unicode="@" horiz-adv-x="835" d="M506 356q-14 0 -22 -1.5t-25.5 -12t-37.5 -31.5q-40 -41 -67.5 -97.5t-27.5 -103.5q0 -24 15 -24q16 0 50.5 26.5t73.5 76.5q54 68 80 150q-17 17 -39 17zM656 407l4 -5l-32 -58q-43 -134 -74 -261q-2 -15 4 -15q75 0 126.5 63t51.5 158q0 111 -71.5 176t-183.5 65 q-109 0 -190.5 -51t-121 -130.5t-39.5 -173.5q0 -143 84 -220.5t213 -77.5q167 0 300 129l21 -30q-143 -156 -349 -156q-159 0 -254.5 92.5t-95.5 251.5q0 172 124 290t313 118q137 0 224.5 -74t87.5 -204q0 -122 -90 -200q-86 -74 -206 -74h-9q-29 0 -47 6q5 16 24.5 72 t26.5 78h-5q-50 -71 -109 -113.5t-102 -42.5q-27 0 -42.5 22t-15.5 60q0 60 38.5 133t108.5 118q71 46 126 46q40 0 62 -25l9 21z" />
<glyph unicode="A" horiz-adv-x="695" d="M397 635l124 49l4 -9q-8 -20 -8 -50q0 -9 1 -19q9 -140 48 -503q4 -33 16.5 -44t68.5 -32l-8 -28q-23 0 -70.5 0.5t-72.5 0.5q-20 0 -60.5 -0.5t-60.5 -0.5l6 25l48 29q0 12 -2 38t-5.5 65.5t-5.5 72.5q-52 -7 -163 -7h-53l-97 -161l83 -34l-8 -28q-19 0 -59.5 0.5 t-61.5 0.5q-19 0 -56 -0.5t-56 -0.5l9 28l74 34q44 56 357 533q10 15 8 28v13zM400 536h-2l-158 -256q24 0 93.5 -1.5t83.5 -1.5l-7 92l-6 93q-2 39 -4 74z" />
<glyph unicode="B" horiz-adv-x="657" d="M139 625l13 28q148 13 238 13q125 0 188.5 -35t63.5 -113q0 -69 -60 -112.5t-159 -54.5l-1 -5q190 -27 190 -153q-1 -100 -100 -148q-94 -46 -247 -46h-13q-43 1 -135 1.5t-136 0.5l10 29l82 32q8 17 65 225l87 321zM359 624l-65 -260q97 1 152.5 39t55.5 111 q0 110 -126 110h-17zM284 325q-70 -278 -71 -285q142 2 193 47q57 45 57 115q0 58 -39.5 90t-139.5 33z" />
<glyph unicode="C" horiz-adv-x="690" d="M652 172l11 -29q-52 -84 -93 -124q-98 -38 -185 -38q-145 0 -230 78t-85 216q0 166 124 282.5t309 116.5q95 0 146 -41q35 19 84 27l8 -10q-12 -39 -38.5 -101.5t-38.5 -80.5l-17 -6q-8 43 -16 134q-39 26 -103 26q-95 0 -168 -50.5t-108.5 -126.5t-35.5 -162 q0 -114 56 -179.5t158 -65.5q29 0 56 6q91 77 166 128z" />
<glyph unicode="D" horiz-adv-x="753" d="M141 626l16 28q168 12 232 12q174 0 264 -72.5t90 -215.5q0 -137 -87 -232.5t-233 -130.5q-75 -18 -247 -18h-36q-33 0 -162 3l9 29l85 32q5 4 81 282l72 264zM360 621l-72 -278q-72 -279 -76 -305q140 0 231 57q153 94 153 306q0 87 -44 142q-61 78 -192 78z" />
<glyph unicode="E" horiz-adv-x="609" d="M136 632l12 28q23 0 69.5 -1t69.5 -1h243q64 10 95 10h5l4 -5q-21 -95 -47 -162l-17 -8q-17 38 -44 121l-169 -8l-62 -238q156 2 239 11l7 -13q-5 -9 -35.5 -34.5t-35.5 -25.5t-94 5.5t-95 5.5q-23 -80 -68 -262l201 -10l66 63q55 53 76 69l17 -7q-34 -109 -68 -172 q-89 3 -210 3h-166q-26 0 -80 -1t-81 -1l12 28l89 35q11 16 83 282l71 255z" />
<glyph unicode="F" horiz-adv-x="564" d="M140 632l14 28q21 0 63.5 -1t64.5 -1h258q32 10 103 10l5 -8q-20 -83 -56 -167l-16 -8q-24 69 -38 130l-181 -9l-67 -255q164 2 247 10l6 -13q-6 -9 -35 -34t-35 -25q-3 0 -94.5 5t-102.5 5q-59 -223 -59 -237l110 -35l-10 -28q-31 0 -90.5 0.5t-89.5 0.5q-25 0 -76 -0.5 t-77 -0.5l10 28l75 35q9 11 81 280l71 256z" />
<glyph unicode="G" horiz-adv-x="739" d="M583 -19h-5q-62 10 -81 33q-48 -31 -134 -31q-131 0 -212.5 78t-81.5 210q0 171 122 287.5t318 116.5q92 0 141 -39q16 6 51 14t46 8l6 -8q-5 -21 -34.5 -91t-45.5 -96l-16 -5q-3 11 -21 136q-36 29 -113 29q-95 0 -167 -53.5t-106 -130.5t-34 -160q0 -112 56.5 -175.5 t153.5 -63.5q34 0 72 13q11 43 34 115l29 90l-177 5l-3 11l51 36q107 10 291 10q-16 -56 -70.5 -186t-69.5 -153z" />
<glyph unicode="H" horiz-adv-x="776" d="M141 632l11 27q23 0 67 -1t66 -1q21 0 63.5 1t63.5 1l-7 -27l-53 -34l-58 -218h270l60 217l-47 37l9 25q17 0 51 -1t51 -1q26 0 78 1t78 1l-11 -28l-77 -34q-35 -121 -68 -255q-67 -263 -65 -279l81 -35l-13 -29q-25 0 -73 0.5t-73 0.5q-21 0 -65.5 -0.5t-66.5 -0.5l9 28 l54 36q29 95 76 273q-58 -10 -128 -10h-144q-26 -95 -67 -264l51 -37l-9 -26q-21 0 -63 0.5t-64 0.5q-24 0 -74 -0.5t-74 -0.5l10 28l78 35q13 20 85 285l67 250z" />
<glyph unicode="I" horiz-adv-x="376" d="M147 631l12 28q21 0 63.5 -0.5t63.5 -0.5q27 0 79.5 0.5t78.5 0.5l-9 -29l-81 -33l-67 -254q-69 -266 -69 -282l84 -34l-11 -28q-26 0 -78 0.5t-79 0.5q-26 0 -78 -0.5t-78 -0.5l9 28l85 34q7 18 81 282l71 254z" />
<glyph unicode="J" horiz-adv-x="352" d="M131 632l12 27q24 0 73 -0.5t75 -0.5q27 0 77 0.5t75 0.5l-11 -29l-78 -33l-121 -453q-22 -81 -49 -127q-40 -67 -106.5 -107.5t-123.5 -56.5l-24 25l4 11q51 19 86 58q35 38 70 162q0 2 70 272l56 215z" />
<glyph unicode="K" horiz-adv-x="697" d="M806 658l-11 -28q-42 -19 -112 -38q-11 -5 -28 -18q-56 -40 -233 -196v-3q90 -162 148 -253l39 -60l29 -44q10 -14 13 -20l-12 -12q-77 1 -117 19t-73 63q-28 38 -72.5 113t-77.5 142l2 6q215 192 293 275q-9 19 -17 55q55 1 87.5 1t78.5 -1t63 -1zM148 631l12 28 q24 0 70 -0.5t68 -0.5q24 0 73 0.5t74 0.5l-9 -28l-80 -34l-68 -254q-70 -270 -70 -281l81 -35l-8 -28q-26 0 -79 0.5t-80 0.5q-26 0 -77 -0.5t-76 -0.5l9 28l84 35q11 24 81 281l69 254z" />
<glyph unicode="L" horiz-adv-x="575" d="M144 631l12 28q24 0 71.5 -0.5t71.5 -0.5t72 0.5t72 0.5l-11 -28l-77 -34l-67 -253l-37 -141l-27 -109q-10 -38 -10 -39l167 -13l47 48l60 60q24 23 43 38l16 -12q-36 -108 -70 -180q-9 0 -46.5 1t-112 2t-174.5 1q-28 0 -83 -0.5t-80 -0.5l7 27l84 36l80 281l70 254z " />
<glyph unicode="M" horiz-adv-x="946" d="M179 629l15 28l206 3q-4 -16 -4 -30q0 -10 2 -19q3 -22 14 -79l26 -152l29 -165h2l272 404q6 10 10 41q77 0 227 -2l-12 -29l-90 -28q-25 -116 -80 -541l88 -33l-10 -28q-25 0 -75 0.5t-75 0.5t-75.5 -0.5t-75.5 -0.5l12 28l70 33l95 499h-2l-348 -563l-36 -8l-68 530h-2 l-50 -126l-70 -184q-32 -81 -54 -145l87 -36l-13 -28q-21 0 -63 0.5t-64 0.5q-18 0 -54 -0.5t-55 -0.5l10 28l77 35q71 136 233 516q-3 21 -19 28.5t-80 22.5z" />
<glyph unicode="N" horiz-adv-x="734" d="M216 27l-10 -28q-20 0 -61 0.5t-62 0.5q-19 0 -56.5 -0.5t-57.5 -0.5l10 28l88 40q39 97 154 490q-22 39 -41 51t-68 23l16 27q118 4 194 4q3 -18 25 -65l209 -456h2q13 47 58 230.5t53 222.5l-79 38l14 27q17 0 51.5 -1t52.5 -1q21 0 63 1t63 1l-10 -31l-86 -34 q-31 -72 -151 -523l61 -56l-5 -15l-165 -11q-55 117 -227 513h-2q-85 -304 -110 -436z" />
<glyph unicode="O" horiz-adv-x="755" d="M472 675q48 0 93.5 -16.5t86 -50.5t66 -94t25.5 -139q0 -65 -24.5 -132t-71 -126t-125.5 -96.5t-178 -37.5q-114 0 -196 73.5t-82 214.5q0 73 29 144.5t80 129.5t129 94t168 36zM472 635h-2q-68 0 -129 -63.5t-95.5 -157t-34.5 -184.5q0 -207 132 -207q70 0 130.5 68.5 t92.5 164.5t32 186q0 96 -33.5 144.5t-92.5 48.5z" />
<glyph unicode="P" horiz-adv-x="611" d="M134 624l17 28q128 14 229 14q261 0 261 -190q0 -98 -79.5 -156.5t-195.5 -58.5q-33 0 -58 9l-4 28q84 5 140 56t56 137q0 68 -38 100q-36 30 -96 30h-8l-67 -265q-72 -289 -72 -293l99 -36l-11 -28q-27 0 -83 0.5t-84 0.5q-26 0 -79 -0.5t-80 -0.5l7 28l83 37 q11 21 84 288l69 251z" />
<glyph unicode="Q" horiz-adv-x="757" d="M730 -171l-10 -12q-31 -6 -62 -6q-75 0 -151 35q-63 28 -207 120q-31 19 -50 26q-182 76 -182 275q0 102 49 194.5t143.5 153t212.5 60.5q38 0 76 -10.5t73.5 -33t62.5 -55.5t43.5 -82t16.5 -108q0 -148 -80 -246t-208 -136v-2q206 -125 273 -173zM478 635 q-75 0 -138 -69.5t-95 -163t-32 -177.5q0 -177 130 -210q75 8 136 81t91 166.5t30 179.5q0 193 -122 193z" />
<glyph unicode="R" horiz-adv-x="648" d="M139 615l14 31q110 20 239 20q250 0 250 -158q0 -78 -52.5 -123t-142.5 -72l-1 -3q35 -79 111 -223l52 -92l-12 -10q-66 1 -105.5 20t-64.5 55q-52 75 -124 235l8 12q92 21 142.5 65t50.5 123q0 126 -146 126l-79 -302q-57 -225 -64 -255l91 -37l-10 -28q-27 0 -80.5 0.5 t-80.5 0.5q-26 0 -77.5 -0.5t-77.5 -0.5l8 28l81 35q24 68 77 256l81 282z" />
<glyph unicode="S" horiz-adv-x="528" d="M338 675q75 0 122 -39q35 18 82 30l11 -7q-8 -32 -29.5 -91.5t-33.5 -80.5l-19 -9q-16 49 -23 117q-28 31 -90 31q-55 0 -86.5 -33t-31.5 -74q0 -49 42 -86l123 -103q79 -70 79 -150q0 -89 -70.5 -143t-179.5 -54q-68 0 -130.5 25.5t-94.5 56.5q3 17 30.5 78t46.5 86 l16 -1q3 -13 9.5 -83.5t11.5 -97.5q37 -17 91 -17q64 0 100.5 31.5t36.5 78.5q0 51 -49 95q-14 13 -52 45.5t-58 51.5q-73 66 -73 149q0 88 64 141t155 53z" />
<glyph unicode="T" horiz-adv-x="664" d="M238 657h400q47 9 106 14l6 -3q-26 -77 -88 -194l-18 -4q-11 93 -14 145l-133 -6l-64 -248q-56 -218 -74 -299l117 -34l-12 -29q-32 0 -95 0.5t-94 0.5q-30 0 -90.5 -0.5t-91.5 -0.5l12 28l107 35q16 39 77 266l77 281l-126 6q-104 -121 -122 -138l-22 -2q32 130 59 193 l5 3q32 0 78 -14z" />
<glyph unicode="U" horiz-adv-x="772" d="M211 596l-77 36l12 27q17 0 58 -0.5t59 -0.5q21 0 68.5 0.5t70.5 0.5l-11 -28l-51 -40q0 -1 -18 -63l-37 -124l-36 -131q-18 -68 -22 -94q-4 -25 -4 -44q0 -33 13 -49q21 -26 63 -26q59 0 116 31.5t84 66.5l129 440l-50 34l14 27q39 -1 129 -1q87 0 128 1l-13 -28 l-78 -35q-13 -37 -78 -277.5t-66 -256.5l92 -20l-13 -29q-214 -26 -234 -30l-5 4l34 109h-2q-130 -113 -253 -113q-67 0 -108 28q-46 31 -46 104q0 40 14 92q21 75 69.5 231.5t48.5 157.5z" />
<glyph unicode="V" horiz-adv-x="682" d="M105 632l12 27q22 0 66 -0.5t66 -0.5q77 0 115 1l-11 -28l-38 -35q17 -200 41 -444h2q157 233 279 446l-36 34l11 27q13 0 42 -0.5t43 -0.5q17 0 52 0.5t53 0.5l-9 -27q-79 -36 -95 -56q-73 -93 -360 -534q-40 -42 -75 -61h-17q-10 99 -65 596q-2 16 -14.5 25t-61.5 30z " />
<glyph unicode="W" horiz-adv-x="970" d="M107 634l12 25q21 0 63 -0.5t63 -0.5q16 0 48 0.5t48 0.5l-8 -27l-23 -30q2 -23 10 -74l26 -161l33 -215h2q36 50 131 192q-14 93 -44 236q-6 24 -71 52l13 27q22 0 62 -0.5t59 -0.5q12 0 37.5 0.5t38.5 0.5v-3l-9 -52q1 -26 23 -150h2q77 121 89 145l12 57l3 3 q9 0 28.5 -0.5t27.5 -0.5q16 0 48 0.5t46 0.5l-12 -27q-86 -38 -100 -56q-43 -51 -133 -181q3 -17 39 -235h2l261 436l-18 36l12 27q12 0 36.5 -0.5t36.5 -0.5q17 0 50 0.5t49 0.5l-11 -27q-55 -25 -70.5 -35t-29.5 -28q-37 -46 -331 -510q-14 -22 -70 -78h-15q-4 17 -11 63 l-19 114q-11 70 -20 120h-1l-155 -219q-31 -39 -77 -78h-14q-5 26 -45 281.5t-52 317.5q-3 15 -15 24t-57 30z" />
<glyph unicode="X" horiz-adv-x="658" d="M106 631l11 28q23 0 68 -0.5t67 -0.5q20 0 59.5 0.5t59.5 0.5l-10 -29l-31 -33q15 -46 39.5 -106.5t27.5 -70.5h2q78 87 146 181l-32 30l12 28q12 0 38.5 -0.5t40.5 -0.5q19 0 59.5 0.5t61.5 0.5l-12 -29l-98 -39q-51 -48 -200 -217q52 -143 120 -307l91 -40l-11 -28 q-25 0 -75 0.5t-75 0.5q-16 0 -49.5 -0.5t-50.5 -0.5l28 61q-6 23 -78 219h-2l-180 -219l45 -33l-9 -28q-14 0 -44 0.5t-45 0.5q-83 0 -125 -1l11 28l90 41q55 51 241 260q-25 67 -107 267z" />
<glyph unicode="Y" horiz-adv-x="608" d="M95 631l13 28q20 0 62 -0.5t64 -0.5q19 0 58.5 0.5t57.5 0.5l-11 -29l-34 -25q2 -12 11 -41l28 -88l35 -118l3 -1q110 137 183 246l-39 28l14 28q10 0 34.5 -0.5t36.5 -0.5q20 0 61.5 0.5t62.5 0.5l-13 -28l-83 -34q-77 -78 -227 -272q-13 -17 -20 -42q-55 -210 -55 -222 l104 -34l-11 -28q-28 0 -86 0.5t-87 0.5t-87 -0.5t-88 -0.5l12 28l97 33q20 43 70 223q4 11 4 23q0 7 -2 15q-7 26 -88 263q-4 11 -17 18.5t-63 28.5z" />
<glyph unicode="Z" horiz-adv-x="637" d="M669 658l3 -19l-489 -584v-2q5 0 63 -2l124 -5q66 -2 86 -2l145 150l16 -10q-9 -36 -29 -96t-35 -92q-11 0 -212 2t-355 2l-7 16l507 591l-1 2q-28 0 -119.5 1t-125.5 1q-60 -82 -102 -131l-23 -6q28 164 36 196l7 5q18 -3 37.5 -7t34.5 -6.5t18 -3.5h421z" />
<glyph unicode="[" horiz-adv-x="326" d="M306 655l-200 -767l100 -25l-13 -28h-190l227 874h189l-14 -30z" />
<glyph unicode="\" horiz-adv-x="464" d="M373 -38h-64l-148 709h64z" />
<glyph unicode="]" horiz-adv-x="326" d="M57 -111l200 766l-100 25l13 29h189l-227 -874h-187l13 28z" />
<glyph unicode="^" horiz-adv-x="552" d="M504 253l-77 -10l-140 329l-133 -319l-78 -10l176 398h74z" />
<glyph unicode="_" horiz-adv-x="483" d="M426 -101v-48h-483v48h483z" />
<glyph unicode="`" horiz-adv-x="386" d="M316 514l-31 -18l-133 172l3 11q17 8 49 13q23 3 41 3q9 0 16 -1z" />
<glyph unicode="a" horiz-adv-x="568" d="M416 448l130 12l5 -8l-44 -60q-46 -132 -89 -325l2 -1q57 17 117 94l7 -7q-2 -63 -64.5 -114.5t-153.5 -51.5q-22 0 -36 4q15 60 53 193h-3q-140 -197 -252 -197q-36 0 -56 27.5t-20 74.5q0 73 42 156t122 142q77 59 162 59q43 0 70 -23zM160 62q12 0 29.5 10t51 45.5 t71.5 92.5q49 75 78 179q-13 9 -33 9q-52 0 -108 -60q-47 -51 -77 -121t-30 -119q0 -36 18 -36z" />
<glyph unicode="b" horiz-adv-x="547" d="M116 639l8 23q34 11 105 21.5t99 10.5l4 -3l-122 -388h5q123 153 222 153q41 0 66.5 -32.5t25.5 -84.5q0 -144 -101.5 -247.5t-231.5 -103.5q-40 0 -93 19.5t-79 37.5l159 580zM195 28q49 0 97.5 54t77.5 127q27 71 27 127q0 54 -25 54q-34 0 -105 -79 q-46 -49 -78.5 -121.5t-32.5 -122.5q0 -39 39 -39z" />
<glyph unicode="c" horiz-adv-x="429" d="M390 142l8 -35q-89 -120 -222 -120q-75 0 -112.5 45.5t-37.5 116.5q0 56 25.5 116t78.5 108q92 83 202 83q38 0 65.5 -9.5t37.5 -20.5q-2 -15 -22.5 -60t-31.5 -59l-20 -8q-16 35 -32 116q-1 0 -4.5 0.5t-5.5 0.5q-43 0 -87 -49q-72 -79 -72 -203q0 -108 77 -108 q75 0 151 86h2z" />
<glyph unicode="d" horiz-adv-x="581" d="M382 637l12 25q31 13 91.5 22.5t119.5 9.5l3 -2q-50 -154 -102.5 -340t-74.5 -288l2 -1q70 30 114 94l10 -10q-6 -63 -64.5 -111.5t-143.5 -48.5q-35 0 -52 7q36 122 51 183h-4q-64 -91 -122 -140.5t-120 -49.5q-38 0 -61 35t-23 87q0 124 95.5 235.5t210.5 111.5 q50 0 81 -36q54 191 57 204zM340 404q-65 0 -129 -103t-64 -196q0 -42 23 -42q20 0 60.5 34.5t86.5 106.5q40 62 74 174q-17 26 -51 26z" />
<glyph unicode="e" horiz-adv-x="453" d="M409 145l4 -38q-40 -56 -100 -88t-127 -32q-70 0 -114 37q-45 39 -45 126q0 46 19 96q20 54 56 101t93.5 78t123.5 31q61 0 94.5 -31t35.5 -79q0 -48 -33 -70q-22 -24 -98.5 -49t-151.5 -38q-6 -25 -6 -48v-6q0 -35 16.5 -58.5t55.5 -23.5q46 0 94 28t80 65zM305 417 q-31 0 -71 -53.5t-61 -134.5q113 25 139 66q20 31 20 77q0 45 -27 45z" />
<glyph unicode="f" horiz-adv-x="310" d="M61 437h72q38 132 123 201q71 57 152 57q65 0 97 -32q-25 -65 -62 -106l-20 -5q-16 49 -24 103q-8 2 -13 2q-72 0 -119 -222h111l-18 -38l-105 -12q-46 -191 -72 -285q-29 -107 -60.5 -163t-84.5 -99q-84 -65 -145 -65q-67 0 -91 42l48 78l15 1q16 -25 43 -42t50 -17 q18 0 31.5 19t26.5 76l106 457l-81 16z" />
<glyph unicode="g" horiz-adv-x="460" d="M514 475l-45 -79l-69 -6l-1 -2q21 -33 21 -79q0 -74 -57.5 -131t-159.5 -57q-33 0 -55 9q-10 -14 -7 -25q6 -16 50 -34q82 -33 149 -63q70 -30 70 -81q-1 -66 -83.5 -110t-160.5 -44q-65 0 -112.5 16t-70 39.5t-32 43t-9.5 35.5q0 18 15 28q46 33 125 62v2q-35 27 -35 67 q0 13 21.5 36.5t49.5 40.5q-65 38 -65 121q0 79 67 138q61 55 151 55q9 0 18 -1q13 -1 57 -8q55 -13 63 -14l98 53zM275 419q-38 0 -73.5 -72t-35.5 -139q0 -51 33 -51q28 0 54 38.5t39 85.5t13 80q0 58 -30 58zM211 -182h2q41 0 65 16t24 38q0 24 -50 46q-60 29 -145 61 q-20 -9 -39 -26.5t-18 -37.5q0 -33 44.5 -65t116.5 -32z" />
<glyph unicode="h" horiz-adv-x="560" d="M132 0l-126 -8l98 344q64 240 74 289l-71 13l11 25q27 11 100.5 21.5t107.5 10.5l2 -2q-29 -90 -138 -462h2q46 68 99 122t99 78q49 26 100 26q29 0 36 -11q2 -4 2 -12q0 -13 -6 -36q-85 -279 -90 -319l93 3l-14 -34l-115 -33q-94 -27 -112 -34l-8 11q2 16 55 181.5 t59 185.5q5 17 -6 17q-20 0 -72.5 -54.5t-95.5 -126.5q-34 -57 -84 -195z" />
<glyph unicode="i" horiz-adv-x="328" d="M262 672h6q11 -9 25 -36t15 -42l-2 -7q-9 -16 -38.5 -41.5t-45.5 -31.5h-7q-11 10 -25 35t-20 47l1 3q35 47 91 73zM135 369l-67 12l9 25q27 13 101 31.5t102 19.5l3 -3q-107 -337 -121 -408l1 -1q44 8 127 102l4 -19q-3 -19 -15 -41t-33.5 -45.5t-58 -39t-81.5 -15.5 q-39 0 -56 27q-8 14 -8 35q0 23 9 53q48 159 84 267z" />
<glyph unicode="j" horiz-adv-x="288" d="M129 384l-70 11l11 27q29 10 98.5 22t102.5 12l2 -2q-17 -76 -94 -367q-37 -135 -80 -188q-79 -96 -180 -127l-19 28q22 14 34 24t31.5 33t36 61.5t31.5 94.5zM250 672h6q11 -9 25 -36t16 -43l-2 -6q-9 -16 -38.5 -42t-44.5 -32h-8q-11 10 -25 35t-20 47l1 4q34 45 90 73 z" />
<glyph unicode="k" horiz-adv-x="507" d="M551 443l-17 -30q-81 -19 -115 -37q-38 -24 -92 -77l-1 -2q8 -20 68 -142.5t79 -165.5l-9 -8q-67 2 -105 19.5t-69 75.5q-24 44 -47.5 97.5t-27.5 69.5l1 4q112 110 144 144q3 3 5 6t4 5t3.5 5.5t2.5 5t2.5 5.5t2 5.5t1.5 6.5l1 8q1 2 2.5 9t2.5 10q6 1 16 1q23 0 69 -4 q67 -7 79 -11zM184 624l-67 14l9 25q28 10 102 21t104 11l3 -3q-24 -72 -200 -687q-11 -1 -35 -3l-55 -4l-42 -4q109 345 181 630z" />
<glyph unicode="l" horiz-adv-x="315" d="M186 624l-68 14l9 26q28 10 102.5 20.5t103.5 10.5l3 -2q-47 -149 -98 -328l-42 -152l-32 -113q-10 -38 -15 -53l1 -1q25 5 64 40t62 67l9 -15q-6 -52 -56.5 -101.5t-131.5 -49.5q-68 0 -68 62q0 20 7 47q9 34 73.5 258.5t76.5 269.5z" />
<glyph unicode="m" horiz-adv-x="847" d="M146 0l-126 -8q21 55 65.5 209.5t43.5 171.5l-74 9l7 25q25 10 103 29t101 21l3 -3q-17 -70 -68 -227h3q101 158 196 204q50 26 114 26q21 0 21 -13q0 -12 -9 -51q-26 -96 -48 -161l2 -1q102 154 195 200q52 26 115 26q23 0 27 -9q1 -2 1 -7q0 -13 -8 -42 q-84 -284 -90 -320l93 3l-13 -34q-22 -7 -75 -22l-96 -26q-43 -13 -57 -19l-8 11q3 15 56.5 180.5t59.5 188.5q5 17 -5 17q-24 0 -76.5 -54.5t-97.5 -131.5q-35 -59 -82 -192l-126 -8q101 307 110 369q4 17 -5 17q-23 0 -73 -51t-98 -133q-29 -49 -81 -194z" />
<glyph unicode="n" horiz-adv-x="574" d="M145 0l-126 -8q21 56 65 210.5t43 170.5l-73 9l8 25q24 10 103.5 29t102.5 21l3 -3q-4 -18 -70 -229h2q104 159 197 206q52 26 110 26q29 0 34 -9q1 -2 1 -7q0 -13 -9 -42q-82 -277 -89 -320l93 3l-14 -34q-22 -7 -75 -22l-96 -26q-43 -13 -56 -19l-10 11q3 14 56 178.5 t60 189.5q5 17 -3 17q-30 0 -77 -52.5t-92 -126.5q-45 -71 -88 -198z" />
<glyph unicode="o" horiz-adv-x="511" d="M315 456q74 0 119.5 -49t45.5 -134q0 -115 -80.5 -200.5t-201.5 -85.5q-72 0 -119 47.5t-48 127.5q0 121 85 207.5t199 86.5zM305 418q-32 0 -65.5 -49t-55 -120.5t-21.5 -134.5q0 -89 46 -89q33 0 66 49.5t53 121.5t20 137q0 85 -43 85z" />
<glyph unicode="p" horiz-adv-x="564" d="M130 374l-76 7l9 26q20 11 98.5 32.5t105.5 22.5l2 -2l-57 -186l2 -1q131 184 245 184q43 0 65 -33t22 -87q0 -140 -99.5 -244.5t-219.5 -104.5q-42 0 -71 22q-17 -57 -40 -155l78 -28l-13 -28q-220 -11 -274 -11l9 28l66 34q9 20 64 215zM215 27q44 0 90.5 54 t75.5 127.5t29 131.5q0 46 -21 46q-43 0 -118 -99q-68 -89 -99 -219q4 -19 16.5 -30t26.5 -11z" />
<glyph unicode="q" horiz-adv-x="545" d="M162 -212l7 26q26 14 71 32q13 31 104 311h-3q-70 -93 -132.5 -131.5t-107.5 -38.5q-34 0 -59.5 26.5t-25.5 86.5q0 131 101.5 243.5t206.5 112.5q33 0 54 -17.5t28 -37.5h2l11 28q44 16 131 27l5 -10l-34 -53q-46 -124 -151 -545l81 -28l-10 -24q-85 -8 -279 -8z M338 407q-40 0 -87 -58t-77 -132.5t-30 -125.5q0 -38 21 -38q24 0 64 33.5t77 83.5q32 43 49.5 81.5t36.5 109.5q-22 46 -54 46z" />
<glyph unicode="r" horiz-adv-x="413" d="M52 382l5 24q23 13 84.5 30.5t91.5 20.5l3 -1q1 -9 1 -19q0 -60 -22 -149h3q91 169 188 169q28 0 41 -13q-1 -24 -20 -76t-34 -71l-15 -8q-17 29 -34 85q-2 1 -6 1t-10 -2.5t-17 -12.5t-23 -26t-28.5 -46t-34.5 -69q-24 -53 -70 -219l-129 -8q88 285 98 378z" />
<glyph unicode="s" horiz-adv-x="385" d="M259 456q35 0 69 -11.5t49 -26.5q-7 -24 -24 -58t-28 -49l-15 -6q-17 61 -23 105q-8 6 -33 6q-33 0 -54 -17t-21 -42q0 -14 10.5 -29.5t21 -25t38.5 -32.5q9 -7 13 -11q45 -39 61.5 -65.5t16.5 -64.5q0 -53 -51 -97.5t-139 -44.5q-49 0 -95 18.5t-65 37.5q28 71 59 117 l16 6q11 -24 29 -129q24 -10 51 -10q36 0 59 17q22 15 22 38t-15.5 43t-56.5 54q-79 67 -79 127q0 67 54 108.5t130 41.5z" />
<glyph unicode="t" horiz-adv-x="352" d="M175 530l139 62l6 -6l-46 -149h123l-18 -38l-119 -12q-67 -230 -92 -338l1 -2q78 17 159 117l5 -27q-13 -43 -40.5 -74.5t-60.5 -47t-61.5 -22t-53.5 -6.5q-78 0 -78 58q0 12 4 28q7 32 90 314l-78 12l22 38h70z" />
<glyph unicode="u" horiz-adv-x="594" d="M132 370l-75 15l8 21q31 12 104.5 29t108.5 22l8 -1q-18 -43 -63 -185.5t-56 -188.5q-5 -17 7 -17q33 0 85.5 56t95.5 132q41 75 76 186q92 13 141 17l3 -5l-41 -57q-23 -57 -91 -329l2 -1q57 14 110 79l6 -20q-10 -50 -62 -93t-142 -43q-32 0 -49 7l64 210h-5 q-103 -154 -187 -194q-46 -23 -94 -23q-30 0 -44 15q-8 9 -8 26q0 15 6 38z" />
<glyph unicode="v" horiz-adv-x="472" d="M98 372l-64 11l5 24q24 12 95.5 31t87.5 19l3 -2q5 -303 7 -344l3 -1q33 33 68 81.5t51 88.5q26 63 26 136q0 13 -1 25q34 18 82 20h2q14 -22 14 -64q0 -30 -20 -70t-57 -86t-70 -81l-77 -82q-45 -46 -59 -62q-9 -9 -32.5 -18t-37.5 -11l-3 2q-1 15 -7 125l-8 169 q-4 68 -8 89z" />
<glyph unicode="w" horiz-adv-x="705" d="M103 371l-71 11l2 25q27 12 101 31t91 19l2 -3q0 -53 -1 -155.5t-1 -156.5h2l26 38l47 74l54 90q-5 64 -5 72q15 12 59.5 26.5t68.5 14.5l2 -3q0 -3 -4 -27t-5 -40q1 -51 4.5 -115t6.5 -104.5t4 -46.5h3q63 68 100 157q25 63 25 145v18q38 18 82 20l1 -2q12 -18 12 -62 q0 -45 -48.5 -121t-90.5 -125l-106 -117q-10 -10 -14 -15q-30 -25 -68 -31l-3 2q-10 50 -19 279h-2q-133 -199 -173 -250q-31 -26 -67 -31l-4 1q0 187 -5 295q-3 70 -6 87z" />
<glyph unicode="x" horiz-adv-x="508" d="M-22 123l18 20q33 -46 71 -72q21 9 65 59t74 90q-28 113 -46 148q-14 -7 -46.5 -37.5t-54.5 -57.5l-15 19q22 63 76.5 113t123.5 52q7 -7 13 -18.5t12.5 -28.5t10.5 -30l10 -36l10 -31h3l23 31l24 28l18 23q48 59 76 68h11q21 -15 34 -55t15 -91l-22 -18q-33 63 -55 75 q-13 -5 -51 -42.5t-61 -65.5l27 -96q19 -66 24 -80q4 -12 9 -12q4 0 16 7.5t36 30.5t47 55l14 -19q-20 -78 -82 -122q-60 -43 -136 -43h-3l-48 185h-2q-89 -125 -91 -128q-43 -57 -70 -69h-16q-20 16 -39 62t-23 86z" />
<glyph unicode="y" horiz-adv-x="470" d="M52 279l-23 24q33 75 78.5 114t85.5 40q52 -2 77 -117q19 -95 21 -237h2q25 39 60.5 136.5t36.5 133.5l-30 41l1 12q50 28 100 30q7 0 11 -2q4 -3 4 -6q0 -15 -19 -75.5t-45 -124.5q-74 -172 -196 -318q-43 -52 -85 -90t-66 -52.5t-34 -14.5q-8 0 -19 9.5t-25 34.5 t-21 60l4 13q45 0 114 -32q24 12 56 55q26 37 35 70t9 82q0 64 -13 144t-30 127q-7 21 -16 21q-7 0 -28 -22t-45 -56z" />
<glyph unicode="z" horiz-adv-x="455" d="M419 171l22 -28q-76 -154 -133 -174q-25 0 -101 33q-58 24 -81 29q-14 3 -26 3q-23 0 -38 -12q-12 -9 -36 -36l-12 -1q-8 11 -8 26q0 16 9 37q14 31 60 67q56 49 139 129.5t101 100.5l-1 1q-25 -5 -55 -5q-18 0 -39 2l-63 6q-15 -8 -46.5 -39t-44.5 -48l-23 25 q20 44 57.5 102t53.5 71q21 -7 79 -17.5t111 -10.5q32 0 56 8t54 32l16 -31q-9 -18 -112 -122l-204 -198l1 -2q6 1 13 1q29 0 74 -13q18 -5 43 -14t31 -11q37 12 103 89z" />
<glyph unicode="{" horiz-adv-x="321" d="M247 332l-103 -54v-2l75 -50q-25 -84 -58 -214q-10 -40 -10 -68q0 -19 5 -32q10 -34 54 -63l-14 -25q-70 16 -110 64q-27 34 -27 76q0 18 5 38q5 21 16 51t19 49t27 61t24 54l-79 58l5 10l103 56v49q0 41 1 58.5t4.5 49.5t9.5 58q14 56 84.5 106t129.5 58l6 -29 q-56 -25 -84.5 -60t-41.5 -90q-31 -122 -41 -209z" />
<glyph unicode="|" horiz-adv-x="333" d="M111 724h81v-965h-81v965z" />
<glyph unicode="}" horiz-adv-x="326" d="M120 227l101 51v2l-73 52q19 50 58 206q9 30 9 55q0 19 -5 35q-11 38 -53 63l13 28q67 -19 108 -66q31 -35 31 -76q0 -14 -4 -29q-16 -64 -86 -207l77 -57l-4 -12l-103 -55q0 -7 -1 -50.5t-2 -63t-4.5 -53.5t-9.5 -60q-14 -57 -84.5 -105.5t-130.5 -60.5l-8 27 q57 25 86 62.5t43 94.5q36 153 42 219z" />
<glyph unicode="~" horiz-adv-x="610" d="M545 330l35 -24q-65 -147 -161 -147q-39 0 -122 51q-3 2 -13 8l-14 8l-12 7l-12 7q-3 2 -10 5.5t-12 4.5l-10 4q-5 2 -9.5 2.5t-9.5 0.5q-45 0 -110 -93l-38 23q73 144 165 144q20 0 44.5 -9t41 -18t48.5 -29q64 -37 89 -37q23 0 52.5 22t57.5 70z" />
<glyph unicode="&#xa1;" horiz-adv-x="268" d="M147 274h-8q-12 9 -29.5 38.5t-21.5 47.5l1 7q8 17 40.5 45.5t50.5 34.5h7q15 -11 33 -38t26 -52l-2 -3q-23 -30 -51 -51.5t-46 -28.5zM112 205l39 15q-10 -83 -25.5 -196t-20.5 -158l11 -48q-19 -14 -77 -28q-51 -13 -94 -13h-12l-5 10q29 77 184 418z" />
<glyph unicode="&#xa2;" d="M381 543l22 81l37 5l-23 -84q38 -1 67 -10.5t41 -19.5q-2 -15 -22.5 -59t-31.5 -56l-15 -6q-13 35 -25 111q-10 5 -26 5l-93 -339q90 4 157 85l10 -34q-30 -41 -78 -71.5t-105 -38.5l-25 -88l-38 -8l28 95q-82 2 -125 45q-44 45 -44 116q0 106 85 184q86 79 204 87z M278 173l91 331l-2 2q-65 -17 -107 -94q-39 -73 -39 -141v-6q1 -78 57 -92z" />
<glyph unicode="&#xa3;" d="M478 180l23 -16l-59 -169q-6 0 -86 2.5t-136 2.5h-227l3 16l42 48q20 7 38 21q52 38 75 223l-98 10l23 36h81l6 33q27 153 111 214q70 53 153 53q39 0 68 -12t38 -23q-4 -18 -27.5 -60t-34.5 -52l-19 -7q-9 32 -23 114q-7 3 -15 3q-38 0 -68.5 -44t-44.5 -138 q-11 -62 -13 -81h161l-18 -36l-149 -10q-12 -87 -49.5 -134t-95.5 -79v-2q28 -1 60 -1q87 0 210 6q6 6 31 36z" />
<glyph unicode="&#xa4;" d="M310 476q-60 0 -99 -48t-45 -113q-1 -9 -1 -18q0 -49 25 -81q28 -38 76 -38q59 0 96.5 47t43.5 117q1 11 1 21q0 45 -22 75q-27 38 -75 38zM541 509l-76 -60q21 -33 21 -82q0 -13 -1 -27q-7 -86 -65 -143l52 -56l-54 -48l-46 65q-46 -34 -120 -34q-70 0 -111 38l-69 -69 l-36 50l74 56q-25 42 -25 93q0 11 1 23q8 82 64 136l-54 56l54 50l47 -67q59 40 130 40q67 0 105 -41l69 68z" />
<glyph unicode="&#xa5;" d="M105 346h116l-52 246l-63 24l11 26q17 0 57 -1t58 -1q22 0 64 1t62 1l-10 -26l-53 -25l34 -221h2q84 112 156 220l-66 27l13 25q12 0 41.5 -1t45.5 -1q15 0 51 1t55 1l-10 -25l-66 -30q-89 -102 -192 -241h130l-20 -37h-127l-20 -80h137l-19 -37h-127q-32 -128 -34 -140 l79 -27l-10 -26q-23 0 -69 1t-70 1t-74 -1t-75 -1l10 26l77 27q12 26 43 140h-135l19 37h127l21 80h-136z" />
<glyph unicode="&#xa6;" horiz-adv-x="333" d="M109 666h81v-366h-81v366zM109 -183v367h81v-367h-81z" />
<glyph unicode="&#xa7;" horiz-adv-x="508" d="M82 344q0 154 193 248q44 28 92 28q32 0 58 -15q13 7 70 21l8 -3q-4 -17 -25 -62.5t-35 -65.5h-16q-14 45 -17 71q-15 15 -51 15q-30 0 -50.5 -18t-20.5 -41q0 -21 11 -43q23 -42 95 -145q57 -82 57 -153q0 -129 -152 -232q-83 -56 -165 -56q-79 0 -127 37q2 10 25 52.5 t33 54.5l18 5q7 -23 15 -104q16 -8 41 -8h4q37 0 67 20q31 22 31 54q2 28 -36 80q-50 71 -80 120q-43 71 -43 140zM154 389q0 -45 40 -108q14 -23 44 -66l42 -63q42 -66 42 -110q0 -18 -4 -36l2 -1q54 51 54 126q0 51 -39 110q-82 128 -98 159q-21 40 -21 82q0 25 10 48 l-2 1q-70 -55 -70 -142z" />
<glyph unicode="&#xa8;" horiz-adv-x="386" d="M212 660h6q9 -8 23 -32.5t17 -38.5l-2 -7q-6 -14 -31.5 -37t-40.5 -28h-6q-12 10 -26 32.5t-19 42.5l1 2q36 48 78 66zM407 660h7q9 -7 22.5 -31.5t17.5 -39.5l-2 -7q-6 -14 -32 -36.5t-40 -28.5h-6q-12 9 -26 31.5t-19 43.5v2q36 48 78 66z" />
<glyph unicode="&#xa9;" horiz-adv-x="700" d="M374 629q126 0 214 -91t88 -222q0 -130 -88 -220.5t-215 -90.5q-131 0 -217.5 88.5t-86.5 222.5q0 131 88.5 222t216.5 91zM373 584q-106 0 -177.5 -77t-71.5 -190t72 -190t178 -77q107 0 177 77t70 190t-70.5 190t-177.5 77zM395 479q37 0 60 -14q6 4 51 14l6 -3 q0 -12 -8 -53.5t-11 -48.5l-14 -8q-15 22 -32 69q-13 8 -35 8q-45 0 -74 -35.5t-29 -87.5q0 -54 29.5 -90t77.5 -36q10 0 24 3q8 7 22.5 21.5t25 24t15.5 12.5l14 -12q-5 -17 -17.5 -43t-20.5 -31q-31 -13 -81 -13q-89 0 -139 45t-50 114q0 47 20 81.5t51 51t59.5 24 t55.5 7.5z" />
<glyph unicode="&#xaa;" horiz-adv-x="381" d="M394 567l-30 -43q-21 -63 -46 -163q28 8 67 50l6 -2q-1 -40 -43 -73.5t-110 -33.5q-11 0 -15 4l13 48l14 49h-2q-75 -101 -145 -101q-25 0 -38.5 16.5t-13.5 43.5q1 42 28.5 90.5t75.5 81.5q46 30 86 30q36 0 55 -26l6 19l89 14zM151 355q24 0 74 65q34 43 51 93 q-1 6 -7 13t-15 7q-20 0 -44 -24q-27 -27 -47.5 -69.5t-20.5 -71.5q0 -13 9 -13z" />
<glyph unicode="&#xab;" horiz-adv-x="544" d="M237 55l-31 -16q-32 62 -75.5 117t-73.5 78q44 24 109.5 79t115.5 114l26 -18q-67 -123 -121 -178q33 -85 50 -176zM439 55l-30 -16q-29 60 -72.5 115t-75.5 80q42 24 107 78.5t117 114.5l26 -18q-47 -93 -120 -178q35 -87 48 -176z" />
<glyph unicode="&#xac;" horiz-adv-x="638" d="M456 51v219h-367l16 67h427v-272z" />
<glyph unicode="&#xad;" horiz-adv-x="370" d="M290 231l-252 -36l46 92l54 -2l204 14l3 -9z" />
<glyph unicode="&#xae;" horiz-adv-x="306" d="M231 653q51 0 86.5 -35.5t35.5 -88.5q0 -54 -36 -90t-87 -36q-52 0 -87.5 36t-35.5 90q0 53 35.5 88.5t88.5 35.5zM229 628q-38 0 -64.5 -29t-26.5 -70t27 -70.5t65 -29.5t65 29.5t27 70.5t-27.5 70t-65.5 29zM172 574l3 14q28 5 54 5q50 0 50 -31q0 -5 -1.5 -9.5 t-4.5 -8t-4.5 -5t-6.5 -4.5l-4 -3q3 -8 22 -36q5 -9 9.5 -15.5t5.5 -7.5v-3q-28 1 -44 13q-15 17 -28 47q22 11 22 26q0 20 -21 20h-6v-87l20 -6l-4 -10h-62l2 10l14 4v88z" />
<glyph unicode="&#xaf;" horiz-adv-x="386" d="M412 545h-249l33 73h248z" />
<glyph unicode="&#xb0;" horiz-adv-x="287" d="M253 647q42 0 67.5 -25t25.5 -70q0 -51 -35 -84q-36 -35 -91 -35q-41 0 -66.5 25t-25.5 67q0 49 34 85q36 37 91 37zM244 609q-27 0 -45.5 -25t-18.5 -55q0 -26 12 -41.5t34 -15.5q32 0 49.5 24t17.5 54q0 59 -49 59z" />
<glyph unicode="&#xb1;" horiz-adv-x="629" d="M535 67l-15 -67h-438l15 67h438zM342 130l-76 -12v189h-185l12 67h173v162l76 13v-175h185l-12 -67h-173v-177z" />
<glyph unicode="&#xb2;" horiz-adv-x="359" d="M93 437l30 43l18 9q31 20 53 36.5t51 42t44.5 54t15.5 57.5q0 26 -13 41t-33 15q-7 0 -18 -3q-28 -69 -42 -89l-17 -8q-19 32 -25 83q25 22 64.5 37.5t79.5 15.5q48 0 81 -25t33 -73q0 -37 -29 -66t-86 -59q-10 -5 -45 -24t-54 -28q5 0 135 5l53 45l17 -13 q-31 -76 -53 -110q-8 0 -68.5 1.5t-92.5 1.5h-103z" />
<glyph unicode="&#xb3;" horiz-adv-x="359" d="M204 661l-11 -5q-20 35 -27 68q64 46 136 46q53 0 79.5 -22t26.5 -54q0 -58 -108 -83v-3q96 -14 98 -78q0 -52 -53.5 -82t-128.5 -30q-33 0 -66.5 10.5t-51.5 24.5q4 12 22.5 42t24.5 36l14 5q0 -1 19 -83q12 -3 21 -3q35 0 63.5 23t28.5 60q0 24 -13 38q-12 13 -29 13 h-2q-9 -1 -27 -4t-21 -3l-4 4q2 10 9 23.5t14 17.5q5 0 19.5 -2.5t20.5 -2.5q50 17 50 63q0 26 -13.5 40t-37.5 14q-14 0 -21 -5q-19 -48 -32 -68z" />
<glyph unicode="&#xb4;" horiz-adv-x="386" d="M244 495l-20 26l111 150q6 2 16 2q14 0 35 -4q34 -6 51 -15v-14z" />
<glyph unicode="&#xb5;" horiz-adv-x="586" d="M421 439l147 18v-4l-44 -58q-22 -54 -92 -327l1 -1q15 3 29.5 9t24.5 12.5t20.5 15.5t16.5 15l12 15l9 9l7 -8q-5 -52 -61.5 -100t-147.5 -48q-25 0 -46 7q2 5 58 193h-3q0 -1 -12 -19l-18 -26l-20 -27q-15 -20 -24 -31l-25 -28q-15 -18 -27 -28t-26 -20.5t-27 -15.5 t-24 -5q-15 0 -26 7l-3 -1q-43 -120 -57 -228l-6 -4q-54 8 -71 43q-7 17 -7 44q0 32 10 77q14 60 55 195l93 312q60 18 142 24l2 -2q-8 -17 -62.5 -168.5t-62.5 -182.5q-3 -12 -3 -20q0 -20 17 -20q35 0 84.5 52.5t92.5 134.5q31 59 74 189z" />
<glyph unicode="&#xb6;" horiz-adv-x="520" d="M541 651l-62 -115l-130 -512q-21 -82 -49 -138.5t-60 -83t-60 -37t-60 -10.5q-38 0 -62 22q-27 29 -35 67l9 12q25 -25 85 -25t107.5 49t75.5 154l10 36q-39 -10 -48 -10q-74 0 -133 57.5t-59 148.5q0 87 48 150.5t122 93t164 29.5h19l29 102l87 13z" />
<glyph unicode="&#xb7;" horiz-adv-x="236" d="M156 334h8q12 -10 29.5 -40t21.5 -48l-1 -8q-9 -18 -41 -46.5t-50 -35.5h-7q-15 12 -33 40t-26 52l2 4q43 58 97 82z" />
<glyph unicode="&#xb8;" horiz-adv-x="386" d="M131 0h40l-51 -54q47 -30 47 -69q0 -45 -44.5 -72.5t-98.5 -32.5l-9 23q82 25 82 66q0 26 -50 47v3z" />
<glyph unicode="&#xb9;" horiz-adv-x="359" d="M265 697l-79 4l13 21q45 14 174 48h8q-59 -226 -77 -304l65 -21l-10 -21q-19 0 -57 0.5t-58 0.5q-21 0 -62.5 -0.5t-63.5 -0.5l9 21l67 21q17 47 71 231z" />
<glyph unicode="&#xba;" horiz-adv-x="352" d="M246 566q56 0 87 -29t31 -78q0 -66 -52.5 -111.5t-132.5 -45.5q-56 0 -86.5 28.5t-30.5 72.5q0 65 54 114t130 49zM243 537q-31 0 -57 -58.5t-26 -110.5q0 -35 24 -35q33 0 58 58.5t25 105.5q0 40 -24 40z" />
<glyph unicode="&#xbb;" horiz-adv-x="544" d="M310 411l31 16q32 -62 75.5 -117t73.5 -78q-44 -24 -109.5 -79t-115.5 -114l-26 18q67 123 121 178q-33 85 -50 176zM108 411l30 16q29 -60 72.5 -115t75.5 -80q-43 -24 -108 -79t-116 -114l-26 18q47 93 120 178q-35 87 -48 176z" />
<glyph unicode="&#xbc;" horiz-adv-x="786" d="M230 582l-79 3l13 21q42 13 173 48h9q-59 -226 -77 -304l65 -21l-10 -21q-19 0 -57.5 0.5t-57.5 0.5q-21 0 -62.5 -0.5t-63.5 -0.5l9 21l66 21q24 67 72 232zM669 663l30 -28l-541 -673l-30 29zM621 86l-13 -56l50 -21l-9 -21q-17 0 -51 0.5t-52 0.5t-56 -0.5t-56 -0.5 l10 22l61 21l18 54l-137 -1l-4 25q26 35 100 113.5t89 88.5q10 7 51 15t58 8l-52 -212l36 -1q15 16 38 27l9 -1q-2 -15 -12.5 -46t-16.5 -42l-9 -3q-17 23 -19 31zM531 124l47 149h-4q-73 -79 -130 -147z" />
<glyph unicode="&#xbd;" horiz-adv-x="786" d="M218 582l-79 3l13 21q42 13 173 48h9q-59 -226 -77 -304l65 -21l-10 -21q-19 0 -57.5 0.5t-57.5 0.5q-21 0 -62.5 -0.5t-63.5 -0.5l9 21l66 21q24 67 72 232zM650 663l30 -28l-541 -673l-29 29zM398 0l30 44q12 4 18 8q31 20 53 36.5t51 42t44.5 54t15.5 57.5 q0 26 -13 41t-33 15q-5 0 -10.5 -1.5t-7.5 -1.5q-28 -69 -42 -89l-17 -8q-8 12 -15.5 39.5t-9.5 43.5q25 22 64.5 37.5t79.5 15.5q48 0 81 -25t33 -73q0 -37 -29 -66t-86 -58l-99 -53q5 0 135 5q26 24 53 45l17 -13q-31 -76 -53 -110q-8 0 -68.5 1.5t-92.5 1.5h-103z" />
<glyph unicode="&#xbe;" horiz-adv-x="786" d="M183 545l-11 -5q-20 35 -27 68q64 46 136 46q53 0 79.5 -22t26.5 -54t-27.5 -51.5t-79.5 -32.5v-3q51 -7 74 -26t24 -52q0 -51 -53.5 -81.5t-128.5 -30.5q-32 0 -65.5 10.5t-52.5 24.5q3 12 21.5 42t25.5 37l14 5q2 -6 5.5 -21.5t7.5 -35.5t6 -27q12 -3 21 -3 q35 0 63.5 23t28.5 60q0 25 -13 39q-12 13 -29 13h-2q-9 -1 -27 -4t-21 -3l-4 4q2 10 9 23.5t14 17.5q6 0 20 -2.5t19 -2.5q50 17 50 63q0 26 -13.5 40t-37.5 14q-11 0 -21 -5q-19 -48 -32 -68zM674 663l30 -28l-541 -673l-29 29zM623 86l-13 -56l49 -21l-8 -21 q-17 0 -51 0.5t-52 0.5t-56 -0.5t-56 -0.5l9 22l62 21l17 54l-137 -1l-4 25q28 36 102 114.5t88 87.5q10 6 50.5 14t58.5 9l-52 -212l36 -1q15 16 38 27l9 -1q-2 -15 -12.5 -46t-16.5 -42l-10 -3q-16 26 -18 31zM532 124l47 149h-4q-73 -79 -130 -147z" />
<glyph unicode="&#xbf;" horiz-adv-x="441" d="M253 274h-7q-13 9 -30.5 38.5t-21.5 47.5v7q10 18 42.5 46t49.5 34h7q15 -12 33.5 -39t25.5 -51l-2 -3q-22 -30 -50.5 -51.5t-46.5 -28.5zM272 -41l15 5q27 -53 32 -113q-104 -64 -185 -64q-62 0 -108 34t-46 99q0 46 24 76.5t74 64.5q99 67 115 85q8 10 9 17t1 14 q0 13 -3 29l30 14q27 -8 52 -43q19 -28 19 -61q0 -9 -1 -17q-15 -23 -40 -45t-82 -66l-14 -10l-13 -11l-12 -9l-11 -10l-10 -9q-7 -6 -10 -9l-6 -10q-4 -6 -5.5 -10.5t-3 -10t-1.5 -10.5q0 -24 19 -41.5t53 -17.5q24 0 42 9q38 83 66 120z" />
<glyph unicode="&#xc0;" horiz-adv-x="695" d="M397 635l124 49l4 -9q-8 -20 -8 -50q0 -9 1 -19q9 -140 48 -503q4 -33 16.5 -44t68.5 -32l-8 -28q-23 0 -70.5 0.5t-72.5 0.5q-20 0 -60.5 -0.5t-60.5 -0.5l6 25l48 29q0 12 -2 38t-5.5 65.5t-5.5 72.5q-52 -7 -163 -7h-53l-97 -161l83 -34l-8 -28q-19 0 -59.5 0.5 t-61.5 0.5q-19 0 -56 -0.5t-56 -0.5l9 28l74 34q44 56 357 533q10 15 8 28v13zM400 536h-2l-158 -256q24 0 93.5 -1.5t83.5 -1.5l-7 92l-6 93q-2 39 -4 74zM545 748l-21 -28l-209 65v13q10 28 28 50.5t36 26.5z" />
<glyph unicode="&#xc1;" horiz-adv-x="695" d="M397 635l124 49l4 -9q-8 -20 -8 -50q0 -9 1 -19q9 -140 48 -503q4 -33 16.5 -44t68.5 -32l-8 -28q-23 0 -70.5 0.5t-72.5 0.5q-20 0 -60.5 -0.5t-60.5 -0.5l6 25l48 29q0 12 -2 38t-5.5 65.5t-5.5 72.5q-52 -7 -163 -7h-53l-97 -161l83 -34l-8 -28q-19 0 -59.5 0.5 t-61.5 0.5q-19 0 -56 -0.5t-56 -0.5l9 28l74 34q44 56 357 533q10 15 8 28v13zM400 536h-2l-158 -256q24 0 93.5 -1.5t83.5 -1.5l-7 92l-6 93q-2 39 -4 74zM427 705l-19 28l164 127q18 -2 40.5 -22t36.5 -48v-14z" />
<glyph unicode="&#xc2;" horiz-adv-x="695" d="M397 635l124 49l4 -9q-8 -20 -8 -50q0 -9 1 -19q9 -140 48 -503q4 -33 16.5 -44t68.5 -32l-8 -28q-23 0 -70.5 0.5t-72.5 0.5q-20 0 -60.5 -0.5t-60.5 -0.5l6 25l48 29q0 12 -2 38t-5.5 65.5t-5.5 72.5q-52 -7 -163 -7h-53l-97 -161l83 -34l-8 -28q-19 0 -59.5 0.5 t-61.5 0.5q-19 0 -56 -0.5t-56 -0.5l9 28l74 34q44 56 357 533q10 15 8 28v13zM400 536h-2l-158 -256q24 0 93.5 -1.5t83.5 -1.5l-7 92l-6 93q-2 39 -4 74zM482 849h33l112 -118l-23 -26l-121 58l-149 -58l-21 26z" />
<glyph unicode="&#xc3;" horiz-adv-x="695" d="M397 635l124 49l4 -9q-8 -20 -8 -50q0 -9 1 -19q9 -140 48 -503q4 -33 16.5 -44t68.5 -32l-8 -28q-23 0 -70.5 0.5t-72.5 0.5q-20 0 -60.5 -0.5t-60.5 -0.5l6 25l48 29q0 12 -2 38t-5.5 65.5t-5.5 72.5q-52 -7 -163 -7h-53l-97 -161l83 -34l-8 -28q-19 0 -59.5 0.5 t-61.5 0.5q-19 0 -56 -0.5t-56 -0.5l9 28l74 34q44 56 357 533q10 15 8 28v13zM400 536h-2l-158 -256q24 0 93.5 -1.5t83.5 -1.5l-7 92l-6 93q-2 39 -4 74zM631 836l24 -22q-65 -98 -120 -98q-18 0 -68 25q-43 19 -55 19q-29 0 -73 -49l-25 26q70 97 119 97q18 0 60 -21 q44 -22 60 -22q31 0 78 45z" />
<glyph unicode="&#xc4;" horiz-adv-x="695" d="M397 635l124 49l4 -9q-8 -20 -8 -50q0 -9 1 -19q9 -140 48 -503q4 -33 16.5 -44t68.5 -32l-8 -28q-23 0 -70.5 0.5t-72.5 0.5q-20 0 -60.5 -0.5t-60.5 -0.5l6 25l48 29q0 12 -2 38t-5.5 65.5t-5.5 72.5q-52 -7 -163 -7h-53l-97 -161l83 -34l-8 -28q-19 0 -59.5 0.5 t-61.5 0.5q-19 0 -56 -0.5t-56 -0.5l9 28l74 34q44 56 357 533q10 15 8 28v13zM400 536h-2l-158 -256q24 0 93.5 -1.5t83.5 -1.5l-7 92l-6 93q-2 39 -4 74zM396 864h6q10 -8 24.5 -34t18.5 -42l-2 -7q-7 -15 -34.5 -40t-42.5 -30h-7q-13 11 -28 35t-20 44l1 4q37 49 84 70z M612 864h7q10 -8 24.5 -34t18.5 -42l-2 -7q-7 -15 -35 -40t-42 -30h-6q-13 10 -28.5 34t-20.5 45v4q36 47 84 70z" />
<glyph unicode="&#xc5;" horiz-adv-x="695" d="M397 635l124 49l4 -9q-8 -20 -8 -50q0 -9 1 -19q9 -140 48 -503q4 -33 16.5 -44t68.5 -32l-8 -28q-23 0 -70.5 0.5t-72.5 0.5q-20 0 -60.5 -0.5t-60.5 -0.5l6 25l48 29q0 12 -2 38t-5.5 65.5t-5.5 72.5q-52 -7 -163 -7h-53l-97 -161l83 -34l-8 -28q-19 0 -59.5 0.5 t-61.5 0.5q-19 0 -56 -0.5t-56 -0.5l9 28l74 34q44 56 357 533q10 15 8 28v13zM400 536h-2l-158 -256q24 0 93.5 -1.5t83.5 -1.5l-7 92l-6 93q-2 39 -4 74zM478 741q19 0 34.5 13t19.5 39q2 9 2 17q0 36 -38 36q-46 0 -54 -53q-2 -9 -2 -16q0 -14 7 -23q10 -13 31 -13z M503 882q38 0 61 -25q18 -19 18 -47q0 -10 -2 -21q-8 -39 -40 -61.5t-69 -22.5q-38 0 -61 23q-18 18 -18 45q0 10 2 20q6 41 38.5 65t70.5 24z" />
<glyph unicode="&#xc6;" horiz-adv-x="953" d="M474 297h-196q-119 -168 -163 -236l82 -34l-11 -28q-20 0 -62.5 0.5t-63.5 0.5q-17 0 -55 -0.5t-56 -0.5l9 28l74 33l416 544l-115 25l17 30q28 0 84 -0.5t84 -0.5h366q50 10 93 10l4 -5q-21 -93 -48 -154l-12 -4q-21 45 -42 109l-205 -7l-56 -260q160 2 243 11l5 -12 q-6 -9 -36 -34.5t-36 -25.5t-92.5 5t-94.5 6l-51 -242l208 -10q103 95 139 121l12 -6q-34 -109 -63 -163q-95 3 -211 3h-170q-26 0 -78 -0.5t-79 -0.5l9 28l91 33q7 14 60 237zM314 347h173l67 264h-49q-39 -51 -191 -264z" />
<glyph unicode="&#xc7;" horiz-adv-x="690" d="M294 -89l66 70v1q-134 7 -212 84.5t-78 208.5q0 166 124 282.5t309 116.5q98 0 146 -41q33 19 84 27l8 -10q-9 -36 -36 -97.5t-39 -78.5l-17 -6q-11 40 -17 128q-38 26 -104 26q-72 0 -132 -30t-98.5 -78.5t-60 -109t-21.5 -123.5q0 -112 55.5 -177.5t156.5 -65.5 q29 0 60 7q93 80 165 128l10 -30q-53 -87 -93 -124q-79 -32 -164 -37l-33 -36q47 -28 47 -68q0 -46 -46.5 -75t-99.5 -35l-12 27q82 27 82 66q0 26 -49 47z" />
<glyph unicode="&#xc8;" horiz-adv-x="609" d="M136 632l12 28q23 0 69.5 -1t69.5 -1h243q64 10 95 10h5l4 -5q-21 -95 -47 -162l-17 -8q-17 38 -44 121l-169 -8l-62 -238q156 2 239 11l7 -13q-5 -9 -35.5 -34.5t-35.5 -25.5t-94 5.5t-95 5.5q-23 -80 -68 -262l201 -10l66 63q55 53 76 69l17 -7q-34 -109 -68 -172 q-89 3 -210 3h-166q-26 0 -80 -1t-81 -1l12 28l89 35q11 16 83 282l71 255zM507 734l-21 -29l-210 66v13q10 27 28.5 50t35.5 27z" />
<glyph unicode="&#xc9;" horiz-adv-x="609" d="M136 632l12 28q23 0 69.5 -1t69.5 -1h243q64 10 95 10h5l4 -5q-21 -95 -47 -162l-17 -8q-17 38 -44 121l-169 -8l-62 -238q156 2 239 11l7 -13q-5 -9 -35.5 -34.5t-35.5 -25.5t-94 5.5t-95 5.5q-23 -80 -68 -262l201 -10l66 63q55 53 76 69l17 -7q-34 -109 -68 -172 q-89 3 -210 3h-166q-26 0 -80 -1t-81 -1l12 28l89 35q11 16 83 282l71 255zM374 705l-19 29l165 127q18 -2 40 -22t36 -48v-14z" />
<glyph unicode="&#xca;" horiz-adv-x="609" d="M136 632l12 28q23 0 69.5 -1t69.5 -1h243q64 10 95 10h5l4 -5q-21 -95 -47 -162l-17 -8q-17 38 -44 121l-169 -8l-62 -238q156 2 239 11l7 -13q-5 -9 -35.5 -34.5t-35.5 -25.5t-94 5.5t-95 5.5q-23 -80 -68 -262l201 -10l66 63q55 53 76 69l17 -7q-34 -109 -68 -172 q-89 3 -210 3h-166q-26 0 -80 -1t-81 -1l12 28l89 35q11 16 83 282l71 255zM443 854h33l112 -118l-23 -26l-121 58l-150 -58l-20 26z" />
<glyph unicode="&#xcb;" horiz-adv-x="609" d="M136 632l12 28q23 0 69.5 -1t69.5 -1h243q64 10 95 10h5l4 -5q-21 -95 -47 -162l-17 -8q-17 38 -44 121l-169 -8l-62 -238q156 2 239 11l7 -13q-5 -9 -35.5 -34.5t-35.5 -25.5t-94 5.5t-95 5.5q-23 -80 -68 -262l201 -10l66 63q55 53 76 69l17 -7q-34 -109 -68 -172 q-89 3 -210 3h-166q-26 0 -80 -1t-81 -1l12 28l89 35q11 16 83 282l71 255zM345 864h6q10 -8 24.5 -34t18.5 -41l-2 -8q-6 -14 -34 -39t-43 -31h-7q-13 11 -28 35.5t-20 44.5v4q39 49 85 69zM562 864h6q10 -8 25 -34t18 -41l-1 -8q-7 -14 -35 -39t-43 -31h-6q-13 11 -28 35 t-21 45l1 4q36 48 84 69z" />
<glyph unicode="&#xcc;" horiz-adv-x="376" d="M147 631l12 28q21 0 63.5 -0.5t63.5 -0.5q27 0 79.5 0.5t78.5 0.5l-9 -29l-81 -33l-67 -254q-69 -266 -69 -282l84 -34l-11 -28q-26 0 -78 0.5t-79 0.5q-26 0 -78 -0.5t-78 -0.5l9 28l85 34q7 18 81 282l71 254zM410 733l-21 -28l-210 65v13q11 28 29.5 50.5t35.5 26.5z " />
<glyph unicode="&#xcd;" horiz-adv-x="376" d="M147 631l12 28q21 0 63.5 -0.5t64.5 -0.5q26 0 78.5 0.5t78.5 0.5l-9 -29l-81 -33l-66 -254q-67 -251 -70 -282l85 -34l-12 -28q-26 0 -78 0.5t-79 0.5q-26 0 -78 -0.5t-78 -0.5l9 28l85 34q8 17 81 282l71 254zM273 705l-19 28l165 127q18 -2 40 -22t36 -48v-14z" />
<glyph unicode="&#xce;" horiz-adv-x="376" d="M147 631l12 28q21 0 63.5 -0.5t64.5 -0.5q26 0 78.5 0.5t78.5 0.5l-9 -29l-81 -33l-66 -254q-70 -264 -70 -282l85 -34l-12 -28q-26 0 -78 0.5t-79 0.5q-26 0 -78 -0.5t-78 -0.5l9 28l85 34q8 17 81 282l71 254zM331 854h33l113 -118l-23 -26l-121 58l-150 -58l-21 26z " />
<glyph unicode="&#xcf;" horiz-adv-x="376" d="M147 631l12 28q21 0 63.5 -0.5t63.5 -0.5q27 0 79.5 0.5t78.5 0.5l-9 -29l-81 -33l-67 -254q-69 -266 -69 -282l84 -34l-11 -28q-26 0 -78 0.5t-79 0.5q-26 0 -78 -0.5t-78 -0.5l9 28l85 34q7 18 81 282l71 254zM244 864h6q9 -8 23.5 -34t19.5 -42l-2 -7 q-7 -15 -34.5 -40t-42.5 -30h-7q-13 10 -28 34t-20 45l1 4q37 49 84 70zM460 864h7q10 -8 24.5 -34t18.5 -42l-2 -7q-7 -15 -35 -40t-42 -30h-6q-13 10 -28.5 34t-20.5 45v4q36 47 84 70z" />
<glyph unicode="&#xd0;" horiz-adv-x="768" d="M84 370h89l65 238l-79 19l11 27q168 12 230 12q175 0 265.5 -72t90.5 -213q0 -134 -88 -231.5t-233 -133.5q-74 -19 -254 -19h-35q-42 0 -92 1.5t-63 1.5l9 29l83 30q10 10 77 263h-95zM308 370h151l-23 -48h-140q-67 -258 -71 -284q138 0 227 60q77 51 117 130t40 170 q0 87 -44 143q-61 80 -192 80z" />
<glyph unicode="&#xd1;" horiz-adv-x="734" d="M216 27l-10 -28q-20 0 -61 0.5t-62 0.5q-19 0 -56.5 -0.5t-57.5 -0.5l10 28l88 40q39 97 154 490q-22 39 -41 51t-68 23l16 27q118 4 194 4q3 -18 25 -65l209 -456h2q13 47 58 230.5t53 222.5l-79 38l14 27q17 0 51.5 -1t52.5 -1q21 0 63 1t63 1l-10 -31l-86 -34 q-31 -72 -151 -523l61 -56l-5 -15l-165 -11q-55 117 -227 513h-2q-85 -304 -110 -436zM662 833l24 -22q-65 -98 -120 -98q-18 0 -69 24q-41 19 -54 19q-28 0 -73 -48l-26 26q72 96 120 96q17 0 59 -20q44 -22 60 -22q32 0 79 45z" />
<glyph unicode="&#xd2;" horiz-adv-x="755" d="M472 675q48 0 93.5 -16.5t86 -50.5t66 -94t25.5 -139q0 -65 -24.5 -132t-71 -126t-125.5 -96.5t-178 -37.5q-114 0 -196 73.5t-82 214.5q0 73 29 144.5t80 129.5t129 94t168 36zM472 635h-2q-68 0 -129 -63.5t-95.5 -157t-34.5 -184.5q0 -207 132 -207q70 0 130.5 68.5 t92.5 164.5t32 186q0 96 -33.5 144.5t-92.5 48.5zM595 740l-21 -28l-210 65v13q11 28 29 50.5t36 26.5z" />
<glyph unicode="&#xd3;" horiz-adv-x="755" d="M472 675q48 0 93.5 -16.5t86 -50.5t66 -94t25.5 -139q0 -65 -24.5 -132t-71 -126t-125.5 -96.5t-178 -37.5q-114 0 -196 73.5t-82 214.5q0 73 29 144.5t80 129.5t129 94t168 36zM472 635h-2q-68 0 -129 -63.5t-95.5 -157t-34.5 -184.5q0 -207 132 -207q70 0 130.5 68.5 t92.5 164.5t32 186q0 96 -33.5 144.5t-92.5 48.5zM437 715l-20 28l165 127q18 -2 40.5 -21.5t35.5 -47.5v-14z" />
<glyph unicode="&#xd4;" horiz-adv-x="755" d="M472 675q48 0 93.5 -16.5t86 -50.5t66 -94t25.5 -139q0 -65 -24.5 -132t-71 -126t-125.5 -96.5t-178 -37.5q-114 0 -196 73.5t-82 214.5q0 73 29 144.5t80 129.5t129 94t168 36zM472 635h-2q-68 0 -129 -63.5t-95.5 -157t-34.5 -184.5q0 -207 132 -207q70 0 130.5 68.5 t92.5 164.5t32 186q0 96 -33.5 144.5t-92.5 48.5zM499 849h33l112 -117l-23 -27q-80 40 -121 58q-26 -9 -150 -58l-20 27z" />
<glyph unicode="&#xd5;" horiz-adv-x="755" d="M472 675q48 0 93.5 -16.5t86 -50.5t66 -94t25.5 -139q0 -65 -24.5 -132t-71 -126t-125.5 -96.5t-178 -37.5q-114 0 -196 73.5t-82 214.5q0 73 29 144.5t80 129.5t129 94t168 36zM472 635h-2q-68 0 -129 -63.5t-95.5 -157t-34.5 -184.5q0 -207 132 -207q70 0 130.5 68.5 t92.5 164.5t32 186q0 96 -33.5 144.5t-92.5 48.5zM655 843l24 -22q-65 -98 -120 -98q-17 0 -68 24q-39 19 -55 19q-28 0 -73 -48l-25 26q70 96 119 96q17 0 60 -20q44 -22 60 -22q31 0 78 45z" />
<glyph unicode="&#xd6;" horiz-adv-x="755" d="M472 675q48 0 93.5 -16.5t86 -50.5t66 -94t25.5 -139q0 -65 -24.5 -132t-71 -126t-125.5 -96.5t-178 -37.5q-114 0 -196 73.5t-82 214.5q0 73 29 144.5t80 129.5t129 94t168 36zM472 635h-2q-68 0 -129 -63.5t-95.5 -157t-34.5 -184.5q0 -207 132 -207q70 0 130.5 68.5 t92.5 164.5t32 186q0 96 -33.5 144.5t-92.5 48.5zM421 864h5q10 -8 24.5 -34t18.5 -42l-1 -7q-7 -15 -35 -40t-42 -30h-7q-13 11 -28 35t-20 44v4q38 50 85 70zM637 864h7q10 -8 24.5 -34t18.5 -42l-2 -7q-7 -15 -35 -40t-42 -30h-6q-13 11 -28.5 35t-20.5 44v4q36 47 84 70 z" />
<glyph unicode="&#xd7;" horiz-adv-x="638" d="M532 396l-158 -163l158 -162l-51 -54l-160 163l-156 -163l-54 54l158 162l-158 160l54 54l156 -161l160 163z" />
<glyph unicode="&#xd8;" horiz-adv-x="755" d="M646 614l72 78l25 -28l-69 -76q71 -81 71 -213q0 -65 -24.5 -132t-71 -126t-125.5 -96.5t-178 -37.5q-108 0 -180 59l-83 -91l-23 31l78 86q-70 77 -70 203q0 72 29 143.5t79.5 129.5t128.5 94.5t168 36.5q102 0 173 -61zM220 146l365 409q-29 80 -108 80 q-69 0 -131.5 -62.5t-98.5 -157t-36 -187.5q0 -48 8 -80zM594 507l-365 -407q14 -36 43 -56.5t68 -20.5q73 0 135 66t94.5 159.5t32.5 184.5q0 41 -5 73z" />
<glyph unicode="&#xd9;" horiz-adv-x="772" d="M211 596l-77 36l12 27q17 0 58 -0.5t59 -0.5q21 0 68.5 0.5t70.5 0.5l-11 -28l-51 -40q0 -1 -18 -63l-37 -124l-36 -131q-18 -68 -22 -94q-4 -25 -4 -44q0 -33 13 -49q21 -26 63 -26q59 0 116 31.5t84 66.5l129 440l-50 34l14 27q39 -1 129 -1q87 0 128 1l-13 -28 l-78 -35q-13 -37 -78 -277.5t-66 -256.5l92 -20l-13 -29q-214 -26 -234 -30l-5 4l34 109h-2q-130 -113 -253 -113q-67 0 -108 28q-46 31 -46 104q0 40 14 92q21 75 69.5 231.5t48.5 157.5zM600 733l-21 -28l-210 65v13q11 28 29 50.5t36 26.5z" />
<glyph unicode="&#xda;" horiz-adv-x="772" d="M211 596l-77 36l12 27q17 0 58 -0.5t59 -0.5q21 0 68.5 0.5t70.5 0.5l-11 -28l-51 -40q0 -1 -18 -63l-37 -124l-36 -131q-18 -68 -22 -94q-4 -25 -4 -44q0 -33 13 -49q21 -26 63 -26q59 0 116 31.5t84 66.5l129 440l-50 34l14 27q39 -1 129 -1q87 0 128 1l-13 -28 l-78 -35q-13 -37 -78 -277.5t-66 -256.5l92 -20l-13 -29q-214 -26 -234 -30l-5 4l34 109h-2q-130 -113 -253 -113q-67 0 -108 28q-46 31 -46 104q0 40 14 92q21 75 69.5 231.5t48.5 157.5zM480 705l-19 28l165 127q18 -2 40 -22t36 -48v-14z" />
<glyph unicode="&#xdb;" horiz-adv-x="772" d="M211 596l-77 36l12 27q17 0 58 -0.5t59 -0.5q21 0 68.5 0.5t70.5 0.5l-11 -28l-51 -40q0 -1 -18 -63l-37 -124l-36 -131q-18 -68 -22 -94q-4 -25 -4 -44q0 -33 13 -49q21 -26 63 -26q59 0 116 31.5t84 66.5l129 440l-50 34l14 27q39 -1 129 -1q87 0 128 1l-13 -28 l-78 -35q-13 -37 -78 -277.5t-66 -256.5l92 -20l-13 -29q-214 -26 -234 -30l-5 4l34 109h-2q-130 -113 -253 -113q-67 0 -108 28q-46 31 -46 104q0 40 14 92q21 75 69.5 231.5t48.5 157.5zM537 849h32l113 -118l-23 -26l-121 58l-150 -58l-20 26z" />
<glyph unicode="&#xdc;" horiz-adv-x="772" d="M211 596l-77 36l12 27q17 0 58 -0.5t59 -0.5q21 0 68.5 0.5t70.5 0.5l-11 -28l-51 -40q0 -1 -18 -63l-37 -124l-36 -131q-18 -68 -22 -94q-4 -25 -4 -44q0 -33 13 -49q21 -26 63 -26q59 0 116 31.5t84 66.5l129 440l-50 34l14 27q39 -1 129 -1q87 0 128 1l-13 -28 l-78 -35q-13 -37 -78 -277.5t-66 -256.5l92 -20l-13 -29q-214 -26 -234 -30l-5 4l34 109h-2q-130 -113 -253 -113q-67 0 -108 28q-46 31 -46 104q0 40 14 92q21 75 69.5 231.5t48.5 157.5zM440 864h5q10 -8 24.5 -34t18.5 -42l-1 -7q-7 -15 -35 -40t-43 -30h-6 q-13 10 -28 34t-20 45v4q40 50 85 70zM656 864h7q10 -8 24.5 -34t18.5 -42l-2 -7q-7 -15 -35 -40t-42 -30h-6q-13 10 -28.5 34t-20.5 45v4q37 48 84 70z" />
<glyph unicode="&#xdd;" horiz-adv-x="608" d="M95 631l13 28q20 0 62 -0.5t64 -0.5q19 0 58.5 0.5t57.5 0.5l-11 -29l-34 -25q2 -12 11 -41l28 -88l35 -118l3 -1q110 137 183 246l-39 28l14 28q10 0 34.5 -0.5t36.5 -0.5q20 0 61.5 0.5t62.5 0.5l-13 -28l-83 -34q-77 -78 -227 -272q-13 -17 -20 -42q-55 -210 -55 -222 l104 -34l-11 -28q-28 0 -86 0.5t-87 0.5t-87 -0.5t-88 -0.5l12 28l97 33q20 43 70 223q4 11 4 23q0 7 -2 15q-7 26 -88 263q-4 11 -17 18.5t-63 28.5zM400 705l-19 28l165 127q18 -2 40 -22t36 -48v-14z" />
<glyph unicode="&#xde;" horiz-adv-x="603" d="M-8 27l79 34q4 6 87 306l64 231l-70 33l10 28q22 0 65.5 -1t64.5 -1q25 0 73.5 1t72.5 1l-11 -28l-78 -34l-20 -71q18 2 54 4h10q94 0 151 -37q61 -39 61 -129q0 -86 -71 -145.5t-175 -59.5q-37 0 -63 8l-4 30q82 2 127.5 48t45.5 126q0 54 -30.5 85t-84.5 31 q-21 0 -31 -2l-33 -127q-47 -184 -72 -296l86 -34l-13 -29q-25 0 -73 0.5t-72 0.5q-26 0 -78.5 -0.5t-79.5 -0.5z" />
<glyph unicode="&#xdf;" horiz-adv-x="579" d="M62 435h70q21 66 52 114t83 85q80 56 171 56q73 0 116 -34t43 -101q0 -10 -4 -20q-65 -37 -101.5 -85t-36.5 -90q0 -33 38 -99q41 -70 41 -112q-1 -58 -54 -110t-147 -52q-32 0 -65.5 11t-50.5 31q24 54 60 92l18 5q12 -39 23 -95q12 -4 22 -4q30 0 56 19.5t26 44.5 q0 28 -40 92q-41 66 -42 122q0 34 23.5 71.5t46 59t64.5 57.5q9 8 14 12q7 23 7 40v5q0 51 -19 76q-20 25 -52 25q-112 0 -177 -284l-23 -107q-20 -89 -35 -150q-28 -114 -61 -175.5t-88 -104.5q-74 -57 -137 -57q-69 0 -91 40l52 80l8 1q17 -24 44.5 -43.5t45.5 -19.5 q19 0 32.5 20.5t27.5 80.5l30 128l32 152l36 173l-76 16z" />
<glyph unicode="&#xe0;" horiz-adv-x="568" d="M416 448l130 12l5 -8l-44 -60q-46 -132 -89 -325l2 -1q57 17 117 94l7 -7q-2 -63 -64.5 -114.5t-153.5 -51.5q-22 0 -36 4q15 60 53 193h-3q-140 -197 -252 -197q-36 0 -56 27.5t-20 74.5q0 73 42 156t122 142q77 59 162 59q43 0 70 -23zM160 62q12 0 29.5 10t51 45.5 t71.5 92.5q49 75 78 179q-13 9 -33 9q-52 0 -108 -60q-47 -51 -77 -121t-30 -119q0 -36 18 -36zM406 514l-31 -19l-133 173l3 11q17 8 49 13q23 3 41 3q9 0 16 -1z" />
<glyph unicode="&#xe1;" horiz-adv-x="568" d="M416 448l130 12l5 -8l-44 -60q-46 -132 -89 -325l2 -1q57 17 117 94l7 -7q-2 -63 -64.5 -114.5t-153.5 -51.5q-22 0 -36 4q15 60 53 193h-3q-140 -197 -252 -197q-36 0 -56 27.5t-20 74.5q0 73 42 156t122 142q77 59 162 59q43 0 70 -23zM160 62q12 0 29.5 10t51 45.5 t71.5 92.5q49 75 78 179q-13 9 -33 9q-52 0 -108 -60q-47 -51 -77 -121t-30 -119q0 -36 18 -36zM340 495l-21 26l111 150q6 2 16 2q14 0 34 -4q35 -6 52 -15v-14z" />
<glyph unicode="&#xe2;" horiz-adv-x="568" d="M416 448l130 12l5 -8l-44 -60q-46 -132 -89 -325l2 -1q57 17 117 94l7 -7q-2 -63 -64.5 -114.5t-153.5 -51.5q-22 0 -36 4q15 60 53 193h-3q-140 -197 -252 -197q-36 0 -56 27.5t-20 74.5q0 73 42 156t122 142q77 59 162 59q43 0 70 -23zM160 62q12 0 29.5 10t51 45.5 t71.5 92.5q49 75 78 179q-13 9 -33 9q-52 0 -108 -60q-47 -51 -77 -121t-30 -119q0 -36 18 -36zM377 683l37 13l63 -181l-29 -20l-69 95l-123 -95l-19 25z" />
<glyph unicode="&#xe3;" horiz-adv-x="568" d="M416 448l130 12l5 -8l-44 -60q-46 -132 -89 -325l2 -1q57 17 117 94l7 -7q-2 -63 -64.5 -114.5t-153.5 -51.5q-22 0 -36 4q15 60 53 193h-3q-140 -197 -252 -197q-36 0 -56 27.5t-20 74.5q0 73 42 156t122 142q77 59 162 59q43 0 70 -23zM160 62q12 0 29.5 10t51 45.5 t71.5 92.5q49 75 78 179q-13 9 -33 9q-52 0 -108 -60q-47 -51 -77 -121t-30 -119q0 -36 18 -36zM530 634l23 -21q-64 -91 -115 -91q-16 0 -66 24q-39 18 -52 18q-26 0 -73 -43l-23 25q64 87 117 87q16 0 56 -20q42 -22 58 -22q35 0 75 43z" />
<glyph unicode="&#xe4;" horiz-adv-x="568" d="M416 448l130 12l5 -8l-44 -60q-46 -132 -89 -325l2 -1q57 17 117 94l7 -7q-2 -63 -64.5 -114.5t-153.5 -51.5q-22 0 -36 4q15 60 53 193h-3q-140 -197 -252 -197q-36 0 -56 27.5t-20 74.5q0 73 42 156t122 142q77 59 162 59q43 0 70 -23zM160 62q12 0 29.5 10t51 45.5 t71.5 92.5q49 75 78 179q-13 9 -33 9q-52 0 -108 -60q-47 -51 -77 -121t-30 -119q0 -36 18 -36zM302 660h6q10 -7 23.5 -31.5t16.5 -39.5l-1 -7q-7 -14 -33 -37.5t-40 -28.5h-6q-34 32 -45 75l1 3q36 48 78 66zM498 660h6q9 -8 23 -32.5t17 -38.5l-1 -7q-7 -14 -33.5 -37.5 t-39.5 -28.5h-6q-12 11 -26 33t-19 42v3q37 49 79 66z" />
<glyph unicode="&#xe5;" horiz-adv-x="568" d="M416 448l130 12l5 -8l-44 -60q-46 -132 -89 -325l2 -1q57 17 117 94l7 -7q-2 -63 -64.5 -114.5t-153.5 -51.5q-22 0 -36 4q15 60 53 193h-3q-140 -197 -252 -197q-36 0 -56 27.5t-20 74.5q0 73 42 156t122 142q77 59 162 59q43 0 70 -23zM160 62q12 0 29.5 10t51 45.5 t71.5 92.5q49 75 78 179q-13 9 -33 9q-52 0 -108 -60q-47 -51 -77 -121t-30 -119q0 -36 18 -36zM375 535q20 0 36 13.5t21 39.5q2 8 2 15q0 15 -8 24q-11 13 -32 13q-45 0 -55 -52q-2 -9 -2 -17q0 -14 7 -23q10 -13 31 -13zM401 676q37 0 61 -24q17 -19 17 -46q0 -10 -2 -20 q-9 -41 -40 -64.5t-68 -23.5q-39 0 -63 24q-17 17 -17 44q0 10 2 20q8 42 40 66t70 24z" />
<glyph unicode="&#xe6;" horiz-adv-x="740" d="M138 83q0 -32 24 -32q11 0 34 13t61 54.5t70 101.5q18 41 28 62t33.5 52t55.5 57l-1 3h-10q-91 0 -172 -73q-46 -41 -84.5 -114.5t-38.5 -123.5zM700 148l4 -36q-39 -58 -99 -91.5t-132 -33.5q-66 0 -109 35t-44 99v16h-3q-46 -65 -104 -107.5t-115 -42.5q-40 0 -62.5 27 t-22.5 74q0 71 50.5 155.5t148.5 138.5q63 34 128 44q35 5 76 5q36 0 76 -4q60 29 118 29q62 0 93.5 -29t32.5 -72q0 -33 -15 -59q-12 -19 -33 -32q-22 -12 -91 -34t-145 -35q-7 -28 -7 -54v-6q4 -87 82 -87q43 0 94 33.5t76 66.5h3zM595 418q-33 0 -73 -52.5t-63 -131.5 q47 7 100 27q28 11 47 39q18 33 18 68v7q-1 43 -29 43z" />
<glyph unicode="&#xe7;" horiz-adv-x="429" d="M105 -86l67 72v1q-73 1 -109 47t-36 116q0 128 104 223q91 83 205 83q37 0 64 -9.5t36 -20.5q-2 -15 -22 -60.5t-32 -60.5l-18 -5q-18 35 -34 113q-3 2 -12 2q-39 0 -85 -50q-72 -81 -72 -203q0 -52 20 -79.5t57 -27.5q74 0 151 87h2l7 -36q-73 -101 -180 -114l-38 -42 q46 -28 46 -68q0 -46 -46 -75.5t-99 -34.5l-9 27q82 27 82 65q0 26 -49 47v3z" />
<glyph unicode="&#xe8;" horiz-adv-x="453" d="M409 145l4 -38q-40 -56 -100 -88t-127 -32q-70 0 -114 37q-45 39 -45 126q0 46 19 96q20 54 56 101t93.5 78t123.5 31q61 0 94.5 -31t35.5 -79q0 -48 -33 -70q-22 -24 -98.5 -49t-151.5 -38q-6 -25 -6 -48v-6q0 -35 16.5 -58.5t55.5 -23.5q46 0 94 28t80 65zM305 417 q-31 0 -71 -53.5t-61 -134.5q113 25 139 66q20 31 20 77q0 45 -27 45zM360 514l-31 -19l-134 173l3 11q17 8 50 13q22 3 40 3q9 0 16 -1z" />
<glyph unicode="&#xe9;" horiz-adv-x="453" d="M409 145l4 -38q-40 -56 -100 -88t-127 -32q-70 0 -114 37q-45 39 -45 126q0 46 19 96q20 54 56 101t93.5 78t123.5 31q61 0 94.5 -31t35.5 -79q0 -48 -33 -70q-22 -24 -98.5 -49t-151.5 -38q-6 -25 -6 -48v-6q0 -35 16.5 -58.5t55.5 -23.5q46 0 94 28t80 65zM305 417 q-31 0 -71 -53.5t-61 -134.5q113 25 139 66q20 31 20 77q0 45 -27 45zM288 495l-21 25l111 151q6 2 16 2q14 0 34 -4q35 -6 52 -15v-14z" />
<glyph unicode="&#xea;" horiz-adv-x="453" d="M409 145l4 -38q-40 -56 -100 -88t-127 -32q-70 0 -114 37q-45 39 -45 126q0 46 19 96q20 54 56 101t93.5 78t123.5 31q61 0 94.5 -31t35.5 -79q0 -48 -33 -70q-22 -24 -98.5 -49t-151.5 -38q-6 -25 -6 -48v-6q0 -35 16.5 -58.5t55.5 -23.5q46 0 94 28t80 65zM305 417 q-31 0 -71 -53.5t-61 -134.5q113 25 139 66q20 31 20 77q0 45 -27 45zM349 683l37 13l63 -181l-29 -20l-69 95l-123 -95l-19 25z" />
<glyph unicode="&#xeb;" horiz-adv-x="453" d="M409 145l4 -38q-40 -56 -100 -88t-127 -32q-70 0 -114 37q-45 39 -45 126q0 46 19 96q20 54 56 101t93.5 78t123.5 31q61 0 94.5 -31t35.5 -79q0 -48 -33 -70q-22 -24 -98.5 -49t-151.5 -38q-6 -25 -6 -48v-6q0 -35 16.5 -58.5t55.5 -23.5q46 0 94 28t80 65zM305 417 q-31 0 -71 -53.5t-61 -134.5q113 25 139 66q20 31 20 77q0 45 -27 45zM265 660h6q9 -7 22.5 -31.5t17.5 -39.5l-2 -7q-6 -14 -32 -37t-40 -29h-6q-13 11 -27 33t-18 42v3q38 48 79 66zM460 660h7q9 -7 22.5 -31.5t17.5 -39.5l-2 -7q-7 -14 -33 -37.5t-40 -28.5h-5 q-12 10 -26 32.5t-20 42.5l1 3q35 47 78 66z" />
<glyph unicode="&#xec;" horiz-adv-x="328" d="M272 514l-31 -18l-133 172l3 11q17 8 49 13q23 3 41 3q9 0 16 -1zM135 369l-67 12l9 25q27 13 101 31.5t102 19.5l3 -3q-107 -337 -121 -408l1 -1q44 8 127 102l4 -19q-3 -19 -15 -41t-33.5 -45.5t-58 -39t-81.5 -15.5q-39 0 -56 27q-8 14 -8 35q0 23 9 53q48 159 84 267 z" />
<glyph unicode="&#xed;" horiz-adv-x="328" d="M135 369l-67 12l9 25q27 13 101 31.5t102 19.5l3 -3q-107 -337 -121 -408l1 -1q44 8 127 102l4 -19q-3 -19 -15 -41t-33.5 -45.5t-58 -39t-81.5 -15.5q-39 0 -56 27q-8 14 -8 35q0 23 9 53q48 159 84 267zM199 495l-20 26l110 150q6 2 16 2q14 0 35 -4q35 -6 52 -15v-14z " />
<glyph unicode="&#xee;" horiz-adv-x="328" d="M135 369l-67 12l9 25q27 13 101 31.5t102 19.5l3 -3q-107 -337 -121 -408l1 -1q44 8 127 102l4 -19q-3 -19 -15 -41t-33.5 -45.5t-58 -39t-81.5 -15.5q-39 0 -56 27q-8 14 -8 35q0 23 9 53q48 159 84 267zM255 683l37 13l63 -181l-29 -20l-69 95l-123 -95l-19 25z" />
<glyph unicode="&#xef;" horiz-adv-x="328" d="M135 369l-67 12l9 25q27 13 101 31.5t102 19.5l3 -3q-107 -337 -121 -408l1 -1q44 8 127 102l4 -19q-3 -19 -15 -41t-33.5 -45.5t-58 -39t-81.5 -15.5q-39 0 -56 27q-8 14 -8 35q0 23 9 53q48 159 84 267zM167 660h7q9 -7 22.5 -32t16.5 -39l-1 -7q-6 -14 -32 -37 t-40 -29h-6q-12 11 -26.5 33.5t-19.5 42.5l1 2q38 49 78 66zM363 660h6q9 -8 23 -32.5t17 -38.5l-1 -7q-7 -14 -33.5 -37.5t-39.5 -28.5h-6q-12 10 -26 33t-19 43l1 2q35 47 78 66z" />
<glyph unicode="&#xf0;" horiz-adv-x="495" d="M175 524l134 56q-34 53 -99 82l23 28q86 -24 145 -83l113 47l25 -34l-110 -46q72 -93 72 -225q0 -162 -94 -270q-39 -45 -91 -68.5t-102 -23.5q-77 0 -120 46.5t-44 124.5v5q0 113 84 200q87 93 195 93q34 0 52 -14q-1 50 -26 105l-131 -54zM313 417q-29 0 -61 -38 q-43 -51 -69.5 -127t-26.5 -146q0 -41 11.5 -61t30.5 -20q35 0 74 55q30 43 55.5 120.5t25.5 160.5q0 27 -9 40q-12 16 -31 16z" />
<glyph unicode="&#xf1;" horiz-adv-x="574" d="M145 0l-126 -8q21 55 65.5 209.5t43.5 171.5l-74 9l8 25q24 10 103.5 29t102.5 21l3 -3q-7 -35 -70 -229h2q104 159 197 206q52 26 110 26q29 0 34 -9q1 -2 1 -7q0 -13 -9 -42q-82 -277 -89 -320l93 3l-14 -34q-22 -7 -75 -22l-96 -26q-43 -13 -56 -19l-10 11 q3 14 56 178.5t60 189.5q5 17 -3 17q-30 0 -77 -52.5t-92 -126.5q-45 -71 -88 -198zM510 634l23 -21q-64 -91 -115 -91q-15 0 -65 24q-41 18 -53 18q-27 0 -72 -43l-24 25q65 87 117 87q15 0 57 -20q42 -22 57 -22q35 0 75 43z" />
<glyph unicode="&#xf2;" horiz-adv-x="511" d="M315 456q74 0 119.5 -49t45.5 -134q0 -115 -80.5 -200.5t-201.5 -85.5q-72 0 -119 47.5t-48 127.5q0 121 85 207.5t199 86.5zM305 418q-32 0 -65.5 -49t-55 -120.5t-21.5 -134.5q0 -89 46 -89q33 0 66 49.5t53 121.5t20 137q0 85 -43 85zM380 514l-31 -19l-134 173l3 11 q17 8 50 13q22 3 40 3q9 0 16 -1z" />
<glyph unicode="&#xf3;" horiz-adv-x="511" d="M315 456q74 0 119.5 -49t45.5 -134q0 -115 -80.5 -200.5t-201.5 -85.5q-72 0 -119 47.5t-48 127.5q0 121 85 207.5t199 86.5zM305 418q-32 0 -65.5 -49t-55 -120.5t-21.5 -134.5q0 -89 46 -89q33 0 66 49.5t53 121.5t20 137q0 85 -43 85zM299 495l-20 25l111 151 q6 2 16 2q14 0 34 -4q35 -6 52 -15v-14z" />
<glyph unicode="&#xf4;" horiz-adv-x="511" d="M315 456q74 0 119.5 -49t45.5 -134q0 -115 -80.5 -200.5t-201.5 -85.5q-72 0 -119 47.5t-48 127.5q0 121 85 207.5t199 86.5zM305 418q-32 0 -65.5 -49t-55 -120.5t-21.5 -134.5q0 -89 46 -89q33 0 66 49.5t53 121.5t20 137q0 85 -43 85zM355 683l37 13l63 -181l-29 -20 l-69 95l-123 -95l-19 25z" />
<glyph unicode="&#xf5;" horiz-adv-x="511" d="M315 456q74 0 119.5 -49t45.5 -134q0 -115 -80.5 -200.5t-201.5 -85.5q-72 0 -119 47.5t-48 127.5q0 121 85 207.5t199 86.5zM305 418q-32 0 -65.5 -49t-55 -120.5t-21.5 -134.5q0 -89 46 -89q33 0 66 49.5t53 121.5t20 137q0 85 -43 85zM490 634l22 -21 q-63 -91 -114 -91q-16 0 -66 24q-39 18 -52 18q-26 0 -73 -43l-24 25q65 87 117 87q15 0 57 -20q42 -22 57 -22q34 0 76 43z" />
<glyph unicode="&#xf6;" horiz-adv-x="511" d="M315 456q74 0 119.5 -49t45.5 -134q0 -115 -80.5 -200.5t-201.5 -85.5q-72 0 -119 47.5t-48 127.5q0 121 85 207.5t199 86.5zM305 418q-32 0 -65.5 -49t-55 -120.5t-21.5 -134.5q0 -89 46 -89q33 0 66 49.5t53 121.5t20 137q0 85 -43 85zM275 660h6q9 -7 22.5 -31.5 t17.5 -39.5l-2 -7q-6 -14 -32 -37t-40 -29h-6q-12 11 -26.5 33t-19.5 42l1 3q38 48 79 66zM470 660h7q9 -7 22.5 -31.5t17.5 -39.5l-2 -7q-7 -14 -33 -37.5t-40 -28.5h-5q-12 10 -26 32.5t-20 42.5l1 3q35 47 78 66z" />
<glyph unicode="&#xf7;" horiz-adv-x="638" d="M94 267h463l-12 -67h-464zM317 146l9 1q12 -5 31 -26.5t26 -38.5l-2 -9q-8 -15 -28 -36t-33 -28l-9 -3q-36 19 -57 65l1 10q33 44 62 65zM321 458l7 1q11 -5 30.5 -26t26.5 -38l-1 -8q-8 -15 -28.5 -36.5t-32.5 -28.5l-10 -3q-16 9 -33 28t-24 36l2 10q28 41 63 65z" />
<glyph unicode="&#xf8;" horiz-adv-x="509" d="M405 434l44 56l22 -26l-41 -50q51 -49 51 -138q0 -117 -80 -203t-202 -86q-53 0 -93 27l-48 -60l-22 30l43 53q-48 48 -48 125q0 121 83 207.5t199 86.5q56 0 92 -22zM156 121l195 255q-8 43 -44 43q-51 0 -102 -96t-50 -200zM356 325l-194 -252q8 -49 45 -49 q53 0 100 94.5t51 204.5z" />
<glyph unicode="&#xf9;" horiz-adv-x="594" d="M132 370l-75 15l8 21q31 12 104.5 29t108.5 22l8 -1q-18 -43 -63 -185.5t-56 -188.5q-5 -17 7 -17q33 0 85.5 56t95.5 132q41 75 76 186q92 13 141 17l3 -5l-41 -57q-23 -57 -91 -329l2 -1q57 14 110 79l6 -20q-10 -50 -62 -93t-142 -43q-32 0 -49 7l64 210h-5 q-103 -154 -187 -194q-46 -23 -94 -23q-30 0 -44 15q-8 9 -8 26q0 15 6 38zM404 514l-31 -18l-133 172l2 11q17 8 50 13q22 3 40 3q9 0 16 -1z" />
<glyph unicode="&#xfa;" horiz-adv-x="594" d="M132 370l-75 15l8 21q31 12 104.5 29t108.5 22l8 -1q-18 -43 -63 -185.5t-56 -188.5q-5 -17 7 -17q33 0 85.5 56t95.5 132q41 75 76 186q92 13 141 17l3 -5l-41 -57q-23 -57 -91 -329l2 -1q57 14 110 79l6 -20q-10 -50 -62 -93t-142 -43q-32 0 -49 7l64 210h-5 q-103 -154 -187 -194q-46 -23 -94 -23q-30 0 -44 15q-8 9 -8 26q0 15 6 38zM343 495l-20 26l110 150q6 2 16 2q14 0 35 -4q34 -6 51 -15v-14z" />
<glyph unicode="&#xfb;" horiz-adv-x="594" d="M132 370l-75 15l8 21q31 12 104.5 29t108.5 22l8 -1q-18 -43 -63 -185.5t-56 -188.5q-5 -17 7 -17q33 0 85.5 56t95.5 132q41 75 76 186q90 13 141 18l3 -6l-41 -57q-23 -57 -91 -329l2 -1q57 14 110 79l6 -20q-10 -50 -62 -93t-142 -43q-32 0 -49 7l64 210h-5 q-103 -154 -187 -194q-46 -23 -94 -23q-30 0 -44 15q-8 9 -8 26q0 15 6 38zM388 683l38 13l62 -181l-29 -20l-68 95l-123 -95l-19 25z" />
<glyph unicode="&#xfc;" horiz-adv-x="594" d="M132 370l-75 15l8 21q31 12 104.5 29t108.5 22l8 -1q-18 -43 -63 -185.5t-56 -188.5q-5 -17 7 -17q33 0 85.5 56t95.5 132q41 75 76 186q90 13 141 18l3 -6l-41 -57q-23 -57 -91 -329l2 -1q57 14 110 79l6 -20q-10 -50 -62 -93t-142 -43q-32 0 -49 7l64 210h-5 q-103 -154 -187 -194q-46 -23 -94 -23q-30 0 -44 15q-8 9 -8 26q0 15 6 38zM295 660h6q10 -7 23.5 -31.5t16.5 -39.5l-1 -7q-6 -14 -32 -37t-40 -29h-6q-12 11 -26.5 33.5t-19.5 42.5l1 2q38 49 78 66zM491 660h6q9 -8 23 -32.5t17 -38.5l-1 -7q-7 -14 -33.5 -37.5 t-39.5 -28.5h-6q-12 10 -26 33t-19 43l1 2q36 49 78 66z" />
<glyph unicode="&#xfd;" horiz-adv-x="470" d="M52 279l-23 24q33 75 78.5 114t85.5 40q52 -2 77 -117q19 -95 21 -237h2q25 39 60.5 136.5t36.5 133.5l-30 41l1 12q50 28 100 30q7 0 11.5 -2.5t3.5 -6.5q-14 -78 -64 -199q-74 -172 -196 -318q-43 -52 -85 -90t-66 -52.5t-34 -14.5q-8 0 -19 9.5t-25 34.5t-21 60l4 13 q45 0 114 -32q24 12 56 55q26 37 35 70t9 82q0 64 -13 144t-30 127q-7 21 -16 21q-7 0 -28 -22t-45 -56zM289 495l-20 26l110 150q6 2 16 2q14 0 35 -4q34 -6 51 -15v-14z" />
<glyph unicode="&#xfe;" horiz-adv-x="554" d="M122 632l11 27q27 10 102.5 20.5t102.5 10.5l1 -1q-92 -272 -129 -403h2q120 171 234 171q43 0 67 -33t24 -85q0 -131 -91.5 -241.5t-206.5 -110.5q-59 0 -93 40q-19 -67 -45 -174l93 -24l-8 -30q-2 0 -128 -5.5t-164 -5.5l11 30l64 30q8 18 33 105l56 203q32 117 50 176 q15 50 43 152l38 136zM377 388q-52 0 -128 -110q-57 -84 -91 -203q28 -43 64 -43q47 0 90.5 57.5t66.5 128t23 120.5t-25 50z" />
<glyph unicode="&#xff;" horiz-adv-x="470" d="M52 279l-23 24q33 75 78.5 114t85.5 40q52 -2 77 -117q19 -95 21 -237h2q25 39 60.5 136.5t36.5 133.5l-30 41l1 12q50 28 100 30q7 0 11 -2q4 -3 4 -6q0 -15 -19 -75.5t-45 -124.5q-74 -172 -196 -318q-43 -52 -85 -90t-66 -52.5t-34 -14.5q-8 0 -19 9.5t-25 34.5 t-21 60l4 13q45 0 114 -32q24 12 56 55q26 37 35 70t9 82q0 64 -13 144t-30 127q-7 21 -16 21q-7 0 -28 -22t-45 -56zM224 660h7q9 -7 22.5 -32t16.5 -39l-1 -7q-7 -14 -32.5 -37.5t-39.5 -28.5h-6q-12 11 -26.5 33.5t-18.5 41.5v3q38 49 78 66zM419 660h7q9 -7 22.5 -31.5 t17.5 -39.5l-1 -7q-7 -14 -33.5 -37.5t-39.5 -28.5h-6q-12 10 -26 32.5t-19 42.5v3q36 48 78 66z" />
<glyph unicode="&#x152;" horiz-adv-x="1038" d="M508 51l146 552q-36 20 -115 20q-149 0 -237.5 -102t-88.5 -246q0 -105 56 -173t166 -68q39 0 73 17zM750 658h208q50 10 100 10l3 -5q-3 -18 -19 -77t-27 -88l-16 -8q-22 49 -44 124l-171 -7l-62 -239q158 2 241 11l5 -14q-6 -9 -35.5 -34t-35.5 -25q-5 0 -94 5.5 t-95 5.5l-66 -263l200 -10l48 46l56 52q24 22 40 35l15 -9q-36 -114 -67 -171q-101 3 -218 3h-127q-24 0 -97 -3t-83 -3q-165 0 -254 78.5t-89 207.5q0 165 121.5 274.5t342.5 109.5q50 0 132 -3t88 -3z" />
<glyph unicode="&#x153;" horiz-adv-x="749" d="M316 418q-39 0 -77 -65t-58 -139.5t-20 -117.5q0 -71 40 -71q38 0 74.5 62.5t55.5 137.5t19 125q0 68 -34 68zM321 456q89 0 127 -67h2q76 67 161 67q68 0 101 -30q34 -32 34 -82t-49 -84q-68 -43 -241 -71q-6 -29 -6 -52q2 -86 78 -86q44 0 97 31t79 62l2 -2l5 -34 q-41 -57 -100 -89t-126 -32q-88 0 -128 70h-2q-70 -70 -165 -70q-75 0 -118.5 45t-44.5 115q0 124 89 216.5t205 92.5zM601 418q-26 0 -68 -54t-67 -134q39 5 92 26q35 14 54 50q17 33 17 68q0 44 -28 44z" />
<glyph unicode="&#x178;" horiz-adv-x="608" d="M95 631l13 28q20 0 62 -0.5t64 -0.5q19 0 58.5 0.5t57.5 0.5l-11 -29l-34 -25q2 -12 11 -41l28 -88l35 -118l3 -1q110 137 183 246l-39 28l14 28q10 0 34.5 -0.5t36.5 -0.5q20 0 61.5 0.5t62.5 0.5l-13 -28l-83 -34q-77 -78 -227 -272q-13 -17 -20 -42q-55 -210 -55 -222 l104 -34l-11 -28q-28 0 -86 0.5t-87 0.5t-87 -0.5t-88 -0.5l12 28l97 33q20 43 70 223q4 11 4 23q0 7 -2 15q-7 26 -88 263q-4 11 -17 18.5t-63 28.5zM375 864h6q10 -8 24.5 -34t18.5 -42l-2 -7q-7 -15 -34.5 -40t-42.5 -30h-7q-13 11 -28 35t-20 44l1 4q41 51 84 70z M592 864h6q11 -8 25.5 -34t17.5 -42l-1 -7q-7 -14 -35.5 -39.5t-42.5 -30.5h-6q-13 10 -28 34t-21 45l1 4q37 48 84 70z" />
<glyph unicode="&#x2c6;" horiz-adv-x="386" d="M301 683l37 13l63 -180l-29 -20l-68 94l-123 -94l-19 25z" />
<glyph unicode="&#x2dc;" horiz-adv-x="386" d="M442 634l22 -21q-63 -91 -114 -91q-16 0 -66 24q-39 18 -52 18q-28 0 -73 -43l-23 25q64 87 116 87q17 0 57 -20q42 -22 57 -22q34 0 76 43z" />
<glyph unicode="&#x2000;" horiz-adv-x="441" />
<glyph unicode="&#x2001;" horiz-adv-x="882" />
<glyph unicode="&#x2002;" horiz-adv-x="441" />
<glyph unicode="&#x2003;" horiz-adv-x="882" />
<glyph unicode="&#x2004;" horiz-adv-x="294" />
<glyph unicode="&#x2005;" horiz-adv-x="220" />
<glyph unicode="&#x2006;" horiz-adv-x="147" />
<glyph unicode="&#x2007;" horiz-adv-x="147" />
<glyph unicode="&#x2008;" horiz-adv-x="110" />
<glyph unicode="&#x2009;" horiz-adv-x="176" />
<glyph unicode="&#x200a;" horiz-adv-x="49" />
<glyph unicode="&#x2010;" horiz-adv-x="370" d="M290 231l-252 -36l46 92l54 -2l204 14l3 -9z" />
<glyph unicode="&#x2011;" horiz-adv-x="370" d="M290 231l-252 -36l46 92l54 -2l204 14l3 -9z" />
<glyph unicode="&#x2013;" horiz-adv-x="618" d="M548 197h-493l27 70h493z" />
<glyph unicode="&#x2014;" horiz-adv-x="992" d="M926 197h-874l27 70h873z" />
<glyph unicode="&#x2018;" horiz-adv-x="237" d="M295 692l15 -30q-45 -21 -75.5 -57.5t-30.5 -79.5q0 -16 9 -34l40 -24l-1 -16l-84 -54h-17q-13 9 -26.5 34t-13.5 55q0 73 50 125t134 81z" />
<glyph unicode="&#x2019;" horiz-adv-x="237" d="M105 393l-18 30q46 23 77.5 59t31.5 77q0 18 -9 34l-40 25l2 16l83 54h17q14 -8 27 -31t13 -55q0 -142 -184 -209z" />
<glyph unicode="&#x201a;" horiz-adv-x="250" d="M-33 -139l-16 30q47 25 79 62.5t32 79.5q0 20 -9 38l-41 25l1 17l90 56h18q15 -9 28.5 -33t13.5 -57q0 -149 -196 -218z" />
<glyph unicode="&#x201c;" horiz-adv-x="424" d="M482 692l16 -30q-46 -23 -76.5 -59t-30.5 -78q0 -14 8 -34l41 -24l-1 -16l-84 -54h-17q-13 7 -26.5 33t-13.5 56q0 139 184 206zM296 692l17 -30q-46 -21 -77.5 -58t-31.5 -79q0 -16 9 -34l40 -24l-1 -16l-84 -54h-17q-13 9 -26.5 34t-13.5 55q0 74 50 125.5t135 80.5z " />
<glyph unicode="&#x201d;" horiz-adv-x="424" d="M105 393l-16 30q46 23 76.5 59t30.5 77q0 17 -8 33l-41 26l2 16l83 54h17q14 -8 27 -31t13 -55q0 -142 -184 -209zM291 393l-16 30q45 21 76.5 57.5t31.5 78.5q0 17 -8 33l-41 26l1 16l84 54h17q14 -9 27 -31.5t13 -54.5q0 -146 -185 -209z" />
<glyph unicode="&#x201e;" horiz-adv-x="455" d="M-33 -139l-16 30q47 25 79 62.5t32 79.5q0 19 -9 37l-41 26l1 17l90 56h18q15 -9 28.5 -33t13.5 -57q0 -149 -196 -218zM169 -139l-18 30q48 25 80.5 62.5t32.5 79.5q0 19 -9 37l-42 26l2 17l90 56h18q41 -29 41 -90q0 -149 -195 -218z" />
<glyph unicode="&#x2022;" horiz-adv-x="429" d="M255 393h14q22 -17 54.5 -73t40.5 -90l-1 -12q-16 -33 -76 -86t-93 -66h-14q-26 22 -59 73.5t-48 96.5l4 6q43 57 95 98t83 53z" />
<glyph unicode="&#x2026;" horiz-adv-x="941" d="M130 156h7q12 -10 29 -39t21 -47l-1 -7q-8 -17 -39.5 -45t-48.5 -35h-8q-14 11 -31.5 38.5t-25.5 51.5l2 3q22 30 50 51.5t45 28.5zM443 156h8q12 -10 29 -39.5t21 -46.5l-1 -7q-9 -17 -40.5 -45t-48.5 -35h-7q-15 11 -32.5 38.5t-24.5 51.5l2 3q42 58 94 80zM752 156h8 q12 -10 29 -39t21 -47l-1 -7q-9 -17 -40.5 -45t-48.5 -35h-7q-14 11 -31.5 38.5t-25.5 51.5l2 3q22 30 49.5 51.5t44.5 28.5z" />
<glyph unicode="&#x202f;" horiz-adv-x="176" />
<glyph unicode="&#x2039;" horiz-adv-x="341" d="M236 55l-30 -16q-32 62 -75 117t-74 78q44 24 110 78.5t116 114.5l25 -18q-67 -123 -120 -178q34 -91 48 -176z" />
<glyph unicode="&#x203a;" horiz-adv-x="341" d="M108 411l29 16q30 -60 73.5 -115t75.5 -80q-43 -24 -108 -79t-116 -114l-26 18q47 93 120 178q-35 87 -48 176z" />
<glyph unicode="&#x205f;" horiz-adv-x="220" />
<glyph unicode="&#x20ac;" d="M84 402l43 1q39 107 124 176t200 69q88 0 145 -46q-13 -40 -56 -109l-18 -6q-16 53 -22 113q-15 4 -31 4q-71 0 -125 -57t-79 -141l253 5l-26 -51l-238 6q-12 -39 -12 -68l226 6l-29 -52l-199 5v-23q0 -83 26 -132q29 -56 89 -56q12 0 17 1q18 11 62 41.5t72 45.5l10 -22 q-52 -72 -103 -101q-43 -17 -94 -17q-103 0 -159.5 73t-57.5 192l-70 2l15 34h56q2 40 14 73h-49z" />
<glyph unicode="&#x2122;" horiz-adv-x="507" d="M146 638h114q3 0 9.5 1.5t11.5 2t6 0.5q4 0 4 -4q0 -17 -10 -47q-1 -3 -1 -5l-1 -1q-5 0 -20 34l-32 -3v-123l30 -7l-3 -16h-110l6 16l27 7v123l-33 3q-15 -25 -21 -33q-2 -2 -7 1v52q0 2 3 2l4 -1q4 0 10 -1t13 -1zM309 623l2 15h81l3 -12q13 -33 41 -79l6 15l14 30 l17 36l1 10h82l-3 -15l-21 -7q0 -84 4 -124l25 -6l-5 -16h-93l4 16l18 4v121l-59 -140l-13 2q-25 51 -59 130q0 -15 -2 -55t-2 -55l29 -7l-4 -16h-77l4 15l21 8q4 21 7.5 65.5t4.5 52.5q-1 7 -5 8.5t-21 3.5z" />
</font>
</defs>
</svg>
